<?xml version="1.0" standalone="no"?>
<!DOCTYPE svg PUBLIC "-//W3C//DTD SVG 1.1//EN" "http://www.w3.org/Graphics/SVG/1.1/DTD/svg11.dtd" >
<svg>
<metadata>
Created by FontForge 20090622 at Thu Nov 26 13:20:47 2015
 By deploy user
Copyright (c) 2013 by Panos Haratzopoulos. All rights reserved.
</metadata>
<defs>
<font id="CFAstyStd-Medium" horiz-adv-x="663" >
  <font-face 
    font-family="CF Asty Std Medium"
    font-weight="500"
    font-stretch="normal"
    units-per-em="1000"
    panose-1="0 0 5 3 3 0 0 2 0 4"
    ascent="800"
    descent="-200"
    x-height="506"
    cap-height="700"
    bbox="-203 -313 1153 915"
    underline-thickness="20"
    underline-position="-113"
    unicode-range="U+0020-U+FB04"
  />
<missing-glyph horiz-adv-x="301" 
 />
    <glyph glyph-name="ff" unicode="ff" horiz-adv-x="673" 
d="M393 0v407h-176v-407h-117v407h-66v99h66v58q0 81 50.5 133.5t135.5 52.5t147 -45q44 55 125 55q57 0 101 -18l-11 -97q-36 14 -65 14q-73 0 -73 -88v-65h125v-99h-125v-407h-117zM292 644q-34 0 -54.5 -23.5t-20.5 -61.5v-53h176v60q0 28 2 43q-41 35 -103 35z" />
    <glyph glyph-name="fi" unicode="fi" horiz-adv-x="591" 
d="M393 0v407h-176v-407h-117v407h-66v99h66v74q0 78 43.5 129t122.5 51q40 0 77 -10l-10 -97q-23 6 -43 6q-73 0 -73 -88v-65h293v-506h-117zM525 668q0 -31 -21.5 -52.5t-51.5 -21.5q-31 0 -52.5 21.5t-21.5 52.5q0 30 21.5 51.5t52.5 21.5q30 0 51.5 -21.5t21.5 -51.5z
" />
    <glyph glyph-name="fl" unicode="fl" horiz-adv-x="601" 
d="M411 0v750h116v-750h-116zM100 0v407h-66v99h66v74q0 78 43.5 129t122.5 51q56 0 100 -18l-11 -97q-34 14 -65 14q-73 0 -73 -88v-65h125v-99h-125v-407h-117z" />
    <glyph glyph-name="ffi" unicode="ffi" horiz-adv-x="884" 
d="M686 0v407h-176v-407h-117v407h-176v-407h-117v407h-66v99h66v58q0 81 50.5 133.5t135.5 52.5t147 -45q45 55 126 55q40 0 77 -10l-10 -97q-22 6 -43 6q-73 0 -73 -88v-65h293v-506h-117zM292 644q-34 0 -54.5 -23.5t-20.5 -61.5v-53h176v60q0 33 1 43q-41 35 -102 35z
M818 668q0 -31 -21.5 -52.5t-51.5 -21.5q-31 0 -52.5 21.5t-21.5 52.5q0 30 21.5 51.5t52.5 21.5q30 0 51.5 -21.5t21.5 -51.5z" />
    <glyph glyph-name="ffl" unicode="ffl" horiz-adv-x="893" 
d="M703 0v750h116v-750h-116zM393 0v407h-176v-407h-117v407h-66v99h66v58q0 81 50.5 133.5t135.5 52.5t147 -45q44 55 125 55q57 0 101 -18l-11 -97q-36 14 -65 14q-73 0 -73 -88v-65h125v-99h-125v-407h-117zM292 644q-34 0 -54.5 -23.5t-20.5 -61.5v-53h176v60q0 28 2 43
q-41 35 -103 35z" />
    <glyph glyph-name=".notdef" horiz-adv-x="301" 
 />
    <glyph glyph-name=".null" horiz-adv-x="0" 
 />
    <glyph glyph-name="nonmarkingreturn" horiz-adv-x="333" 
 />
    <glyph glyph-name="space" unicode=" " horiz-adv-x="301" 
 />
    <glyph glyph-name="exclam" unicode="!" horiz-adv-x="312" 
d="M216 226h-121v474h121v-474zM232 72q0 -32 -22 -54.5t-54 -22.5t-54.5 22.5t-22.5 54.5t22.5 54t54.5 22t54 -22t22 -54z" />
    <glyph glyph-name="quotedbl" unicode="&#x22;" horiz-adv-x="441" 
d="M271 436v264h126v-51l-64 -213h-62zM77 436v264h126v-51l-64 -213h-62z" />
    <glyph glyph-name="numbersign" unicode="#" horiz-adv-x="599" 
d="M304 0l28 205h-109l-28 -205h-89l28 205h-90v85h102l18 130h-89v86h100l27 194h89l-27 -194h110l26 194h89l-27 -194h93v-86h-104l-18 -130h92v-85h-104l-28 -205h-89zM252 420l-17 -130h109l18 130h-110z" />
    <glyph glyph-name="dollar" unicode="$" horiz-adv-x="602" 
d="M330 773v-74q127 -8 202 -82l-73 -86q-51 51 -129 59v-185q18 -3 47 -13q177 -60 177 -185q0 -92 -64.5 -145t-159.5 -61v-91h-54v90q-149 9 -235 96l84 88q24 -27 65.5 -47.5t85.5 -24.5v192q-100 28 -157 73.5t-57 126.5q0 88 59.5 138.5t154.5 56.5v74h54zM432 198
q0 33 -24 53.5t-78 36.5v-175q45 6 73.5 26.5t28.5 58.5zM185 508q0 -32 20 -52t71 -35v169q-41 -5 -66 -26.5t-25 -55.5z" />
    <glyph glyph-name="percent" unicode="%" horiz-adv-x="809" 
d="M137 0l445 700h88l-445 -700h-88zM202 345q-67 0 -109.5 49.5t-42.5 130.5q0 80 42.5 130t109.5 50t110 -50t43 -130t-43 -130t-110 -50zM202 417q31 0 51 28t20 80t-20 80t-51 28t-51 -28t-20 -80q0 -51 20 -79.5t51 -28.5zM606 -5q-67 0 -109.5 49.5t-42.5 130.5
q0 80 42.5 130t109.5 50t110 -50t43 -130t-43 -130t-110 -50zM606 67q31 0 51 28t20 80t-20 80t-51 28t-51 -28t-20 -80q0 -51 20 -79.5t51 -28.5z" />
    <glyph glyph-name="ampersand" unicode="&#x26;" horiz-adv-x="716" 
d="M569 147l140 -147h-134l-72 75q-90 -85 -207 -85q-105 0 -171 49.5t-66 139.5q0 114 153 203q-76 89 -76 160q0 79 51.5 123.5t131.5 44.5q82 0 133.5 -43t51.5 -116q0 -58 -36.5 -101.5t-105.5 -86.5l137 -142q37 62 64 154h107q-32 -131 -101 -228zM183 190
q0 -47 33.5 -74t83.5 -27q77 0 136 57l-159 167q-45 -26 -69.5 -54t-24.5 -69zM395 545q0 35 -20.5 53.5t-53.5 18.5q-35 0 -56.5 -21t-21.5 -58q0 -47 55 -107q97 60 97 114z" />
    <glyph glyph-name="quotesingle" unicode="'" horiz-adv-x="247" 
d="M77 436v264h126v-51l-64 -213h-62z" />
    <glyph glyph-name="parenleft" unicode="(" horiz-adv-x="357" 
d="M310 -108l-92 -49q-154 220 -154 442t154 442l92 -49q-133 -195 -133 -393t133 -393z" />
    <glyph glyph-name="parenright" unicode=")" horiz-adv-x="357" 
d="M139 -157l-92 49q133 195 133 393t-133 393l92 49q154 -220 154 -442t-154 -442z" />
    <glyph glyph-name="asterisk" unicode="*" horiz-adv-x="409" 
d="M205 488l-58 -93l-66 49l71 84l-108 26l26 78l103 -43l-9 111h81l-9 -111l103 41l26 -77l-108 -25l72 -85l-66 -49z" />
    <glyph glyph-name="plus" unicode="+" horiz-adv-x="645" 
d="M591 247h-212v-213h-112v213h-213v109h213v214h112v-214h212v-109z" />
    <glyph glyph-name="comma" unicode="," horiz-adv-x="272" 
d="M53 -128l41 136q-34 22 -34 64q0 32 22.5 54t54.5 22q33 0 54 -21.5t21 -52.5q0 -26 -14 -48l-93 -154h-52z" />
    <glyph glyph-name="hyphen" unicode="-" horiz-adv-x="395" 
d="M54 243v118h287v-118h-287z" />
    <glyph glyph-name="period" unicode="." horiz-adv-x="272" 
d="M212 72q0 -32 -22 -54.5t-54 -22.5t-54.5 22.5t-22.5 54.5t22.5 54t54.5 22t54 -22t22 -54z" />
    <glyph glyph-name="slash" unicode="/" horiz-adv-x="472" 
d="M-26 -160l417 941h107l-416 -941h-108z" />
    <glyph glyph-name="zero" unicode="0" horiz-adv-x="661" 
d="M330 -10q-124 0 -197.5 101t-73.5 259q0 156 74 258t197 102q124 0 198 -101.5t74 -258.5t-74 -258.5t-198 -101.5zM330 101q70 0 108 69t38 180q0 109 -38 179t-108 70q-69 0 -107 -69.5t-38 -179.5q0 -109 38 -179t107 -70z" />
    <glyph glyph-name="one" unicode="1" horiz-adv-x="411" 
d="M186 576l-106 -55l-46 91l163 88h110v-700h-121v576z" />
    <glyph glyph-name="two" unicode="2" horiz-adv-x="571" 
d="M42 96l221 210q69 66 97 104.5t28 80.5q0 49 -29 78.5t-81 29.5q-47 0 -76 -26t-37 -72l-119 15q11 90 74 142t161 52q101 0 167 -56.5t66 -155.5q0 -69 -40.5 -125.5t-132.5 -140.5l-133 -124h309v-108h-475v96z" />
    <glyph glyph-name="three" unicode="3" horiz-adv-x="580" 
d="M532 197q0 -95 -72 -151t-181 -56q-98 0 -162.5 50.5t-82.5 135.5l121 23q21 -98 128 -98q54 0 88.5 29.5t34.5 75.5q0 51 -37 77.5t-105 26.5h-52v103h50q56 0 91.5 25.5t35.5 70.5q0 42 -28.5 66t-78.5 24q-85 0 -112 -84l-119 22q24 84 83 128.5t149 44.5
q100 0 165 -48.5t65 -137.5q0 -56 -34 -97.5t-88 -57.5q66 -16 103.5 -61.5t37.5 -110.5z" />
    <glyph glyph-name="four" unicode="4" horiz-adv-x="617" 
d="M569 153h-92v-153h-121v153h-322v101l309 446h134v-448h92v-99zM356 252v294l-205 -294h205z" />
    <glyph glyph-name="five" unicode="5" horiz-adv-x="592" 
d="M44 147l114 37q14 -39 46.5 -61.5t77.5 -22.5q57 0 91.5 38t34.5 95q0 61 -34 95t-98 34q-68 0 -144 -38l-59 38l16 338h411v-107h-306l-7 -145q51 18 109 18q104 0 170.5 -62t66.5 -174q0 -105 -70.5 -172.5t-185.5 -67.5q-88 0 -148 42t-85 115z" />
    <glyph glyph-name="six" unicode="6" horiz-adv-x="612" 
d="M307 -10q-113 0 -186 67t-73 167q0 60 17 105.5t53 103.5l168 267h142l-165 -259l1 -1q35 15 74 15q100 0 163 -64t63 -165t-72 -168.5t-185 -67.5zM444 229q0 61 -37 96.5t-100 35.5q-64 0 -100.5 -37.5t-36.5 -93.5q0 -60 37 -96t99 -36q63 0 100.5 35.5t37.5 95.5z
" />
    <glyph glyph-name="seven" unicode="7" horiz-adv-x="532" 
d="M502 595l-269 -595h-136l270 590h-343v110h478v-105z" />
    <glyph glyph-name="eight" unicode="8" horiz-adv-x="629" 
d="M314 -10q-115 0 -187.5 55.5t-72.5 151.5q0 64 32.5 108t89.5 64v2q-46 18 -73.5 56t-27.5 92q0 86 68 138.5t171 52.5q104 0 172 -52.5t68 -138.5q0 -105 -101 -148v-2q57 -22 89.5 -65.5t32.5 -106.5q0 -96 -73 -151.5t-188 -55.5zM314 406q53 0 88 26.5t35 73.5
q0 44 -33 70t-90 26q-56 0 -89 -26t-33 -70q0 -47 35 -73.5t87 -26.5zM314 98q67 0 105 28t38 79q0 48 -38.5 76.5t-104.5 28.5t-104 -28.5t-38 -76.5q0 -51 37.5 -79t104.5 -28z" />
    <glyph glyph-name="nine" unicode="9" horiz-adv-x="612" 
d="M184 0l164 259v1h-1q-37 -15 -74 -15q-99 0 -162 64t-63 165t72 168.5t185 67.5t186 -67t73 -167q0 -61 -17 -107.5t-53 -101.5l-168 -267h-142zM168 471q0 -61 37 -96.5t99 -35.5q64 0 101 37.5t37 93.5q0 60 -37 96t-100 36q-62 0 -99.5 -35.5t-37.5 -95.5z" />
    <glyph glyph-name="colon" unicode=":" horiz-adv-x="272" 
d="M212 72q0 -32 -22 -54.5t-54 -22.5t-54.5 22.5t-22.5 54.5t22.5 54t54.5 22t54 -22t22 -54zM212 440q0 -32 -22 -54.5t-54 -22.5t-54.5 22.5t-22.5 54.5t22.5 54t54.5 22t54 -22t22 -54z" />
    <glyph glyph-name="semicolon" unicode=";" horiz-adv-x="272" 
d="M212 440q0 -32 -22 -54.5t-54 -22.5t-54.5 22.5t-22.5 54.5t22.5 54t54.5 22t54 -22t22 -54zM52 -128l41 136q-34 22 -34 64q0 32 22.5 54t54.5 22q33 0 54 -21.5t21 -52.5q0 -26 -13 -48l-94 -154h-52z" />
    <glyph glyph-name="less" unicode="&#x3c;" horiz-adv-x="671" 
d="M602 28l-545 214v114l545 214v-114l-411 -157l411 -156v-115z" />
    <glyph glyph-name="equal" unicode="=" horiz-adv-x="645" 
d="M69 341v107h507v-107h-507zM69 153v107h507v-107h-507z" />
    <glyph glyph-name="greater" unicode="&#x3e;" horiz-adv-x="657" 
d="M608 242l-546 -214v115l412 156l-412 157v113l546 -213v-114z" />
    <glyph glyph-name="question" unicode="?" horiz-adv-x="530" 
d="M147 504l-113 25q16 86 77 133.5t152 47.5q92 0 158.5 -50t66.5 -141q0 -74 -62 -131l-69 -64q-24 -22 -32.5 -41.5t-8.5 -48.5v-28h-117v35q0 45 9 73t36 51l87 78q36 31 36 72q-1 41 -30.5 64.5t-74.5 23.5q-93 0 -115 -99zM337 72q0 -32 -22.5 -54.5t-54.5 -22.5
t-54 22.5t-22 54.5t22 54t54 22t54.5 -22t22.5 -54z" />
    <glyph glyph-name="at" unicode="@" horiz-adv-x="985" 
d="M599 332q0 47 -28.5 74t-70.5 27q-64 0 -105 -48.5t-41 -120.5q0 -46 23.5 -76.5t67.5 -30.5q117 2 147 122q7 25 7 53zM724 63q-55 0 -89 24t-42 67q-24 -34 -67 -56.5t-98 -22.5q-72 0 -123 50t-51 134q0 102 65.5 179.5t174.5 77.5q47 0 84 -18.5t54 -53.5l16 60h90
l-65 -262q-11 -55 -11 -60q0 -29 16 -47t51 -18q68 0 105 65.5t37 144.5q0 133 -102.5 230.5t-260.5 97.5q-160 0 -277.5 -115.5t-117.5 -281.5q0 -156 104.5 -261.5t268.5 -105.5q128 0 241 65l26 -45q-126 -75 -268 -75q-186 0 -308.5 122.5t-122.5 298.5q0 115 58 219
t163.5 169t231.5 65q182 0 302.5 -111.5t120.5 -267.5q0 -62 -21 -121t-69.5 -103t-115.5 -44z" />
    <glyph glyph-name="A" unicode="A" horiz-adv-x="763" 
d="M149 0h-128l307 703h109l305 -703h-133l-67 163h-324zM380 550l-120 -286h240l-118 286h-2z" />
    <glyph glyph-name="B" unicode="B" horiz-adv-x="680" 
d="M210 409h134q62 0 95.5 25t33.5 72q0 91 -116 91h-147v-188zM210 103h166q64 0 100 28t36 78q0 46 -38 72t-110 26h-154v-204zM486 373v-2q66 -18 107.5 -62.5t41.5 -112.5q0 -91 -69 -143.5t-186 -52.5h-291v700h277q105 0 167.5 -45t62.5 -131q0 -106 -110 -151z" />
    <glyph glyph-name="C" unicode="C" horiz-adv-x="710" 
d="M585 184l92 -70q-99 -124 -265 -124q-158 0 -258 102.5t-100 257.5q0 153 100 256.5t258 103.5q163 0 253 -106l-92 -73q-66 69 -159 69q-101 0 -167.5 -70.5t-66.5 -179.5q0 -108 66.5 -179t165.5 -71q102 0 173 84z" />
    <glyph glyph-name="D" unicode="D" horiz-adv-x="769" 
d="M715 350q0 -160 -110 -255t-282 -95h-234v700h234q172 0 282 -95t110 -255zM589 350q0 111 -74 175.5t-193 64.5h-112v-480h114q119 0 192 64t73 176z" />
    <glyph glyph-name="E" unicode="E" horiz-adv-x="640" 
d="M89 0v700h487v-110h-366v-174h328v-108h-328v-197h375v-111h-496z" />
    <glyph glyph-name="F" unicode="F" horiz-adv-x="607" 
d="M572 589h-362v-183h299v-108h-299v-298h-121v700h483v-111z" />
    <glyph glyph-name="G" unicode="G" horiz-adv-x="762" 
d="M673 613l-81 -86q-39 37 -79.5 55t-102.5 18q-98 0 -164 -71.5t-66 -178.5q0 -110 65 -180t168 -70q94 0 161 38v155h-150v104h268v-328q-135 -79 -280 -79q-162 0 -260 102t-98 258q0 153 99.5 256.5t258.5 103.5q84 0 144.5 -23.5t116.5 -73.5z" />
    <glyph glyph-name="H" unicode="H" horiz-adv-x="759" 
d="M89 0v700h121v-283h331v283h121v-700h-121v307h-331v-307h-121z" />
    <glyph glyph-name="I" unicode="I" horiz-adv-x="299" 
d="M89 0v700h121v-700h-121z" />
    <glyph glyph-name="J" unicode="J" horiz-adv-x="522" 
d="M21 138l114 35q26 -72 88 -72q96 0 96 135v464h123v-463q0 -117 -56 -182t-163 -65q-154 0 -202 148z" />
    <glyph glyph-name="K" unicode="K" horiz-adv-x="713" 
d="M210 700v-336l315 336h150l-291 -302l308 -398h-148l-241 313l-93 -97v-216h-121v700h121z" />
    <glyph glyph-name="L" unicode="L" horiz-adv-x="581" 
d="M89 0v700h120v-587h340v-113h-460z" />
    <glyph glyph-name="M" unicode="M" horiz-adv-x="874" 
d="M662 503l-220 -311h-9l-223 311h-2v-503h-119v700h122l226 -315l223 315h126v-700h-122v503h-2z" />
    <glyph glyph-name="N" unicode="N" horiz-adv-x="806" 
d="M597 213h3v487h118v-700h-103l-404 503h-2v-503h-120v700h118z" />
    <glyph glyph-name="O" unicode="O" horiz-adv-x="846" 
d="M422 -10q-158 0 -263 104t-105 256q0 153 103.5 256.5t266.5 103.5q157 0 262.5 -104t105.5 -256q0 -153 -103.5 -256.5t-266.5 -103.5zM424 101q105 0 173.5 70.5t68.5 178.5q0 107 -69.5 178t-174.5 71t-173.5 -70.5t-68.5 -178.5q0 -107 69.5 -178t174.5 -71z" />
    <glyph glyph-name="P" unicode="P" horiz-adv-x="634" 
d="M591 491q0 -104 -71 -156.5t-188 -52.5h-122v-282h-121v700h243q119 0 189 -53t70 -156zM466 491q0 105 -139 105h-117v-211h118q64 0 101 26t37 80z" />
    <glyph glyph-name="Q" unicode="Q" horiz-adv-x="862" 
d="M789 355q0 -82 -40.5 -150t-111.5 -104v-2h184v-99h-401q-156 0 -261 102.5t-105 252.5t104 252.5t264 102.5q155 0 261 -103t106 -252zM422 111q106 0 173.5 69t67.5 175q0 105 -69.5 174.5t-173.5 69.5t-172 -69t-68 -175q0 -105 69 -174.5t173 -69.5z" />
    <glyph glyph-name="R" unicode="R" 
d="M487 0l-169 282h-108v-282h-121v700h243q119 0 189 -53t70 -156q0 -151 -152 -195l182 -296h-134zM466 491q0 105 -139 105h-117v-211h118q64 0 101 26t37 80z" />
    <glyph glyph-name="S" unicode="S" horiz-adv-x="606" 
d="M555 201q0 -100 -74.5 -155.5t-180.5 -55.5q-73 0 -142 25t-115 72l84 89q29 -31 77.5 -52.5t94.5 -21.5q53 0 93 23t40 68q0 39 -31 62t-101 42q-51 14 -88.5 29t-73.5 39.5t-55 61t-19 83.5q0 95 68 147.5t174 52.5q143 0 227 -85l-73 -86q-27 27 -69.5 44.5
t-83.5 17.5q-51 0 -84.5 -22.5t-33.5 -64.5q0 -40 36 -65.5t119 -46.5q211 -56 211 -201z" />
    <glyph glyph-name="T" unicode="T" horiz-adv-x="606" 
d="M576 589h-213v-589h-121v589h-213v111h547v-111z" />
    <glyph glyph-name="U" unicode="U" horiz-adv-x="733" 
d="M654 700v-414q0 -137 -78 -216.5t-210 -79.5t-209.5 79t-77.5 216v415h121v-413q0 -87 45 -136.5t122 -49.5t122.5 50t45.5 136v413h119z" />
    <glyph glyph-name="V" unicode="V" horiz-adv-x="736" 
d="M372 165l214 535h129l-295 -704h-108l-291 704h133l216 -535h2z" />
    <glyph glyph-name="W" unicode="W" horiz-adv-x="1041" 
d="M1010 700l-214 -704h-111l-164 524h-2l-163 -524h-112l-212 704h128l146 -514h2l160 516h110l161 -520h2l145 518h124z" />
    <glyph glyph-name="X" unicode="X" horiz-adv-x="698" 
d="M657 700l-238 -339l252 -361h-144l-180 266l-181 -266h-139l251 358l-238 342h144l166 -246l167 246h140z" />
    <glyph glyph-name="Y" unicode="Y" horiz-adv-x="686" 
d="M345 410l181 290h141l-264 -410v-290h-121v290l-263 410h145l179 -290h2z" />
    <glyph glyph-name="Z" unicode="Z" horiz-adv-x="659" 
d="M605 0h-551v108l394 482h-382v110h531v-109l-390 -481h398v-110z" />
    <glyph glyph-name="bracketleft" unicode="[" horiz-adv-x="374" 
d="M89 -160v890h230v-93h-116v-704h116v-93h-230z" />
    <glyph glyph-name="backslash" unicode="\" horiz-adv-x="472" 
d="M82 781l416 -941h-107l-417 941h108z" />
    <glyph glyph-name="bracketright" unicode="]" horiz-adv-x="374" 
d="M285 730v-890h-231v93h117v704h-117v93h231z" />
    <glyph glyph-name="asciicircum" unicode="^" horiz-adv-x="487" 
d="M50 441l149 259h89l149 -259h-95l-100 182l-100 -182h-92z" />
    <glyph glyph-name="underscore" unicode="_" horiz-adv-x="569" 
d="M-1 -152v76h571v-76h-571z" />
    <glyph glyph-name="grave" unicode="`" horiz-adv-x="456" 
d="M227 748l97 -163h-84l-120 115z" />
    <glyph glyph-name="a" unicode="a" horiz-adv-x="558" 
d="M258 311q65 0 122 -13v19q0 50 -32 76.5t-84 26.5q-73 0 -146 -48l-48 81q89 63 195 63q103 0 165 -47.5t62 -149.5v-319h-112v66h-3q-59 -76 -160 -76q-77 0 -126 39t-49 118q0 78 63.5 121t152.5 43zM380 190v27q-58 14 -112 14q-48 0 -81 -21.5t-33 -61.5
q0 -37 24.5 -56.5t67.5 -19.5q50 0 92 35t42 83z" />
    <glyph glyph-name="b" unicode="b" horiz-adv-x="638" 
d="M353 -10q-103 0 -160 74h-3v-64h-116v750h116v-311h3q62 77 162 77q96 0 166.5 -70t70.5 -193t-71 -193t-168 -70zM329 92q62 0 103.5 43t41.5 118q0 73 -42.5 116.5t-102.5 43.5t-103 -43t-43 -118q0 -72 43 -116t103 -44z" />
    <glyph glyph-name="c" unicode="c" horiz-adv-x="545" 
d="M439 154l75 -70q-87 -94 -208 -94q-112 0 -185.5 75t-73.5 188t73.5 188t186.5 75q122 0 202 -87l-77 -73q-55 58 -124 58q-63 0 -103.5 -45t-40.5 -116q0 -72 41 -116.5t105 -44.5q70 0 129 62z" />
    <glyph glyph-name="d" unicode="d" horiz-adv-x="638" 
d="M286 -10q-97 0 -168 70t-71 193t70.5 193t165.5 70q103 0 163 -75h2v309h117v-750h-117v65h-2q-60 -75 -160 -75zM310 92q59 0 102 44t43 116q0 75 -42.5 118t-102.5 43q-61 0 -103.5 -43.5t-42.5 -116.5q0 -75 42 -118t104 -43z" />
    <glyph glyph-name="e" unicode="e" horiz-adv-x="576" 
d="M301 -10q-110 0 -182 72.5t-72 190.5q0 112 69 187.5t176 75.5q114 0 177 -78t63 -193q0 -22 -1 -34h-364q6 -60 42.5 -92.5t93.5 -32.5q82 0 138 64l70 -65q-79 -95 -210 -95zM166 291h248q-6 59 -37.5 95.5t-86.5 36.5q-52 0 -84.5 -35.5t-39.5 -96.5z" />
    <glyph glyph-name="f" unicode="f" horiz-adv-x="380" 
d="M100 0v407h-66v99h66v74q0 78 43.5 129t122.5 51q56 0 100 -18l-11 -97q-34 14 -65 14q-73 0 -73 -88v-65h125v-99h-125v-407h-117z" />
    <glyph glyph-name="g" unicode="g" horiz-adv-x="639" 
d="M296 -195q-124 0 -230 67l53 88q79 -52 174 -52q73 0 114.5 36t41.5 111v53h-2q-59 -81 -168 -81q-94 0 -163 68t-69 177t70 176.5t163 67.5q108 0 167 -77h2v67h117v-447q0 -124 -70.5 -189t-199.5 -65zM304 129q61 0 105 41t44 102q0 60 -44 100.5t-105 40.5
q-59 0 -99 -40t-40 -102t40 -102t99 -40z" />
    <glyph glyph-name="h" unicode="h" horiz-adv-x="593" 
d="M74 0v750h116v-307h3q53 73 151 73q80 0 130.5 -54.5t50.5 -145.5v-316h-115v289q0 58 -29 91t-78 33q-50 0 -81.5 -36.5t-31.5 -95.5v-281h-116z" />
    <glyph glyph-name="i" unicode="i" horiz-adv-x="279" 
d="M81 0v506h117v-506h-117zM213 668q0 -31 -21.5 -52.5t-51.5 -21.5q-31 0 -52.5 21.5t-21.5 52.5q0 30 21.5 51.5t52.5 21.5q30 0 51.5 -21.5t21.5 -51.5z" />
    <glyph glyph-name="j" unicode="j" horiz-adv-x="279" 
d="M44 -195q-39 0 -67 6l11 99q12 -3 36 -3t40.5 18t16.5 55v526h117v-532q0 -82 -40.5 -125.5t-113.5 -43.5zM213 668q0 -31 -21.5 -52.5t-51.5 -21.5q-31 0 -52.5 21.5t-21.5 52.5q0 30 21.5 51.5t52.5 21.5q30 0 51.5 -21.5t21.5 -51.5z" />
    <glyph glyph-name="k" unicode="k" horiz-adv-x="551" 
d="M190 750v-453l205 209h138l-201 -203l207 -303h-131l-153 223l-65 -65v-158h-116v750h116z" />
    <glyph glyph-name="l" unicode="l" horiz-adv-x="264" 
d="M74 0v750h116v-750h-116z" />
    <glyph glyph-name="m" unicode="m" horiz-adv-x="896" 
d="M74 0v506h116v-63h3q54 73 145 73q94 0 138 -81h2q55 81 162 81q83 0 135.5 -54t52.5 -145v-317h-116v291q0 60 -26 91t-74 31q-46 0 -74.5 -33.5t-28.5 -93.5v-286h-115v289q0 60 -25.5 92t-73.5 32q-45 0 -75 -36t-30 -96v-281h-116z" />
    <glyph glyph-name="n" unicode="n" horiz-adv-x="593" 
d="M74 0v506h116v-63h3q53 73 151 73q80 0 130.5 -54.5t50.5 -145.5v-316h-115v289q0 58 -29 91t-78 33q-50 0 -81.5 -36.5t-31.5 -95.5v-281h-116z" />
    <glyph glyph-name="o" unicode="o" horiz-adv-x="628" 
d="M313 -10q-115 0 -190.5 75t-75.5 188q0 112 76.5 187.5t190.5 75.5q115 0 191 -75.5t76 -187.5q0 -113 -76.5 -188t-191.5 -75zM314 92q66 0 108 46.5t42 114.5q0 67 -43 114t-108 47q-66 0 -107.5 -46.5t-41.5 -114.5q0 -67 42.5 -114t107.5 -47z" />
    <glyph glyph-name="p" unicode="p" horiz-adv-x="638" 
d="M353 -10q-103 0 -160 74h-3v-254h-116v696h116v-67h3q62 77 162 77q96 0 166.5 -70t70.5 -193t-71 -193t-168 -70zM329 92q62 0 103.5 43t41.5 118q0 73 -42.5 116.5t-102.5 43.5t-103 -43t-43 -118q0 -72 43 -116t103 -44z" />
    <glyph glyph-name="q" unicode="q" horiz-adv-x="638" 
d="M286 -10q-97 0 -168 70t-71 193t70.5 193t165.5 70q101 0 163 -76h2v66h117v-696h-117v255h-2q-60 -75 -160 -75zM310 92q59 0 102 44t43 116q0 75 -42.5 118t-102.5 43q-61 0 -103.5 -43.5t-42.5 -116.5q0 -75 42 -118t104 -43z" />
    <glyph glyph-name="r" unicode="r" horiz-adv-x="392" 
d="M193 443q49 73 154 73q9 0 25 -2l-6 -108q-20 6 -52 6q-124 0 -124 -154v-258h-116v506h116v-63h3z" />
    <glyph glyph-name="s" unicode="s" horiz-adv-x="471" 
d="M223 -10q-101 0 -191 70l65 78q66 -56 130 -56q79 0 79 52q0 14 -6.5 24.5t-24 20.5t-29.5 15t-42 16q-32 12 -52.5 22t-46 28.5t-38.5 44.5t-13 60q0 70 53 110.5t131 40.5q105 0 176 -58l-62 -74q-49 40 -110 40q-32 0 -51.5 -14.5t-19.5 -37.5q0 -14 6.5 -25.5
t22.5 -21t24.5 -13.5t31.5 -12l26 -9q66 -24 104 -58t38 -90q0 -73 -57.5 -113t-143.5 -40z" />
    <glyph glyph-name="t" unicode="t" horiz-adv-x="416" 
d="M267 -10q-68 0 -109 38t-41 124v253h-88v101h88v125h116v-125h140v-101h-140v-241q0 -72 67 -72q32 0 75 14v-97q-48 -19 -108 -19z" />
    <glyph glyph-name="u" unicode="u" horiz-adv-x="589" 
d="M515 506v-506h-116v63h-2q-53 -73 -152 -73q-80 0 -130.5 54.5t-50.5 145.5v316h116v-290q0 -58 28.5 -90.5t77.5 -32.5q50 0 81.5 36t31.5 95v282h116z" />
    <glyph glyph-name="v" unicode="v" horiz-adv-x="574" 
d="M231 -4l-209 510h124l140 -368h2l142 368h122l-210 -510h-111z" />
    <glyph glyph-name="w" unicode="w" horiz-adv-x="827" 
d="M191 -4l-165 510h118l105 -341h2l115 341h100l116 -341h3l103 341h116l-163 -510h-109l-117 348h-2l-114 -348h-108z" />
    <glyph glyph-name="x" unicode="x" horiz-adv-x="562" 
d="M405 0l-124 173h-2l-125 -173h-132l191 258l-184 248h135l116 -162h2l117 162h132l-184 -246l194 -260h-136z" />
    <glyph glyph-name="y" unicode="y" horiz-adv-x="573" 
d="M431 506h120l-216 -547q-31 -79 -74.5 -116.5t-115.5 -37.5q-55 0 -115 26l31 93q40 -16 73 -16q34 0 56.5 18t40.5 64l13 31l-220 485h125l149 -341h2z" />
    <glyph glyph-name="z" unicode="z" horiz-adv-x="512" 
d="M42 0v84l273 322h-264v100h414v-88l-272 -320h277v-98h-428z" />
    <glyph glyph-name="braceleft" unicode="{" horiz-adv-x="411" 
d="M357 -160h-87q-52 0 -85.5 35t-33.5 109v165q0 45 -32 67.5t-65 22.5v90q33 0 65 22.5t32 67.5v177q0 67 33.5 100.5t85.5 33.5h87v-90h-48q-58 0 -58 -72v-166q0 -104 -93 -117v-2q93 -8 93 -116v-166q0 -71 58 -71h48v-90z" />
    <glyph glyph-name="bar" unicode="|" horiz-adv-x="335" 
d="M109 -100v880h117v-880h-117z" />
    <glyph glyph-name="braceright" unicode="}" horiz-adv-x="411" 
d="M141 -160h-87v90h48q58 0 58 71v166q0 108 93 116v2q-93 13 -93 117v166q0 72 -58 72h-48v90h87q52 0 85.5 -33.5t33.5 -100.5v-177q0 -45 32 -67.5t65 -22.5v-90q-33 0 -65 -22.5t-32 -67.5v-165q0 -74 -33.5 -109t-85.5 -35z" />
    <glyph glyph-name="asciitilde" unicode="~" horiz-adv-x="468" 
d="M107 219l-58 61q33 93 110 93q29 0 78 -19.5t65 -19.5q40 0 60 48l57 -63q-32 -91 -108 -91q-29 0 -78.5 20t-64.5 20q-39 0 -61 -49z" />
    <glyph glyph-name="nbspace" unicode="&#xa0;" horiz-adv-x="156" 
 />
    <glyph glyph-name="exclamdown" unicode="&#xa1;" horiz-adv-x="312" 
d="M95 285h121v-474h-121v474zM79 439q0 31 22.5 53.5t54.5 22.5t54 -22t22 -54t-22 -54t-54 -22t-54.5 22.5t-22.5 53.5z" />
    <glyph glyph-name="cent" unicode="&#xa2;" horiz-adv-x="545" 
d="M283 -114v114q-102 8 -166.5 78t-64.5 175q0 103 65 173.5t166 78.5v99h53v-99q101 -10 168 -80l-75 -71q-39 42 -93 49v-302q57 7 100 55l72 -69q-73 -78 -172 -87v-114h-53zM166 253q0 -63 32 -103.5t85 -48.5v303q-53 -8 -85 -49t-32 -102z" />
    <glyph glyph-name="sterling" unicode="&#xa3;" horiz-adv-x="575" 
d="M545 637l-76 -80q-46 48 -105 48q-47 0 -72.5 -33.5t-25.5 -95.5v-71h164v-87h-164v-223h239v-95h-451v95h94v223h-94v87h94v79q0 104 53.5 165t158.5 61q107 0 185 -73z" />
    <glyph glyph-name="currency" unicode="&#xa4;" horiz-adv-x="650" 
d="M326 93q-104 0 -174 71t-70 173t70 173t174 71q106 0 176 -71t70 -173t-70 -173t-176 -71zM326 182q65 0 107 45t42 110t-43 110t-106 45q-64 0 -106 -45t-42 -110t42.5 -110t105.5 -45zM107 508l-53 51l48 48l53 -52zM547 67l-52 52l48 47l52 -51zM495 555l52 52l48 -48
l-52 -51zM54 115l53 51l48 -47l-53 -52z" />
    <glyph glyph-name="yen" unicode="&#xa5;" horiz-adv-x="697" 
d="M93 245h195v45l-28 43h-167v59h129l-198 308h149l177 -289h2l177 289h143l-198 -308h130v-59h-168l-27 -43v-45h195v-59h-195v-186h-121v186h-195v59z" />
    <glyph glyph-name="brokenbar" unicode="&#xa6;" horiz-adv-x="335" 
d="M226 426h-117v354h117v-354zM226 -99h-117v353h117v-353z" />
    <glyph glyph-name="section" unicode="&#xa7;" horiz-adv-x="554" 
d="M268 -138q-99 0 -199 78l62 72q67 -59 136 -59q45 0 71.5 17t26.5 49q0 29 -32 50t-91 43q-34 13 -56.5 24t-50.5 31.5t-42 49.5t-14 66q0 45 27 79t73 54q-39 21 -65 55t-26 78q0 77 55 119t140 42q110 0 188 -68l-63 -77q-52 51 -120 51q-38 0 -61.5 -18.5t-23.5 -49.5
q0 -11 4.5 -21.5t14.5 -19.5t18 -15.5t24.5 -14l23 -10.5t25 -10t20.5 -8q37 -15 58.5 -25.5t47.5 -30t38 -45.5t12 -61q0 -45 -29.5 -82t-74.5 -52q39 -17 67.5 -52.5t28.5 -77.5q0 -80 -59.5 -120.5t-153.5 -40.5zM181 291q0 -41 35 -62q36 -21 75 -21q40 0 68.5 21
t28.5 53q0 42 -34 61q-33 20 -75 20q-40 0 -69 -20t-29 -52z" />
    <glyph glyph-name="dieresis" unicode="&#xa8;" horiz-adv-x="456" 
d="M392 652q0 -29 -20 -50t-49 -21t-49 21.5t-20 49.5q0 27 20 47.5t48 20.5t49 -20t21 -48zM204 652q0 -29 -20.5 -50t-49.5 -21t-49 21.5t-20 49.5q0 27 20 47.5t48 20.5t49.5 -20t21.5 -48z" />
    <glyph glyph-name="copyright" unicode="&#xa9;" horiz-adv-x="827" 
d="M412 -10q-150 0 -254 105.5t-104 254.5q0 147 105 253.5t255 106.5t254 -105.5t104 -254.5q0 -147 -105 -253.5t-255 -106.5zM412 44q128 0 216.5 90t88.5 216q0 125 -87.5 215.5t-215.5 90.5t-216 -90t-88 -216q0 -125 87.5 -215.5t214.5 -90.5zM519 286l54 -48
q-62 -74 -153 -74q-87 0 -141.5 55t-54.5 138q0 82 54.5 137t141.5 55q90 0 144 -64l-56 -49q-33 41 -89 41q-49 0 -80 -33t-31 -87t31 -87.5t79 -33.5q57 0 101 50z" />
    <glyph glyph-name="ordfeminine" unicode="&#xaa;" horiz-adv-x="427" 
d="M193 567q35 0 83 -10v7q0 67 -79 67q-53 0 -102 -32l-34 62q65 43 143 43q70 0 114 -32.5t44 -101.5v-220h-86v44h-2q-40 -51 -113 -51q-53 0 -87.5 27.5t-34.5 80.5q0 54 46.5 85t107.5 31zM276 480v19q-41 9 -77 9q-31 0 -51.5 -15t-20.5 -40q0 -47 58 -47
q34 0 62.5 21t28.5 53z" />
    <glyph glyph-name="guillemotleft" unicode="&#xab;" horiz-adv-x="560" 
d="M508 89l-76 -50l-159 224l159 223l75 -50l-121 -173zM277 89l-75 -50l-160 224l159 223l76 -50l-122 -173z" />
    <glyph glyph-name="logicalnot" unicode="&#xac;" horiz-adv-x="623" 
d="M465 147v163h-411v103h514v-266h-103z" />
    <glyph glyph-name="uni00AD" unicode="&#xad;" horiz-adv-x="395" 
d="M54 243v118h287v-118h-287z" />
    <glyph glyph-name="registered" unicode="&#xae;" horiz-adv-x="827" 
d="M412 -10q-150 0 -254 105.5t-104 254.5q0 147 105 253.5t255 106.5t254 -105.5t104 -254.5q0 -147 -105 -253.5t-255 -106.5zM412 44q128 0 216.5 90t88.5 216q0 125 -87.5 215.5t-215.5 90.5t-216 -90t-88 -216q0 -125 87.5 -215.5t214.5 -90.5zM496 172l-93 144h-49
v-144h-81v376h152q64 0 104 -30t40 -85q0 -81 -84 -107l101 -154h-90zM485 433q0 46 -63 46h-68v-93h68q63 0 63 47z" />
    <glyph glyph-name="macron" unicode="&#xaf;" horiz-adv-x="456" 
d="M83 612v88h291v-88h-291z" />
    <glyph glyph-name="degree" unicode="&#xb0;" horiz-adv-x="440" 
d="M383 548q0 -69 -47.5 -115.5t-115.5 -46.5t-115.5 46.5t-47.5 115.5t47.5 115.5t115.5 46.5t115.5 -46.5t47.5 -115.5zM308 548q0 37 -25.5 63.5t-62.5 26.5t-63 -26.5t-26 -63.5t26 -63.5t63 -26.5t62.5 26.5t25.5 63.5z" />
    <glyph glyph-name="plusminus" unicode="&#xb1;" horiz-adv-x="581" 
d="M522 315h-182v-162h-97v162h-184v93h184v161h97v-161h182v-93zM522 0h-463v92h463v-92z" />
    <glyph glyph-name="twosuperior" unicode="&#xb2;" horiz-adv-x="345" 
d="M44 411l115 103q21 18 31 28t18 24.5t8 29.5q0 18 -12 28.5t-32 10.5q-38 0 -48 -45l-79 8q7 49 40.5 78t86.5 29q57 0 92 -27.5t35 -78.5q0 -32 -16 -57t-58 -61l-64 -59h140v-72h-257v61z" />
    <glyph glyph-name="threesuperior" unicode="&#xb3;" horiz-adv-x="347" 
d="M303 450q0 -47 -38 -76t-98 -29q-53 0 -87.5 26t-44.5 71l79 16q12 -43 54 -43q22 0 36.5 11.5t14.5 30.5q0 44 -58 44h-33v60h30q54 0 54 37q0 17 -12 27t-30 10q-37 0 -48 -35l-79 15q13 43 47 66.5t81 23.5q53 0 88 -23t35 -69q0 -62 -66 -78q34 -8 54.5 -30.5
t20.5 -54.5z" />
    <glyph glyph-name="acute" unicode="&#xb4;" horiz-adv-x="456" 
d="M130 585l97 163l107 -48l-120 -115h-84z" />
    <glyph glyph-name="mu" unicode="&#xb5;" horiz-adv-x="599" 
d="M191 54h-1v-244h-116v696h116v-283q0 -59 28 -95t82 -36q46 0 77.5 35.5t31.5 95.5v283h116v-506h-116v64h-2q-37 -72 -110 -72t-106 62z" />
    <glyph glyph-name="paragraph" unicode="&#xb6;" horiz-adv-x="618" 
d="M329 0v267q-122 0 -198.5 56.5t-76.5 159.5q0 100 73 158.5t191 58.5h69v-700h-58zM451 700h58v-700h-58v700z" />
    <glyph glyph-name="periodcentered" unicode="&#xb7;" horiz-adv-x="272" 
d="M212 309q0 -32 -22 -54.5t-54 -22.5t-54.5 22.5t-22.5 54.5t22.5 54t54.5 22t54 -22.5t22 -53.5z" />
    <glyph glyph-name="cedilla" unicode="&#xb8;" horiz-adv-x="456" 
d="M351 -125q0 -48 -41 -71.5t-90 -23.5q-62 0 -116 26l22 43q40 -16 78 -16q64 0 64 37q0 36 -49 36q-16 0 -41 -9l-27 24l61 89h61l-43 -60h23q41 -2 69.5 -20t28.5 -55z" />
    <glyph glyph-name="onesuperior" unicode="&#xb9;" horiz-adv-x="277" 
d="M118 625l-62 -35l-31 58l98 52h75v-350h-80v275z" />
    <glyph glyph-name="ordmasculine" unicode="&#xba;" horiz-adv-x="469" 
d="M222 345q-80 0 -135.5 50t-55.5 131t55.5 130t136.5 49t137 -49t56 -130t-56.5 -131t-137.5 -50zM223 423q45 0 72.5 30t27.5 73q0 42 -28 71t-73 29q-44 0 -71 -29.5t-27 -70.5q0 -43 27.5 -73t71.5 -30z" />
    <glyph glyph-name="guillemotright" unicode="&#xbb;" horiz-adv-x="560" 
d="M127 39l-75 50l122 174l-121 173l75 50l159 -223zM358 39l-75 50l122 174l-122 173l76 50l159 -223z" />
    <glyph glyph-name="onequarter" unicode="&#xbc;" horiz-adv-x="717" 
d="M690 67h-42v-67h-81v67h-165v69l141 214h105v-214h42v-69zM567 136v129l-86 -129h86zM122 625l-62 -35l-31 58l98 52h75v-350h-80v275zM97 -35l439 804l67 -35l-440 -804z" />
    <glyph glyph-name="onehalf" unicode="&#xbd;" horiz-adv-x="754" 
d="M452 61l115 103q21 18 31 28t18 24.5t8 29.5q0 18 -12 28.5t-32 10.5q-38 0 -48 -45l-79 8q7 49 40.5 78t86.5 29q57 0 92 -27.5t35 -78.5q0 -32 -16 -57t-58 -61l-64 -59h140v-72h-257v61zM122 625l-62 -35l-31 58l98 52h75v-350h-80v275zM97 -35l439 804l67 -35
l-440 -804z" />
    <glyph glyph-name="threequarters" unicode="&#xbe;" horiz-adv-x="763" 
d="M736 67h-42v-67h-81v67h-165v69l141 214h105v-214h42v-69zM613 136v129l-86 -129h86zM307 450q0 -47 -38 -76t-98 -29q-53 0 -87.5 26t-44.5 71l79 16q12 -43 54 -43q22 0 36.5 11.5t14.5 30.5q0 44 -58 44h-33v60h30q54 0 54 37q0 17 -12 27t-30 10q-37 0 -48 -35
l-79 15q13 43 47 66.5t81 23.5q53 0 88 -23t35 -69q0 -62 -66 -78q34 -8 54.5 -30.5t20.5 -54.5zM142 -35l439 804l67 -35l-440 -804z" />
    <glyph glyph-name="questiondown" unicode="&#xbf;" horiz-adv-x="530" 
d="M382 10l114 -25q-16 -86 -77 -134t-152 -48q-92 0 -158.5 50.5t-66.5 141.5q0 74 62 131l70 63q24 22 32 41.5t8 48.5v29h118v-36q0 -44 -9.5 -72t-36.5 -51l-87 -79q-36 -30 -36 -71q1 -41 30.5 -64.5t74.5 -23.5q94 0 114 99zM194 442q0 32 22 54t54 22t54.5 -22
t22.5 -54t-22.5 -54t-54.5 -22t-54 22t-22 54z" />
    <glyph glyph-name="Agrave" unicode="&#xc0;" horiz-adv-x="763" 
d="M149 0h-128l307 703h109l305 -703h-133l-67 163h-324zM380 550l-120 -286h240l-118 286h-2zM325 914l97 -163h-84l-120 115z" />
    <glyph glyph-name="Aacute" unicode="&#xc1;" horiz-adv-x="763" 
d="M149 0h-128l307 703h109l305 -703h-133l-67 163h-324zM380 550l-120 -286h240l-118 286h-2zM342 752l97 163l107 -48l-120 -115h-84z" />
    <glyph glyph-name="Acircumflex" unicode="&#xc2;" horiz-adv-x="763" 
d="M149 0h-128l307 703h109l305 -703h-133l-67 163h-324zM380 550l-120 -286h240l-118 286h-2zM209 753l114 148h112l115 -148h-101l-71 88l-71 -88h-98z" />
    <glyph glyph-name="Atilde" unicode="&#xc3;" horiz-adv-x="763" 
d="M149 0h-128l307 703h109l305 -703h-133l-67 163h-324zM380 550l-120 -286h240l-118 286h-2zM245 743l-58 61q34 93 109 93q30 0 79 -20t64 -20q22 0 35.5 11.5t25.5 37.5l57 -64q-34 -90 -108 -90q-30 0 -79 20t-64 20q-39 0 -61 -49z" />
    <glyph glyph-name="Adieresis" unicode="&#xc4;" horiz-adv-x="763" 
d="M149 0h-128l307 703h109l305 -703h-133l-67 163h-324zM380 550l-120 -286h240l-118 286h-2zM545 821q0 -29 -20 -50t-49 -21t-49 21.5t-20 49.5q0 27 20 47.5t48 20.5t49 -20t21 -48zM357 821q0 -29 -20.5 -50t-49.5 -21t-49 21.5t-20 49.5q0 27 20 47.5t48 20.5
t49.5 -20t21.5 -48z" />
    <glyph glyph-name="Aring" unicode="&#xc5;" horiz-adv-x="763" 
d="M149 0h-128l307 703h109l305 -703h-133l-67 163h-324zM380 550l-120 -286h240l-118 286h-2zM380 655q-48 0 -81 31.5t-33 77.5q0 45 33 77.5t81 32.5t81 -32.5t33 -78.5q0 -44 -33 -76t-81 -32zM380 704q26 0 43.5 16.5t17.5 43.5q0 26 -17.5 43.5t-43.5 17.5t-43 -17.5
t-17 -44.5q0 -25 17.5 -42t42.5 -17z" />
    <glyph glyph-name="AE" unicode="&#xc6;" horiz-adv-x="1040" 
d="M504 0v160h-271l-92 -160h-127l410 700h552v-110h-351v-174h313v-108h-313v-197h360v-111h-481zM478 590l-188 -329h214v329h-26z" />
    <glyph glyph-name="Ccedilla" unicode="&#xc7;" horiz-adv-x="710" 
d="M585 184l92 -70q-99 -124 -265 -124q-158 0 -258 102.5t-100 257.5q0 153 100 256.5t258 103.5q163 0 253 -106l-92 -73q-66 69 -159 69q-101 0 -167.5 -70.5t-66.5 -179.5q0 -108 66.5 -179t165.5 -71q102 0 173 84zM529 -125q0 -48 -41 -71.5t-90 -23.5q-62 0 -116 26
l22 43q40 -16 78 -16q64 0 64 37q0 36 -49 36q-16 0 -41 -9l-27 24l61 89h61l-43 -60h23q41 -2 69.5 -20t28.5 -55z" />
    <glyph glyph-name="Egrave" unicode="&#xc8;" horiz-adv-x="640" 
d="M89 0v700h487v-110h-366v-174h328v-108h-328v-197h375v-111h-496zM313 915l97 -163h-84l-120 115z" />
    <glyph glyph-name="Eacute" unicode="&#xc9;" horiz-adv-x="640" 
d="M289 751l97 163l107 -48l-120 -115h-84zM89 0v700h487v-110h-366v-174h328v-108h-328v-197h375v-111h-496z" />
    <glyph glyph-name="Ecircumflex" unicode="&#xca;" horiz-adv-x="640" 
d="M168 753l114 148h112l115 -148h-101l-71 88l-71 -88h-98zM89 0v700h487v-110h-366v-174h328v-108h-328v-197h375v-111h-496z" />
    <glyph glyph-name="Edieresis" unicode="&#xcb;" horiz-adv-x="640" 
d="M507 822q0 -29 -20 -50t-49 -21t-49 21.5t-20 49.5q0 27 20 47.5t48 20.5t49 -20t21 -48zM319 822q0 -29 -20.5 -50t-49.5 -21t-49 21.5t-20 49.5q0 27 20 47.5t48 20.5t49.5 -20t21.5 -48zM89 0v700h487v-110h-366v-174h328v-108h-328v-197h375v-111h-496z" />
    <glyph glyph-name="Igrave" unicode="&#xcc;" horiz-adv-x="299" 
d="M89 0v700h121v-700h-121zM100 915l97 -163h-84l-120 115z" />
    <glyph glyph-name="Iacute" unicode="&#xcd;" horiz-adv-x="299" 
d="M89 0v700h121v-700h-121zM104 752l97 163l107 -48l-120 -115h-84z" />
    <glyph glyph-name="Icircumflex" unicode="&#xce;" horiz-adv-x="299" 
d="M89 0v700h121v-700h-121zM-18 754l114 148h112l115 -148h-101l-71 88l-71 -88h-98z" />
    <glyph glyph-name="Idieresis" unicode="&#xcf;" horiz-adv-x="299" 
d="M89 0v700h121v-700h-121zM315 821q0 -29 -20 -50t-49 -21t-49 21.5t-20 49.5q0 27 20 47.5t48 20.5t49 -20t21 -48zM127 821q0 -29 -20.5 -50t-49.5 -21t-49 21.5t-20 49.5q0 27 20 47.5t48 20.5t49.5 -20t21.5 -48z" />
    <glyph glyph-name="Eth" unicode="&#xd0;" horiz-adv-x="806" 
d="M54 414h71v286h235q171 0 281 -95t110 -255t-110 -255t-281 -95h-235v307h-71v107zM626 350q0 111 -74.5 175.5t-193.5 64.5h-112v-176h170v-107h-170v-197h115q118 0 191.5 64.5t73.5 175.5z" />
    <glyph glyph-name="Ntilde" unicode="&#xd1;" horiz-adv-x="806" 
d="M597 213h3v487h118v-700h-103l-404 503h-2v-503h-120v700h118zM279 746l-58 61q34 93 109 93q30 0 79 -20t64 -20q22 0 35.5 11.5t25.5 37.5l57 -64q-34 -90 -108 -90q-30 0 -79 20t-64 20q-39 0 -61 -49z" />
    <glyph glyph-name="Ograve" unicode="&#xd2;" horiz-adv-x="846" 
d="M422 -10q-158 0 -263 104t-105 256q0 153 103.5 256.5t266.5 103.5q157 0 262.5 -104t105.5 -256q0 -153 -103.5 -256.5t-266.5 -103.5zM424 101q105 0 173.5 70.5t68.5 178.5q0 107 -69.5 178t-174.5 71t-173.5 -70.5t-68.5 -178.5q0 -107 69.5 -178t174.5 -71zM366 915
l97 -163h-84l-120 115z" />
    <glyph glyph-name="Oacute" unicode="&#xd3;" horiz-adv-x="846" 
d="M373 752l97 163l107 -48l-120 -115h-84zM422 -10q-158 0 -263 104t-105 256q0 153 103.5 256.5t266.5 103.5q157 0 262.5 -104t105.5 -256q0 -153 -103.5 -256.5t-266.5 -103.5zM424 101q105 0 173.5 70.5t68.5 178.5q0 107 -69.5 178t-174.5 71t-173.5 -70.5
t-68.5 -178.5q0 -107 69.5 -178t174.5 -71z" />
    <glyph glyph-name="Ocircumflex" unicode="&#xd4;" horiz-adv-x="846" 
d="M250 754l114 148h112l115 -148h-101l-71 88l-71 -88h-98zM422 -10q-158 0 -263 104t-105 256q0 153 103.5 256.5t266.5 103.5q157 0 262.5 -104t105.5 -256q0 -153 -103.5 -256.5t-266.5 -103.5zM424 101q105 0 173.5 70.5t68.5 178.5q0 107 -69.5 178t-174.5 71
t-173.5 -70.5t-68.5 -178.5q0 -107 69.5 -178t174.5 -71z" />
    <glyph glyph-name="Otilde" unicode="&#xd5;" horiz-adv-x="846" 
d="M422 -10q-158 0 -263 104t-105 256q0 153 103.5 256.5t266.5 103.5q157 0 262.5 -104t105.5 -256q0 -153 -103.5 -256.5t-266.5 -103.5zM424 101q105 0 173.5 70.5t68.5 178.5q0 107 -69.5 178t-174.5 71t-173.5 -70.5t-68.5 -178.5q0 -107 69.5 -178t174.5 -71zM288 743
l-58 61q34 93 109 93q30 0 79 -20t64 -20q22 0 35.5 11.5t25.5 37.5l57 -64q-34 -90 -108 -90q-30 0 -79 20t-64 20q-39 0 -61 -49z" />
    <glyph glyph-name="Odieresis" unicode="&#xd6;" horiz-adv-x="846" 
d="M589 821q0 -29 -20 -50t-49 -21t-49 21.5t-20 49.5q0 27 20 47.5t48 20.5t49 -20t21 -48zM401 821q0 -29 -20.5 -50t-49.5 -21t-49 21.5t-20 49.5q0 27 20 47.5t48 20.5t49.5 -20t21.5 -48zM422 -10q-158 0 -263 104t-105 256q0 153 103.5 256.5t266.5 103.5
q157 0 262.5 -104t105.5 -256q0 -153 -103.5 -256.5t-266.5 -103.5zM424 101q105 0 173.5 70.5t68.5 178.5q0 107 -69.5 178t-174.5 71t-173.5 -70.5t-68.5 -178.5q0 -107 69.5 -178t174.5 -71z" />
    <glyph glyph-name="multiply" unicode="&#xd7;" horiz-adv-x="645" 
d="M542 442l-140 -140l140 -140l-79 -80l-140 141l-141 -141l-79 79l140 141l-140 141l79 79l141 -141l140 141z" />
    <glyph glyph-name="Oslash" unicode="&#xd8;" horiz-adv-x="846" 
d="M802 700l-102 -109q92 -102 92 -241q0 -153 -103.5 -256.5t-266.5 -103.5q-123 0 -217 66l-52 -56h-111l102 110q-90 99 -90 240q0 153 103.5 256.5t266.5 103.5q118 0 215 -66l52 56h111zM424 101q105 0 173.5 70.5t68.5 178.5q0 85 -48 152l-333 -359q61 -42 139 -42z
M180 350q0 -86 47 -150l332 357q-59 42 -137 42q-105 0 -173.5 -70.5t-68.5 -178.5z" />
    <glyph glyph-name="Ugrave" unicode="&#xd9;" horiz-adv-x="733" 
d="M654 700v-414q0 -137 -78 -216.5t-210 -79.5t-209.5 79t-77.5 216v415h121v-413q0 -87 45 -136.5t122 -49.5t122.5 50t45.5 136v413h119zM314 915l97 -163h-84l-120 115z" />
    <glyph glyph-name="Uacute" unicode="&#xda;" horiz-adv-x="733" 
d="M317 751l97 163l107 -48l-120 -115h-84zM654 700v-414q0 -137 -78 -216.5t-210 -79.5t-209.5 79t-77.5 216v415h121v-413q0 -87 45 -136.5t122 -49.5t122.5 50t45.5 136v413h119z" />
    <glyph glyph-name="Ucircumflex" unicode="&#xdb;" horiz-adv-x="733" 
d="M199 754l114 148h112l115 -148h-101l-71 88l-71 -88h-98zM654 700v-414q0 -137 -78 -216.5t-210 -79.5t-209.5 79t-77.5 216v415h121v-413q0 -87 45 -136.5t122 -49.5t122.5 50t45.5 136v413h119z" />
    <glyph glyph-name="Udieresis" unicode="&#xdc;" horiz-adv-x="733" 
d="M531 821q0 -29 -20 -50t-49 -21t-49 21.5t-20 49.5q0 27 20 47.5t48 20.5t49 -20t21 -48zM343 821q0 -29 -20.5 -50t-49.5 -21t-49 21.5t-20 49.5q0 27 20 47.5t48 20.5t49.5 -20t21.5 -48zM654 700v-414q0 -137 -78 -216.5t-210 -79.5t-209.5 79t-77.5 216v415h121v-413
q0 -87 45 -136.5t122 -49.5t122.5 50t45.5 136v413h119z" />
    <glyph glyph-name="Yacute" unicode="&#xdd;" horiz-adv-x="686" 
d="M345 410l181 290h141l-264 -410v-290h-121v290l-263 410h145l179 -290h2zM297 751l97 163l107 -48l-120 -115h-84z" />
    <glyph glyph-name="Thorn" unicode="&#xde;" horiz-adv-x="634" 
d="M591 357q0 -104 -71 -156.5t-188 -52.5h-122v-148h-121v700h121v-134h122q119 0 189 -53t70 -156zM466 358q0 104 -139 104h-117v-211h118q64 0 101 26t37 81z" />
    <glyph glyph-name="germandbls" unicode="&#xdf;" horiz-adv-x="618" 
d="M262 -1v97q24 -4 52 -4q65 1 105.5 38.5t40.5 92.5q0 68 -40 102.5t-102 34.5h-27v93h21q41 0 68.5 29t27.5 80q0 44 -29 71t-75 27q-50 0 -82 -37.5t-32 -98.5v-524h-116v522q0 109 63.5 173.5t172.5 64.5q99 0 157 -54t58 -137q0 -54 -28.5 -94.5t-77.5 -57.5
q77 -20 117.5 -72t40.5 -129q0 -99 -70 -162.5t-182 -63.5q-32 0 -63 9z" />
    <glyph glyph-name="agrave" unicode="&#xe0;" horiz-adv-x="558" 
d="M258 311q65 0 122 -13v19q0 50 -32 76.5t-84 26.5q-73 0 -146 -48l-48 81q89 63 195 63q103 0 165 -47.5t62 -149.5v-319h-112v66h-3q-59 -76 -160 -76q-77 0 -126 39t-49 118q0 78 63.5 121t152.5 43zM380 190v27q-58 14 -112 14q-48 0 -81 -21.5t-33 -61.5
q0 -37 24.5 -56.5t67.5 -19.5q50 0 92 35t42 83zM248 748l97 -163h-84l-120 115z" />
    <glyph glyph-name="aacute" unicode="&#xe1;" horiz-adv-x="558" 
d="M258 311q65 0 122 -13v19q0 50 -32 76.5t-84 26.5q-73 0 -146 -48l-48 81q89 63 195 63q103 0 165 -47.5t62 -149.5v-319h-112v66h-3q-59 -76 -160 -76q-77 0 -126 39t-49 118q0 78 63.5 121t152.5 43zM380 190v27q-58 14 -112 14q-48 0 -81 -21.5t-33 -61.5
q0 -37 24.5 -56.5t67.5 -19.5q50 0 92 35t42 83zM223 585l97 163l107 -48l-120 -115h-84z" />
    <glyph glyph-name="acircumflex" unicode="&#xe2;" horiz-adv-x="558" 
d="M258 311q65 0 122 -13v19q0 50 -32 76.5t-84 26.5q-73 0 -146 -48l-48 81q89 63 195 63q103 0 165 -47.5t62 -149.5v-319h-112v66h-3q-59 -76 -160 -76q-77 0 -126 39t-49 118q0 78 63.5 121t152.5 43zM380 190v27q-58 14 -112 14q-48 0 -81 -21.5t-33 -61.5
q0 -37 24.5 -56.5t67.5 -19.5q50 0 92 35t42 83zM111 578l114 148h112l115 -148h-101l-71 88l-71 -88h-98z" />
    <glyph glyph-name="atilde" unicode="&#xe3;" horiz-adv-x="558" 
d="M258 311q65 0 122 -13v19q0 50 -32 76.5t-84 26.5q-73 0 -146 -48l-48 81q89 63 195 63q103 0 165 -47.5t62 -149.5v-319h-112v66h-3q-59 -76 -160 -76q-77 0 -126 39t-49 118q0 78 63.5 121t152.5 43zM380 190v27q-58 14 -112 14q-48 0 -81 -21.5t-33 -61.5
q0 -37 24.5 -56.5t67.5 -19.5q50 0 92 35t42 83zM149 576l-58 61q34 93 109 93q30 0 79 -20t64 -20q22 0 35.5 11.5t25.5 37.5l57 -64q-34 -90 -108 -90q-30 0 -79 20t-64 20q-39 0 -61 -49z" />
    <glyph glyph-name="adieresis" unicode="&#xe4;" horiz-adv-x="558" 
d="M258 311q65 0 122 -13v19q0 50 -32 76.5t-84 26.5q-73 0 -146 -48l-48 81q89 63 195 63q103 0 165 -47.5t62 -149.5v-319h-112v66h-3q-59 -76 -160 -76q-77 0 -126 39t-49 118q0 78 63.5 121t152.5 43zM380 190v27q-58 14 -112 14q-48 0 -81 -21.5t-33 -61.5
q0 -37 24.5 -56.5t67.5 -19.5q50 0 92 35t42 83zM445 652q0 -29 -20 -50t-49 -21t-49 21.5t-20 49.5q0 27 20 47.5t48 20.5t49 -20t21 -48zM257 652q0 -29 -20.5 -50t-49.5 -21t-49 21.5t-20 49.5q0 27 20 47.5t48 20.5t49.5 -20t21.5 -48z" />
    <glyph glyph-name="aring" unicode="&#xe5;" horiz-adv-x="558" 
d="M258 311q65 0 122 -13v19q0 50 -32 76.5t-84 26.5q-73 0 -146 -48l-48 81q89 63 195 63q103 0 165 -47.5t62 -149.5v-319h-112v66h-3q-59 -76 -160 -76q-77 0 -126 39t-49 118q0 78 63.5 121t152.5 43zM380 190v27q-58 14 -112 14q-48 0 -81 -21.5t-33 -61.5
q0 -37 24.5 -56.5t67.5 -19.5q50 0 92 35t42 83zM282 571q-48 0 -81 31.5t-33 77.5q0 45 33 77.5t81 32.5t81 -32.5t33 -78.5q0 -44 -33 -76t-81 -32zM282 620q26 0 43.5 16.5t17.5 43.5q0 26 -17.5 43.5t-43.5 17.5t-43 -17.5t-17 -44.5q0 -25 17.5 -42t42.5 -17z" />
    <glyph glyph-name="ae" unicode="&#xe6;" horiz-adv-x="894" 
d="M622 -10q-131 0 -201 98q-32 -47 -88.5 -72.5t-115.5 -25.5q-77 0 -126 39.5t-49 118.5q0 80 63.5 124t152.5 44q74 0 122 -11v12q0 50 -32 76.5t-84 26.5q-73 0 -146 -48l-48 80q93 64 192 64q130 0 189 -79q61 79 164 79q112 0 173 -77.5t61 -193.5q0 -22 -1 -34h-355
q6 -61 40.5 -93t90.5 -32q78 0 134 64l71 -65q-81 -95 -207 -95zM382 171q-6 24 -9 53q-53 12 -105 12q-48 0 -81 -22.5t-33 -64.5q0 -37 25 -57t67 -20q43 0 83 29t53 70zM492 291h239q-5 60 -34 96t-84 36q-52 0 -83.5 -35.5t-37.5 -96.5z" />
    <glyph glyph-name="ccedilla" unicode="&#xe7;" horiz-adv-x="545" 
d="M439 154l75 -70q-87 -94 -208 -94q-112 0 -185.5 75t-73.5 188t73.5 188t186.5 75q122 0 202 -87l-77 -73q-55 58 -124 58q-63 0 -103.5 -45t-40.5 -116q0 -72 41 -116.5t105 -44.5q70 0 129 62zM432 -125q0 -48 -41 -71.5t-90 -23.5q-62 0 -116 26l22 43q40 -16 78 -16
q64 0 64 37q0 36 -49 36q-16 0 -41 -9l-27 24l61 89h61l-43 -60h23q41 -2 69.5 -20t28.5 -55z" />
    <glyph glyph-name="egrave" unicode="&#xe8;" horiz-adv-x="576" 
d="M301 -10q-110 0 -182 72.5t-72 190.5q0 112 69 187.5t176 75.5q114 0 177 -78t63 -193q0 -22 -1 -34h-364q6 -60 42.5 -92.5t93.5 -32.5q82 0 138 64l70 -65q-79 -95 -210 -95zM166 291h248q-6 59 -37.5 95.5t-86.5 36.5q-52 0 -84.5 -35.5t-39.5 -96.5zM263 748l97 -163
h-84l-120 115z" />
    <glyph glyph-name="eacute" unicode="&#xe9;" horiz-adv-x="576" 
d="M241 585l97 163l107 -48l-120 -115h-84zM301 -10q-110 0 -182 72.5t-72 190.5q0 112 69 187.5t176 75.5q114 0 177 -78t63 -193q0 -22 -1 -34h-364q6 -60 42.5 -92.5t93.5 -32.5q82 0 138 64l70 -65q-79 -95 -210 -95zM166 291h248q-6 59 -37.5 95.5t-86.5 36.5
q-52 0 -84.5 -35.5t-39.5 -96.5z" />
    <glyph glyph-name="ecircumflex" unicode="&#xea;" horiz-adv-x="576" 
d="M125 578l114 148h112l115 -148h-101l-71 88l-71 -88h-98zM301 -10q-110 0 -182 72.5t-72 190.5q0 112 69 187.5t176 75.5q114 0 177 -78t63 -193q0 -22 -1 -34h-364q6 -60 42.5 -92.5t93.5 -32.5q82 0 138 64l70 -65q-79 -95 -210 -95zM166 291h248q-6 59 -37.5 95.5
t-86.5 36.5q-52 0 -84.5 -35.5t-39.5 -96.5z" />
    <glyph glyph-name="edieresis" unicode="&#xeb;" horiz-adv-x="576" 
d="M457 652q0 -29 -20 -50t-49 -21t-49 21.5t-20 49.5q0 27 20 47.5t48 20.5t49 -20t21 -48zM269 652q0 -29 -20.5 -50t-49.5 -21t-49 21.5t-20 49.5q0 27 20 47.5t48 20.5t49.5 -20t21.5 -48zM301 -10q-110 0 -182 72.5t-72 190.5q0 112 69 187.5t176 75.5q114 0 177 -78
t63 -193q0 -22 -1 -34h-364q6 -60 42.5 -92.5t93.5 -32.5q82 0 138 64l70 -65q-79 -95 -210 -95zM166 291h248q-6 59 -37.5 95.5t-86.5 36.5q-52 0 -84.5 -35.5t-39.5 -96.5z" />
    <glyph glyph-name="igrave" unicode="&#xec;" horiz-adv-x="279" 
d="M81 0v506h117v-506h-117zM96 748l97 -163h-84l-120 115z" />
    <glyph glyph-name="iacute" unicode="&#xed;" horiz-adv-x="279" 
d="M97 585l97 163l107 -48l-120 -115h-84zM81 0v506h117v-506h-117z" />
    <glyph glyph-name="icircumflex" unicode="&#xee;" horiz-adv-x="279" 
d="M-28 578l114 148h112l115 -148h-101l-71 88l-71 -88h-98zM81 0v506h117v-506h-117z" />
    <glyph glyph-name="idieresis" unicode="&#xef;" horiz-adv-x="279" 
d="M306 652q0 -29 -20 -50t-49 -21t-49 21.5t-20 49.5q0 27 20 47.5t48 20.5t49 -20t21 -48zM118 652q0 -29 -20.5 -50t-49.5 -21t-49 21.5t-20 49.5q0 27 20 47.5t48 20.5t49.5 -20t21.5 -48zM81 0v506h117v-506h-117z" />
    <glyph glyph-name="eth" unicode="&#xf0;" horiz-adv-x="628" 
d="M505 680l-110 -51l85 -124q30 -44 48.5 -75.5t35.5 -82.5t17 -101q0 -108 -74.5 -182t-193.5 -74q-118 0 -192 73.5t-74 182.5q0 107 68.5 174.5t170.5 67.5q64 0 103 -23l-85 123l-97 -46l-44 64l97 45l-69 99h122l39 -57l108 51zM314 92q68 0 109 44.5t41 109.5
q0 61 -40 106.5t-106 45.5q-76 0 -115 -43t-39 -109q0 -65 41.5 -109.5t108.5 -44.5z" />
    <glyph glyph-name="ntilde" unicode="&#xf1;" horiz-adv-x="593" 
d="M74 0v506h116v-63h3q53 73 151 73q80 0 130.5 -54.5t50.5 -145.5v-316h-115v289q0 58 -29 91t-78 33q-50 0 -81.5 -36.5t-31.5 -95.5v-281h-116zM171 576l-58 61q34 93 109 93q30 0 79 -20t64 -20q22 0 35.5 11.5t25.5 37.5l57 -64q-34 -90 -108 -90q-30 0 -79 20t-64 20
q-39 0 -61 -49z" />
    <glyph glyph-name="ograve" unicode="&#xf2;" horiz-adv-x="628" 
d="M313 -10q-115 0 -190.5 75t-75.5 188q0 112 76.5 187.5t190.5 75.5q115 0 191 -75.5t76 -187.5q0 -113 -76.5 -188t-191.5 -75zM314 92q66 0 108 46.5t42 114.5q0 67 -43 114t-108 47q-66 0 -107.5 -46.5t-41.5 -114.5q0 -67 42.5 -114t107.5 -47zM273 748l97 -163h-84
l-120 115z" />
    <glyph glyph-name="oacute" unicode="&#xf3;" horiz-adv-x="628" 
d="M258 585l97 163l107 -48l-120 -115h-84zM313 -10q-115 0 -190.5 75t-75.5 188q0 112 76.5 187.5t190.5 75.5q115 0 191 -75.5t76 -187.5q0 -113 -76.5 -188t-191.5 -75zM314 92q66 0 108 46.5t42 114.5q0 67 -43 114t-108 47q-66 0 -107.5 -46.5t-41.5 -114.5
q0 -67 42.5 -114t107.5 -47z" />
    <glyph glyph-name="ocircumflex" unicode="&#xf4;" horiz-adv-x="628" 
d="M142 578l114 148h112l115 -148h-101l-71 88l-71 -88h-98zM313 -10q-115 0 -190.5 75t-75.5 188q0 112 76.5 187.5t190.5 75.5q115 0 191 -75.5t76 -187.5q0 -113 -76.5 -188t-191.5 -75zM314 92q66 0 108 46.5t42 114.5q0 67 -43 114t-108 47q-66 0 -107.5 -46.5
t-41.5 -114.5q0 -67 42.5 -114t107.5 -47z" />
    <glyph glyph-name="otilde" unicode="&#xf5;" horiz-adv-x="628" 
d="M313 -10q-115 0 -190.5 75t-75.5 188q0 112 76.5 187.5t190.5 75.5q115 0 191 -75.5t76 -187.5q0 -113 -76.5 -188t-191.5 -75zM314 92q66 0 108 46.5t42 114.5q0 67 -43 114t-108 47q-66 0 -107.5 -46.5t-41.5 -114.5q0 -67 42.5 -114t107.5 -47zM186 576l-58 61
q34 93 109 93q30 0 79 -20t64 -20q22 0 35.5 11.5t25.5 37.5l57 -64q-34 -90 -108 -90q-30 0 -79 20t-64 20q-39 0 -61 -49z" />
    <glyph glyph-name="odieresis" unicode="&#xf6;" horiz-adv-x="628" 
d="M475 652q0 -29 -20 -50t-49 -21t-49 21.5t-20 49.5q0 27 20 47.5t48 20.5t49 -20t21 -48zM287 652q0 -29 -20.5 -50t-49.5 -21t-49 21.5t-20 49.5q0 27 20 47.5t48 20.5t49.5 -20t21.5 -48zM313 -10q-115 0 -190.5 75t-75.5 188q0 112 76.5 187.5t190.5 75.5
q115 0 191 -75.5t76 -187.5q0 -113 -76.5 -188t-191.5 -75zM314 92q66 0 108 46.5t42 114.5q0 67 -43 114t-108 47q-66 0 -107.5 -46.5t-41.5 -114.5q0 -67 42.5 -114t107.5 -47z" />
    <glyph glyph-name="divide" unicode="&#xf7;" horiz-adv-x="645" 
d="M399 107q0 -32 -22 -54t-54 -22t-54.5 22t-22.5 54t22.5 54t54.5 22q31 0 53.5 -22.5t22.5 -53.5zM399 503q0 -32 -22 -54.5t-54 -22.5t-54.5 22.5t-22.5 54.5t22.5 54t54.5 22q31 0 53.5 -22.5t22.5 -53.5zM544 261h-442v87h442v-87z" />
    <glyph glyph-name="oslash" unicode="&#xf8;" horiz-adv-x="628" 
d="M37 -3l73 81q-63 72 -63 175q0 112 76.5 187.5t190.5 75.5q86 0 153 -45l35 39h89l-74 -82q64 -74 64 -175q0 -113 -76.5 -188t-191.5 -75q-88 0 -153 45l-34 -38h-89zM314 92q66 0 108 46.5t42 114.5q0 49 -25 88l-206 -225q37 -24 81 -24zM164 253q0 -52 24 -89
l206 225q-36 25 -81 25q-66 0 -107.5 -46.5t-41.5 -114.5z" />
    <glyph glyph-name="ugrave" unicode="&#xf9;" horiz-adv-x="589" 
d="M515 506v-506h-116v63h-2q-53 -73 -152 -73q-80 0 -130.5 54.5t-50.5 145.5v316h116v-290q0 -58 28.5 -90.5t77.5 -32.5q50 0 81.5 36t31.5 95v282h116zM249 748l97 -163h-84l-120 115z" />
    <glyph glyph-name="uacute" unicode="&#xfa;" horiz-adv-x="589" 
d="M237 585l97 163l107 -48l-120 -115h-84zM515 506v-506h-116v63h-2q-53 -73 -152 -73q-80 0 -130.5 54.5t-50.5 145.5v316h116v-290q0 -58 28.5 -90.5t77.5 -32.5q50 0 81.5 36t31.5 95v282h116z" />
    <glyph glyph-name="ucircumflex" unicode="&#xfb;" horiz-adv-x="589" 
d="M121 578l114 148h112l115 -148h-101l-71 88l-71 -88h-98zM515 506v-506h-116v63h-2q-53 -73 -152 -73q-80 0 -130.5 54.5t-50.5 145.5v316h116v-290q0 -58 28.5 -90.5t77.5 -32.5q50 0 81.5 36t31.5 95v282h116z" />
    <glyph glyph-name="udieresis" unicode="&#xfc;" horiz-adv-x="589" 
d="M455 652q0 -29 -20 -50t-49 -21t-49 21.5t-20 49.5q0 27 20 47.5t48 20.5t49 -20t21 -48zM267 652q0 -29 -20.5 -50t-49.5 -21t-49 21.5t-20 49.5q0 27 20 47.5t48 20.5t49.5 -20t21.5 -48zM515 506v-506h-116v63h-2q-53 -73 -152 -73q-80 0 -130.5 54.5t-50.5 145.5v316
h116v-290q0 -58 28.5 -90.5t77.5 -32.5q50 0 81.5 36t31.5 95v282h116z" />
    <glyph glyph-name="yacute" unicode="&#xfd;" horiz-adv-x="573" 
d="M431 506h120l-216 -547q-31 -79 -74.5 -116.5t-115.5 -37.5q-55 0 -115 26l31 93q40 -16 73 -16q34 0 56.5 18t40.5 64l13 31l-220 485h125l149 -341h2zM238 585l97 163l107 -48l-120 -115h-84z" />
    <glyph glyph-name="thorn" unicode="&#xfe;" horiz-adv-x="638" 
d="M353 -10q-103 0 -160 74h-3v-254h-116v940h116v-311h3q62 77 162 77q96 0 166.5 -70t70.5 -193t-71 -193t-168 -70zM329 92q62 0 103.5 43t41.5 118q0 73 -42.5 116.5t-102.5 43.5t-103 -43t-43 -118q0 -72 43 -116t103 -44z" />
    <glyph glyph-name="ydieresis" unicode="&#xff;" horiz-adv-x="573" 
d="M431 506h120l-216 -547q-31 -79 -74.5 -116.5t-115.5 -37.5q-55 0 -115 26l31 93q40 -16 73 -16q34 0 56.5 18t40.5 64l13 31l-220 485h125l149 -341h2zM453 652q0 -29 -20 -50t-49 -21t-49 21.5t-20 49.5q0 27 20 47.5t48 20.5t49 -20t21 -48zM265 652q0 -29 -20.5 -50
t-49.5 -21t-49 21.5t-20 49.5q0 27 20 47.5t48 20.5t49.5 -20t21.5 -48z" />
    <glyph glyph-name="Abreve" unicode="&#x102;" horiz-adv-x="763" 
d="M149 0h-128l307 703h109l305 -703h-133l-67 163h-324zM380 550l-120 -286h240l-118 286h-2zM380 745q-73 0 -119 39.5t-52 108.5h83q20 -65 88 -65t88 65h84q-7 -69 -53 -108.5t-119 -39.5z" />
    <glyph glyph-name="abreve" unicode="&#x103;" horiz-adv-x="558" 
d="M258 311q65 0 122 -13v19q0 50 -32 76.5t-84 26.5q-73 0 -146 -48l-48 81q89 63 195 63q103 0 165 -47.5t62 -149.5v-319h-112v66h-3q-59 -76 -160 -76q-77 0 -126 39t-49 118q0 78 63.5 121t152.5 43zM380 190v27q-58 14 -112 14q-48 0 -81 -21.5t-33 -61.5
q0 -37 24.5 -56.5t67.5 -19.5q50 0 92 35t42 83zM278 568q-73 0 -119 39.5t-52 108.5h83q20 -65 88 -65t88 65h84q-7 -69 -53 -108.5t-119 -39.5z" />
    <glyph glyph-name="Gbreve" unicode="&#x11e;" horiz-adv-x="762" 
d="M673 613l-81 -86q-39 37 -79.5 55t-102.5 18q-98 0 -164 -71.5t-66 -178.5q0 -110 65 -180t168 -70q94 0 161 38v155h-150v104h268v-328q-135 -79 -280 -79q-162 0 -260 102t-98 258q0 153 99.5 256.5t258.5 103.5q84 0 144.5 -23.5t116.5 -73.5zM403 746
q-73 0 -119 39.5t-52 108.5h83q20 -65 88 -65t88 65h84q-7 -69 -53 -108.5t-119 -39.5z" />
    <glyph glyph-name="gbreve" unicode="&#x11f;" horiz-adv-x="639" 
d="M296 -195q-124 0 -230 67l53 88q79 -52 174 -52q73 0 114.5 36t41.5 111v53h-2q-59 -81 -168 -81q-94 0 -163 68t-69 177t70 176.5t163 67.5q108 0 167 -77h2v67h117v-447q0 -124 -70.5 -189t-199.5 -65zM304 129q61 0 105 41t44 102q0 60 -44 100.5t-105 40.5
q-59 0 -99 -40t-40 -102t40 -102t99 -40zM319 568q-73 0 -119 39.5t-52 108.5h83q20 -65 88 -65t88 65h84q-7 -69 -53 -108.5t-119 -39.5z" />
    <glyph glyph-name="Idotaccent" unicode="&#x130;" horiz-adv-x="299" 
d="M89 0v700h121v-700h-121zM224 821q0 -31 -22 -52.5t-52 -21.5t-52 21.5t-22 52.5q0 30 22 51.5t52 21.5t52 -21.5t22 -51.5z" />
    <glyph glyph-name="dotlessi" unicode="&#x131;" horiz-adv-x="279" 
d="M81 0v506h117v-506h-117z" />
    <glyph glyph-name="Lslash" unicode="&#x141;" horiz-adv-x="612" 
d="M49 361l73 22v317h121v-282l176 51v-112l-176 -51v-193h340v-113h-461v271l-73 -21v111z" />
    <glyph glyph-name="lslash" unicode="&#x142;" horiz-adv-x="350" 
d="M117 406v344h116v-301l72 28v-112l-72 -28v-337h-116v294l-73 -27v112z" />
    <glyph glyph-name="OE" unicode="&#x152;" horiz-adv-x="1040" 
d="M416 0q-158 0 -260 99.5t-102 250.5q0 152 101 251t263 99h558v-110h-351v-174h313v-108h-313v-197h360v-111h-569zM180 350q0 -106 66 -172.5t172 -66.5h86v479h-88q-106 0 -171 -66.5t-65 -173.5z" />
    <glyph glyph-name="oe" unicode="&#x153;" horiz-adv-x="989" 
d="M313 92q65 0 106 46.5t41 114.5q0 67 -42 114t-107 47t-106 -46.5t-41 -114.5q0 -67 42 -114t107 -47zM580 291h244q-6 60 -36.5 96t-85.5 36q-52 0 -84 -35.5t-38 -96.5zM851 150l70 -65q-79 -95 -208 -95q-135 0 -199 106q-68 -106 -203 -106q-114 0 -189 75t-75 188
q0 112 75.5 187.5t190.5 75.5q134 0 201 -107q63 107 190 107q114 0 176 -77.5t62 -193.5q0 -22 -1 -34h-360q6 -60 41.5 -92.5t92.5 -32.5q80 0 136 64z" />
    <glyph glyph-name="Scedilla" unicode="&#x15e;" horiz-adv-x="606" 
d="M555 201q0 -100 -74.5 -155.5t-180.5 -55.5q-73 0 -142 25t-115 72l84 89q29 -31 77.5 -52.5t94.5 -21.5q53 0 93 23t40 68q0 39 -31 62t-101 42q-51 14 -88.5 29t-73.5 39.5t-55 61t-19 83.5q0 95 68 147.5t174 52.5q143 0 227 -85l-73 -86q-27 27 -69.5 44.5
t-83.5 17.5q-51 0 -84.5 -22.5t-33.5 -64.5q0 -40 36 -65.5t119 -46.5q211 -56 211 -201zM426 -125q0 -48 -41 -71.5t-90 -23.5q-62 0 -116 26l22 43q40 -16 78 -16q64 0 64 37q0 36 -49 36q-16 0 -41 -9l-27 24l61 89h61l-43 -60h23q41 -2 69.5 -20t28.5 -55z" />
    <glyph glyph-name="scedilla" unicode="&#x15f;" horiz-adv-x="471" 
d="M223 -10q-101 0 -191 70l65 78q66 -56 130 -56q79 0 79 52q0 14 -6.5 24.5t-24 20.5t-29.5 15t-42 16q-32 12 -52.5 22t-46 28.5t-38.5 44.5t-13 60q0 70 53 110.5t131 40.5q105 0 176 -58l-62 -74q-49 40 -110 40q-32 0 -51.5 -14.5t-19.5 -37.5q0 -14 6.5 -25.5
t22.5 -21t24.5 -13.5t31.5 -12l26 -9q66 -24 104 -58t38 -90q0 -73 -57.5 -113t-143.5 -40zM359 -125q0 -48 -41 -71.5t-90 -23.5q-62 0 -116 26l22 43q40 -16 78 -16q64 0 64 37q0 36 -49 36q-16 0 -41 -9l-27 24l61 89h61l-43 -60h23q41 -2 69.5 -20t28.5 -55z" />
    <glyph glyph-name="Scaron" unicode="&#x160;" horiz-adv-x="606" 
d="M472 902l-115 -148h-112l-114 148h100l71 -89l71 89h99zM555 201q0 -100 -74.5 -155.5t-180.5 -55.5q-73 0 -142 25t-115 72l84 89q29 -31 77.5 -52.5t94.5 -21.5q53 0 93 23t40 68q0 39 -31 62t-101 42q-51 14 -88.5 29t-73.5 39.5t-55 61t-19 83.5q0 95 68 147.5
t174 52.5q143 0 227 -85l-73 -86q-27 27 -69.5 44.5t-83.5 17.5q-51 0 -84.5 -22.5t-33.5 -64.5q0 -40 36 -65.5t119 -46.5q211 -56 211 -201z" />
    <glyph glyph-name="scaron" unicode="&#x161;" horiz-adv-x="471" 
d="M405 712l-115 -148h-112l-114 148h100l71 -89l71 89h99zM223 -10q-101 0 -191 70l65 78q66 -56 130 -56q79 0 79 52q0 14 -6.5 24.5t-24 20.5t-29.5 15t-42 16q-32 12 -52.5 22t-46 28.5t-38.5 44.5t-13 60q0 70 53 110.5t131 40.5q105 0 176 -58l-62 -74q-49 40 -110 40
q-32 0 -51.5 -14.5t-19.5 -37.5q0 -14 6.5 -25.5t22.5 -21t24.5 -13.5t31.5 -12l26 -9q66 -24 104 -58t38 -90q0 -73 -57.5 -113t-143.5 -40z" />
    <glyph glyph-name="Tcommaaccent" unicode="&#x162;" horiz-adv-x="606" 
d="M304 -37q33 0 54.5 -21.5t21.5 -51.5q0 -26 -14 -49l-93 -154h-52l41 136q-34 21 -34 64q0 31 22 53.5t54 22.5zM576 589h-213v-589h-121v589h-213v111h547v-111z" />
    <glyph glyph-name="tcommaaccent" unicode="&#x163;" horiz-adv-x="416" 
d="M211 -37q33 0 54.5 -21.5t21.5 -51.5q0 -26 -14 -49l-93 -154h-52l41 136q-34 21 -34 64q0 31 22.5 53.5t53.5 22.5zM267 -10q-68 0 -109 38t-41 124v253h-88v101h88v125h116v-125h140v-101h-140v-241q0 -72 67 -72q32 0 75 14v-97q-48 -19 -108 -19z" />
    <glyph glyph-name="Ydieresis" unicode="&#x178;" horiz-adv-x="686" 
d="M345 410l181 290h141l-264 -410v-290h-121v290l-263 410h145l179 -290h2zM505 820q0 -29 -20 -50t-49 -21t-49 21.5t-20 49.5q0 27 20 47.5t48 20.5t49 -20t21 -48zM317 820q0 -29 -20.5 -50t-49.5 -21t-49 21.5t-20 49.5q0 27 20 47.5t48 20.5t49.5 -20t21.5 -48z" />
    <glyph glyph-name="Zcaron" unicode="&#x17d;" horiz-adv-x="659" 
d="M506 902l-115 -148h-112l-114 148h100l71 -89l71 89h99zM605 0h-551v108l394 482h-382v110h531v-109l-390 -481h398v-110z" />
    <glyph glyph-name="zcaron" unicode="&#x17e;" horiz-adv-x="512" 
d="M434 712l-115 -148h-112l-114 148h100l71 -89l71 89h99zM42 0v84l273 322h-264v100h414v-88l-272 -320h277v-98h-428z" />
    <glyph glyph-name="longs" unicode="&#x17f;" horiz-adv-x="380" 
d="M100 0v407h-66v99h66v74q0 78 43.5 129t122.5 51q56 0 100 -18l-11 -97q-34 14 -65 14q-73 0 -73 -88v-571h-117z" />
    <glyph glyph-name="florin" unicode="&#x192;" horiz-adv-x="471" 
d="M61 356h82l27 179q27 175 184 175q58 0 97 -18l-16 -96q-29 13 -64 13q-72 0 -86 -88l-26 -165h120v-96h-134l-69 -450h-117l69 450h-67v96z" />
    <glyph glyph-name="Scommaaccent" unicode="&#x218;" horiz-adv-x="606" 
d="M317 -37q33 0 54.5 -21.5t21.5 -51.5q0 -26 -14 -49l-93 -154h-52l41 136q-34 21 -34 64q0 31 22.5 53.5t53.5 22.5zM555 201q0 -100 -74.5 -155.5t-180.5 -55.5q-73 0 -142 25t-115 72l84 89q29 -31 77.5 -52.5t94.5 -21.5q53 0 93 23t40 68q0 39 -31 62t-101 42
q-51 14 -88.5 29t-73.5 39.5t-55 61t-19 83.5q0 95 68 147.5t174 52.5q143 0 227 -85l-73 -86q-27 27 -69.5 44.5t-83.5 17.5q-51 0 -84.5 -22.5t-33.5 -64.5q0 -40 36 -65.5t119 -46.5q211 -56 211 -201z" />
    <glyph glyph-name="scommaaccent" unicode="&#x219;" horiz-adv-x="471" 
d="M239 -37q33 0 54.5 -21.5t21.5 -51.5q0 -26 -14 -49l-93 -154h-52l41 136q-34 21 -34 64q0 31 22.5 53.5t53.5 22.5zM223 -10q-101 0 -191 70l65 78q66 -56 130 -56q79 0 79 52q0 14 -6.5 24.5t-24 20.5t-29.5 15t-42 16q-32 12 -52.5 22t-46 28.5t-38.5 44.5t-13 60
q0 70 53 110.5t131 40.5q105 0 176 -58l-62 -74q-49 40 -110 40q-32 0 -51.5 -14.5t-19.5 -37.5q0 -14 6.5 -25.5t22.5 -21t24.5 -13.5t31.5 -12l26 -9q66 -24 104 -58t38 -90q0 -73 -57.5 -113t-143.5 -40z" />
    <glyph glyph-name="uni021B" unicode="&#x21b;" horiz-adv-x="416" 
d="M211 -37q33 0 54.5 -21.5t21.5 -51.5q0 -26 -14 -49l-93 -154h-52l41 136q-34 21 -34 64q0 31 22.5 53.5t53.5 22.5zM267 -10q-68 0 -109 38t-41 124v253h-88v101h88v125h116v-125h140v-101h-140v-241q0 -72 67 -72q32 0 75 14v-97q-48 -19 -108 -19z" />
    <glyph glyph-name="circumflex" unicode="&#x2c6;" horiz-adv-x="456" 
d="M58 578l114 148h112l115 -148h-101l-71 88l-71 -88h-98z" />
    <glyph glyph-name="caron" unicode="&#x2c7;" horiz-adv-x="456" 
d="M399 712l-115 -148h-112l-114 148h100l71 -89l71 89h99z" />
    <glyph glyph-name="breve" unicode="&#x2d8;" horiz-adv-x="456" 
d="M228 552q-73 0 -119 39.5t-52 108.5h83q20 -65 88 -65t88 65h84q-7 -69 -53 -108.5t-119 -39.5z" />
    <glyph glyph-name="dotaccent" unicode="&#x2d9;" horiz-adv-x="456" 
d="M302 655q0 -31 -22 -52.5t-52 -21.5t-52 21.5t-22 52.5q0 30 22 51.5t52 21.5t52 -21.5t22 -51.5z" />
    <glyph glyph-name="ring" unicode="&#x2da;" horiz-adv-x="456" 
d="M228 592q-48 0 -81 31.5t-33 77.5q0 45 33 77.5t81 32.5t81 -32.5t33 -78.5q0 -44 -33 -76t-81 -32zM228 641q26 0 43.5 16.5t17.5 43.5q0 26 -17.5 43.5t-43.5 17.5t-43 -17.5t-17 -44.5q0 -25 17.5 -42t42.5 -17z" />
    <glyph glyph-name="ogonek" unicode="&#x2db;" horiz-adv-x="456" 
d="M327 -162q-60 -4 -68 -4q-131 0 -131 111q0 31 16 65h83q-7 -26 -7 -46q0 -35 15.5 -54t57.5 -19q6 0 19 1.5t15 1.5v-56z" />
    <glyph glyph-name="tilde" unicode="&#x2dc;" horiz-adv-x="456" 
d="M101 576l-58 61q34 93 109 93q30 0 79 -20t64 -20q22 0 35.5 11.5t25.5 37.5l57 -64q-34 -90 -108 -90q-30 0 -79 20t-64 20q-39 0 -61 -49z" />
    <glyph glyph-name="hungarumlaut" unicode="&#x2dd;" horiz-adv-x="456" 
d="M35 592l97 163l108 -48l-120 -115h-85zM214 592l98 163l107 -48l-120 -115h-85z" />
    <glyph glyph-name="uni037E" unicode="&#x37e;" horiz-adv-x="272" 
d="M212 440q0 -32 -22 -54.5t-54 -22.5t-54.5 22.5t-22.5 54.5t22.5 54t54.5 22t54 -22t22 -54zM52 -128l41 136q-34 22 -34 64q0 32 22.5 54t54.5 22q33 0 54 -21.5t21 -52.5q0 -26 -13 -48l-94 -154h-52z" />
    <glyph glyph-name="tonos" unicode="&#x384;" horiz-adv-x="456" 
d="M130 585l97 163l107 -48l-120 -115h-84z" />
    <glyph glyph-name="dieresistonos" unicode="&#x385;" horiz-adv-x="456" 
d="M162 585l53 173l101 -38l-78 -135h-76zM429 641q0 -25 -17.5 -42.5t-41.5 -17.5t-41 18t-17 42q0 23 16.5 40.5t39.5 17.5q25 0 43 -17t18 -41zM146 641q0 -25 -17.5 -42.5t-42.5 -17.5q-24 0 -41 18t-17 42q0 23 17 40.5t40 17.5q24 0 42.5 -17t18.5 -41z" />
    <glyph glyph-name="Alphatonos" unicode="&#x386;" horiz-adv-x="763" 
d="M21 585l97 163l107 -48l-120 -115h-84zM149 0h-128l307 703h109l305 -703h-133l-67 163h-324zM380 550l-120 -286h240l-118 286h-2z" />
    <glyph glyph-name="anoteleia" unicode="&#x387;" horiz-adv-x="272" 
d="M212 309q0 -32 -22 -54.5t-54 -22.5t-54.5 22.5t-22.5 54.5t22.5 54t54.5 22t54 -22.5t22 -53.5z" />
    <glyph glyph-name="Epsilontonos" unicode="&#x388;" horiz-adv-x="640" 
d="M-165 585l97 163l107 -48l-120 -115h-84zM89 0v700h487v-110h-366v-174h328v-108h-328v-197h375v-111h-496z" />
    <glyph glyph-name="Etatonos" unicode="&#x389;" horiz-adv-x="759" 
d="M-165 585l97 163l107 -48l-120 -115h-84zM89 0v700h121v-283h331v283h121v-700h-121v307h-331v-307h-121z" />
    <glyph glyph-name="Iotatonos" unicode="&#x38a;" horiz-adv-x="299" 
d="M-165 585l97 163l107 -48l-120 -115h-84zM89 0v700h121v-700h-121z" />
    <glyph glyph-name="Omicrontonos" unicode="&#x38c;" horiz-adv-x="846" 
d="M-81 585l97 163l107 -48l-120 -115h-84zM422 -10q-158 0 -263 104t-105 256q0 153 103.5 256.5t266.5 103.5q157 0 262.5 -104t105.5 -256q0 -153 -103.5 -256.5t-266.5 -103.5zM424 101q105 0 173.5 70.5t68.5 178.5q0 107 -69.5 178t-174.5 71t-173.5 -70.5
t-68.5 -178.5q0 -107 69.5 -178t174.5 -71z" />
    <glyph glyph-name="Upsilontonos" unicode="&#x38e;" horiz-adv-x="686" 
d="M-203 585l97 163l107 -48l-120 -115h-84zM345 410l181 290h141l-264 -410v-290h-121v290l-263 410h145l179 -290h2z" />
    <glyph glyph-name="Omegatonos" unicode="&#x38f;" horiz-adv-x="840" 
d="M476 0v108q83 24 133 95t50 163q0 100 -65 166.5t-175 66.5q-109 0 -173.5 -66.5t-64.5 -166.5q0 -89 50.5 -162.5t134.5 -95.5v-108h-303v109h131q-65 36 -101.5 104t-36.5 155q0 146 100 244t264 98q163 0 263.5 -99.5t100.5 -242.5q0 -85 -36 -153t-101 -106h130v-109
h-301zM-82 585l97 163l107 -48l-120 -115h-84z" />
    <glyph glyph-name="iotadieresistonos" unicode="&#x390;" horiz-adv-x="274" 
d="M93 585l53 173l101 -38l-78 -135h-76zM360 641q0 -25 -17.5 -42.5t-41.5 -17.5t-41 18t-17 42q0 23 16.5 40.5t39.5 17.5q25 0 43 -17t18 -41zM77 641q0 -25 -17.5 -42.5t-42.5 -17.5q-24 0 -41 18t-17 42q0 23 17 40.5t40 17.5q24 0 42.5 -17t18.5 -41zM79 0v506h116
v-506h-116z" />
    <glyph glyph-name="Alpha" unicode="&#x391;" horiz-adv-x="763" 
d="M149 0h-128l307 703h109l305 -703h-133l-67 163h-324zM380 550l-120 -286h240l-118 286h-2z" />
    <glyph glyph-name="Beta" unicode="&#x392;" horiz-adv-x="680" 
d="M210 409h134q62 0 95.5 25t33.5 72q0 91 -116 91h-147v-188zM210 103h166q64 0 100 28t36 78q0 46 -38 72t-110 26h-154v-204zM486 373v-2q66 -18 107.5 -62.5t41.5 -112.5q0 -91 -69 -143.5t-186 -52.5h-291v700h277q105 0 167.5 -45t62.5 -131q0 -106 -110 -151z" />
    <glyph glyph-name="Gamma" unicode="&#x393;" horiz-adv-x="579" 
d="M89 0v700h463v-111h-342v-589h-121z" />
    <glyph glyph-name="uni0394" unicode="&#x394;" horiz-adv-x="768" 
d="M570 108l-185 446l-2 -1l-189 -445h376zM21 0l310 703h109l307 -703h-726z" />
    <glyph glyph-name="Epsilon" unicode="&#x395;" horiz-adv-x="640" 
d="M89 0v700h487v-110h-366v-174h328v-108h-328v-197h375v-111h-496z" />
    <glyph glyph-name="Zeta" unicode="&#x396;" horiz-adv-x="659" 
d="M605 0h-551v108l394 482h-382v110h531v-109l-390 -481h398v-110z" />
    <glyph glyph-name="Eta" unicode="&#x397;" horiz-adv-x="759" 
d="M89 0v700h121v-283h331v283h121v-700h-121v307h-331v-307h-121z" />
    <glyph glyph-name="Theta" unicode="&#x398;" horiz-adv-x="853" 
d="M573 303h-293v107h293v-107zM425 -10q-159 0 -265 103t-106 257q0 155 104.5 257.5t268.5 102.5q159 0 265.5 -103t106.5 -257q0 -155 -105 -257.5t-269 -102.5zM427 101q107 0 176.5 70t69.5 179q0 108 -70.5 178.5t-177.5 70.5q-106 0 -175.5 -70t-69.5 -179
q0 -108 70.5 -178.5t176.5 -70.5z" />
    <glyph glyph-name="Iota" unicode="&#x399;" horiz-adv-x="299" 
d="M89 0v700h121v-700h-121z" />
    <glyph glyph-name="Kappa" unicode="&#x39a;" horiz-adv-x="713" 
d="M210 700v-336l315 336h150l-291 -302l308 -398h-148l-241 313l-93 -97v-216h-121v700h121z" />
    <glyph glyph-name="Lambda" unicode="&#x39b;" horiz-adv-x="727" 
d="M361 544l-214 -544h-126l289 703h109l288 -703h-132l-212 544h-2z" />
    <glyph glyph-name="Mu" unicode="&#x39c;" horiz-adv-x="874" 
d="M662 503l-220 -311h-9l-223 311h-2v-503h-119v700h122l226 -315l223 315h126v-700h-122v503h-2z" />
    <glyph glyph-name="Nu" unicode="&#x39d;" horiz-adv-x="806" 
d="M597 213h3v487h118v-700h-103l-404 503h-2v-503h-120v700h118z" />
    <glyph glyph-name="Xi" unicode="&#x39e;" horiz-adv-x="665" 
d="M61 586v114h542v-114h-542zM54 0v116h556v-116h-556zM93 304v115h478v-115h-478z" />
    <glyph glyph-name="Omicron" unicode="&#x39f;" horiz-adv-x="846" 
d="M422 -10q-158 0 -263 104t-105 256q0 153 103.5 256.5t266.5 103.5q157 0 262.5 -104t105.5 -256q0 -153 -103.5 -256.5t-266.5 -103.5zM424 101q105 0 173.5 70.5t68.5 178.5q0 107 -69.5 178t-174.5 71t-173.5 -70.5t-68.5 -178.5q0 -107 69.5 -178t174.5 -71z" />
    <glyph glyph-name="Pi" unicode="&#x3a0;" horiz-adv-x="737" 
d="M89 0v700h559v-700h-121v588h-317v-588h-121z" />
    <glyph glyph-name="Rho" unicode="&#x3a1;" horiz-adv-x="634" 
d="M591 491q0 -104 -71 -156.5t-188 -52.5h-122v-282h-121v700h243q119 0 189 -53t70 -156zM466 491q0 105 -139 105h-117v-211h118q64 0 101 26t37 80z" />
    <glyph glyph-name="Sigma" unicode="&#x3a3;" horiz-adv-x="664" 
d="M70 606v94h530v-110h-358l194 -224l-218 -256h391v-110h-555v91l228 268z" />
    <glyph glyph-name="Tau" unicode="&#x3a4;" horiz-adv-x="606" 
d="M576 589h-213v-589h-121v589h-213v111h547v-111z" />
    <glyph glyph-name="Upsilon" unicode="&#x3a5;" horiz-adv-x="686" 
d="M345 410l181 290h141l-264 -410v-290h-121v290l-263 410h145l179 -290h2z" />
    <glyph glyph-name="Phi" unicode="&#x3a6;" horiz-adv-x="904" 
d="M393 -7v66q-152 7 -245.5 83t-93.5 210t94 213.5t245 88.5v53h118v-53q151 -8 245 -88t94 -214q0 -133 -94 -209t-245 -84v-66h-118zM177 352q0 -82 58 -132.5t158 -58.5v391q-99 -6 -157.5 -60.5t-58.5 -139.5zM727 352q0 83 -59 138t-157 62v-392q99 7 157.5 57.5
t58.5 134.5z" />
    <glyph glyph-name="Chi" unicode="&#x3a7;" horiz-adv-x="698" 
d="M657 700l-238 -339l252 -361h-144l-180 266l-181 -266h-139l251 358l-238 342h144l166 -246l167 246h140z" />
    <glyph glyph-name="Psi" unicode="&#x3a8;" horiz-adv-x="833" 
d="M357 0v130q-133 5 -209 77t-76 218v275h117v-274q0 -91 45 -139t123 -53v466h118v-466q79 5 124 54t45 143v269h118v-275q0 -143 -78 -216.5t-209 -78.5v-130h-118z" />
    <glyph glyph-name="uni03A9" unicode="&#x3a9;" horiz-adv-x="840" 
d="M476 0v108q83 24 133 95t50 163q0 100 -65 166.5t-175 66.5q-109 0 -173.5 -66.5t-64.5 -166.5q0 -89 50.5 -162.5t134.5 -95.5v-108h-303v109h131q-65 36 -101.5 104t-36.5 155q0 146 100 244t264 98q163 0 263.5 -99.5t100.5 -242.5q0 -85 -36 -153t-101 -106h130v-109
h-301z" />
    <glyph glyph-name="Iotadieresis" unicode="&#x3aa;" horiz-adv-x="299" 
d="M314 815q0 -29 -20 -50t-49 -21t-49 21.5t-20 49.5q0 27 20 47.5t48 20.5t49 -20t21 -48zM126 815q0 -29 -20.5 -50t-49.5 -21t-49 21.5t-20 49.5q0 27 20 47.5t48 20.5t49.5 -20t21.5 -48zM89 0v700h121v-700h-121z" />
    <glyph glyph-name="Upsilondieresis" unicode="&#x3ab;" horiz-adv-x="686" 
d="M508 815q0 -29 -20 -50t-49 -21t-49 21.5t-20 49.5q0 27 20 47.5t48 20.5t49 -20t21 -48zM320 815q0 -29 -20.5 -50t-49.5 -21t-49 21.5t-20 49.5q0 27 20 47.5t48 20.5t49.5 -20t21.5 -48zM345 410l181 290h141l-264 -410v-290h-121v290l-263 410h145l179 -290h2z" />
    <glyph glyph-name="alphatonos" unicode="&#x3ac;" horiz-adv-x="638" 
d="M264 585l97 163l107 -48l-120 -115h-84zM286 -10q-97 0 -168 70t-71 193t70.5 193t165.5 70q105 0 163 -76h2v71h117v-511h-117v65h-2q-57 -75 -160 -75zM310 92q59 0 102 44t43 116q0 75 -42.5 118t-102.5 43q-61 0 -103.5 -43.5t-42.5 -116.5q0 -75 42 -118t104 -43z
" />
    <glyph glyph-name="epsilontonos" unicode="&#x3ad;" horiz-adv-x="553" 
d="M247 585l97 163l107 -48l-120 -115h-84zM158 263v2q-41 10 -64.5 39.5t-23.5 69.5q0 72 62 107t148 35q142 0 225 -81l-69 -69q-65 56 -154 56q-98 0 -98 -63q0 -29 22 -43t55 -14h111v-80h-116q-43 0 -67 -19.5t-24 -51.5q0 -67 115 -67q48 0 94.5 19t75.5 50l68 -67
q-96 -96 -241 -96q-115 0 -171.5 39.5t-56.5 110.5q0 46 30 79t79 44z" />
    <glyph glyph-name="etatonos" unicode="&#x3ae;" horiz-adv-x="593" 
d="M270 585l97 163l107 -48l-120 -115h-84zM74 0v506h116v-63h3q51 73 151 73q80 0 130.5 -54.5t50.5 -145.5v-506h-115v479q0 58 -29 91t-78 33q-50 0 -81.5 -36.5t-31.5 -95.5v-281h-116z" />
    <glyph glyph-name="iotatonos" unicode="&#x3af;" horiz-adv-x="274" 
d="M96 585l97 163l107 -48l-120 -115h-84zM79 0v506h116v-506h-116z" />
    <glyph glyph-name="upsilondieresistonos" unicode="&#x3b0;" horiz-adv-x="588" 
d="M243 585l53 173l101 -38l-78 -135h-76zM510 641q0 -25 -17.5 -42.5t-41.5 -17.5t-41 18t-17 42q0 23 16.5 40.5t39.5 17.5q25 0 43 -17t18 -41zM227 641q0 -25 -17.5 -42.5t-42.5 -17.5q-24 0 -41 18t-17 42q0 23 17 40.5t40 17.5q24 0 42.5 -17t18.5 -41zM520 506v-277
q0 -103 -55.5 -171t-172.5 -68q-60 0 -105 19.5t-70 54t-37 76t-12 89.5v277h116v-271q0 -68 27.5 -105.5t81.5 -37.5t82.5 37.5t28.5 105.5v271h116z" />
    <glyph glyph-name="alpha" unicode="&#x3b1;" horiz-adv-x="638" 
d="M286 -10q-97 0 -168 70t-71 193t70.5 193t165.5 70q105 0 163 -76h2v71h117v-511h-117v65h-2q-57 -75 -160 -75zM310 92q59 0 102 44t43 116q0 75 -42.5 118t-102.5 43q-61 0 -103.5 -43.5t-42.5 -116.5q0 -75 42 -118t104 -43z" />
    <glyph glyph-name="beta" unicode="&#x3b2;" horiz-adv-x="632" 
d="M331 93q57 0 97 34t40 94q0 68 -42 102.5t-105 34.5h-32v95h30q44 0 71.5 30t27.5 79q0 44 -32.5 71t-79.5 27q-50 0 -83 -37.5t-33 -98.5v-277q0 -78 45 -116t96 -38zM193 63h-3v-253h-116v712q0 109 64 173.5t173 64.5q100 0 161.5 -54t61.5 -136q0 -54 -30 -96
t-81 -58q78 -21 120 -72.5t42 -128.5q0 -95 -67.5 -160t-164.5 -65q-104 0 -160 73z" />
    <glyph glyph-name="gamma" unicode="&#x3b3;" horiz-adv-x="574" 
d="M288 130l142 376h122l-208 -511v-185h-116v187l-206 509h124l140 -376h2z" />
    <glyph glyph-name="delta" unicode="&#x3b4;" horiz-adv-x="628" 
d="M315 92q67 0 108 45.5t41 109.5q0 61 -38.5 107.5t-107.5 46.5q-76 0 -115 -44.5t-39 -109.5q0 -63 43 -109t108 -46zM286 653l189 -181q106 -103 106 -225q0 -107 -75.5 -182t-192.5 -75q-116 0 -191 74.5t-75 182.5q0 105 68 172.5t167 67.5q17 0 27 -2l-194 181v84
h404v-97h-233z" />
    <glyph glyph-name="epsilon" unicode="&#x3b5;" horiz-adv-x="553" 
d="M158 263v2q-41 10 -64.5 39.5t-23.5 69.5q0 72 62 107t148 35q142 0 225 -81l-69 -69q-65 56 -154 56q-98 0 -98 -63q0 -29 22 -43t55 -14h111v-80h-116q-43 0 -67 -19.5t-24 -51.5q0 -67 115 -67q48 0 94.5 19t75.5 50l68 -67q-96 -96 -241 -96q-115 0 -171.5 39.5
t-56.5 110.5q0 46 30 79t79 44z" />
    <glyph glyph-name="zeta" unicode="&#x3b6;" horiz-adv-x="518" 
d="M364 650h-272v100h417v-89q-150 -118 -246.5 -241.5t-96.5 -220.5q0 -50 29 -70.5t112 -27.5q101 -9 147.5 -35t46.5 -89q0 -38 -27 -144h-100q22 84 22 113q0 30 -23.5 39t-91.5 13q-129 9 -181.5 55.5t-52.5 134.5q0 99 90 225.5t227 236.5z" />
    <glyph glyph-name="eta" unicode="&#x3b7;" horiz-adv-x="593" 
d="M74 0v506h116v-63h3q51 73 151 73q80 0 130.5 -54.5t50.5 -145.5v-506h-115v479q0 58 -29 91t-78 33q-50 0 -81.5 -36.5t-31.5 -95.5v-281h-116z" />
    <glyph glyph-name="theta" unicode="&#x3b8;" horiz-adv-x="644" 
d="M583 373q0 -106 -27 -190.5t-87.5 -138.5t-147.5 -54t-147 54t-86.5 138t-26.5 191q0 106 27 191.5t87.5 140.5t146.5 55q88 0 148.5 -55.5t86.5 -140t26 -191.5zM462 429q-3 101 -39.5 167.5t-101.5 66.5q-66 0 -102.5 -66.5t-38.5 -167.5h282zM178 334
q2 -111 38.5 -177.5t105.5 -66.5q70 0 105 66.5t37 177.5h-286z" />
    <glyph glyph-name="iota" unicode="&#x3b9;" horiz-adv-x="274" 
d="M79 0v506h116v-506h-116z" />
    <glyph glyph-name="kappa" unicode="&#x3ba;" horiz-adv-x="551" 
d="M190 506v-209l205 209h138l-201 -203l207 -303h-131l-153 223l-65 -65v-158h-116v506h116z" />
    <glyph glyph-name="lambda" unicode="&#x3bb;" horiz-adv-x="568" 
d="M242 506l-31 86q-24 66 -75 66q-20 0 -51 -7l-15 99q38 10 82 10q58 0 95 -31t63 -101l236 -628h-122l-129 359h-2l-147 -359h-124z" />
    <glyph glyph-name="uni03BC" unicode="&#x3bc;" horiz-adv-x="599" 
d="M191 54h-1v-244h-116v696h116v-283q0 -59 28 -95t82 -36q46 0 77.5 35.5t31.5 95.5v283h116v-506h-116v64h-2q-37 -72 -110 -72t-106 62z" />
    <glyph glyph-name="nu" unicode="&#x3bd;" horiz-adv-x="574" 
d="M231 -4l-209 510h124l140 -368h2l142 368h122l-210 -510h-111z" />
    <glyph glyph-name="xi" unicode="&#x3be;" horiz-adv-x="538" 
d="M476 355h-142q-78 0 -123 -31.5t-45 -97.5q0 -51 30.5 -81t108.5 -42q42 -6 71 -12.5t58 -16.5t46.5 -23t28 -32t10.5 -44q0 -41 -26 -142h-99q18 74 18 96q0 13 -4 22.5t-14 16.5l-17.5 12t-26 9t-27.5 5.5l-33 5.5t-33 5q-210 37 -210 212q0 66 40.5 121t132.5 76
q-64 14 -90 49.5t-26 72.5q0 39 26 74t84 47h-131v93h445v-100h-136q-86 0 -128.5 -28t-42.5 -76q0 -45 37.5 -67t89.5 -22h128v-102z" />
    <glyph glyph-name="omicron" unicode="&#x3bf;" horiz-adv-x="628" 
d="M313 -10q-115 0 -190.5 75t-75.5 188q0 112 76.5 187.5t190.5 75.5q115 0 191 -75.5t76 -187.5q0 -113 -76.5 -188t-191.5 -75zM314 92q66 0 108 46.5t42 114.5q0 67 -43 114t-108 47q-66 0 -107.5 -46.5t-41.5 -114.5q0 -67 42.5 -114t107.5 -47z" />
    <glyph glyph-name="pi" unicode="&#x3c0;" horiz-adv-x="590" 
d="M74 0v506h443v-506h-117v408h-209v-408h-117z" />
    <glyph glyph-name="rho" unicode="&#x3c1;" horiz-adv-x="624" 
d="M315 91q66 0 104 43.5t38 118.5t-37.5 118.5t-105.5 43.5q-66 0 -106.5 -45t-40.5 -119q0 -70 41.5 -115t106.5 -45zM174 55h-1v-245h-116v443q0 117 71 190t187 73q114 0 187 -69.5t73 -190.5q0 -122 -74 -194t-175 -72q-98 0 -152 65z" />
    <glyph glyph-name="sigma1" unicode="&#x3c2;" horiz-adv-x="550" 
d="M315 97q83 -25 117.5 -55t34.5 -85q0 -37 -23 -124h-100q19 74 19 96q0 21 -17.5 36.5t-36.5 22.5t-51 16q-211 57 -211 254q0 109 73.5 183.5t188.5 74.5q129 0 212 -96l-84 -71q-54 65 -130 65q-62 0 -102.5 -45t-40.5 -108q0 -68 34 -104t117 -60z" />
    <glyph glyph-name="sigma" unicode="&#x3c3;" horiz-adv-x="640" 
d="M314 506h294v-94h-124v-2q46 -19 71.5 -63t25.5 -101q0 -111 -76.5 -183.5t-191.5 -72.5q-114 0 -190 73.5t-76 184.5q0 112 75.5 185t191.5 73zM314 92q67 0 108.5 44t41.5 112q0 67 -43 112t-108 45q-67 0 -108 -44.5t-41 -112.5q0 -66 42.5 -111t107.5 -45z" />
    <glyph glyph-name="tau" unicode="&#x3c4;" horiz-adv-x="475" 
d="M181 0v405h-154v101h421v-101h-151v-405h-116z" />
    <glyph glyph-name="upsilon" unicode="&#x3c5;" horiz-adv-x="588" 
d="M520 506v-277q0 -103 -55.5 -171t-172.5 -68q-60 0 -105 19.5t-70 54t-37 76t-12 89.5v277h116v-271q0 -68 27.5 -105.5t81.5 -37.5t82.5 37.5t28.5 105.5v271h116z" />
    <glyph glyph-name="phi" unicode="&#x3c6;" horiz-adv-x="773" 
d="M328 -190v183q-135 8 -208 76t-73 180q0 196 196 259l32 -93q-54 -17 -84.5 -59.5t-30.5 -105.5q0 -73 44.5 -113t123.5 -49v425q32 2 66 2q147 0 237.5 -64t90.5 -198q0 -114 -71.5 -181.5t-209.5 -77.5v-184h-113zM608 254q0 149 -167 162v-328q167 21 167 166z" />
    <glyph glyph-name="chi" unicode="&#x3c7;" horiz-adv-x="562" 
d="M405 0l-124 173h-2l-125 -173h-132l191 258l-184 248h135l116 -162h2l117 162h132l-184 -246l194 -260h-136z" />
    <glyph glyph-name="psi" unicode="&#x3c8;" horiz-adv-x="764" 
d="M696 506v-277q0 -102 -63.5 -167.5t-193.5 -68.5v-183h-113v183q-130 3 -194 69t-64 167v277h116v-272q0 -65 35.5 -103t106.5 -41v583h113v-583q71 3 106 41t35 103v272h116z" />
    <glyph glyph-name="omega" unicode="&#x3c9;" horiz-adv-x="787" 
d="M626 239q0 26 -6 52t-19.5 53.5t-41 47t-64.5 23.5l15 101q108 -7 169 -81.5t61 -194.5q0 -118 -53.5 -184t-145.5 -66q-103 0 -148 99q-43 -99 -148 -99q-92 0 -145 66t-53 184q0 120 60.5 194.5t168.5 81.5l16 -101q-38 -4 -65.5 -23.5t-41 -47t-19.5 -53.5t-6 -52
q0 -149 94 -149q83 0 83 116v143h113v-143q0 -116 82 -116q94 0 94 149z" />
    <glyph glyph-name="iotadieresis" unicode="&#x3ca;" horiz-adv-x="274" 
d="M306 652q0 -29 -20 -50t-49 -21t-49 21.5t-20 49.5q0 27 20 47.5t48 20.5t49 -20t21 -48zM118 652q0 -29 -20.5 -50t-49.5 -21t-49 21.5t-20 49.5q0 27 20 47.5t48 20.5t49.5 -20t21.5 -48zM79 0v506h116v-506h-116z" />
    <glyph glyph-name="upsilondieresis" unicode="&#x3cb;" horiz-adv-x="588" 
d="M458 652q0 -29 -20 -50t-49 -21t-49 21.5t-20 49.5q0 27 20 47.5t48 20.5t49 -20t21 -48zM270 652q0 -29 -20.5 -50t-49.5 -21t-49 21.5t-20 49.5q0 27 20 47.5t48 20.5t49.5 -20t21.5 -48zM520 506v-277q0 -103 -55.5 -171t-172.5 -68q-60 0 -105 19.5t-70 54t-37 76
t-12 89.5v277h116v-271q0 -68 27.5 -105.5t81.5 -37.5t82.5 37.5t28.5 105.5v271h116z" />
    <glyph glyph-name="omicrontonos" unicode="&#x3cc;" horiz-adv-x="628" 
d="M279 585l97 163l107 -48l-120 -115h-84zM313 -10q-115 0 -190.5 75t-75.5 188q0 112 76.5 187.5t190.5 75.5q115 0 191 -75.5t76 -187.5q0 -113 -76.5 -188t-191.5 -75zM314 92q66 0 108 46.5t42 114.5q0 67 -43 114t-108 47q-66 0 -107.5 -46.5t-41.5 -114.5
q0 -67 42.5 -114t107.5 -47z" />
    <glyph glyph-name="upsilontonos" unicode="&#x3cd;" horiz-adv-x="588" 
d="M248 585l97 163l107 -48l-120 -115h-84zM520 506v-277q0 -103 -55.5 -171t-172.5 -68q-60 0 -105 19.5t-70 54t-37 76t-12 89.5v277h116v-271q0 -68 27.5 -105.5t81.5 -37.5t82.5 37.5t28.5 105.5v271h116z" />
    <glyph glyph-name="omegatonos" unicode="&#x3ce;" horiz-adv-x="787" 
d="M357 585l97 163l107 -48l-120 -115h-84zM626 239q0 26 -6 52t-19.5 53.5t-41 47t-64.5 23.5l15 101q108 -7 169 -81.5t61 -194.5q0 -118 -53.5 -184t-145.5 -66q-103 0 -148 99q-43 -99 -148 -99q-92 0 -145 66t-53 184q0 120 60.5 194.5t168.5 81.5l16 -101
q-38 -4 -65.5 -23.5t-41 -47t-19.5 -53.5t-6 -52q0 -149 94 -149q83 0 83 116v143h113v-143q0 -116 82 -116q94 0 94 149z" />
    <glyph glyph-name="uni03D7" unicode="&#x3d7;" horiz-adv-x="997" 
d="M741 506l-203 -174l114 -140q49 -61 104 -61q53 0 87.5 53t34.5 126q0 147 -107 244t-263 97q-102 0 -191.5 -51.5t-144 -143t-54.5 -198.5q0 -153 104 -258t264 -105q123 0 238 66l29 -50q-126 -75 -268 -75q-186 0 -308.5 122.5t-122.5 298.5q0 115 58 219t163.5 169
t231.5 65q181 0 310.5 -113.5t129.5 -283.5q0 -116 -63 -187t-146 -71q-94 0 -169 92l-100 123l-89 -77l-28 -113h-102l105 426h102l-45 -183l208 183h121z" />
    <glyph glyph-name="endash" unicode="&#x2013;" horiz-adv-x="584" 
d="M529 246h-472v112h472v-112z" />
    <glyph glyph-name="emdash" unicode="&#x2014;" horiz-adv-x="995" 
d="M940 246h-886v112h886v-112z" />
    <glyph glyph-name="afii00208" unicode="&#x2015;" horiz-adv-x="995" 
d="M940 246h-886v112h886v-112z" />
    <glyph glyph-name="quoteleft" unicode="&#x2018;" horiz-adv-x="282" 
d="M234 700l-51 -257h-134l83 257h102z" />
    <glyph glyph-name="quoteright" unicode="&#x2019;" horiz-adv-x="282" 
d="M49 443l50 257h135l-83 -257h-102z" />
    <glyph glyph-name="quotesinglbase" unicode="&#x201a;" horiz-adv-x="280" 
d="M52 -125l50 256h135l-83 -256h-102z" />
    <glyph glyph-name="quotedblleft" unicode="&#x201c;" horiz-adv-x="490" 
d="M442 700l-51 -257h-134l83 257h102zM234 700l-51 -257h-134l83 257h102z" />
    <glyph glyph-name="quotedblright" unicode="&#x201d;" horiz-adv-x="490" 
d="M49 443l50 257h135l-83 -257h-102zM257 443l50 257h135l-83 -257h-102z" />
    <glyph glyph-name="quotedblbase" unicode="&#x201e;" horiz-adv-x="489" 
d="M52 -125l50 256h135l-83 -256h-102zM260 -125l50 256h135l-83 -256h-102z" />
    <glyph glyph-name="dagger" unicode="&#x2020;" horiz-adv-x="419" 
d="M170 224v277h-116v69h116v130h78v-130h116v-69h-116v-277h-78z" />
    <glyph glyph-name="daggerdbl" unicode="&#x2021;" horiz-adv-x="419" 
d="M54 200h116v301h-116v69h116v130h78v-130h116v-69h-116v-301h116v-69h-116v-131h-78v131h-116v69z" />
    <glyph glyph-name="bullet" unicode="&#x2022;" horiz-adv-x="502" 
d="M82 346q0 71 49.5 120.5t119.5 49.5t119.5 -49.5t49.5 -120.5q0 -70 -49 -119.5t-120 -49.5t-120 49.5t-49 119.5z" />
    <glyph glyph-name="onedotenleader" unicode="&#x2024;" horiz-adv-x="272" 
d="M212 72q0 -32 -22 -54.5t-54 -22.5t-54.5 22.5t-22.5 54.5t22.5 54t54.5 22t54 -22t22 -54z" />
    <glyph glyph-name="twodotenleader" unicode="&#x2025;" horiz-adv-x="542" 
d="M212 72q0 -32 -22 -54.5t-54 -22.5t-54.5 22.5t-22.5 54.5t22.5 54t54.5 22t54 -22t22 -54zM487 72q0 -32 -22 -54.5t-54 -22.5t-54.5 22.5t-22.5 54.5t22.5 54t54.5 22q31 0 53.5 -22t22.5 -54z" />
    <glyph glyph-name="ellipsis" unicode="&#x2026;" horiz-adv-x="843" 
d="M212 72q0 -32 -22 -54.5t-54 -22.5t-54.5 22.5t-22.5 54.5t22.5 54t54.5 22t54 -22t22 -54zM498 72q0 -32 -22.5 -54.5t-54.5 -22.5t-54 22.5t-22 54.5t22.5 54t53.5 22q32 0 54.5 -22t22.5 -54zM784 72q0 -32 -22.5 -54.5t-54.5 -22.5t-54 22.5t-22 54.5t22 54t54 22
t54.5 -22.5t22.5 -53.5z" />
    <glyph glyph-name="perthousand" unicode="&#x2030;" horiz-adv-x="1164" 
d="M137 0l445 700h88l-445 -700h-88zM202 345q-67 0 -109.5 49.5t-42.5 130.5q0 80 42.5 130t109.5 50t110 -50t43 -130t-43 -130t-110 -50zM202 417q31 0 51 28t20 80t-20 80t-51 28t-51 -28t-20 -80q0 -51 20 -79.5t51 -28.5zM606 -5q-67 0 -109.5 49.5t-42.5 130.5
q0 80 42.5 130t109.5 50t110 -50t43 -130t-43 -130t-110 -50zM606 67q31 0 51 28t20 80t-20 80t-51 28t-51 -28t-20 -80q0 -51 20 -79.5t51 -28.5zM962 -5q-67 0 -109.5 49.5t-42.5 130.5q0 80 42.5 130t109.5 50t109.5 -50t42.5 -130t-42.5 -130t-109.5 -50zM962 67
q30 0 50.5 28t20.5 80t-20.5 80t-50.5 28q-31 0 -51 -28t-20 -80q0 -51 20 -79.5t51 -28.5z" />
    <glyph glyph-name="guilsinglleft" unicode="&#x2039;" horiz-adv-x="329" 
d="M277 89l-75 -50l-160 224l159 223l76 -50l-122 -173z" />
    <glyph glyph-name="guilsinglright" unicode="&#x203a;" horiz-adv-x="329" 
d="M127 39l-75 50l122 174l-121 173l75 50l159 -223z" />
    <glyph glyph-name="fraction" unicode="&#x2044;" horiz-adv-x="204" 
d="M-151 -35l439 804l67 -35l-440 -804z" />
    <glyph glyph-name="zerosuperior" unicode="&#x2070;" horiz-adv-x="404" 
d="M202 345q-67 0 -109.5 49.5t-42.5 130.5q0 80 42.5 130t109.5 50t110 -50t43 -130t-43 -130t-110 -50zM202 417q31 0 51 28t20 80t-20 80t-51 28t-51 -28t-20 -80q0 -51 20 -79.5t51 -28.5z" />
    <glyph glyph-name="foursuperior" unicode="&#x2074;" horiz-adv-x="348" 
d="M321 417h-42v-67h-81v67h-165v69l141 214h105v-214h42v-69zM198 486v129l-86 -129h86z" />
    <glyph glyph-name="fivesuperior" unicode="&#x2075;" horiz-adv-x="355" 
d="M49 434l75 23q15 -41 52 -41q24 0 38 16.5t14 39.5q0 24 -12.5 39.5t-37.5 15.5q-31 0 -63 -22l-51 26l8 169h221v-69h-148l-3 -53q21 9 47 9q55 0 88.5 -31t33.5 -87q0 -54 -39.5 -89t-100.5 -35q-44 0 -77 25t-45 64z" />
    <glyph glyph-name="sixsuperior" unicode="&#x2076;" horiz-adv-x="361" 
d="M181 345q-58 0 -98.5 34.5t-40.5 87.5q0 32 9.5 55t32.5 57l83 121h85l-77 -115l1 -1q12 4 27 4q51 0 83.5 -33t32.5 -84q0 -53 -40.5 -89.5t-97.5 -36.5zM240 473q0 57 -59 57q-29 0 -44 -16.5t-15 -40.5q0 -27 16 -42.5t43 -15.5q26 0 42.5 15.5t16.5 42.5z" />
    <glyph glyph-name="sevensuperior" unicode="&#x2077;" horiz-adv-x="307" 
d="M283 700v-59l-140 -291h-84l134 280h-169v70h259z" />
    <glyph glyph-name="eightsuperior" unicode="&#x2078;" horiz-adv-x="376" 
d="M188 345q-63 0 -102 28.5t-39 76.5q0 63 62 84v1q-51 21 -51 73q0 44 36 70.5t94 26.5t94.5 -26.5t36.5 -70.5q0 -52 -52 -73v-1q62 -22 62 -84q0 -48 -39 -76.5t-102 -28.5zM188 558q22 0 37 11.5t15 29.5t-14 29t-38 11t-38 -11t-14 -29t15 -29.5t37 -11.5zM188 412
q29 0 45 11.5t16 31.5q0 19 -16 31t-45 12q-28 0 -44.5 -12t-16.5 -31q0 -20 16 -31.5t45 -11.5z" />
    <glyph glyph-name="ninesuperior" unicode="&#x2079;" horiz-adv-x="361" 
d="M42 579q0 53 40.5 89.5t97.5 36.5q58 0 98.5 -34.5t40.5 -87.5q0 -32 -9.5 -55.5t-32.5 -57.5l-83 -120h-85l78 115l-1 1q-14 -4 -28 -4q-51 0 -83.5 33t-32.5 84zM121 577q0 -27 15 -42.5t44 -15.5t44 17t15 41q0 27 -16 42.5t-43 15.5q-26 0 -42.5 -15.5t-16.5 -42.5z
" />
    <glyph glyph-name="parenleftsuperior" unicode="&#x207d;" horiz-adv-x="206" 
d="M184 338l-57 -34q-77 108 -77 221q0 112 77 221l56 -34q-56 -86 -56 -187t57 -187z" />
    <glyph glyph-name="parenrightsuperior" unicode="&#x207e;" horiz-adv-x="206" 
d="M79 304l-57 34q57 86 57 187t-56 187l56 34q77 -109 77 -221q0 -113 -77 -221z" />
    <glyph glyph-name="zeroinferior" unicode="&#x2080;" horiz-adv-x="404" 
d="M202 -5q-67 0 -109.5 49.5t-42.5 130.5q0 80 42.5 130t109.5 50t110 -50t43 -130t-43 -130t-110 -50zM202 67q31 0 51 28t20 80t-20 80t-51 28t-51 -28t-20 -80q0 -51 20 -79.5t51 -28.5z" />
    <glyph glyph-name="oneinferior" unicode="&#x2081;" horiz-adv-x="277" 
d="M118 275l-62 -35l-31 58l98 52h75v-350h-80v275z" />
    <glyph glyph-name="twoinferior" unicode="&#x2082;" horiz-adv-x="345" 
d="M44 61l115 103q21 18 31 28t18 24.5t8 29.5q0 18 -12 28.5t-32 10.5q-38 0 -48 -45l-79 8q7 49 40.5 78t86.5 29q57 0 92 -27.5t35 -78.5q0 -32 -16 -57t-58 -61l-64 -59h140v-72h-257v61z" />
    <glyph glyph-name="threeinferior" unicode="&#x2083;" horiz-adv-x="347" 
d="M303 100q0 -47 -38 -76t-98 -29q-53 0 -87.5 26t-44.5 71l79 16q12 -43 54 -43q22 0 36.5 11.5t14.5 30.5q0 44 -58 44h-33v60h30q54 0 54 37q0 17 -12 27t-30 10q-37 0 -48 -35l-79 15q13 43 47 66.5t81 23.5q53 0 88 -23t35 -69q0 -62 -66 -78q34 -8 54.5 -30.5
t20.5 -54.5z" />
    <glyph glyph-name="fourinferior" unicode="&#x2084;" horiz-adv-x="348" 
d="M321 67h-42v-67h-81v67h-165v69l141 214h105v-214h42v-69zM198 136v129l-86 -129h86z" />
    <glyph glyph-name="fiveinferior" unicode="&#x2085;" horiz-adv-x="355" 
d="M49 84l75 23q15 -41 52 -41q24 0 38 16.5t14 39.5q0 24 -12.5 39.5t-37.5 15.5q-31 0 -63 -22l-51 26l8 169h221v-69h-148l-3 -53q21 9 47 9q55 0 88.5 -31t33.5 -87q0 -54 -39.5 -89t-100.5 -35q-44 0 -77 25t-45 64z" />
    <glyph glyph-name="sixinferior" unicode="&#x2086;" horiz-adv-x="361" 
d="M181 -5q-58 0 -98.5 34.5t-40.5 87.5q0 32 9.5 55t32.5 57l83 121h85l-77 -115l1 -1q12 4 27 4q51 0 83.5 -33t32.5 -84q0 -53 -40.5 -89.5t-97.5 -36.5zM240 123q0 57 -59 57q-29 0 -44 -16.5t-15 -40.5q0 -27 16 -42.5t43 -15.5q26 0 42.5 15.5t16.5 42.5z" />
    <glyph glyph-name="seveninferior" unicode="&#x2087;" horiz-adv-x="307" 
d="M283 350v-59l-140 -291h-84l134 280h-169v70h259z" />
    <glyph glyph-name="eightinferior" unicode="&#x2088;" horiz-adv-x="376" 
d="M188 -5q-63 0 -102 28.5t-39 76.5q0 63 62 84v1q-51 21 -51 73q0 44 36 70.5t94 26.5t94.5 -26.5t36.5 -70.5q0 -52 -52 -73v-1q62 -22 62 -84q0 -48 -39 -76.5t-102 -28.5zM188 208q22 0 37 11.5t15 29.5t-14 29t-38 11t-38 -11t-14 -29t15 -29.5t37 -11.5zM188 62
q29 0 45 11.5t16 31.5q0 19 -16 31t-45 12q-28 0 -44.5 -12t-16.5 -31q0 -20 16 -31.5t45 -11.5z" />
    <glyph glyph-name="nineinferior" unicode="&#x2089;" horiz-adv-x="361" 
d="M42 229q0 53 40.5 89.5t97.5 36.5q58 0 98.5 -34.5t40.5 -87.5q0 -32 -9.5 -55.5t-32.5 -57.5l-83 -120h-85l78 115l-1 1q-14 -4 -28 -4q-51 0 -83.5 33t-32.5 84zM121 227q0 -27 15 -42.5t44 -15.5t44 17t15 41q0 27 -16 42.5t-43 15.5q-26 0 -42.5 -15.5t-16.5 -42.5z
" />
    <glyph glyph-name="parenleftinferior" unicode="&#x208d;" horiz-adv-x="206" 
d="M184 -12l-57 -34q-77 108 -77 221q0 112 77 221l56 -34q-56 -86 -56 -187t57 -187z" />
    <glyph glyph-name="parenrightinferior" unicode="&#x208e;" horiz-adv-x="206" 
d="M79 -46l-57 34q57 86 57 187t-56 187l56 34q77 -109 77 -221q0 -113 -77 -221z" />
    <glyph glyph-name="colonmonetary" unicode="&#x20a1;" horiz-adv-x="615" 
d="M443 758l-28 -71q18 -8 46 -26l37 97h63l-54 -141q47 -48 59 -121h-126q-11 51 -44.5 76t-75.5 25q-142 0 -142 -191v-112q0 -190 142 -190q96 0 120 94h126q-21 -99 -88 -152t-160 -53q-7 0 -14 0.5t-16 1.5t-14 1l-16 -46h-63l22 58q-21 7 -47 23l-30 -81h-63l45 122
q-66 75 -66 212v132q0 147 73 219t189 72q14 0 40 -4l22 55h63z" />
    <glyph glyph-name="Euro" unicode="&#x20ac;" horiz-adv-x="705" 
d="M37 447h102q23 122 99 192.5t186 70.5q80 0 132.5 -29t96.5 -86l-90 -71q-33 41 -63 59t-77 18q-57 0 -98.5 -41t-58.5 -113h263v-59h-272q-1 -12 -1 -38q0 -28 1 -40h272v-59h-262q18 -71 59.5 -112t97.5 -41q50 0 83 18.5t65 63.5l86 -64q-44 -65 -98.5 -95.5
t-135.5 -30.5q-111 0 -187 69t-98 192h-102v59h95q-2 26 -2 40q0 26 1 38h-94v59z" />
    <glyph glyph-name="litre" unicode="&#x2113;" horiz-adv-x="405" 
d="M294 141h80q-2 -68 -37.5 -108t-96.5 -40q-66 0 -103.5 36.5t-37.5 110.5v136l-37 -23l-27 54q6 4 30 18.5t34 22.5v193q0 166 140 166q62 0 97 -36t35 -97q0 -64 -41.5 -120t-114.5 -117v-198q0 -54 40 -54q35 0 39 56zM289 568q0 51 -37 51t-37 -75v-121q39 40 56.5 72
t17.5 73z" />
    <glyph glyph-name="afii61352" unicode="&#x2116;" horiz-adv-x="1208" 
d="M1136 0h-335v63h335v-63zM100 0v700h73l448 -564h3v564h74v-700h-63l-457 574h-2v-574h-76zM964 138q-79 0 -133.5 51t-54.5 128t54.5 127.5t133.5 50.5q80 0 134.5 -50.5t54.5 -127.5t-54.5 -128t-134.5 -51zM964 202q51 0 83.5 32.5t32.5 82.5t-33 82t-83 32t-82.5 -32
t-32.5 -82t33 -82.5t82 -32.5z" />
    <glyph glyph-name="trademark" unicode="&#x2122;" horiz-adv-x="762" 
d="M123 351v269h-104v80h298v-80h-104v-269h-90zM350 351v349h77l100 -136l96 136h79v-349h-87l-1 192l-74 -105h-26l-75 102v-189h-89z" />
    <glyph glyph-name="Omega" unicode="&#x2126;" horiz-adv-x="840" 
d="M476 0v108q83 24 133 95t50 163q0 100 -65 166.5t-175 66.5q-109 0 -173.5 -66.5t-64.5 -166.5q0 -89 50.5 -162.5t134.5 -95.5v-108h-303v109h131q-65 36 -101.5 104t-36.5 155q0 146 100 244t264 98q163 0 263.5 -99.5t100.5 -242.5q0 -85 -36 -153t-101 -106h130v-109
h-301z" />
    <glyph glyph-name="estimated" unicode="&#x212e;" horiz-adv-x="726" 
d="M363 -6q-135 0 -230 95t-95 230q0 134 95 229.5t230 95.5q134 0 229.5 -95.5t95.5 -229.5v-9h-527q-4 0 -4 -4v-184q0 -13 7 -20q75 -89 200 -89q61 0 116.5 28.5t95.5 78.5h44q-45 -58 -112.5 -92t-144.5 -34zM161 328h403q5 0 5 5v185q0 10 -9 21q-75 85 -196 85
q-124 0 -199 -87q-8 -8 -8 -22v-182q0 -5 4 -5z" />
    <glyph glyph-name="onethird" unicode="&#x2153;" horiz-adv-x="753" 
d="M709 100q0 -47 -38 -76t-98 -29q-53 0 -87.5 26t-44.5 71l79 16q12 -43 54 -43q22 0 36.5 11.5t14.5 30.5q0 44 -58 44h-33v60h30q54 0 54 37q0 17 -12 27t-30 10q-37 0 -48 -35l-79 15q13 43 47 66.5t81 23.5q53 0 88 -23t35 -69q0 -62 -66 -78q34 -8 54.5 -30.5
t20.5 -54.5zM122 625l-62 -35l-31 58l98 52h75v-350h-80v275zM97 -35l439 804l67 -35l-440 -804z" />
    <glyph glyph-name="twothirds" unicode="&#x2154;" horiz-adv-x="831" 
d="M48 411l115 103q21 18 31 28t18 24.5t8 29.5q0 18 -12 28.5t-32 10.5q-38 0 -48 -45l-79 8q7 49 40.5 78t86.5 29q57 0 92 -27.5t35 -78.5q0 -32 -16 -57t-58 -61l-64 -59h140v-72h-257v61zM786 100q0 -47 -38 -76t-98 -29q-53 0 -87.5 26t-44.5 71l79 16q12 -43 54 -43
q22 0 36.5 11.5t14.5 30.5q0 44 -58 44h-33v60h30q54 0 54 37q0 17 -12 27t-30 10q-37 0 -48 -35l-79 15q13 43 47 66.5t81 23.5q53 0 88 -23t35 -69q0 -62 -66 -78q34 -8 54.5 -30.5t20.5 -54.5zM174 -35l439 804l67 -35l-440 -804z" />
    <glyph glyph-name="oneeighth" unicode="&#x215b;" horiz-adv-x="780" 
d="M591 -5q-63 0 -102 28.5t-39 76.5q0 63 62 84v1q-51 21 -51 73q0 44 36 70.5t94 26.5t94.5 -26.5t36.5 -70.5q0 -52 -52 -73v-1q62 -22 62 -84q0 -48 -39 -76.5t-102 -28.5zM591 208q22 0 37 11.5t15 29.5t-14 29t-38 11t-38 -11t-14 -29t15 -29.5t37 -11.5zM591 62
q29 0 45 11.5t16 31.5q0 19 -16 31t-45 12q-28 0 -44.5 -12t-16.5 -31q0 -20 16 -31.5t45 -11.5zM122 625l-62 -35l-31 58l98 52h75v-350h-80v275zM97 -35l439 804l67 -35l-440 -804z" />
    <glyph glyph-name="threeeighths" unicode="&#x215c;" horiz-adv-x="814" 
d="M625 -5q-63 0 -102 28.5t-39 76.5q0 63 62 84v1q-51 21 -51 73q0 44 36 70.5t94 26.5t94.5 -26.5t36.5 -70.5q0 -52 -52 -73v-1q62 -22 62 -84q0 -48 -39 -76.5t-102 -28.5zM625 208q22 0 37 11.5t15 29.5t-14 29t-38 11t-38 -11t-14 -29t15 -29.5t37 -11.5zM625 62
q29 0 45 11.5t16 31.5q0 19 -16 31t-45 12q-28 0 -44.5 -12t-16.5 -31q0 -20 16 -31.5t45 -11.5zM307 450q0 -47 -38 -76t-98 -29q-53 0 -87.5 26t-44.5 71l79 16q12 -43 54 -43q22 0 36.5 11.5t14.5 30.5q0 44 -58 44h-33v60h30q54 0 54 37q0 17 -12 27t-30 10
q-37 0 -48 -35l-79 15q13 43 47 66.5t81 23.5q53 0 88 -23t35 -69q0 -62 -66 -78q34 -8 54.5 -30.5t20.5 -54.5zM142 -35l439 804l67 -35l-440 -804z" />
    <glyph glyph-name="fiveeighths" unicode="&#x215d;" horiz-adv-x="821" 
d="M632 -5q-63 0 -102 28.5t-39 76.5q0 63 62 84v1q-51 21 -51 73q0 44 36 70.5t94 26.5t94.5 -26.5t36.5 -70.5q0 -52 -52 -73v-1q62 -22 62 -84q0 -48 -39 -76.5t-102 -28.5zM632 208q22 0 37 11.5t15 29.5t-14 29t-38 11t-38 -11t-14 -29t15 -29.5t37 -11.5zM632 62
q29 0 45 11.5t16 31.5q0 19 -16 31t-45 12q-28 0 -44.5 -12t-16.5 -31q0 -20 16 -31.5t45 -11.5zM53 434l75 23q15 -41 52 -41q24 0 38 16.5t14 39.5q0 24 -12.5 39.5t-37.5 15.5q-31 0 -63 -22l-51 26l8 169h221v-69h-148l-3 -53q21 9 47 9q55 0 88.5 -31t33.5 -87
q0 -54 -39.5 -89t-100.5 -35q-44 0 -77 25t-45 64zM149 -35l439 804l67 -35l-440 -804z" />
    <glyph glyph-name="seveneighths" unicode="&#x215e;" horiz-adv-x="743" 
d="M554 -5q-63 0 -102 28.5t-39 76.5q0 63 62 84v1q-51 21 -51 73q0 44 36 70.5t94 26.5t94.5 -26.5t36.5 -70.5q0 -52 -52 -73v-1q62 -22 62 -84q0 -48 -39 -76.5t-102 -28.5zM554 208q22 0 37 11.5t15 29.5t-14 29t-38 11t-38 -11t-14 -29t15 -29.5t37 -11.5zM554 62
q29 0 45 11.5t16 31.5q0 19 -16 31t-45 12q-28 0 -44.5 -12t-16.5 -31q0 -20 16 -31.5t45 -11.5zM71 -35l439 804l67 -35l-440 -804zM287 700v-59l-140 -291h-84l134 280h-169v70h259z" />
    <glyph glyph-name="partialdiff" unicode="&#x2202;" horiz-adv-x="615" 
d="M407 419l-170 281h87l180 -304q53 -89 53 -180q0 -92 -68.5 -159t-181.5 -67t-181 67.5t-68 162.5q0 102 67.5 164t168.5 62q66 0 113 -27zM308 59q78 0 124.5 43.5t46.5 117.5q0 67 -45.5 112t-127.5 45q-78 0 -124 -40.5t-46 -117.5q0 -75 47 -117.5t125 -42.5z" />
    <glyph glyph-name="Delta" unicode="&#x2206;" horiz-adv-x="768" 
d="M570 108l-185 446l-2 -1l-189 -445h376zM21 0l310 703h109l307 -703h-726z" />
    <glyph glyph-name="product" unicode="&#x220f;" horiz-adv-x="688" 
d="M599 -103h-122v691h-267v-691h-121v803h510v-803z" />
    <glyph glyph-name="summation" unicode="&#x2211;" horiz-adv-x="560" 
d="M500 -103h-440v61l197 347l-194 333v62h435v-71h-345l189 -324l-191 -337h349v-71z" />
    <glyph glyph-name="minus" unicode="&#x2212;" horiz-adv-x="645" 
d="M575 247h-510v109h510v-109z" />
    <glyph glyph-name="uni2215" unicode="&#x2215;" horiz-adv-x="204" 
d="M-151 -35l439 804l67 -35l-440 -804z" />
    <glyph glyph-name="uni2219" unicode="&#x2219;" horiz-adv-x="272" 
d="M212 309q0 -32 -22 -54.5t-54 -22.5t-54.5 22.5t-22.5 54.5t22.5 54t54.5 22t54 -22.5t22 -53.5z" />
    <glyph glyph-name="radical" unicode="&#x221a;" horiz-adv-x="635" 
d="M217 506l116 -359l182 553h100l-237 -700h-89l-143 418h-98v88h169z" />
    <glyph glyph-name="infinity" unicode="&#x221e;" horiz-adv-x="810" 
d="M236 503q47 0 84.5 -33.5t80.5 -96.5q44 61 84.5 95.5t88.5 34.5q77 0 127.5 -48t50.5 -133q0 -84 -51 -133.5t-127 -49.5q-84 0 -173 126q-41 -60 -79.5 -93.5t-85.5 -33.5q-76 0 -127 50t-51 134q0 85 50.5 133t127.5 48zM575 435q-36 0 -67 -30t-69 -86
q37 -55 68 -83.5t68 -28.5q44 0 74.5 31.5t30.5 83.5t-29 82.5t-76 30.5zM236 207q30 0 58.5 28.5t66.5 83.5q-21 30 -32.5 45t-29 34.5t-33 28t-30.5 8.5q-47 0 -76 -30.5t-29 -82.5t30.5 -83.5t74.5 -31.5z" />
    <glyph glyph-name="integral" unicode="&#x222b;" horiz-adv-x="341" 
d="M228 554v-545q0 -130 -132 -130h-59v105h39q39 0 39 40v547q0 129 135 129h54v-105h-38q-38 0 -38 -41z" />
    <glyph glyph-name="approxequal" unicode="&#x2248;" horiz-adv-x="642" 
d="M226 213q-50 0 -99 -51l-44 52q55 72 138 72q35 0 106 -23.5t94 -23.5q50 0 99 51l44 -52q-55 -72 -138 -72q-36 0 -106.5 23.5t-93.5 23.5zM226 374q-49 0 -99 -52l-44 52q56 73 138 73q35 0 106 -24t94 -24q50 0 99 51l44 -52q-55 -72 -138 -72q-36 0 -106.5 24
t-93.5 24z" />
    <glyph glyph-name="notequal" unicode="&#x2260;" horiz-adv-x="642" 
d="M530 527l-81 -108h112v-74h-167l-70 -93h237v-74h-292l-110 -148l-53 41l80 107h-105v74h160l69 93h-229v74h285l111 149z" />
    <glyph glyph-name="lessequal" unicode="&#x2264;" horiz-adv-x="612" 
d="M532 113l-452 180v70l452 181v-73l-362 -143l362 -144v-71zM532 0h-452v72h452v-72z" />
    <glyph glyph-name="greaterequal" unicode="&#x2265;" horiz-adv-x="612" 
d="M532 293l-452 -180v71l362 144l-362 143v73l452 -181v-70zM532 0h-452v72h452v-72z" />
    <glyph glyph-name="lozenge" unicode="&#x25ca;" horiz-adv-x="608" 
d="M554 346l-251 -358l-249 358l249 358zM303 108l167 238l-167 238l-165 -238z" />
    <glyph glyph-name="commaaccent" unicode="&#xf6c3;" horiz-adv-x="301" 
d="M154 -37q33 0 54.5 -21.5t21.5 -51.5q0 -26 -14 -49l-93 -154h-52l41 136q-34 21 -34 64q0 31 22 53.5t54 22.5z" />
    <glyph glyph-name="zero.onum" horiz-adv-x="619" 
d="M444 251q0 70 -39 115t-96 45q-56 0 -94.5 -44.5t-38.5 -114.5q0 -69 38.5 -113t94.5 -44q57 0 96 43.5t39 112.5zM565 252q0 -110 -71.5 -186t-184.5 -76q-112 0 -183.5 75.5t-71.5 186.5q0 110 71.5 187t183.5 77q113 0 184.5 -76.5t71.5 -187.5z" />
    <glyph glyph-name="one.onum" horiz-adv-x="387" 
d="M174 383l-102 -59l-51 89l163 93h108v-506h-118v383z" />
    <glyph glyph-name="two.onum" horiz-adv-x="545" 
d="M262 98h225v-98h-431v87l201 129q59 38 77.5 65t18.5 56q0 32 -22 53t-64 21q-37 0 -63.5 -25.5t-37.5 -61.5l-116 29q21 72 77.5 117.5t139.5 45.5q91 0 149 -50.5t58 -125.5q0 -60 -31.5 -104t-108.5 -91z" />
    <glyph glyph-name="three.onum" horiz-adv-x="524" 
d="M171 141v100h58q43 0 73 26t30 65q0 36 -23.5 57.5t-62.5 21.5q-64 0 -99 -71l-102 49q64 127 203 127q89 0 146.5 -46t57.5 -126q0 -52 -28.5 -90.5t-74.5 -54.5q115 -44 115 -157q0 -96 -67.5 -151.5t-156.5 -55.5q-63 0 -116 26.5t-86 71.5l89 66q47 -59 111 -59
q42 0 73.5 28.5t31.5 73.5q0 47 -30 73t-85 26h-57z" />
    <glyph glyph-name="four.onum" horiz-adv-x="551" 
d="M521 1h-91v-133h-119v133h-284v109l271 396h132v-403h91v-102zM311 103v249l-171 -249h171z" />
    <glyph glyph-name="five.onum" horiz-adv-x="518" 
d="M40 -74l87 66q43 -52 104 -52q52 0 88 36.5t36 90.5q0 58 -32 89.5t-86 31.5q-59 0 -124 -42l-59 37l17 323h366v-102h-260l-7 -130q38 15 83 15q98 0 160.5 -56.5t62.5 -163.5q0 -102 -69.5 -168t-174.5 -66q-55 0 -107 24.5t-85 66.5z" />
    <glyph glyph-name="six.onum" horiz-adv-x="586" 
d="M293 -10q-104 0 -172.5 64t-68.5 158q0 54 17.5 99t57.5 107l158 242h133l-156 -240l1 -1q28 11 56 11q91 0 153 -61.5t62 -155.5q0 -95 -68 -159t-173 -64zM415 216q0 54 -32.5 87.5t-86.5 33.5q-57 0 -90.5 -33t-33.5 -88q0 -54 33.5 -87t87.5 -33t88 33t34 87z" />
    <glyph glyph-name="seven.onum" horiz-adv-x="512" 
d="M478 400l-256 -560h-127l258 563h-321v103h446v-106z" />
    <glyph glyph-name="eight.onum" horiz-adv-x="605" 
d="M303 -10q-106 0 -176 51.5t-70 142.5q0 118 116 162v1q-93 42 -93 138q0 81 63 130.5t160 49.5t159.5 -49.5t62.5 -130.5q0 -96 -93 -138v-1q116 -48 116 -162q0 -91 -70 -142.5t-175 -51.5zM303 384q47 0 76.5 23.5t29.5 65.5q0 41 -27.5 65t-78.5 24t-79 -24t-28 -65
q0 -42 30 -65.5t77 -23.5zM303 94q57 0 91 25.5t34 71.5q0 43 -35 69.5t-90 26.5q-56 0 -91 -26.5t-35 -69.5q0 -46 34.5 -71.5t91.5 -25.5z" />
    <glyph glyph-name="nine.onum" horiz-adv-x="586" 
d="M164 -160l160 246l-1 1q-30 -12 -58 -12q-90 0 -151.5 62t-61.5 155q0 95 68 159.5t172 64.5t173 -64t69 -158q0 -54 -18 -99t-58 -107l-161 -248h-133zM170 290q0 -54 32.5 -88t86.5 -34t89.5 34t35.5 88t-34 87t-88 33t-88 -33t-34 -87z" />
    <glyph glyph-name="zero.ostnum" 
d="M466 251q0 70 -38.5 115t-95.5 45t-95.5 -44.5t-38.5 -114.5q0 -69 38.5 -113t95.5 -44t95.5 43.5t38.5 112.5zM587 252q0 -110 -71.5 -186t-183.5 -76t-183.5 75.5t-71.5 186.5t71.5 187.5t183.5 76.5t183.5 -76.5t71.5 -187.5z" />
    <glyph glyph-name="one.ostnum" 
d="M126 105h157v284l-131 -49l-37 99l176 67h111v-401h151v-105h-427v105z" />
    <glyph glyph-name="two.ostnum" 
d="M322 98h225v-98h-431v87l202 129q58 38 77 65.5t19 55.5q0 32 -22 53t-64 21q-37 0 -63.5 -25.5t-38.5 -61.5l-115 29q21 72 77.5 117.5t139.5 45.5q91 0 149 -50.5t58 -125.5q0 -60 -31.5 -104t-109.5 -91z" />
    <glyph glyph-name="three.ostnum" 
d="M246 141v100h59q43 0 73 26t30 65q0 36 -24 57.5t-63 21.5q-63 0 -99 -71l-101 49q64 127 203 127q89 0 146 -46t57 -126q0 -52 -28.5 -90.5t-73.5 -54.5q115 -44 115 -157q0 -96 -67.5 -151.5t-156.5 -55.5q-63 0 -116 26.5t-87 71.5l90 66q47 -59 110 -59
q43 0 74.5 28.5t31.5 73.5q0 47 -30.5 73t-85.5 26h-57z" />
    <glyph glyph-name="four.ostnum" 
d="M591 0h-98v-132h-119v132h-304v110l286 396h137v-403h98v-103zM374 103v254l-182 -254h182z" />
    <glyph glyph-name="five.ostnum" 
d="M113 -74l86 66q45 -52 105 -52q52 0 87.5 36.5t35.5 90.5q0 58 -32 89.5t-86 31.5q-58 0 -123 -42l-60 37l18 323h365v-102h-259l-7 -130q36 15 82 15q98 0 160.5 -56.5t62.5 -163.5q0 -102 -69 -168t-174 -66q-55 0 -106.5 24.5t-85.5 66.5z" />
    <glyph glyph-name="six.ostnum" 
d="M332 -10q-104 0 -173 64t-69 158q0 53 18 98t58 108l158 242h133l-156 -240l1 -1q27 11 56 11q91 0 153 -61.5t62 -155.5q0 -95 -68 -159t-173 -64zM454 216q0 54 -32.5 87.5t-86.5 33.5q-57 0 -90.5 -33t-33.5 -88q0 -54 33.5 -87t87.5 -33t88 33t34 87z" />
    <glyph glyph-name="seven.ostnum" 
d="M573 400l-270 -560h-128l273 563h-361v103h486v-106z" />
    <glyph glyph-name="eight.ostnum" 
d="M332 -10q-106 0 -176 51.5t-70 142.5q0 59 31.5 100.5t84.5 61.5v1q-92 42 -92 138q0 81 62.5 130.5t159.5 49.5t159.5 -49.5t62.5 -130.5q0 -97 -93 -138v-1q117 -48 117 -162q0 -91 -70 -142.5t-176 -51.5zM332 384q47 0 77 23.5t30 65.5q0 41 -28 65t-79 24t-79 -24
t-28 -65q0 -42 30 -65.5t77 -23.5zM332 94q57 0 91 25.5t34 71.5q0 43 -35 69.5t-90 26.5t-90 -26.5t-35 -69.5q0 -46 34 -71.5t91 -25.5z" />
    <glyph glyph-name="nine.ostnum" 
d="M203 -160l159 246l-1 1q-30 -12 -57 -12q-91 0 -152.5 62t-61.5 155q0 95 68.5 159.5t172.5 64.5t173 -64t69 -158q0 -53 -18 -98t-58 -108l-161 -248h-133zM209 290q0 -54 32.5 -88t86.5 -34t89.5 34t35.5 88t-34 87t-88 33t-88 -33t-34 -87z" />
    <glyph glyph-name="zero.tnum" 
d="M332 -10q-125 0 -198.5 101t-73.5 259q0 156 74 258t198 102t197.5 -101.5t73.5 -258.5t-73.5 -258.5t-197.5 -101.5zM332 101q70 0 107.5 69t37.5 180q0 109 -38 179t-107 70q-70 0 -108 -69.5t-38 -179.5q0 -108 38.5 -178.5t107.5 -70.5z" />
    <glyph glyph-name="one.tnum" 
d="M136 108h151v476l-132 -50l-36 99l176 67h113v-592h149v-108h-421v108z" />
    <glyph glyph-name="two.tnum" 
d="M94 96l221 210q69 66 97 104.5t28 80.5q0 49 -29 78.5t-81 29.5q-96 0 -114 -98l-119 15q12 90 75 142t161 52q101 0 167 -56.5t66 -155.5q0 -69 -40.5 -125t-132.5 -141l-133 -124h309v-108h-475v96z" />
    <glyph glyph-name="three.tnum" 
d="M578 197q0 -95 -72 -151t-182 -56q-98 0 -162 50.5t-82 135.5l121 23q21 -98 128 -98q54 0 88.5 29.5t34.5 75.5q0 51 -37 77.5t-105 26.5h-52v103h50q56 0 91.5 25.5t35.5 70.5q0 42 -28.5 66t-78.5 24q-85 0 -112 -84l-119 22q50 173 232 173q100 0 165 -48.5
t65 -137.5q0 -56 -34 -97.5t-88 -57.5q66 -16 103.5 -61.5t37.5 -110.5z" />
    <glyph glyph-name="four.tnum" 
d="M593 153h-91v-153h-121v153h-317v101l304 446h134v-448h91v-99zM381 252v293l-199 -293h199z" />
    <glyph glyph-name="five.tnum" 
d="M85 147l114 37q14 -39 46.5 -61.5t77.5 -22.5q57 0 91.5 38t34.5 95q0 61 -34.5 95t-97.5 34q-68 0 -144 -38l-60 38l16 338h412v-107h-306l-7 -145q51 18 109 18q104 0 170.5 -62t66.5 -174q0 -105 -70.5 -172.5t-185.5 -67.5q-88 0 -148 42t-85 115z" />
    <glyph glyph-name="six.tnum" 
d="M333 -10q-113 0 -186 67t-73 167q0 61 17 107.5t53 101.5l168 267h142l-164 -259l1 -1q30 15 74 15q99 0 162 -64t63 -165t-72 -168.5t-185 -67.5zM471 229q0 61 -37.5 96.5t-99.5 35.5q-64 0 -101 -37.5t-37 -93.5q0 -60 37 -96t100 -36q62 0 100 35.5t38 95.5z" />
    <glyph glyph-name="seven.tnum" 
d="M582 590l-284 -590h-135l284 590h-367v110h502v-110z" />
    <glyph glyph-name="eight.tnum" 
d="M331 -10q-115 0 -188 55.5t-73 151.5q0 64 33 108t90 64v2q-102 44 -102 148q0 86 68.5 138.5t171.5 52.5q104 0 172 -52.5t68 -138.5q0 -104 -101 -148v-2q57 -22 89.5 -65.5t32.5 -106.5q0 -96 -73 -151.5t-188 -55.5zM331 406q53 0 88 26.5t35 73.5q0 44 -33 70
t-90 26q-56 0 -89 -26t-33 -70q0 -47 35 -73.5t87 -26.5zM331 98q67 0 104.5 28t37.5 79q0 48 -38 76.5t-104 28.5t-104 -28.5t-38 -76.5q0 -51 37.5 -79t104.5 -28z" />
    <glyph glyph-name="nine.tnum" 
d="M210 0l164 259v1h-1q-37 -15 -74 -15q-99 0 -162 64t-63 165t72 168.5t185 67.5t186 -67t73 -167q0 -61 -17 -107.5t-53 -101.5l-168 -267h-142zM193 471q0 -61 37.5 -96.5t99.5 -35.5q64 0 101 37.5t37 93.5q0 60 -37 96t-100 36q-62 0 -100 -35.5t-38 -95.5z" />
    <glyph glyph-name="dollar.ostnum" 
d="M302 -84v82q-132 7 -212 69l61 77q26 -21 69.5 -37t81.5 -20v118q-92 24 -139 58t-47 95q0 63 51 102t135 46v70h54v-69q116 -9 177 -59l-61 -75q-19 15 -53 28t-63 17v-129q21 -5 38 -11q76 -23 114 -54t38 -85q0 -62 -51.5 -97t-138.5 -43v-83h-54zM441 135
q0 20 -20.5 33t-64.5 24v-106q36 3 60.5 15.5t24.5 33.5zM226 364q0 -21 16.5 -35t59.5 -26v115q-38 -3 -57 -18t-19 -36z" />
    <glyph glyph-name="Euro.ostnum" 
d="M54 347h86q26 75 88.5 119.5t146.5 44.5q122 0 200 -86l-77 -72q-52 55 -121 55q-58 0 -96 -42.5t-38 -112.5q0 -72 37.5 -114t97.5 -42q68 0 127 61l75 -71q-86 -93 -206 -93q-85 0 -148 46t-88 124h-84v59h73q-2 18 -2 30q0 23 2 35h-73v59z" />
    <glyph glyph-name="sterling.ostnum" 
d="M563 448l-66 -80q-45 43 -103 43q-95 0 -95 -105v-29h180v-81h-180v-97h253v-99h-462v99h90v97h-90v81h90v36q0 94 51 148.5t148 54.5q65 0 106.5 -16.5t77.5 -51.5z" />
    <glyph glyph-name="dollar.onum" horiz-adv-x="494" 
d="M225 -84v82q-114 6 -195 69l62 78q60 -50 133 -56v116q-84 24 -127.5 58t-43.5 95q0 64 46 103.5t125 44.5v70h54v-69q98 -8 160 -59l-61 -77q-42 37 -99 46v-130q20 -6 29 -9q73 -24 108.5 -55.5t35.5 -82.5q0 -60 -46.5 -96.5t-126.5 -44.5v-83h-54zM347 136
q0 20 -15.5 32t-52.5 23v-101q68 7 68 46zM164 362q0 -19 13.5 -32.5t47.5 -25.5v113q-61 -8 -61 -55z" />
    <glyph glyph-name="Euro.onum" horiz-adv-x="589" 
d="M32 347h85q27 75 89.5 119.5t146.5 44.5q122 0 200 -86l-77 -72q-52 55 -121 55q-58 0 -96 -42.5t-38 -112.5q0 -72 37.5 -114t97.5 -42q68 0 127 61l75 -71q-86 -93 -206 -93q-86 0 -149 46t-87 124h-84v59h72q-1 9 -1 30q0 23 1 35h-72v59z" />
    <glyph glyph-name="sterling.onum" horiz-adv-x="551" 
d="M522 448l-66 -80q-45 43 -103 43q-95 0 -95 -105v-29h172v-81h-172v-97h242v-99h-446v99h84v97h-84v81h84v36q0 94 51.5 148.5t148.5 54.5q64 0 105.5 -16t78.5 -52z" />
    <glyph glyph-name="dollar.tnum" 
d="M360 773v-74q127 -8 202 -82l-72 -86q-53 51 -130 59v-185q17 -3 47 -13q177 -60 177 -186q0 -92 -64 -144.5t-160 -60.5v-91h-54v90q-149 9 -235 96l84 88q24 -27 66 -47.5t85 -24.5v192q-100 28 -157 73.5t-57 126.5q0 87 59.5 138t154.5 57v74h54zM463 198
q0 33 -24 53.5t-79 36.5v-175q103 14 103 85zM216 508q0 -32 20 -52t70 -35v169q-40 -5 -65 -26.5t-25 -55.5z" />
    <glyph glyph-name="Euro.tnum" 
d="M43 447h84q18 122 91.5 192.5t181.5 70.5q142 0 216 -114l-94 -67q-44 72 -122 72q-56 0 -95 -41t-51 -113h241v-59h-248q-1 -12 -1 -38q0 -28 1 -40h248v-59h-240q14 -70 49 -111.5t92 -41.5q83 0 133 80l90 -64q-78 -124 -223 -124q-110 0 -180.5 71.5t-87.5 189.5h-85
v59h78q-1 13 -1 40q0 26 1 38h-78v59z" />
    <glyph glyph-name="sterling.tnum" 
d="M572 637l-74 -78q-46 46 -107 46q-47 0 -74.5 -34t-27.5 -95v-71h164v-87h-164v-223h255v-95h-467v95h94v223h-94v87h94v79q0 103 55.5 164.5t161.5 61.5q108 0 184 -73z" />
    <glyph glyph-name="idotaccent" horiz-adv-x="279" 
d="M81 0v506h117v-506h-117zM212 655q0 -31 -22 -52.5t-52 -21.5t-52 21.5t-22 52.5q0 30 22 51.5t52 21.5t52 -21.5t22 -51.5z" />
    <glyph glyph-name="florin.tnum" 
d="M88 356h140l57 179q27 88 70.5 131.5t120.5 43.5q62 0 101 -18l-19 -96q-30 13 -64 13q-67 0 -95 -88l-52 -165h185v-96h-216l-142 -450h-117l141 450h-110v96z" />
    <glyph glyph-name="yen.tnum" 
d="M75 392h136l-177 308h144l153 -281h2l154 281h140l-177 -308h136v-59h-171l-24 -43v-45h195v-59h-195v-186h-121v186h-195v59h195v45l-27 43h-168v59z" />
    <glyph glyph-name="cent.tnum" 
d="M327 -114v114q-101 8 -165.5 78t-64.5 175q0 103 64.5 173.5t165.5 78.5v99h53v-99q103 -10 168 -80l-75 -71q-37 41 -93 49v-302q57 7 100 55l73 -69q-74 -78 -173 -87v-114h-53zM211 253q0 -63 31.5 -103.5t84.5 -48.5v303q-52 -8 -84 -49t-32 -102z" />
    <glyph glyph-name="space.tnum" horiz-adv-x="332" 
 />
    <glyph glyph-name="comma.tnum" horiz-adv-x="332" 
d="M160 148q33 0 54.5 -21.5t21.5 -52.5q0 -25 -14 -48l-94 -154h-52l42 136q-34 21 -34 64q0 32 22 54t54 22z" />
    <glyph glyph-name="semicolon.tnum" horiz-adv-x="332" 
d="M236 440q0 -32 -22 -54.5t-54 -22.5t-54 22.5t-22 54.5t22 54t54 22t54 -22t22 -54zM76 -128l42 136q-34 21 -34 64q0 32 22 54t54 22q33 0 54.5 -21.5t21.5 -52.5q0 -25 -14 -48l-94 -154h-52z" />
    <glyph glyph-name="colon.tnum" horiz-adv-x="332" 
d="M236 72q0 -32 -22 -54.5t-54 -22.5t-54 22.5t-22 54.5t22 54t54 22t54 -22t22 -54zM236 440q0 -32 -22 -54.5t-54 -22.5t-54 22.5t-22 54.5t22 54t54 22t54 -22t22 -54z" />
    <glyph glyph-name="period.tnum" horiz-adv-x="332" 
d="M236 72q0 -32 -22 -54.5t-54 -22.5t-54 22.5t-22 54.5t22 54t54 22t54 -22t22 -54z" />
    <glyph glyph-name="parenleft.tnum" horiz-adv-x="332" 
d="M299 -108l-93 -49q-153 221 -153 442t153 442l93 -49q-133 -195 -133 -393t133 -393z" />
    <glyph glyph-name="parenright.tnum" horiz-adv-x="332" 
d="M125 -157l-92 49q133 195 133 393t-133 393l92 49q154 -220 154 -442t-154 -442z" />
    <glyph glyph-name="bracketleft.tnum" horiz-adv-x="332" 
d="M73 -160v890h215v-93h-101v-704h101v-93h-215z" />
    <glyph glyph-name="bracketright.tnum" horiz-adv-x="332" 
d="M259 730v-890h-215v93h101v704h-101v93h215z" />
    <glyph glyph-name="braceleft.tnum" horiz-adv-x="332" 
d="M290 -160h-55q-51 0 -84.5 35t-33.5 109v154q0 45 -28.5 73t-56.5 28v90q29 0 57 27.5t28 73.5v166q0 67 33.5 100.5t84.5 33.5h55v-90h-15q-58 0 -58 -72v-166q0 -104 -93 -117v-2q93 -8 93 -116v-166q0 -71 58 -71h15v-90z" />
    <glyph glyph-name="braceright.tnum" horiz-adv-x="332" 
d="M96 -160h-54v90h14q59 0 59 71v166q0 108 92 116v2q-92 14 -92 117v166q0 72 -59 72h-14v90h54q52 0 85 -33.5t33 -100.5v-166q0 -46 28.5 -73.5t57.5 -27.5v-90q-29 0 -57.5 -28t-28.5 -73v-154q0 -74 -33 -109t-85 -35z" />
    <glyph glyph-name="section.tnum" 
d="M321 -138q-100 0 -199 78l62 72q66 -59 136 -59q45 0 71.5 17t26.5 49q0 29 -32 50t-91 43q-35 13 -57 24t-50 31.5t-42.5 49.5t-14.5 66q0 45 27 79t73 54q-39 21 -65 55t-26 78q0 77 55 119t140 42q111 0 189 -68l-64 -77q-52 51 -119 51q-39 0 -62 -18.5t-23 -49.5
q0 -9 2.5 -17t9 -15.5t12.5 -13.5t16 -12.5t17 -10.5t20 -9t19 -7.5l18.5 -7.5t15.5 -6q37 -15 58 -25.5t47.5 -30t38.5 -45.5t12 -61q0 -45 -29.5 -82t-74.5 -52q38 -17 66.5 -52.5t28.5 -77.5q0 -80 -59 -120.5t-153 -40.5zM234 291q0 -41 34 -62q38 -21 75 -21
q40 0 69 21t29 53q0 42 -35 61q-32 20 -75 20q-40 0 -68.5 -20t-28.5 -52z" />
    <glyph glyph-name="numbersign.tnum" 
d="M336 0l28 205h-109l-28 -205h-89l28 205h-90v85h102l17 130h-88v86h100l27 194h89l-27 -194h109l27 194h89l-27 -194h93v-86h-105l-17 -130h91v-85h-103l-28 -205h-89zM284 420l-17 -130h109l18 130h-110z" />
    <glyph glyph-name="percent.tnum" 
d="M78 0l434 700h84l-433 -700h-85zM169 406q-56 0 -91 41.5t-35 108.5q0 66 35.5 107.5t90.5 41.5t91 -41.5t36 -107.5q0 -67 -36 -108.5t-91 -41.5zM169 470q24 0 39.5 22t15.5 64q0 41 -15.5 63.5t-39.5 22.5t-39.5 -22t-15.5 -64q0 -41 15.5 -63.5t39.5 -22.5zM494 -6
q-56 0 -91 41t-35 109q0 66 35.5 107.5t90.5 41.5t91 -41.5t36 -107.5q0 -67 -36 -108.5t-91 -41.5zM494 57q24 0 39.5 22.5t15.5 64.5q0 41 -15.5 63.5t-39.5 22.5t-39.5 -22t-15.5 -64t15.5 -64.5t39.5 -22.5z" />
    <glyph glyph-name="perthousand.tnum" 
d="M7 0l351 700h67l-351 -700h-67zM535 -6q-48 0 -77.5 37.5t-29.5 99.5q0 60 30 98t77 38t77 -38t30 -98q0 -61 -30 -99t-77 -38zM535 50q20 0 33.5 21t13.5 60q0 38 -13.5 59.5t-33.5 21.5t-33.5 -21.5t-13.5 -59.5t13.5 -59.5t33.5 -21.5zM301 -6q-48 0 -77.5 37.5
t-29.5 99.5q0 60 30 98t77 38t77 -38t30 -98q0 -61 -30 -99t-77 -38zM301 50q20 0 33.5 21t13.5 60q0 38 -13.5 59.5t-33.5 21.5t-33.5 -21.5t-13.5 -59.5t13.5 -59.5t33.5 -21.5zM132 432q-48 0 -77.5 37.5t-29.5 99.5q0 61 30 98.5t77 37.5q46 0 76 -38t30 -98
q0 -61 -29.5 -99t-76.5 -38zM132 488q20 0 33 21t13 60q0 38 -13 59.5t-33 21.5t-33.5 -21.5t-13.5 -59.5t13.5 -59.5t33.5 -21.5z" />
    <glyph glyph-name="plus.tnum" 
d="M600 247h-212v-213h-112v213h-213v109h213v214h112v-214h212v-109z" />
    <glyph glyph-name="minus.tnum" 
d="M586 247h-509v109h509v-109z" />
    <glyph glyph-name="divide.tnum" 
d="M408 107q0 -32 -22 -54t-54 -22t-54.5 22t-22.5 54t22.5 54t54.5 22t54 -22.5t22 -53.5zM408 503q0 -32 -22 -54.5t-54 -22.5t-54.5 22.5t-22.5 54.5t22.5 54t54.5 22t54 -22.5t22 -53.5zM564 261h-464v87h464v-87z" />
    <glyph glyph-name="multiply.tnum" 
d="M551 442l-140 -140l140 -140l-79 -80l-140 141l-141 -141l-79 79l140 141l-140 141l79 79l141 -141l140 141z" />
    <glyph glyph-name="equal.tnum" 
d="M78 341v107h507v-107h-507zM78 153v107h507v-107h-507z" />
    <glyph glyph-name="less.tnum" 
d="M601 28l-539 214v114l539 214v-114l-404 -157l404 -156v-115z" />
    <glyph glyph-name="greater.tnum" 
d="M601 242l-538 -214v115l403 156l-403 157v114l538 -214v-114z" />
    <glyph glyph-name="degree.tnum" horiz-adv-x="332" 
d="M304 568q0 -58 -40.5 -97.5t-97.5 -39.5q-58 0 -98.5 39t-40.5 98t40.5 98t98.5 39q57 0 97.5 -39.5t40.5 -97.5zM240 568q0 31 -21.5 53.5t-52.5 22.5q-32 0 -53 -22.5t-21 -53.5t21 -54t53 -23q31 0 52.5 23t21.5 54z" />
    <glyph glyph-name="florin.onum" horiz-adv-x="440" 
d="M42 294h78l8 45q27 176 182 176q55 0 94 -17l-13 -97q-31 12 -65 12q-37 0 -58 -20t-28 -67l-5 -32h125v-96h-139l-56 -359h-115l56 359h-64v96z" />
    <glyph glyph-name="yen.onum" horiz-adv-x="605" 
d="M420 291h108v-59h-144l-22 -37v-18h166v-59h-166v-118h-119v118h-166v59h166v18l-23 37h-143v59h107l-129 215h128l120 -202h2l120 202h125z" />
    <glyph glyph-name="cent.onum" horiz-adv-x="540" 
d="M283 -114v114q-102 8 -166.5 78t-64.5 175q0 103 65 173.5t166 78.5v99h53v-99q101 -10 168 -80l-75 -71q-39 42 -93 49v-302q57 7 100 55l72 -69q-73 -78 -172 -87v-114h-53zM166 253q0 -63 32 -103.5t85 -48.5v303q-53 -8 -85 -49t-32 -102z" />
    <glyph glyph-name="space.onum" horiz-adv-x="292" 
 />
    <glyph glyph-name="comma.onum" horiz-adv-x="272" 
d="M53 -128l41 136q-34 22 -34 64q0 32 22.5 54t54.5 22q33 0 54 -21.5t21 -52.5q0 -26 -14 -48l-93 -154h-52z" />
    <glyph glyph-name="semicolon.onum" horiz-adv-x="272" 
d="M212 431q0 -32 -22 -54.5t-54 -22.5t-54.5 22.5t-22.5 54.5t22.5 54t54.5 22t54 -22.5t22 -53.5zM52 -128l41 136q-34 22 -34 64q0 32 22.5 54t54.5 22q33 0 54 -21.5t21 -52.5q0 -26 -13 -48l-94 -154h-52z" />
    <glyph glyph-name="colon.onum" horiz-adv-x="272" 
d="M212 72q0 -32 -22 -54.5t-54 -22.5t-54.5 22.5t-22.5 54.5t22.5 54t54.5 22t54 -22t22 -54zM212 431q0 -32 -22 -54.5t-54 -22.5t-54.5 22.5t-22.5 54.5t22.5 54t54.5 22t54 -22.5t22 -53.5z" />
    <glyph glyph-name="period.onum" horiz-adv-x="272" 
d="M212 72q0 -32 -22 -54.5t-54 -22.5t-54.5 22.5t-22.5 54.5t22.5 54t54.5 22t54 -22t22 -54z" />
    <glyph glyph-name="parenleft.onum" horiz-adv-x="357" 
d="M310 -139l-92 -49q-154 220 -154 442t154 442l92 -49q-133 -195 -133 -393t133 -393z" />
    <glyph glyph-name="parenright.onum" horiz-adv-x="357" 
d="M139 -188l-92 49q133 195 133 393t-133 393l92 49q154 -220 154 -442t-154 -442z" />
    <glyph glyph-name="bracketleft.onum" horiz-adv-x="357" 
d="M89 -190v890h219v-93h-105v-704h105v-93h-219z" />
    <glyph glyph-name="bracketright.onum" horiz-adv-x="357" 
d="M268 700v-890h-219v93h105v704h-105v93h219z" />
    <glyph glyph-name="braceleft.onum" horiz-adv-x="394" 
d="M345 -190h-75q-52 0 -85.5 35t-33.5 109v165q0 45 -32 67.5t-65 22.5v90q33 0 65 22.5t32 67.5v177q0 67 33.5 100.5t85.5 33.5h75v-90h-36q-58 0 -58 -72v-166q0 -104 -93 -117v-2q93 -8 93 -116v-166q0 -71 58 -71h36v-90z" />
    <glyph glyph-name="braceright.onum" horiz-adv-x="394" 
d="M125 -190h-76v90h36q58 0 58 71v166q0 108 93 116v2q-93 14 -93 117v166q0 72 -58 72h-36v90h76q51 0 84.5 -33.5t33.5 -100.5v-177q0 -45 32 -67.5t65 -22.5v-90q-33 0 -65 -22.5t-32 -67.5v-165q0 -74 -33.5 -109t-84.5 -35z" />
    <glyph glyph-name="section.onum" horiz-adv-x="554" 
d="M268 -168q-97 0 -199 79l62 71q66 -58 136 -58q44 0 71 17t27 48q0 29 -31.5 50t-91.5 44q-28 10 -45 18t-42 23.5t-39.5 31.5t-25.5 42t-11 56q0 44 27 78.5t73 53.5q-91 51 -91 134q0 76 55 118t140 42q110 0 188 -68l-63 -77q-52 52 -120 52q-38 0 -61.5 -19
t-23.5 -50q0 -13 7.5 -25.5t16 -20.5t26 -17.5t27 -14t29.5 -12t24 -9.5q37 -15 58.5 -25.5t47.5 -29.5t38 -45.5t12 -60.5q0 -45 -29.5 -82t-74.5 -52q39 -17 67.5 -53t28.5 -78q0 -79 -60 -120t-153 -41zM181 261q0 -40 35 -62q38 -20 75 -20q40 0 68.5 20.5t28.5 52.5
q0 41 -34 62q-36 20 -75 20q-41 0 -69.5 -20t-28.5 -53z" />
    <glyph glyph-name="numbersign.onum" horiz-adv-x="577" 
d="M295 0l20 124h-101l-20 -124h-89l21 124h-78v84h92l16 97h-82v83h96l20 118h88l-20 -118h102l19 118h88l-19 -118h81v-83h-96l-16 -97h87v-84h-101l-20 -124h-88zM244 305l-16 -97h101l16 97h-101z" />
    <glyph glyph-name="percent.onum" horiz-adv-x="652" 
d="M111 0l357 506h75l-356 -506h-76zM159 237q-53 0 -86 38t-33 99t33.5 99.5t85.5 38.5q51 0 84.5 -38.5t33.5 -99.5t-33 -99t-85 -38zM159 298q21 0 35 19.5t14 56.5t-14 56.5t-35 19.5q-22 0 -36 -19.5t-14 -56.5q0 -36 14 -56t36 -20zM493 -6q-52 0 -85 38t-33 99
t33.5 99t84.5 38q52 0 85.5 -38t33.5 -99t-33.5 -99t-85.5 -38zM493 55q22 0 36 19.5t14 56.5t-14 56.5t-36 19.5q-21 0 -35 -19.5t-14 -56.5q0 -36 14 -56t35 -20z" />
    <glyph glyph-name="perthousand.onum" horiz-adv-x="927" 
d="M111 0l357 506h75l-356 -506h-76zM159 237q-53 0 -86 38t-33 99t33.5 99.5t85.5 38.5q51 0 84.5 -38.5t33.5 -99.5t-33 -99t-85 -38zM159 298q21 0 35 19.5t14 56.5t-14 56.5t-35 19.5q-22 0 -36 -19.5t-14 -56.5q0 -36 14 -56t36 -20zM493 -6q-52 0 -85 38t-33 99
t33.5 99t84.5 38q52 0 85.5 -38t33.5 -99t-33.5 -99t-85.5 -38zM493 55q22 0 36 19.5t14 56.5t-14 56.5t-36 19.5q-21 0 -35 -19.5t-14 -56.5q0 -36 14 -56t35 -20zM768 -6q-53 0 -86 38t-33 99t33.5 99t85.5 38t85 -38t33 -99t-33 -99t-85 -38zM768 55q21 0 35 19.5
t14 56.5t-14 56.5t-35 19.5t-35 -19.5t-14 -56.5q0 -36 13.5 -56t35.5 -20z" />
    <glyph glyph-name="plus.onum" horiz-adv-x="563" 
d="M514 198h-178v-169h-110v169h-177v107h177v170h110v-170h178v-107z" />
    <glyph glyph-name="minus.onum" horiz-adv-x="544" 
d="M495 197h-446v109h446v-109z" />
    <glyph glyph-name="divide.onum" horiz-adv-x="539" 
d="M346 73q0 -32 -22.5 -54t-54.5 -22t-54 22t-22 54q0 31 22.5 53.5t53.5 22.5q32 0 54.5 -22t22.5 -54zM346 425q0 -32 -22.5 -54.5t-54.5 -22.5t-54 22.5t-22 54.5q0 31 22.5 53.5t53.5 22.5q32 0 54.5 -22t22.5 -54zM490 205h-441v87h441v-87z" />
    <glyph glyph-name="multiply.onum" horiz-adv-x="506" 
d="M456 377l-125 -126l125 -125l-77 -77l-126 124l-125 -124l-78 77l125 125l-125 126l78 77l125 -124l126 124z" />
    <glyph glyph-name="equal.onum" horiz-adv-x="576" 
d="M49 297v106h479v-106h-479zM49 109v106h479v-106h-479z" />
    <glyph glyph-name="less.onum" horiz-adv-x="574" 
d="M525 15l-476 187v104l476 187v-110l-348 -129l348 -129v-110z" />
    <glyph glyph-name="greater.onum" horiz-adv-x="574" 
d="M525 202l-476 -187v110l348 129l-348 129v110l476 -187v-104z" />
    <glyph glyph-name="degree.onum" horiz-adv-x="354" 
d="M308 371q0 -58 -40.5 -97.5t-97.5 -39.5t-97.5 39.5t-40.5 97.5q0 59 40 98t98 39t98 -39t40 -98zM231 371q0 26 -17.5 44t-43.5 18t-43.5 -18t-17.5 -44t17.5 -44t43.5 -18t43.5 18t17.5 44z" />
    <glyph glyph-name="florin.ostnum" 
d="M111 294h137l19 48q31 84 75 128.5t120 44.5q57 0 94 -17l-13 -95q-36 11 -64 11q-36 0 -59 -17.5t-39 -60.5l-17 -42h168v-96h-203l-136 -359h-115l135 359h-102v96z" />
    <glyph glyph-name="yen.ostnum" 
d="M449 291h108v-59h-144l-22 -37v-18h166v-59h-166v-118h-119v118h-166v59h166v18l-23 37h-143v59h107l-129 215h127l121 -202h2l120 202h125z" />
    <glyph glyph-name="cent.ostnum" 
d="M344 -114v114q-102 8 -166.5 78t-64.5 175q0 103 65 173.5t166 78.5v99h53v-99q102 -10 167 -80l-74 -71q-39 42 -93 49v-302q55 7 100 55l72 -69q-73 -78 -172 -87v-114h-53zM227 253q0 -63 32 -103.5t85 -48.5v303q-53 -8 -85 -49t-32 -102z" />
    <glyph glyph-name="space.ostnum" horiz-adv-x="332" 
 />
    <glyph glyph-name="comma.ostnum" horiz-adv-x="332" 
d="M161 148q33 0 54 -21.5t21 -52.5q0 -26 -13 -48l-94 -154h-52l41 136q-34 22 -34 64q0 32 22.5 54t54.5 22z" />
    <glyph glyph-name="semicolon.ostnum" horiz-adv-x="332" 
d="M236 431q0 -32 -22 -54.5t-54 -22.5t-54 22.5t-22 54.5t22 54t54 22t54 -22.5t22 -53.5zM76 -128l42 136q-34 21 -34 64q0 32 22 54t54 22q33 0 54.5 -21.5t21.5 -52.5q0 -25 -14 -48l-94 -154h-52z" />
    <glyph glyph-name="colon.ostnum" horiz-adv-x="332" 
d="M236 72q0 -32 -22 -54.5t-54 -22.5t-54 22.5t-22 54.5t22 54t54 22t54 -22t22 -54zM236 431q0 -32 -22 -54.5t-54 -22.5t-54 22.5t-22 54.5t22 54t54 22t54 -22.5t22 -53.5z" />
    <glyph glyph-name="period.ostnum" horiz-adv-x="332" 
d="M236 72q0 -32 -22 -54.5t-54 -22.5t-54 22.5t-22 54.5t22 54t54 22t54 -22t22 -54z" />
    <glyph glyph-name="parenleft.ostnum" horiz-adv-x="332" 
d="M300 -139l-92 -49q-154 220 -154 442t154 442l92 -49q-133 -195 -133 -393t133 -393z" />
    <glyph glyph-name="parenright.ostnum" horiz-adv-x="332" 
d="M124 -188l-93 49q134 197 134 393q0 108 -34 201.5t-100 191.5l93 49q153 -219 153 -442t-153 -442z" />
    <glyph glyph-name="bracketleft.ostnum" horiz-adv-x="332" 
d="M69 -190v890h208v-93h-94v-704h94v-93h-208z" />
    <glyph glyph-name="bracketright.ostnum" horiz-adv-x="332" 
d="M261 700v-890h-208v93h94v704h-94v93h208z" />
    <glyph glyph-name="braceleft.ostnum" horiz-adv-x="332" 
d="M308 -190h-70q-51 0 -84.5 35t-33.5 109v165q0 45 -32 67.5t-65 22.5v90q33 0 65 22.5t32 67.5v177q0 67 33.5 100.5t84.5 33.5h70v-90h-30q-58 0 -58 -72v-166q0 -103 -93 -117v-2q93 -8 93 -116v-166q0 -71 58 -71h30v-90z" />
    <glyph glyph-name="braceright.ostnum" horiz-adv-x="332" 
d="M93 -190h-70v90h31q58 0 58 71v166q0 108 93 116v2q-93 13 -93 117v166q0 72 -58 72h-31v90h70q52 0 85.5 -33.5t33.5 -100.5v-177q0 -45 32 -67.5t65 -22.5v-90q-33 0 -65 -22.5t-32 -67.5v-165q0 -74 -33.5 -109t-85.5 -35z" />
    <glyph glyph-name="section.ostnum" 
d="M321 -168q-99 0 -199 79l62 71q65 -58 136 -58q44 0 71 17t27 48q0 29 -31.5 50t-91.5 44q-28 11 -45 18.5t-42.5 23t-40 31.5t-25.5 42t-11 56q0 44 27 78.5t73 53.5q-91 51 -91 134q0 76 55 118t140 42q111 0 189 -68l-64 -77q-52 52 -119 52q-39 0 -62 -18.5
t-23 -50.5q0 -11 4.5 -21.5t14 -19.5t18.5 -15.5t24 -13.5l23.5 -11t24.5 -10l21 -8l46.5 -19.5t41 -22.5t36.5 -30t22.5 -38t9.5 -51q0 -45 -29.5 -82t-74.5 -52q39 -17 67 -53t28 -78q0 -79 -59.5 -120t-152.5 -41zM234 261q0 -39 34 -62q40 -20 75 -20q40 0 69 20.5
t29 52.5q0 41 -35 62q-35 20 -75 20t-68.5 -20t-28.5 -53z" />
    <glyph glyph-name="numbersign.ostnum" 
d="M345 0l20 124h-114l-21 -124h-88l21 124h-79v84h93l16 97h-82v83h96l20 118h88l-20 -118h115l19 118h88l-20 -118h82v-83h-96l-16 -97h86v-84h-100l-20 -124h-88zM281 305l-16 -97h114l16 97h-114z" />
    <glyph glyph-name="percent.ostnum" 
d="M513 -3q-49 0 -79.5 36.5t-30.5 94.5t31 94.5t79 36.5t79 -36.5t31 -94.5t-31 -94.5t-79 -36.5zM513 51q21 0 35 20t14 57t-14 57t-35 20q-22 0 -36 -20t-14 -57q0 -36 14.5 -56.5t35.5 -20.5zM151 250q-49 0 -79.5 36t-30.5 95q0 58 31 94.5t79 36.5t79 -36.5t31 -94.5
q0 -59 -31 -95t-79 -36zM111 0l378 506h67l-378 -506h-67zM151 304q21 0 35 20t14 57q0 36 -14 56.5t-35 20.5t-35.5 -20t-14.5 -57t14 -57t36 -20z" />
    <glyph glyph-name="perthousand.ostnum" 
d="M17 0l356 506h59l-356 -506h-59zM326 -2q-44 0 -71 32.5t-27 84.5t27.5 85t70.5 33t70.5 -33t27.5 -85t-27.5 -84.5t-70.5 -32.5zM326 46q18 0 30.5 18t12.5 51q0 32 -12.5 50.5t-30.5 18.5q-19 0 -31.5 -18t-12.5 -51q0 -32 12.5 -50.5t31.5 -18.5zM548 -2
q-44 0 -71 32.5t-27 84.5t27.5 85t70.5 33t70.5 -33t27.5 -85t-27.5 -84.5t-70.5 -32.5zM548 46q18 0 30.5 18t12.5 51q0 32 -12.5 50.5t-30.5 18.5t-31 -18t-13 -51q0 -32 12.5 -50.5t31.5 -18.5zM118 276q-44 0 -71 32.5t-27 84.5t27.5 85t70.5 33t70.5 -32.5t27.5 -85.5
q0 -52 -27.5 -84.5t-70.5 -32.5zM118 324q18 0 30.5 18t12.5 51q0 32 -12.5 50.5t-30.5 18.5t-31 -18t-13 -51q0 -32 12.5 -50.5t31.5 -18.5z" />
    <glyph glyph-name="plus.ostnum" 
d="M573 198h-186v-169h-110v169h-187v107h187v170h110v-170h186v-107z" />
    <glyph glyph-name="minus.ostnum" 
d="M562 197h-460v109h460v-109z" />
    <glyph glyph-name="divide.ostnum" 
d="M408 73q0 -32 -22 -54t-54 -22t-54.5 22t-22.5 54t22.5 54t54.5 22t54 -22.5t22 -53.5zM408 425q0 -32 -22 -54.5t-54 -22.5t-54.5 22.5t-22.5 54.5t22.5 54t54.5 22t54 -22.5t22 -53.5zM560 205h-457v87h457v-87z" />
    <glyph glyph-name="multiply.ostnum" 
d="M535 377l-125 -126l125 -125l-78 -77l-125 124l-125 -124l-78 77l125 125l-125 126l78 77l125 -124l125 124z" />
    <glyph glyph-name="equal.ostnum" 
d="M92 297v106h479v-106h-479zM92 109v106h479v-106h-479z" />
    <glyph glyph-name="less.ostnum" 
d="M569 15l-477 187v104l477 187v-110l-348 -129l348 -129v-110z" />
    <glyph glyph-name="greater.ostnum" 
d="M571 202l-477 -187v110l348 129l-348 129v110l477 -187v-104z" />
    <glyph glyph-name="degree.ostnum" horiz-adv-x="332" 
d="M302 371q0 -58 -40.5 -97.5t-98.5 -39.5q-57 0 -97.5 39.5t-40.5 97.5q0 59 40 98t98 39t98.5 -39t40.5 -98zM224 371q0 26 -17.5 44t-43.5 18q-25 0 -42.5 -18t-17.5 -44t17.5 -44t42.5 -18q26 0 43.5 18t17.5 44z" />
    </font>
</defs>
</svg>
