<?xml version="1.0" standalone="no"?>
<!DOCTYPE svg PUBLIC "-//W3C//DTD SVG 1.1//EN" "http://www.w3.org/Graphics/SVG/1.1/DTD/svg11.dtd" >
<svg>
<metadata>
Created by FontForge 20090622 at Thu Mar 17 13:37:27 2016
 By deploy user
Copyright (c) 2013 by Panos Haratzopoulos. All rights reserved.
</metadata>
<defs>
<font id="CFAstyStd-BookOblique" horiz-adv-x="633" >
  <font-face 
    font-family="CF Asty Std"
    font-weight="400"
    font-style="oblique"
    font-stretch="normal"
    units-per-em="1000"
    panose-1="0 0 5 3 3 0 0 2 0 4"
    ascent="800"
    descent="-200"
    x-height="501"
    cap-height="700"
    bbox="-155 -275 1151 906"
    underline-thickness="20"
    underline-position="-113"
    slope="-10"
    unicode-range="U+0020-U+FB04"
  />
<missing-glyph horiz-adv-x="296" 
 />
    <glyph glyph-name="ff" unicode="ff" horiz-adv-x="606" 
d="M237 573l-12 -72h178l17 96q4 26 14 50q-42 33 -94 33q-48 0 -70.5 -25t-32.5 -82zM587 690q-71 0 -88 -105l-15 -84h126l-13 -70h-126l-76 -431h-81l76 431h-178l-77 -431h-81l76 431h-69l13 70h69l14 77q16 91 56.5 131.5t119.5 40.5q81 0 134 -40q39 50 116 50
q53 0 91 -16l-19 -65q-32 11 -68 11z" />
    <glyph glyph-name="fi" unicode="fi" horiz-adv-x="570" 
d="M352 0l75 431h-215l-77 -431h-81l76 431h-69l13 70h69l18 97q14 78 51 120t111 42q51 0 91 -15l-19 -66q-28 11 -68 11q-69 0 -88 -105l-14 -84h296l-89 -501h-80zM570 673q0 -24 -18 -42t-42 -18t-41.5 18t-17.5 42t17.5 41.5t41.5 17.5t42 -17.5t18 -41.5z" />
    <glyph glyph-name="fl" unicode="fl" horiz-adv-x="576" 
d="M358 0l133 750h80l-133 -750h-80zM54 0l76 431h-69l13 70h69l18 97q14 78 51 120t111 42q53 0 91 -16l-19 -65q-32 11 -68 11q-69 0 -88 -105l-14 -84h125l-13 -70h-125l-77 -431h-81z" />
    <glyph glyph-name="ffi" unicode="ffi" horiz-adv-x="830" 
d="M612 0l75 431h-216l-76 -431h-81l76 431h-178l-77 -431h-81l76 431h-69l13 70h69l14 77q16 91 56.5 131.5t119.5 40.5q81 0 134 -40q39 50 116 50q53 0 91 -16l-19 -65q-32 11 -68 11q-71 0 -88 -105l-15 -84h296l-88 -501h-80zM830 673q0 -24 -18 -42t-42 -18t-42 18
t-18 42t18 41.5t42 17.5t42 -17.5t18 -41.5zM237 573l-12 -72h178l17 96q4 26 14 50q-42 33 -94 33q-48 0 -70.5 -25t-32.5 -82z" />
    <glyph glyph-name="ffl" unicode="ffl" horiz-adv-x="833" 
d="M615 0l133 750h80l-133 -750h-80zM237 573l-12 -72h178l17 96q4 26 14 50q-42 33 -94 33q-48 0 -70.5 -25t-32.5 -82zM587 690q-71 0 -88 -105l-15 -84h126l-13 -70h-126l-76 -431h-81l76 431h-178l-77 -431h-81l76 431h-69l13 70h69l14 77q16 91 56.5 131.5t119.5 40.5
q81 0 134 -40q39 50 116 50q53 0 91 -16l-19 -65q-32 11 -68 11z" />
    <glyph glyph-name=".notdef" horiz-adv-x="296" 
 />
    <glyph glyph-name=".null" horiz-adv-x="0" 
 />
    <glyph glyph-name="nonmarkingreturn" horiz-adv-x="333" 
 />
    <glyph glyph-name="space" unicode=" " horiz-adv-x="296" 
 />
    <glyph glyph-name="exclam" unicode="!" horiz-adv-x="284" 
d="M164 211h-84l86 489h84zM158 58q0 -25 -18.5 -43.5t-42.5 -18.5q-25 0 -43.5 18t-18.5 44q0 25 18.5 43t43.5 18q24 0 42.5 -18t18.5 -43z" />
    <glyph glyph-name="quotedbl" unicode="&#x22;" horiz-adv-x="355" 
d="M248 454l43 246h92l-8 -48l-82 -198h-45zM78 454l44 246h91l-8 -48l-82 -198h-45z" />
    <glyph glyph-name="numbersign" unicode="#" horiz-adv-x="600" 
d="M260 0l68 219h-122l-69 -219h-71l69 219h-96l12 70h106l44 142h-94l13 70h103l63 199h71l-62 -199h122l62 199h72l-62 -199h102l-12 -70h-113l-44 -142h101l-12 -70h-111l-69 -219h-71zM273 431l-45 -142h123l44 142h-122z" />
    <glyph glyph-name="dollar" unicode="$" horiz-adv-x="605" 
d="M9 121l62 53q23 -33 62.5 -61t82.5 -36l45 247q-87 28 -129.5 70t-42.5 105q0 92 67 145.5t171 55.5l13 73h54l-14 -77q116 -15 179 -100l-66 -51q-41 63 -126 78l-42 -240q188 -59 188 -180q0 -93 -74.5 -147.5t-181.5 -55.5l-16 -90h-54l17 94q-117 19 -195 117z
M429 199q0 67 -117 108l-42 -233q70 4 114.5 34t44.5 91zM172 504q0 -64 102 -103l40 224q-60 -3 -101 -33t-41 -88z" />
    <glyph glyph-name="percent" unicode="%" horiz-adv-x="813" 
d="M90 0l552 700h74l-551 -700h-75zM218 345q-61 0 -98.5 44t-37.5 112q0 78 44 141t122 63q60 0 98 -44.5t38 -112.5q0 -78 -44 -140.5t-122 -62.5zM220 401q47 0 72.5 46t25.5 102q0 47 -19.5 73t-51.5 26q-49 0 -74 -47t-25 -103q0 -46 20 -71.5t52 -25.5zM564 -5
q-61 0 -99 44t-38 112q0 78 44.5 141t122.5 63q60 0 98 -44.5t38 -112.5q0 -78 -44 -140.5t-122 -62.5zM565 51q47 0 73 46t26 102q0 47 -20 73t-52 26q-49 0 -73.5 -47t-24.5 -103q0 -45 19.5 -71t51.5 -26z" />
    <glyph glyph-name="ampersand" unicode="&#x26;" horiz-adv-x="710" 
d="M529 583q0 -37 -15.5 -68.5t-49 -59t-58 -43.5t-69.5 -41l136 -170q52 66 104 172h81q-76 -148 -142 -226l116 -147h-95l-72 90q-111 -100 -241 -100q-85 0 -138 44.5t-53 120.5q0 41 16 76t48 63t61 46.5t74 42.5q-58 75 -58 146q0 78 56 129.5t140 51.5
q68 0 113.5 -35.5t45.5 -91.5zM236 63q100 0 187 80l-151 190q-33 -18 -53 -30.5t-47 -34t-40.5 -48.5t-13.5 -58q0 -45 32 -72t86 -27zM256 528q0 -54 43 -109q156 78 156 154q0 33 -24.5 51t-62.5 18q-51 0 -81.5 -32t-30.5 -82z" />
    <glyph glyph-name="quotesingle" unicode="'" horiz-adv-x="186" 
d="M78 454l44 246h91l-8 -48l-82 -198h-45z" />
    <glyph glyph-name="parenleft" unicode="(" horiz-adv-x="327" 
d="M213 -117l-66 -38q-98 168 -98 359q0 257 223 521l60 -41q-204 -232 -204 -485q0 -175 85 -316z" />
    <glyph glyph-name="parenright" unicode=")" horiz-adv-x="328" 
d="M40 -159l-58 45q95 108 149 233.5t54 255.5q0 166 -86 311l67 39q99 -172 99 -353q0 -140 -61 -276.5t-164 -254.5z" />
    <glyph glyph-name="asterisk" unicode="*" horiz-adv-x="362" 
d="M207 515l-77 -97l-44 37l91 88l-108 27l29 59l99 -45l12 116h61l-29 -116l115 44l8 -59l-116 -27l60 -88l-57 -37z" />
    <glyph glyph-name="plus" unicode="+" horiz-adv-x="628" 
d="M575 261h-222l-39 -221h-80l39 221h-222l14 79h222l38 222h81l-39 -222h222z" />
    <glyph glyph-name="comma" unicode="," horiz-adv-x="249" 
d="M152 61q0 -21 -19 -49l-102 -131h-46l70 126q-26 21 -26 51q0 25 18.5 43t43.5 18q27 0 44 -16.5t17 -41.5z" />
    <glyph glyph-name="hyphen" unicode="-" horiz-adv-x="562" 
d="M48 257l16 87h263l-16 -87h-263z" />
    <glyph glyph-name="period" unicode="." horiz-adv-x="249" 
d="M152 58q0 -25 -18.5 -43.5t-43.5 -18.5q-26 0 -44 18t-18 44q0 25 18.5 43t43.5 18t43.5 -18t18.5 -43z" />
    <glyph glyph-name="slash" unicode="/" horiz-adv-x="429" 
d="M-111 -160l559 940h87l-559 -940h-87z" />
    <glyph glyph-name="zero" unicode="0" 
d="M279 -10q-106 0 -165 81t-59 214q0 52 10 108t33.5 113t57 102t85 73.5t113.5 28.5q105 0 165 -82.5t60 -215.5q0 -67 -17.5 -137t-51.5 -135.5t-94.5 -107.5t-136.5 -42zM280 66q57 0 101 36t68 92.5t35.5 113.5t11.5 109q0 95 -38.5 156t-106.5 61q-46 0 -83.5 -24.5
t-61 -62.5t-40 -85.5t-23 -92.5t-6.5 -85q0 -94 38 -156t105 -62z" />
    <glyph glyph-name="one" unicode="1" horiz-adv-x="354" 
d="M215 609l-126 -64l-25 68l170 87h82l-123 -700h-84z" />
    <glyph glyph-name="two" unicode="2" horiz-adv-x="584" 
d="M22 75l268 219q38 30 58.5 49t53.5 53.5t49 69.5t16 70q0 46 -31 71.5t-86 25.5q-59 0 -102 -32.5t-63 -91.5l-82 13q27 83 92 135.5t160 52.5q91 0 145 -43.5t54 -123.5q0 -31 -7.5 -60.5t-26 -57.5l-33 -48.5t-46.5 -49l-48 -42l-54 -44.5l-202 -164h340l-13 -77h-455z
" />
    <glyph glyph-name="three" unicode="3" horiz-adv-x="559" 
d="M19 171l86 16q20 -121 139 -121q74 0 125 43t51 109q0 110 -148 110h-60l13 73h58q64 0 113.5 37t49.5 100q0 44 -32 70t-90 26q-109 0 -154 -108l-83 16q67 168 244 168q90 0 144.5 -43t54.5 -123q0 -70 -41.5 -115t-103.5 -61q119 -35 119 -147q0 -99 -74 -165
t-189 -66q-100 0 -156 52t-66 129z" />
    <glyph glyph-name="four" unicode="4" horiz-adv-x="578" 
d="M515 164h-102l-28 -164h-84l29 164h-326l13 76l395 460h96l-82 -465h102zM343 235l61 348l-299 -348h238z" />
    <glyph glyph-name="five" unicode="5" horiz-adv-x="555" 
d="M119 334l-43 25l62 341h391l-15 -77h-309l-33 -190q62 23 119 23q91 0 151 -55t60 -150q0 -110 -73.5 -185.5t-193.5 -75.5q-89 0 -143 43.5t-72 111.5l80 24q12 -49 48 -76t91 -27q80 0 130 52t50 126q0 62 -36.5 100.5t-100.5 38.5q-45 0 -77 -10.5t-86 -38.5z" />
    <glyph glyph-name="six" unicode="6" horiz-adv-x="584" 
d="M275 66q81 0 132 48t51 129q0 64 -40.5 97.5t-109.5 33.5q-79 0 -131 -47t-52 -127q0 -62 40 -98t110 -36zM39 197q0 112 76 206l239 297h98l-219 -269l1 -1q41 17 86 17q95 0 159 -55.5t64 -146.5q0 -109 -73.5 -182t-196.5 -73q-107 0 -170.5 60t-63.5 147z" />
    <glyph glyph-name="seven" unicode="7" horiz-adv-x="513" 
d="M524 627l-380 -627h-95l378 622h-352l14 78h449z" />
    <glyph glyph-name="eight" unicode="8" horiz-adv-x="616" 
d="M273 -10q-107 0 -168.5 47.5t-61.5 135.5q0 72 45 128t117 69v2q-41 15 -67.5 50.5t-26.5 86.5q0 95 69.5 148t173.5 53q96 0 154 -44t58 -126q0 -61 -38 -107t-100 -63v-2q113 -43 113 -155q0 -105 -76.5 -164t-191.5 -59zM274 65q77 0 131.5 40t54.5 114q0 50 -39 80
t-110 30q-73 0 -130 -39t-57 -110q0 -115 150 -115zM320 398q64 0 114 37.5t50 101.5q0 47 -34.5 72.5t-96.5 25.5q-64 0 -112.5 -35t-48.5 -101q0 -49 37 -75t91 -26z" />
    <glyph glyph-name="nine" unicode="9" horiz-adv-x="588" 
d="M328 634q-81 0 -132 -48t-51 -129q0 -64 40.5 -97.5t109.5 -33.5q79 0 131 47.5t52 126.5q0 62 -40 98t-110 36zM564 503q0 -111 -76 -206l-239 -297h-98l219 269l-1 1q-41 -17 -86 -17q-95 0 -159 55.5t-64 146.5q0 109 73.5 182t196.5 73q107 0 170.5 -60t63.5 -147z
" />
    <glyph glyph-name="colon" unicode=":" horiz-adv-x="261" 
d="M157 58q0 -25 -18.5 -43.5t-43.5 -18.5t-43.5 18t-18.5 44q0 25 18.5 43t43.5 18t43.5 -18t18.5 -43zM226 450q0 -25 -18.5 -43.5t-43.5 -18.5q-26 0 -44 18t-18 44q0 25 18.5 43t43.5 18t43.5 -18t18.5 -43z" />
    <glyph glyph-name="semicolon" unicode=";" horiz-adv-x="256" 
d="M221 450q0 -25 -18.5 -43.5t-43.5 -18.5t-43.5 18t-18.5 44q0 25 18.5 43t43.5 18t43.5 -18t18.5 -43zM152 61q0 -21 -19 -49l-101 -131h-47l71 126q-27 20 -27 51q0 25 18.5 43t43.5 18q28 0 44.5 -16.5t16.5 -41.5z" />
    <glyph glyph-name="less" unicode="&#x3c;" horiz-adv-x="635" 
d="M519 40l-494 216l16 88l570 216l-15 -88l-472 -176l410 -176z" />
    <glyph glyph-name="equal" unicode="=" horiz-adv-x="626" 
d="M79 344l14 80h485l-14 -80h-485zM48 174l14 80h485l-14 -80h-485z" />
    <glyph glyph-name="greater" unicode="&#x3e;" horiz-adv-x="673" 
d="M608 256l-570 -216l16 89l473 176l-411 176l14 78l494 -215z" />
    <glyph glyph-name="question" unicode="?" horiz-adv-x="512" 
d="M156 518l-77 23q25 77 84 123.5t145 46.5q83 0 139 -39.5t56 -115.5q0 -90 -99 -165l-78 -60q-31 -24 -43 -46.5t-19 -63.5l-6 -31h-83l7 37q11 59 27 91t56 61l89 66q64 48 64 105q0 41 -31 63t-83 22q-109 0 -148 -117zM260 58q0 -25 -18.5 -43.5t-43.5 -18.5
q-26 0 -44 18t-18 44q0 25 18.5 43t43.5 18t43.5 -18t18.5 -43z" />
    <glyph glyph-name="at" unicode="@" horiz-adv-x="988" 
d="M618 291q16 38 16 67q0 43 -30 67t-74 24q-83 0 -143.5 -65.5t-60.5 -148.5q0 -43 23 -70t69 -27q138 4 200 153zM409 78q-68 0 -114 39.5t-46 104.5q0 115 79.5 202t201.5 87q49 0 90.5 -21.5t54.5 -57.5l30 69h73l-117 -274q-15 -33 -17 -62q0 -53 61 -53q58 0 103 44
t65.5 100.5t20.5 109.5q0 121 -93.5 210.5t-236.5 89.5q-115 0 -223.5 -61.5t-178.5 -171t-70 -236.5q0 -136 89 -226.5t238 -90.5q129 0 257 67l16 -37q-139 -74 -278 -74q-164 0 -267 107t-103 258q0 95 41 187.5t110 163.5t165.5 114.5t201.5 43.5q161 0 271 -102
t110 -239q0 -70 -26 -137t-83 -115.5t-132 -48.5q-46 0 -80.5 19.5t-40.5 60.5q-70 -70 -172 -70z" />
    <glyph glyph-name="A" unicode="A" horiz-adv-x="708" 
d="M161 181l-104 -181h-94l414 703h81l154 -703h-89l-37 181h-325zM203 255h268l-70 339h-2z" />
    <glyph glyph-name="B" unicode="B" horiz-adv-x="661" 
d="M130 75h183q46 0 86 12.5t69.5 45t29.5 80.5q0 50 -39.5 82t-115.5 32h-169zM157 700h228q101 0 156.5 -43.5t55.5 -116.5q0 -61 -36 -107t-95 -69l-1 -2q57 -18 88 -52.5t31 -95.5q0 -104 -78 -159t-197 -55h-275zM375 625h-148l-40 -224h153q71 0 119.5 30t48.5 98
q0 43 -34.5 69.5t-98.5 26.5z" />
    <glyph glyph-name="C" unicode="C" horiz-adv-x="723" 
d="M360 -10q-139 0 -222.5 93t-83.5 231q0 76 28 147.5t77.5 127t122 88.5t156.5 33q87 0 142 -25t101 -79l-65 -50q-34 41 -74.5 59.5t-104.5 18.5q-130 0 -215 -94t-85 -226q0 -105 60.5 -176.5t163.5 -71.5q67 0 117.5 23.5t101.5 75.5l58 -55q-62 -60 -126 -90t-152 -30
z" />
    <glyph glyph-name="D" unicode="D" horiz-adv-x="745" 
d="M131 76h154q135 0 229 90t94 233q0 103 -59.5 164t-176.5 61h-145zM282 0h-248l123 700h215q147 0 233 -81.5t86 -216.5q0 -172 -118 -287t-291 -115z" />
    <glyph glyph-name="E" unicode="E" horiz-adv-x="638" 
d="M34 0l123 700h458l-14 -78h-374l-39 -219h349l-13 -77h-349l-44 -248h396l-13 -78h-480z" />
    <glyph glyph-name="F" unicode="F" horiz-adv-x="606" 
d="M590 622h-363l-41 -232h317l-13 -76h-317l-56 -314h-83l123 700h446z" />
    <glyph glyph-name="G" unicode="G" horiz-adv-x="751" 
d="M550 113l33 193h-175l13 75h259l-53 -309q-116 -82 -260 -82t-228.5 93.5t-84.5 232.5q0 102 47.5 191.5t136 146t197.5 56.5q85 0 143.5 -24.5t109.5 -75.5l-58 -57q-43 41 -85.5 61t-112.5 20q-126 0 -210.5 -94.5t-84.5 -223.5q0 -106 62 -178t168 -72q93 0 183 47z
" />
    <glyph glyph-name="H" unicode="H" horiz-adv-x="724" 
d="M34 0l123 700h83l-52 -297h366l53 297h83l-123 -700h-83l57 326h-366l-58 -326h-83z" />
    <glyph glyph-name="I" unicode="I" horiz-adv-x="274" 
d="M34 0l123 700h83l-123 -700h-83z" />
    <glyph glyph-name="J" unicode="J" horiz-adv-x="504" 
d="M-13 128l80 27q22 -89 99 -89q57 0 85.5 36.5t43.5 120.5l84 477h88l-86 -484q-20 -110 -69.5 -168t-147.5 -58q-73 0 -117 38.5t-60 99.5z" />
    <glyph glyph-name="K" unicode="K" horiz-adv-x="700" 
d="M240 700l-61 -351l385 351h112l-310 -282l223 -418h-99l-189 357l-144 -131l-40 -226h-83l123 700h83z" />
    <glyph glyph-name="L" unicode="L" horiz-adv-x="567" 
d="M34 0l123 700h83l-109 -620h364l-14 -80h-447z" />
    <glyph glyph-name="M" unicode="M" horiz-adv-x="861" 
d="M718 555h-2l-296 -328h-9l-193 338h-2l-100 -565h-82l123 700h80l194 -344l308 344h89l-123 -700h-85z" />
    <glyph glyph-name="N" unicode="N" horiz-adv-x="778" 
d="M34 0l123 700h75l330 -559h3l98 559h81l-123 -700h-70l-333 562h-2l-99 -562h-83z" />
    <glyph glyph-name="O" unicode="O" horiz-adv-x="823" 
d="M385 -10q-147 0 -239 94.5t-92 234.5q0 101 48.5 190.5t138 145t197.5 55.5q146 0 239 -95t93 -234q0 -156 -111 -273.5t-274 -117.5zM387 66q129 0 214 93t85 222q0 108 -68 180.5t-182 72.5q-129 0 -214 -93t-85 -223q0 -107 68.5 -179.5t181.5 -72.5z" />
    <glyph glyph-name="P" unicode="P" horiz-adv-x="616" 
d="M157 700h213q100 0 159.5 -47t59.5 -126q0 -114 -74.5 -172t-198.5 -58h-146l-53 -297h-83zM183 371h138q81 0 133 35.5t52 114.5q0 104 -148 104h-131z" />
    <glyph glyph-name="Q" unicode="Q" horiz-adv-x="834" 
d="M387 76q129 0 214 90t85 219q0 108 -68 178.5t-182 70.5q-130 0 -214.5 -91.5t-84.5 -220.5q0 -107 68 -176.5t182 -69.5zM757 0h-372q-148 0 -239.5 92t-91.5 231q0 156 110.5 271.5t273.5 115.5q146 0 238.5 -93t92.5 -233q0 -98 -46 -177.5t-134 -130.5v-2h181z" />
    <glyph glyph-name="R" unicode="R" horiz-adv-x="631" 
d="M533 0h-88l-133 297h-142l-53 -297h-83l123 700h213q100 0 159.5 -47t59.5 -126q0 -94 -52 -150.5t-142 -72.5zM183 371h138q81 0 133 35.5t52 114.5q0 104 -148 104h-131z" />
    <glyph glyph-name="S" unicode="S" horiz-adv-x="604" 
d="M560 605l-66 -50q-22 35 -66.5 57t-97.5 22q-64 0 -111 -32.5t-47 -94.5q0 -37 34.5 -67.5t118.5 -56.5q188 -57 188 -183q0 -101 -74.5 -155.5t-189.5 -54.5q-70 0 -136 34t-104 87l62 54q28 -39 76.5 -69t100.5 -30q78 0 130 32t52 98q0 76 -148 121q-97 29 -145 73.5
t-48 111.5q0 96 68.5 152t174.5 56q152 0 228 -105z" />
    <glyph glyph-name="T" unicode="T" horiz-adv-x="602" 
d="M611 622h-225l-109 -622h-84l110 622h-225l13 78h533z" />
    <glyph glyph-name="U" unicode="U" horiz-adv-x="724" 
d="M536 296l71 404h83l-73 -414q-26 -146 -101 -221t-193 -75q-111 0 -181 66t-70 181q0 34 8 80l68 383h84l-67 -381q-8 -46 -8 -75q0 -85 45.5 -131.5t124.5 -46.5q169 0 209 230z" />
    <glyph glyph-name="V" unicode="V" horiz-adv-x="669" 
d="M280 113l327 587h90l-399 -704h-79l-141 704h86l114 -587h2z" />
    <glyph glyph-name="W" unicode="W" horiz-adv-x="968" 
d="M103 700h85l61 -551h2l252 553h73l52 -554h2l258 552h88l-335 -705h-74l-55 540h-2l-247 -540h-78z" />
    <glyph glyph-name="X" unicode="X" horiz-adv-x="673" 
d="M326 289l-247 -289h-103l311 362l-168 338h97l132 -268l229 268h105l-296 -342l179 -358h-98z" />
    <glyph glyph-name="Y" unicode="Y" horiz-adv-x="617" 
d="M65 700h95l140 -321h2l251 321h102l-325 -403l-53 -297h-84l53 296z" />
    <glyph glyph-name="Z" unicode="Z" horiz-adv-x="667" 
d="M540 0h-533l11 72l506 552h-395l13 76h506l-13 -71l-505 -553h423z" />
    <glyph glyph-name="bracketleft" unicode="[" horiz-adv-x="343" 
d="M6 -160l157 890h186l-12 -66h-106l-133 -758h106l-12 -66h-186z" />
    <glyph glyph-name="backslash" unicode="\" horiz-adv-x="426" 
d="M137 780l231 -940h-80l-230 940h79z" />
    <glyph glyph-name="bracketright" unicode="]" horiz-adv-x="341" 
d="M311 730l-157 -890h-185l12 66h104l133 758h-105l12 66h186z" />
    <glyph glyph-name="asciicircum" unicode="^" horiz-adv-x="433" 
d="M35 441l196 259h71l106 -259h-70l-81 200l-149 -200h-73z" />
    <glyph glyph-name="underscore" unicode="_" horiz-adv-x="537" 
d="M-1 -152v55h539v-55h-539z" />
    <glyph glyph-name="grave" unicode="`" horiz-adv-x="410" 
d="M212 742l63 -151h-61l-89 109z" />
    <glyph glyph-name="a" unicode="a" horiz-adv-x="535" 
d="M245 305q78 0 142 -15l5 28q9 55 -14 88.5t-81 33.5q-83 0 -162 -51l-39 58q99 64 200 64q92 0 142 -52t32 -150l-55 -309h-79l11 62q-70 -73 -173 -73q-68 0 -114 35.5t-46 103.5q0 86 64 131.5t167 45.5zM368 185l7 43q-65 14 -130 14q-68 0 -109.5 -27t-41.5 -82
q0 -39 26 -59.5t68 -20.5q58 0 114.5 40.5t65.5 91.5z" />
    <glyph glyph-name="b" unicode="b" horiz-adv-x="627" 
d="M23 0l133 750h80l-56 -317h2q73 78 180 78q89 0 150 -61t61 -162q0 -116 -78.5 -207t-202.5 -91q-58 0 -103 26t-68 66h-3l-15 -82h-80zM291 62q86 0 143.5 67t57.5 157q0 71 -42 112.5t-106 41.5q-83 0 -143 -66t-60 -156q0 -72 43.5 -114t106.5 -42z" />
    <glyph glyph-name="c" unicode="c" horiz-adv-x="542" 
d="M426 130l46 -51q-87 -89 -206 -89q-104 0 -168 63.5t-64 164.5q0 122 77.5 207.5t194.5 85.5q134 0 203 -95l-57 -46q-60 70 -147 70q-80 0 -134.5 -65t-54.5 -157q0 -71 42.5 -114t112.5 -43q83 0 155 69z" />
    <glyph glyph-name="d" unicode="d" horiz-adv-x="641" 
d="M268 61q81 0 139.5 63.5t58.5 150.5q0 76 -46.5 120.5t-111.5 44.5q-84 0 -138 -64.5t-54 -152.5q0 -75 43 -118.5t109 -43.5zM34 221q0 113 77.5 201.5t195.5 88.5q120 0 178 -99h3l60 338h80l-133 -750h-80l10 60h-3q-67 -70 -168 -70q-89 0 -154.5 63.5t-65.5 167.5z
" />
    <glyph glyph-name="e" unicode="e" horiz-adv-x="567" 
d="M253 -10q-93 0 -156.5 66.5t-63.5 164.5q0 121 72 205.5t193 84.5q97 0 156 -60.5t59 -153.5q0 -39 -9 -79h-390q3 -65 37.5 -111t102.5 -46q100 0 178 73l46 -49q-101 -95 -225 -95zM119 282h314q1 6 1 18q0 62 -36 102.5t-100 40.5q-74 0 -120.5 -44t-58.5 -117z" />
    <glyph glyph-name="f" unicode="f" horiz-adv-x="346" 
d="M54 0l76 431h-69l13 70h69l18 97q14 78 51 120t111 42q53 0 91 -16l-19 -65q-32 11 -68 11q-69 0 -88 -105l-14 -84h125l-13 -70h-125l-77 -431h-81z" />
    <glyph glyph-name="g" unicode="g" horiz-adv-x="636" 
d="M33 227q0 108 78.5 196t190.5 88q63 0 110 -26t71 -74h3l17 90h80l-80 -460q-40 -236 -287 -236q-140 0 -230 76l45 61q79 -68 187 -68q177 0 205 175l8 54h-3q-82 -85 -187 -85q-89 0 -148.5 59t-59.5 150zM248 89q88 0 153.5 59.5t65.5 147.5q0 67 -48.5 105.5
t-113.5 38.5q-78 0 -133.5 -62t-55.5 -145q0 -65 35.5 -104.5t96.5 -39.5z" />
    <glyph glyph-name="h" unicode="h" horiz-adv-x="573" 
d="M23 0l133 750h80l-54 -309h2q72 70 157 70q87 0 135.5 -60t32.5 -150l-53 -301h-81l52 291q12 68 -17 107t-92 39q-61 0 -106.5 -45.5t-58.5 -115.5l-50 -276h-80z" />
    <glyph glyph-name="i" unicode="i" horiz-adv-x="241" 
d="M23 0l88 501h81l-88 -501h-81zM241 673q0 -24 -18 -42t-41 -18q-25 0 -42.5 18t-17.5 42t17.5 41.5t42.5 17.5q23 0 41 -17.5t18 -41.5z" />
    <glyph glyph-name="j" unicode="j" horiz-adv-x="244" 
d="M-42 -195q-40 0 -64 6l20 68q11 -3 36 -3q54 0 66 75l96 550h81l-99 -560q-12 -68 -48 -102t-88 -34zM244 673q0 -24 -18 -42t-42 -18t-41.5 18t-17.5 42t17.5 41.5t41.5 17.5t42 -17.5t18 -41.5z" />
    <glyph glyph-name="k" unicode="k" horiz-adv-x="524" 
d="M373 0l-135 251l-106 -90l-29 -161h-80l133 750h80l-85 -483l275 234h103l-232 -199l166 -302h-90z" />
    <glyph glyph-name="l" unicode="l" horiz-adv-x="249" 
d="M23 0l133 750h80l-133 -750h-80z" />
    <glyph glyph-name="m" unicode="m" horiz-adv-x="881" 
d="M23 0l88 501h81l-11 -60h2q68 70 146 70q49 0 88.5 -25t52.5 -65h2q74 90 178 90q86 0 134 -58t32 -151l-51 -302h-80l51 293q11 65 -17 104.5t-85 39.5q-55 0 -96 -39t-53 -109l-50 -289h-81l52 294q12 68 -14.5 105.5t-85.5 37.5q-56 0 -99.5 -46t-54.5 -114l-48 -277
h-81z" />
    <glyph glyph-name="n" unicode="n" horiz-adv-x="573" 
d="M23 0l88 501h81l-10 -60h2q72 70 157 70q87 0 135.5 -60t32.5 -150l-53 -301h-81l52 291q12 68 -17 107t-92 39q-61 0 -106.5 -45.5t-58.5 -115.5l-50 -276h-80z" />
    <glyph glyph-name="o" unicode="o" horiz-adv-x="611" 
d="M271 -10q-107 0 -172 65.5t-65 168.5q0 118 81.5 202.5t203.5 84.5q107 0 172.5 -65t65.5 -169q0 -118 -81.5 -202.5t-204.5 -84.5zM273 61q89 0 146 63t57 151q0 74 -44 119.5t-116 45.5q-89 0 -144.5 -63t-55.5 -152q0 -74 43 -119t114 -45z" />
    <glyph glyph-name="p" unicode="p" horiz-adv-x="630" 
d="M111 501h81l-12 -68h2q73 78 180 78q89 0 150.5 -61t61.5 -162q0 -116 -78.5 -207t-203.5 -91q-57 0 -102 26t-69 66h-3l-47 -272h-81zM291 62q86 0 143.5 67t57.5 157q0 71 -41.5 112.5t-105.5 41.5q-84 0 -144 -66t-60 -156q0 -72 43.5 -114t106.5 -42z" />
    <glyph glyph-name="q" unicode="q" horiz-adv-x="638" 
d="M268 61q81 0 139.5 63.5t58.5 150.5q0 76 -46.5 120.5t-111.5 44.5q-84 0 -138 -64.5t-54 -152.5q0 -75 43 -118.5t109 -43.5zM504 501h80l-122 -691h-80l43 250h-3q-67 -70 -168 -70q-90 0 -155 63t-65 168q0 72 33.5 138t97.5 109t142 43q120 0 178 -99h3z" />
    <glyph glyph-name="r" unicode="r" horiz-adv-x="361" 
d="M192 501l-12 -61h2q25 30 66 49.5t82 19.5q27 0 45 -3l-20 -74q-30 3 -32 3q-73 0 -116 -44t-61 -148l-43 -243h-80l88 501h81z" />
    <glyph glyph-name="s" unicode="s" horiz-adv-x="459" 
d="M199 -10q-109 0 -187 83l50 56q68 -71 133 -71q42 0 72.5 17.5t30.5 55.5q0 21 -15 38.5t-29.5 26t-50.5 26.5q-31 16 -48 25.5t-39.5 27.5t-33 40.5t-10.5 50.5q0 71 52 108t130 37q106 0 163 -69l-59 -53q-47 54 -108 54q-38 0 -66 -17t-28 -55q0 -10 3 -19t10 -16.5
l12 -13t17.5 -12.5l17.5 -10t20 -9.5t18 -8.5q29 -14 45.5 -24t40 -28.5t34.5 -42.5t11 -54q0 -69 -53.5 -106t-132.5 -37z" />
    <glyph glyph-name="t" unicode="t" horiz-adv-x="377" 
d="M206 -10q-57 0 -93 32t-35 97q0 18 5 46l46 266h-85l13 70h85l22 123h81l-21 -123h138l-13 -70h-138l-49 -272q-2 -11 -2 -33q0 -65 67 -65q36 0 77 17l-11 -68q-45 -20 -87 -20z" />
    <glyph glyph-name="u" unicode="u" horiz-adv-x="596" 
d="M455 0h-81l10 60h-2q-72 -70 -157 -70q-87 0 -135.5 60t-32.5 151l53 300h81l-52 -291q-12 -68 17 -107t92 -39q61 0 107 46t58 115l49 276h81z" />
    <glyph glyph-name="v" unicode="v" horiz-adv-x="516" 
d="M167 -4l-109 505h83l80 -398h1l221 398h88l-290 -505h-74z" />
    <glyph glyph-name="w" unicode="w" horiz-adv-x="764" 
d="M133 -4l-70 505h77l50 -380h2l182 380h64l52 -381h3l178 381h81l-241 -505h-75l-50 370h-2l-178 -370h-73z" />
    <glyph glyph-name="x" unicode="x" horiz-adv-x="546" 
d="M360 0l-101 191h-2l-171 -191h-95l230 254l-136 247h88l102 -189h2l170 189h95l-229 -252l137 -249h-90z" />
    <glyph glyph-name="y" unicode="y" horiz-adv-x="547" 
d="M55 501h85l118 -397h2l206 397h87l-298 -567q-39 -74 -82 -101.5t-97 -27.5q-66 0 -122 33l30 67q52 -29 95 -29q31 0 55.5 21t51.5 69l22 40z" />
    <glyph glyph-name="z" unicode="z" horiz-adv-x="515" 
d="M4 0l12 58l359 374h-292l13 69h393l-12 -60l-357 -372h311l-13 -69h-414z" />
    <glyph glyph-name="braceleft" unicode="{" horiz-adv-x="377" 
d="M239 -160h-61q-38 0 -65 24.5t-27 75.5q0 22 4 43l27 157q3 14 3 30q0 39 -20 60t-49 21l12 66q34 0 65 30t40 81l32 180q11 61 42.5 91.5t73.5 30.5h79l-12 -65h-45q-52 0 -65 -81l-31 -174q-11 -60 -44.5 -91.5t-62.5 -37.5l-1 -3q23 -3 44 -27t21 -70q0 -15 -3 -35
l-29 -162q-2 -20 -2 -28q0 -51 40 -51h46z" />
    <glyph glyph-name="bar" unicode="|" horiz-adv-x="281" 
d="M18 -100l155 880h83l-155 -880h-83z" />
    <glyph glyph-name="braceright" unicode="}" horiz-adv-x="377" 
d="M47 -160h-78l12 65h43q52 0 66 79l31 175q11 65 44.5 96t62.5 34l1 3q-22 4 -43.5 29t-21.5 70q0 13 3 31l28 162q3 15 3 30q0 51 -40 51h-46l12 65h64q38 0 65 -23t27 -68q0 -15 -3 -33l-32 -178q-2 -10 -2 -29q0 -39 20 -60.5t49 -21.5l-12 -66q-34 0 -65 -30t-40 -81
l-28 -159q-26 -141 -120 -141z" />
    <glyph glyph-name="asciitilde" unicode="~" horiz-adv-x="434" 
d="M86 236l-32 44q40 79 103 79q25 0 69 -20.5t60 -20.5q20 0 32.5 10.5t29.5 37.5l32 -44q-40 -79 -103 -79q-25 0 -69 20.5t-59 20.5q-20 0 -33 -10t-30 -38z" />
    <glyph glyph-name="nbspace" unicode="&#xa0;" horiz-adv-x="150" 
 />
    <glyph glyph-name="exclamdown" unicode="&#xa1;" horiz-adv-x="284" 
d="M88 295h84l-87 -489h-84zM93 448q0 25 18.5 43.5t43.5 18.5t43.5 -18t18.5 -44q0 -25 -18.5 -43t-43.5 -18t-43.5 18t-18.5 43z" />
    <glyph glyph-name="cent" unicode="&#xa2;" horiz-adv-x="536" 
d="M189 -114l21 119q-79 15 -127.5 71.5t-48.5 141.5q0 118 76 199.5t187 83.5l17 98h53l-18 -102q100 -17 154 -90l-57 -46q-45 54 -109 65l-63 -355q77 3 147 68l45 -51q-86 -88 -204 -88l-20 -114h-53zM115 218q0 -57 29.5 -93.5t77.5 -48.5l62 353q-70 -6 -119.5 -66
t-49.5 -145z" />
    <glyph glyph-name="sterling" unicode="&#xa3;" horiz-adv-x="561" 
d="M586 643l-56 -56q-45 48 -109 48q-127 0 -157 -166l-13 -74h185l-12 -71h-186l-44 -250h262l-13 -74h-438l12 74h94l44 250h-94l12 71h94l15 84q42 231 238 231q101 0 166 -67z" />
    <glyph glyph-name="currency" unicode="&#xa4;" horiz-adv-x="638" 
d="M320 102q-100 0 -168 68.5t-68 166.5t68 166.5t168 68.5q102 0 169.5 -68t67.5 -167t-67.5 -167t-169.5 -68zM320 166q71 0 117.5 49.5t46.5 121.5t-47 121.5t-117 49.5t-116 -49.5t-46 -121.5t46.5 -121.5t115.5 -49.5zM109 502l-50 49l46 45l49 -49zM533 78l-49 49
l45 45l50 -49zM484 547l49 49l46 -45l-50 -49zM59 123l50 49l45 -45l-49 -49z" />
    <glyph glyph-name="yen" unicode="&#xa5;" horiz-adv-x="617" 
d="M34 245h202l10 51l-18 37h-178l10 59h143l-138 308h95l140 -321h2l251 321h102l-249 -308h148l-10 -59h-185l-29 -36l-10 -52h208l-10 -59h-208l-33 -186h-84l33 186h-202z" />
    <glyph glyph-name="brokenbar" unicode="&#xa6;" horiz-adv-x="281" 
d="M193 416h-83l63 364h83zM101 -100h-83l64 364h83z" />
    <glyph glyph-name="section" unicode="&#xa7;" horiz-adv-x="558" 
d="M197 -138q-101 0 -185 86l56 50q57 -68 136 -68q56 0 95.5 23.5t39.5 70.5q0 9 -2 16.5t-7.5 14.5l-10 12.5t-14.5 11.5l-16 9.5t-19.5 9t-20 8.5t-22 9t-21.5 8q-30 12 -50 23t-41.5 28t-32.5 40.5t-11 52.5q0 58 39.5 99.5t99.5 57.5q-79 43 -79 119q0 79 60 123
t152 44q104 0 177 -71l-57 -49q-47 52 -123 52q-56 0 -91.5 -26t-35.5 -67q0 -16 8 -30t15.5 -22.5t29 -19.5t30 -14t37.5 -14q9 -3 13 -5q30 -11 50 -21t41.5 -26t32 -38.5t10.5 -51.5q0 -57 -37.5 -99t-102.5 -61q34 -19 58 -50t24 -70q0 -77 -63.5 -121t-161.5 -44z
M285 374q-48 0 -90.5 -25.5t-42.5 -72.5q0 -36 34.5 -57t81.5 -21q54 0 94 27.5t40 69.5q0 37 -34 58t-83 21z" />
    <glyph glyph-name="dieresis" unicode="&#xa8;" horiz-adv-x="410" 
d="M368 703q24 0 41.5 -17t17.5 -41t-18 -41.5t-41 -17.5q-24 0 -41.5 17.5t-17.5 41.5q0 23 17.5 40.5t41.5 17.5zM186 586q-24 0 -41.5 17.5t-17.5 41.5q0 23 17.5 40.5t41.5 17.5t41.5 -17t17.5 -41t-17.5 -41.5t-41.5 -17.5z" />
    <glyph glyph-name="copyright" unicode="&#xa9;" horiz-adv-x="823" 
d="M417 -10q-150 0 -254 105.5t-104 254.5q0 147 105 253.5t255 106.5t254 -105.5t104 -254.5q0 -147 -105 -253.5t-255 -106.5zM417 35q132 0 222.5 93t90.5 222t-90 222t-221 93q-132 0 -222.5 -93t-90.5 -222t90 -222t221 -93zM536 274l39 -35q-33 -35 -67.5 -54.5
t-85.5 -19.5q-84 0 -138.5 55t-54.5 136q0 80 55 135.5t139 55.5q86 0 144 -61l-41 -38q-39 47 -104 47q-60 0 -97 -38t-37 -101q0 -62 37 -100.5t97 -38.5q38 0 62.5 13.5t51.5 43.5z" />
    <glyph glyph-name="ordfeminine" unicode="&#xaa;" horiz-adv-x="412" 
d="M240 565q44 0 92 -10l2 11q7 38 -14 60.5t-64 22.5q-46 0 -107 -38l-26 47q73 45 138 45t105 -37t29 -104l-37 -212h-62l9 48h-3q-50 -54 -122 -54q-51 0 -82.5 24.5t-31.5 67.5q0 61 51.5 95t122.5 34zM319 480l5 26q-43 10 -88 10t-75.5 -21t-30.5 -58q0 -45 65 -45
q40 0 79 27.5t45 60.5z" />
    <glyph glyph-name="guillemotleft" unicode="&#xab;" horiz-adv-x="525" 
d="M430 82l-65 -34l-114 213l187 211l53 -43l-149 -173zM212 82l-65 -34l-114 213l187 211l52 -43l-149 -173z" />
    <glyph glyph-name="logicalnot" unicode="&#xac;" horiz-adv-x="588" 
d="M428 152l23 131h-398l14 77h477l-37 -208h-79z" />
    <glyph glyph-name="uni00AD" unicode="&#xad;" horiz-adv-x="367" 
d="M48 257l16 87h263l-16 -87h-263z" />
    <glyph glyph-name="registered" unicode="&#xae;" horiz-adv-x="823" 
d="M417 -10q-150 0 -254 105.5t-104 254.5q0 147 105 253.5t255 106.5t254 -105.5t104 -254.5q0 -147 -105 -253.5t-255 -106.5zM417 35q132 0 222.5 93t90.5 222t-90 222t-221 93q-132 0 -222.5 -93t-90.5 -222t90 -222t221 -93zM517 174l-104 152h-73v-152h-58v372h146
q65 0 104 -28t39 -79q0 -86 -98 -106l109 -159h-65zM511 439q0 57 -86 57h-85v-119h86q42 0 63.5 17t21.5 45z" />
    <glyph glyph-name="macron" unicode="&#xaf;" horiz-adv-x="410" 
d="M58 632l11 68h282l-11 -68h-282z" />
    <glyph glyph-name="degree" unicode="&#xb0;" horiz-adv-x="411" 
d="M408 572q0 -73 -49 -119t-117 -46q-59 0 -101.5 39t-42.5 99q0 68 47 116.5t118 48.5q60 0 102.5 -39.5t42.5 -98.5zM345 568q0 35 -23 60.5t-59 25.5q-46 0 -74.5 -31t-28.5 -75q0 -35 23.5 -59.5t58.5 -24.5q47 0 75 30.5t28 73.5z" />
    <glyph glyph-name="plusminus" unicode="&#xb1;" horiz-adv-x="577" 
d="M525 319h-187l-28 -163h-80l28 163h-187l13 77h188l30 167h79l-30 -167h187zM469 0h-454l14 75h453z" />
    <glyph glyph-name="twosuperior" unicode="&#xb2;" horiz-adv-x="322" 
d="M45 402l139 111q4 4 19.5 15.5t22.5 18.5l17.5 18t15 22t4.5 23q0 20 -13.5 31.5t-36.5 11.5q-25 0 -44.5 -16t-26.5 -44l-62 7q30 106 137 106q51 0 80 -24t29 -67q0 -37 -19.5 -63t-68.5 -65l-98 -78h150l-10 -59h-244z" />
    <glyph glyph-name="threesuperior" unicode="&#xb3;" horiz-adv-x="303" 
d="M290 458q0 -50 -37.5 -82.5t-100.5 -32.5q-52 0 -85 28t-37 69l63 11q2 -24 19.5 -38t44.5 -14q71 0 71 63q0 44 -61 44h-38l10 52h35q31 0 52 13.5t21 40.5q0 17 -15.5 27.5t-35.5 10.5q-46 0 -63 -44l-63 11q34 89 131 89q44 0 75.5 -22.5t31.5 -60.5q0 -70 -74 -89
q26 -7 41 -27.5t15 -48.5z" />
    <glyph glyph-name="acute" unicode="&#xb4;" horiz-adv-x="410" 
d="M107 591l105 151l83 -42l-126 -109h-62z" />
    <glyph glyph-name="mu" unicode="&#xb5;" horiz-adv-x="598" 
d="M117 64h-1l-45 -254h-81l122 691h80l-52 -290q-11 -68 17.5 -107.5t93.5 -39.5q61 0 106.5 45.5t57.5 114.5l49 277h81l-89 -501h-80l10 61h-2q-69 -71 -149 -71q-48 0 -77.5 21t-40.5 53z" />
    <glyph glyph-name="paragraph" unicode="&#xb6;" horiz-adv-x="595" 
d="M258 0l47 267q-107 0 -174 54.5t-67 141.5q0 116 84 176.5t222 60.5h69l-123 -700h-58zM503 700h58l-123 -700h-58z" />
    <glyph glyph-name="periodcentered" unicode="&#xb7;" horiz-adv-x="260" 
d="M203 301q0 -25 -18.5 -43.5t-43.5 -18.5t-43.5 18.5t-18.5 43.5t18.5 43t43.5 18t43.5 -18t18.5 -43z" />
    <glyph glyph-name="cedilla" unicode="&#xb8;" horiz-adv-x="410" 
d="M309 -110q0 -49 -40 -75.5t-93 -26.5q-66 0 -107 21l25 39q35 -15 78 -15q27 0 48 12.5t21 39.5q0 31 -41 31q-21 0 -48 -9l-19 19l74 84h55l-55 -59h24q32 0 55 -16t23 -45z" />
    <glyph glyph-name="onesuperior" unicode="&#xb9;" horiz-adv-x="237" 
d="M159 638l-73 -36l-19 48l102 50h63l-61 -350h-63z" />
    <glyph glyph-name="ordmasculine" unicode="&#xba;" horiz-adv-x="444" 
d="M245 346q-74 0 -124 45.5t-50 115.5q0 85 59.5 140.5t144.5 55.5q74 0 125 -46t51 -116q0 -84 -61 -139.5t-145 -55.5zM247 402q58 0 98 39t40 98q0 48 -31 78.5t-81 30.5q-58 0 -97 -39.5t-39 -98.5q0 -48 30.5 -78t79.5 -30z" />
    <glyph glyph-name="guillemotright" unicode="&#xbb;" horiz-adv-x="525" 
d="M67 48l-53 43l151 174l-89 173l65 34l115 -211zM285 48l-52 43l151 174l-89 173l65 34l114 -211z" />
    <glyph glyph-name="onequarter" unicode="&#xbc;" horiz-adv-x="718" 
d="M682 68h-41l-12 -68h-63l12 68h-159l10 57l189 225h72l-40 -226h41zM588 124l25 146l-116 -146h91zM159 638l-73 -36l-19 48l102 50h63l-61 -350h-63zM88 -28l571 792l49 -33l-571 -792z" />
    <glyph glyph-name="onehalf" unicode="&#xbd;" horiz-adv-x="705" 
d="M428 52l139 111q4 4 19.5 15.5t22.5 18.5l17.5 18t15 22t4.5 23q0 20 -13.5 31.5t-36.5 11.5q-25 0 -44.5 -16t-26.5 -44l-62 7q30 106 137 106q51 0 80 -24t29 -67q0 -37 -19.5 -63t-68.5 -65l-98 -78h150l-10 -59h-244zM159 638l-73 -36l-19 48l102 50h63l-61 -350h-63
zM33 -28l571 792l49 -33l-571 -792z" />
    <glyph glyph-name="threequarters" unicode="&#xbe;" horiz-adv-x="741" 
d="M705 68h-41l-12 -68h-63l12 68h-159l10 57l189 225h72l-40 -226h41zM611 124l25 146l-116 -146h91zM290 458q0 -50 -37.5 -82.5t-100.5 -32.5q-52 0 -85 28t-37 69l63 11q2 -24 19.5 -38t44.5 -14q71 0 71 63q0 44 -61 44h-38l10 52h35q31 0 52 13.5t21 40.5
q0 17 -15.5 27.5t-35.5 10.5q-46 0 -63 -44l-63 11q34 89 131 89q44 0 75.5 -22.5t31.5 -60.5q0 -70 -74 -89q26 -7 41 -27.5t15 -48.5zM111 -28l571 792l49 -33l-571 -792z" />
    <glyph glyph-name="questiondown" unicode="&#xbf;" horiz-adv-x="512" 
d="M336 -6l78 -23q-26 -77 -85 -123.5t-145 -46.5q-83 0 -139 39.5t-56 115.5q0 92 99 165l78 60q31 24 43 46.5t19 63.5l6 32h83l-7 -38q-11 -58 -27 -90t-56 -62l-89 -65q-64 -50 -64 -106q0 -41 31 -63t83 -22q109 0 148 117zM233 455q0 25 18.5 43t42.5 18
q25 0 43.5 -18t18.5 -43t-18.5 -43t-43.5 -18q-24 0 -42.5 18t-18.5 43z" />
    <glyph glyph-name="Agrave" unicode="&#xc0;" horiz-adv-x="708" 
d="M161 181l-104 -181h-94l414 703h81l154 -703h-89l-37 181h-325zM203 255h268l-70 339h-2zM387 905l63 -151h-61l-89 109z" />
    <glyph glyph-name="Aacute" unicode="&#xc1;" horiz-adv-x="708" 
d="M161 181l-104 -181h-94l414 703h81l154 -703h-89l-37 181h-325zM203 255h268l-70 339h-2zM395 755l105 151l83 -42l-126 -109h-62z" />
    <glyph glyph-name="Acircumflex" unicode="&#xc2;" horiz-adv-x="708" 
d="M161 181l-104 -181h-94l414 703h81l154 -703h-89l-37 181h-325zM203 255h268l-70 339h-2zM280 754l128 138h72l89 -138h-69l-63 82l-84 -82h-73z" />
    <glyph glyph-name="Atilde" unicode="&#xc3;" horiz-adv-x="708" 
d="M161 181l-104 -181h-94l414 703h81l154 -703h-89l-37 181h-325zM203 255h268l-70 339h-2zM299 752l-32 43q42 79 103 79q25 0 69 -20.5t60 -20.5q19 0 32 10t31 38l32 -44q-41 -78 -103 -78q-25 0 -69.5 20.5t-59.5 20.5q-20 0 -32.5 -10t-30.5 -38z" />
    <glyph glyph-name="Adieresis" unicode="&#xc4;" horiz-adv-x="708" 
d="M161 181l-104 -181h-94l414 703h81l154 -703h-89l-37 181h-325zM203 255h268l-70 339h-2zM527 871q24 0 41.5 -17t17.5 -41t-18 -41.5t-41 -17.5q-24 0 -41.5 17.5t-17.5 41.5q0 23 17.5 40.5t41.5 17.5zM345 754q-24 0 -41.5 17.5t-17.5 41.5q0 23 17.5 40.5t41.5 17.5
t41.5 -17t17.5 -41t-17.5 -41.5t-41.5 -17.5z" />
    <glyph glyph-name="Aring" unicode="&#xc5;" horiz-adv-x="708" 
d="M161 181l-104 -181h-94l414 703h81l154 -703h-89l-37 181h-325zM203 255h268l-70 339h-2zM420 663q-46 0 -75 29.5t-29 71.5q0 41 29.5 70t74.5 29q46 0 75 -29.5t29 -71.5q0 -41 -29.5 -70t-74.5 -29zM420 703q25 0 42.5 16.5t17.5 44.5q0 27 -17 43t-43 16t-43 -16.5
t-17 -44.5q0 -26 17.5 -42.5t42.5 -16.5z" />
    <glyph glyph-name="AE" unicode="&#xc6;" horiz-adv-x="1024" 
d="M435 0l31 178h-280l-132 -178h-91l517 700h520l-13 -78h-358l-40 -219h332l-13 -77h-332l-44 -248h379l-13 -78h-463zM512 622l-273 -370h240l66 370h-33z" />
    <glyph glyph-name="Ccedilla" unicode="&#xc7;" horiz-adv-x="724" 
d="M360 -10q-139 0 -222.5 93t-83.5 231q0 76 28 147.5t77.5 127t122 88.5t156.5 33q87 0 142 -25t101 -79l-65 -50q-34 41 -74.5 59.5t-104.5 18.5q-130 0 -215 -94t-85 -226q0 -105 60.5 -176.5t163.5 -71.5q67 0 117.5 23.5t101.5 75.5l58 -55q-62 -60 -126 -90t-152 -30
zM442 -110q0 -49 -40 -75.5t-93 -26.5q-66 0 -107 21l25 39q35 -15 78 -15q27 0 48 12.5t21 39.5q0 31 -41 31q-21 0 -48 -9l-19 19l74 84h55l-55 -59h24q32 0 55 -16t23 -45z" />
    <glyph glyph-name="Egrave" unicode="&#xc8;" horiz-adv-x="638" 
d="M34 0l123 700h458l-14 -78h-374l-39 -219h349l-13 -77h-349l-44 -248h396l-13 -78h-480zM385 906l63 -151h-61l-89 109z" />
    <glyph glyph-name="Eacute" unicode="&#xc9;" horiz-adv-x="638" 
d="M353 754l105 151l83 -42l-126 -109h-62zM34 0l123 700h458l-14 -78h-374l-39 -219h349l-13 -77h-349l-44 -248h396l-13 -78h-480z" />
    <glyph glyph-name="Ecircumflex" unicode="&#xca;" horiz-adv-x="638" 
d="M256 754l128 138h72l89 -138h-69l-63 82l-84 -82h-73zM34 0l123 700h458l-14 -78h-374l-39 -219h349l-13 -77h-349l-44 -248h396l-13 -78h-480z" />
    <glyph glyph-name="Edieresis" unicode="&#xcb;" horiz-adv-x="638" 
d="M503 874q24 0 41.5 -17t17.5 -41t-18 -41.5t-41 -17.5q-24 0 -41.5 17.5t-17.5 41.5q0 23 17.5 40.5t41.5 17.5zM321 757q-24 0 -41.5 17.5t-17.5 41.5q0 23 17.5 40.5t41.5 17.5t41.5 -17t17.5 -41t-17.5 -41.5t-41.5 -17.5zM34 0l123 700h458l-14 -78h-374l-39 -219
h349l-13 -77h-349l-44 -248h396l-13 -78h-480z" />
    <glyph glyph-name="Igrave" unicode="&#xcc;" horiz-adv-x="274" 
d="M35 0l123 700h83l-123 -700h-83zM171 906l63 -151h-61l-89 109z" />
    <glyph glyph-name="Iacute" unicode="&#xcd;" horiz-adv-x="274" 
d="M35 0l123 700h83l-123 -700h-83zM165 755l105 151l83 -42l-126 -109h-62z" />
    <glyph glyph-name="Icircumflex" unicode="&#xce;" horiz-adv-x="274" 
d="M35 0l123 700h83l-123 -700h-83zM57 755l128 138h72l89 -138h-69l-63 82l-84 -82h-73z" />
    <glyph glyph-name="Idieresis" unicode="&#xcf;" horiz-adv-x="274" 
d="M35 0l123 700h83l-123 -700h-83zM308 872q24 0 41.5 -17t17.5 -41t-18 -41.5t-41 -17.5q-24 0 -41.5 17.5t-17.5 41.5q0 23 17.5 40.5t41.5 17.5zM126 755q-24 0 -41.5 17.5t-17.5 41.5q0 23 17.5 40.5t41.5 17.5t41.5 -17t17.5 -41t-17.5 -41.5t-41.5 -17.5z" />
    <glyph glyph-name="Eth" unicode="&#xd0;" horiz-adv-x="755" 
d="M292 0h-248l57 327h-73l13 75h73l53 298h216q147 0 233 -81.5t86 -216.5q0 -172 -118.5 -287t-291.5 -115zM141 76h154q136 0 229.5 89.5t93.5 233.5q0 103 -59.5 164t-175.5 61h-146l-39 -222h196l-13 -75h-196z" />
    <glyph glyph-name="Ntilde" unicode="&#xd1;" horiz-adv-x="778" 
d="M34 0l123 700h75l330 -559h3l98 559h81l-123 -700h-70l-333 562h-2l-99 -562h-83zM334 752l-32 43q42 79 103 79q25 0 69 -20.5t60 -20.5q19 0 32 10t31 38l32 -44q-41 -78 -103 -78q-25 0 -69.5 20.5t-59.5 20.5q-20 0 -32.5 -10t-30.5 -38z" />
    <glyph glyph-name="Ograve" unicode="&#xd2;" horiz-adv-x="823" 
d="M385 -10q-147 0 -239 94.5t-92 234.5q0 101 48.5 190.5t138 145t197.5 55.5q146 0 239 -95t93 -234q0 -156 -111 -273.5t-274 -117.5zM387 66q129 0 214 93t85 222q0 108 -68 180.5t-182 72.5q-129 0 -214 -93t-85 -223q0 -107 68.5 -179.5t181.5 -72.5zM418 906l63 -151
h-61l-89 109z" />
    <glyph glyph-name="Oacute" unicode="&#xd3;" horiz-adv-x="823" 
d="M422 755l105 151l83 -42l-126 -109h-62zM385 -10q-147 0 -239 94.5t-92 234.5q0 101 48.5 190.5t138 145t197.5 55.5q146 0 239 -95t93 -234q0 -156 -111 -273.5t-274 -117.5zM387 66q129 0 214 93t85 222q0 108 -68 180.5t-182 72.5q-129 0 -214 -93t-85 -223
q0 -107 68.5 -179.5t181.5 -72.5z" />
    <glyph glyph-name="Ocircumflex" unicode="&#xd4;" horiz-adv-x="823" 
d="M314 755l128 138h72l89 -138h-69l-63 82l-84 -82h-73zM385 -10q-147 0 -239 94.5t-92 234.5q0 101 48.5 190.5t138 145t197.5 55.5q146 0 239 -95t93 -234q0 -156 -111 -273.5t-274 -117.5zM387 66q129 0 214 93t85 222q0 108 -68 180.5t-182 72.5q-129 0 -214 -93
t-85 -223q0 -107 68.5 -179.5t181.5 -72.5z" />
    <glyph glyph-name="Otilde" unicode="&#xd5;" horiz-adv-x="823" 
d="M385 -10q-147 0 -239 94.5t-92 234.5q0 101 48.5 190.5t138 145t197.5 55.5q146 0 239 -95t93 -234q0 -156 -111 -273.5t-274 -117.5zM387 66q129 0 214 93t85 222q0 108 -68 180.5t-182 72.5q-129 0 -214 -93t-85 -223q0 -107 68.5 -179.5t181.5 -72.5zM328 752l-32 43
q42 79 103 79q25 0 69 -20.5t60 -20.5q19 0 32 10t31 38l32 -44q-41 -78 -103 -78q-25 0 -69.5 20.5t-59.5 20.5q-20 0 -32.5 -10t-30.5 -38z" />
    <glyph glyph-name="Odieresis" unicode="&#xd6;" horiz-adv-x="823" 
d="M566 872q24 0 41.5 -17t17.5 -41t-18 -41.5t-41 -17.5q-24 0 -41.5 17.5t-17.5 41.5q0 23 17.5 40.5t41.5 17.5zM384 755q-24 0 -41.5 17.5t-17.5 41.5q0 23 17.5 40.5t41.5 17.5t41.5 -17t17.5 -41t-17.5 -41.5t-41.5 -17.5zM385 -10q-147 0 -239 94.5t-92 234.5
q0 101 48.5 190.5t138 145t197.5 55.5q146 0 239 -95t93 -234q0 -156 -111 -273.5t-274 -117.5zM387 66q129 0 214 93t85 222q0 108 -68 180.5t-182 72.5q-129 0 -214 -93t-85 -223q0 -107 68.5 -179.5t181.5 -72.5z" />
    <glyph glyph-name="multiply" unicode="&#xd7;" horiz-adv-x="548" 
d="M494 437l-161 -136l113 -137l-63 -53l-112 136l-166 -141l-53 65l166 141l-107 130l63 53l106 -131l162 138z" />
    <glyph glyph-name="Oslash" unicode="&#xd8;" horiz-adv-x="860" 
d="M72 319q0 101 48.5 190.5t138 145t197.5 55.5q136 0 228 -86l83 76h87l-130 -120q64 -88 64 -199q0 -156 -111 -273.5t-274 -117.5q-138 0 -229 85l-82 -75h-86l128 118q-62 85 -62 201zM405 66q129 0 214 93t85 222q0 81 -40 144l-432 -396q71 -63 173 -63zM155 318
q0 -83 40 -144l431 396q-69 64 -172 64q-129 0 -214 -93t-85 -223z" />
    <glyph glyph-name="Ugrave" unicode="&#xd9;" horiz-adv-x="724" 
d="M536 296l71 404h83l-73 -414q-26 -146 -101 -221t-193 -75q-111 0 -181 66t-70 181q0 34 8 80l68 383h84l-67 -381q-8 -46 -8 -75q0 -85 45.5 -131.5t124.5 -46.5q169 0 209 230zM391 906l63 -151h-61l-89 109z" />
    <glyph glyph-name="Uacute" unicode="&#xda;" horiz-adv-x="724" 
d="M383 754l105 151l83 -42l-126 -109h-62zM536 296l71 404h83l-73 -414q-26 -146 -101 -221t-193 -75q-111 0 -181 66t-70 181q0 34 8 80l68 383h84l-67 -381q-8 -46 -8 -75q0 -85 45.5 -131.5t124.5 -46.5q169 0 209 230z" />
    <glyph glyph-name="Ucircumflex" unicode="&#xdb;" horiz-adv-x="724" 
d="M275 755l128 138h72l89 -138h-69l-63 82l-84 -82h-73zM536 296l71 404h83l-73 -414q-26 -146 -101 -221t-193 -75q-111 0 -181 66t-70 181q0 34 8 80l68 383h84l-67 -381q-8 -46 -8 -75q0 -85 45.5 -131.5t124.5 -46.5q169 0 209 230z" />
    <glyph glyph-name="Udieresis" unicode="&#xdc;" horiz-adv-x="724" 
d="M527 872q24 0 41.5 -17t17.5 -41t-18 -41.5t-41 -17.5q-24 0 -41.5 17.5t-17.5 41.5q0 23 17.5 40.5t41.5 17.5zM345 755q-24 0 -41.5 17.5t-17.5 41.5q0 23 17.5 40.5t41.5 17.5t41.5 -17t17.5 -41t-17.5 -41.5t-41.5 -17.5zM536 296l71 404h83l-73 -414
q-26 -146 -101 -221t-193 -75q-111 0 -181 66t-70 181q0 34 8 80l68 383h84l-67 -381q-8 -46 -8 -75q0 -85 45.5 -131.5t124.5 -46.5q169 0 209 230z" />
    <glyph glyph-name="Yacute" unicode="&#xdd;" horiz-adv-x="617" 
d="M65 700h95l140 -321h2l251 321h102l-325 -403l-53 -297h-84l53 296zM326 753l105 151l83 -42l-126 -109h-62z" />
    <glyph glyph-name="Thorn" unicode="&#xde;" horiz-adv-x="632" 
d="M240 700l-24 -143h128q100 0 159.5 -47t59.5 -126q0 -114 -74 -172t-198 -58h-147l-27 -154h-83l123 700h83zM157 228h138q81 0 133 35.5t52 114.5q0 104 -147 104h-131z" />
    <glyph glyph-name="germandbls" unicode="&#xdf;" horiz-adv-x="619" 
d="M197 -2l12 67q36 -4 55 -4q92 0 147.5 46t55.5 130q0 62 -41 99.5t-104 37.5h-33l11 66h33q53 0 98.5 42t45.5 109q0 43 -31 71.5t-81 28.5q-71 0 -113.5 -45t-56.5 -124l-92 -522h-80l94 528q19 108 85 170t169 62q88 0 138 -48t50 -117q0 -67 -39 -117t-101 -68
q60 -14 95 -61t35 -112q0 -109 -75.5 -178t-206.5 -69q-41 0 -70 8z" />
    <glyph glyph-name="agrave" unicode="&#xe0;" horiz-adv-x="535" 
d="M245 305q78 0 142 -15l5 28q9 55 -14 88.5t-81 33.5q-83 0 -162 -51l-39 58q99 64 200 64q92 0 142 -52t32 -150l-55 -309h-79l11 62q-70 -73 -173 -73q-68 0 -114 35.5t-46 103.5q0 86 64 131.5t167 45.5zM368 185l7 43q-65 14 -130 14q-68 0 -109.5 -27t-41.5 -82
q0 -39 26 -59.5t68 -20.5q58 0 114.5 40.5t65.5 91.5zM308 742l63 -151h-61l-89 109z" />
    <glyph glyph-name="aacute" unicode="&#xe1;" horiz-adv-x="535" 
d="M245 305q78 0 142 -15l5 28q9 55 -14 88.5t-81 33.5q-83 0 -162 -51l-39 58q99 64 200 64q92 0 142 -52t32 -150l-55 -309h-79l11 62q-70 -73 -173 -73q-68 0 -114 35.5t-46 103.5q0 86 64 131.5t167 45.5zM368 185l7 43q-65 14 -130 14q-68 0 -109.5 -27t-41.5 -82
q0 -39 26 -59.5t68 -20.5q58 0 114.5 40.5t65.5 91.5zM290 591l105 151l83 -42l-126 -109h-62z" />
    <glyph glyph-name="acircumflex" unicode="&#xe2;" horiz-adv-x="535" 
d="M245 305q78 0 142 -15l5 28q9 55 -14 88.5t-81 33.5q-83 0 -162 -51l-39 58q99 64 200 64q92 0 142 -52t32 -150l-55 -309h-79l11 62q-70 -73 -173 -73q-68 0 -114 35.5t-46 103.5q0 86 64 131.5t167 45.5zM368 185l7 43q-65 14 -130 14q-68 0 -109.5 -27t-41.5 -82
q0 -39 26 -59.5t68 -20.5q58 0 114.5 40.5t65.5 91.5zM184 583l128 138h72l89 -138h-69l-63 82l-84 -82h-73z" />
    <glyph glyph-name="atilde" unicode="&#xe3;" horiz-adv-x="535" 
d="M245 305q78 0 142 -15l5 28q9 55 -14 88.5t-81 33.5q-83 0 -162 -51l-39 58q99 64 200 64q92 0 142 -52t32 -150l-55 -309h-79l11 62q-70 -73 -173 -73q-68 0 -114 35.5t-46 103.5q0 86 64 131.5t167 45.5zM368 185l7 43q-65 14 -130 14q-68 0 -109.5 -27t-41.5 -82
q0 -39 26 -59.5t68 -20.5q58 0 114.5 40.5t65.5 91.5zM198 587l-32 43q42 79 103 79q25 0 69 -20.5t60 -20.5q19 0 32 10t31 38l32 -44q-41 -78 -103 -78q-25 0 -69.5 20.5t-59.5 20.5q-20 0 -32.5 -10t-30.5 -38z" />
    <glyph glyph-name="adieresis" unicode="&#xe4;" horiz-adv-x="535" 
d="M245 305q78 0 142 -15l5 28q9 55 -14 88.5t-81 33.5q-83 0 -162 -51l-39 58q99 64 200 64q92 0 142 -52t32 -150l-55 -309h-79l11 62q-70 -73 -173 -73q-68 0 -114 35.5t-46 103.5q0 86 64 131.5t167 45.5zM368 185l7 43q-65 14 -130 14q-68 0 -109.5 -27t-41.5 -82
q0 -39 26 -59.5t68 -20.5q58 0 114.5 40.5t65.5 91.5zM430 703q24 0 41.5 -17t17.5 -41t-18 -41.5t-41 -17.5q-24 0 -41.5 17.5t-17.5 41.5q0 23 17.5 40.5t41.5 17.5zM248 586q-24 0 -41.5 17.5t-17.5 41.5q0 23 17.5 40.5t41.5 17.5t41.5 -17t17.5 -41t-17.5 -41.5
t-41.5 -17.5z" />
    <glyph glyph-name="aring" unicode="&#xe5;" horiz-adv-x="535" 
d="M245 305q78 0 142 -15l5 28q9 55 -14 88.5t-81 33.5q-83 0 -162 -51l-39 58q99 64 200 64q92 0 142 -52t32 -150l-55 -309h-79l11 62q-70 -73 -173 -73q-68 0 -114 35.5t-46 103.5q0 86 64 131.5t167 45.5zM368 185l7 43q-65 14 -130 14q-68 0 -109.5 -27t-41.5 -82
q0 -39 26 -59.5t68 -20.5q58 0 114.5 40.5t65.5 91.5zM339 567q-46 0 -75 29.5t-29 71.5q0 41 29.5 70t74.5 29q46 0 75 -29.5t29 -71.5q0 -41 -29.5 -70t-74.5 -29zM339 607q25 0 42.5 16.5t17.5 44.5q0 27 -17 43t-43 16t-43 -16.5t-17 -44.5q0 -26 17.5 -42.5t42.5 -16.5
z" />
    <glyph glyph-name="ae" unicode="&#xe6;" horiz-adv-x="905" 
d="M249 306q82 0 146 -15q1 4 5 24t4 31q0 43 -26 68.5t-77 25.5q-82 0 -161 -51l-40 58q101 64 201 64q125 0 156 -83q70 83 183 83q97 0 154.5 -60t57.5 -154q0 -39 -9 -79h-379q3 -68 34 -112.5t98 -44.5q97 0 175 73l45 -49q-50 -48 -101.5 -71.5t-119.5 -23.5
q-61 0 -108.5 30t-72.5 83q-45 -52 -107.5 -83t-126.5 -31q-68 0 -115 36t-47 103q0 86 64.5 132t166.5 46zM393 164q-5 28 -5 55v9q-74 14 -138 14q-68 0 -110 -26.5t-42 -82.5q0 -39 26 -59.5t69 -20.5q48 0 109.5 34.5t90.5 76.5zM469 282h302q1 6 1 18q0 63 -34 103
t-97 40q-73 0 -116 -43t-56 -118z" />
    <glyph glyph-name="ccedilla" unicode="&#xe7;" horiz-adv-x="542" 
d="M426 130l46 -51q-87 -89 -206 -89q-104 0 -168 63.5t-64 164.5q0 122 77.5 207.5t194.5 85.5q134 0 203 -95l-57 -46q-60 70 -147 70q-80 0 -134.5 -65t-54.5 -157q0 -71 42.5 -114t112.5 -43q83 0 155 69zM337 -110q0 -49 -40 -75.5t-93 -26.5q-66 0 -107 21l25 39
q34 -15 78 -15q27 0 48 12.5t21 39.5q0 31 -41 31q-21 0 -48 -9l-19 19l74 84h55l-55 -59h24q32 0 55 -16t23 -45z" />
    <glyph glyph-name="egrave" unicode="&#xe8;" horiz-adv-x="567" 
d="M253 -10q-93 0 -156.5 66.5t-63.5 164.5q0 121 72 205.5t193 84.5q97 0 156 -60.5t59 -153.5q0 -39 -9 -79h-390q3 -65 37.5 -111t102.5 -46q100 0 178 73l46 -49q-101 -95 -225 -95zM119 282h314q1 6 1 18q0 62 -36 102.5t-100 40.5q-74 0 -120.5 -44t-58.5 -117z
M311 742l63 -151h-61l-89 109z" />
    <glyph glyph-name="eacute" unicode="&#xe9;" horiz-adv-x="567" 
d="M288 591l105 151l83 -42l-126 -109h-62zM253 -10q-93 0 -156.5 66.5t-63.5 164.5q0 121 72 205.5t193 84.5q97 0 156 -60.5t59 -153.5q0 -39 -9 -79h-390q3 -65 37.5 -111t102.5 -46q100 0 178 73l46 -49q-101 -95 -225 -95zM119 282h314q1 6 1 18q0 62 -36 102.5
t-100 40.5q-74 0 -120.5 -44t-58.5 -117z" />
    <glyph glyph-name="ecircumflex" unicode="&#xea;" horiz-adv-x="567" 
d="M182 583l128 138h72l89 -138h-69l-63 82l-84 -82h-73zM253 -10q-93 0 -156.5 66.5t-63.5 164.5q0 121 72 205.5t193 84.5q97 0 156 -60.5t59 -153.5q0 -39 -9 -79h-390q3 -65 37.5 -111t102.5 -46q100 0 178 73l46 -49q-101 -95 -225 -95zM119 282h314q1 6 1 18
q0 62 -36 102.5t-100 40.5q-74 0 -120.5 -44t-58.5 -117z" />
    <glyph glyph-name="edieresis" unicode="&#xeb;" horiz-adv-x="567" 
d="M428 703q24 0 41.5 -17t17.5 -41t-18 -41.5t-41 -17.5q-24 0 -41.5 17.5t-17.5 41.5q0 23 17.5 40.5t41.5 17.5zM246 586q-24 0 -41.5 17.5t-17.5 41.5q0 23 17.5 40.5t41.5 17.5t41.5 -17t17.5 -41t-17.5 -41.5t-41.5 -17.5zM253 -10q-93 0 -156.5 66.5t-63.5 164.5
q0 121 72 205.5t193 84.5q97 0 156 -60.5t59 -153.5q0 -39 -9 -79h-390q3 -65 37.5 -111t102.5 -46q100 0 178 73l46 -49q-101 -95 -225 -95zM119 282h314q1 6 1 18q0 62 -36 102.5t-100 40.5q-74 0 -120.5 -44t-58.5 -117z" />
    <glyph glyph-name="igrave" unicode="&#xec;" horiz-adv-x="245" 
d="M23 0l88 501h81l-88 -501h-81zM139 742l63 -151h-61l-89 109z" />
    <glyph glyph-name="iacute" unicode="&#xed;" horiz-adv-x="245" 
d="M132 591l105 151l83 -42l-126 -109h-62zM23 0l88 501h81l-88 -501h-81z" />
    <glyph glyph-name="icircumflex" unicode="&#xee;" horiz-adv-x="245" 
d="M25 583l128 138h72l89 -138h-69l-63 82l-84 -82h-73zM23 0l88 501h81l-88 -501h-81z" />
    <glyph glyph-name="idieresis" unicode="&#xef;" horiz-adv-x="245" 
d="M266 703q24 0 41.5 -17t17.5 -41t-18 -41.5t-41 -17.5q-24 0 -41.5 17.5t-17.5 41.5q0 23 17.5 40.5t41.5 17.5zM84 586q-24 0 -41.5 17.5t-17.5 41.5q0 23 17.5 40.5t41.5 17.5t41.5 -17t17.5 -41t-17.5 -41.5t-41.5 -17.5zM23 0l88 501h81l-88 -501h-81z" />
    <glyph glyph-name="eth" unicode="&#xf0;" horiz-adv-x="621" 
d="M270 61q95 0 153 61t58 153q0 64 -42 104.5t-111 40.5q-88 0 -149.5 -61t-61.5 -152q0 -64 42.5 -105t110.5 -41zM323 490q77 0 120 -36l2 1l-77 153l-128 -55l-26 50l127 56l-47 91h87l30 -62l114 49l26 -51l-114 -50l73 -144q57 -114 57 -210q0 -127 -81.5 -209.5
t-220.5 -82.5q-106 0 -168.5 61.5t-62.5 154.5q0 116 82.5 200t206.5 84z" />
    <glyph glyph-name="ntilde" unicode="&#xf1;" horiz-adv-x="573" 
d="M23 0l88 501h81l-10 -60h2q72 70 157 70q87 0 135.5 -60t32.5 -150l-53 -301h-81l52 291q12 68 -17 107t-92 39q-61 0 -106.5 -45.5t-58.5 -115.5l-50 -276h-80zM208 587l-32 43q42 79 103 79q25 0 69 -20.5t60 -20.5q19 0 32 10t31 38l32 -44q-41 -78 -103 -78
q-25 0 -69.5 20.5t-59.5 20.5q-20 0 -32.5 -10t-30.5 -38z" />
    <glyph glyph-name="ograve" unicode="&#xf2;" horiz-adv-x="611" 
d="M271 -10q-107 0 -172 65.5t-65 168.5q0 118 81.5 202.5t203.5 84.5q107 0 172.5 -65t65.5 -169q0 -118 -81.5 -202.5t-204.5 -84.5zM273 61q89 0 146 63t57 151q0 74 -44 119.5t-116 45.5q-89 0 -144.5 -63t-55.5 -152q0 -74 43 -119t114 -45zM316 742l63 -151h-61
l-89 109z" />
    <glyph glyph-name="oacute" unicode="&#xf3;" horiz-adv-x="611" 
d="M308 591l105 151l83 -42l-126 -109h-62zM271 -10q-107 0 -172 65.5t-65 168.5q0 118 81.5 202.5t203.5 84.5q107 0 172.5 -65t65.5 -169q0 -118 -81.5 -202.5t-204.5 -84.5zM273 61q89 0 146 63t57 151q0 74 -44 119.5t-116 45.5q-89 0 -144.5 -63t-55.5 -152
q0 -74 43 -119t114 -45z" />
    <glyph glyph-name="ocircumflex" unicode="&#xf4;" horiz-adv-x="611" 
d="M191 583l128 138h72l89 -138h-69l-63 82l-84 -82h-73zM271 -10q-107 0 -172 65.5t-65 168.5q0 118 81.5 202.5t203.5 84.5q107 0 172.5 -65t65.5 -169q0 -118 -81.5 -202.5t-204.5 -84.5zM273 61q89 0 146 63t57 151q0 74 -44 119.5t-116 45.5q-89 0 -144.5 -63
t-55.5 -152q0 -74 43 -119t114 -45z" />
    <glyph glyph-name="otilde" unicode="&#xf5;" horiz-adv-x="611" 
d="M271 -10q-107 0 -172 65.5t-65 168.5q0 118 81.5 202.5t203.5 84.5q107 0 172.5 -65t65.5 -169q0 -118 -81.5 -202.5t-204.5 -84.5zM273 61q89 0 146 63t57 151q0 74 -44 119.5t-116 45.5q-89 0 -144.5 -63t-55.5 -152q0 -74 43 -119t114 -45zM200 587l-32 43
q42 79 103 79q25 0 69 -20.5t60 -20.5q19 0 32 10t31 38l32 -44q-41 -78 -103 -78q-25 0 -69.5 20.5t-59.5 20.5q-20 0 -32.5 -10t-30.5 -38z" />
    <glyph glyph-name="odieresis" unicode="&#xf6;" horiz-adv-x="611" 
d="M448 703q24 0 41.5 -17t17.5 -41t-18 -41.5t-41 -17.5q-24 0 -41.5 17.5t-17.5 41.5q0 23 17.5 40.5t41.5 17.5zM266 586q-24 0 -41.5 17.5t-17.5 41.5q0 23 17.5 40.5t41.5 17.5t41.5 -17t17.5 -41t-17.5 -41.5t-41.5 -17.5zM271 -10q-107 0 -172 65.5t-65 168.5
q0 118 81.5 202.5t203.5 84.5q107 0 172.5 -65t65.5 -169q0 -118 -81.5 -202.5t-204.5 -84.5zM273 61q89 0 146 63t57 151q0 74 -44 119.5t-116 45.5q-89 0 -144.5 -63t-55.5 -152q0 -74 43 -119t114 -45z" />
    <glyph glyph-name="divide" unicode="&#xf7;" horiz-adv-x="525" 
d="M471 264h-422l13 74h423zM282 104q0 -25 -18.5 -43.5t-43.5 -18.5q-26 0 -44 18t-18 44q0 25 18.5 43t43.5 18t43.5 -18t18.5 -43zM352 501q0 -25 -18.5 -43.5t-43.5 -18.5q-26 0 -44 18.5t-18 43.5q0 24 18.5 42.5t43.5 18.5t43.5 -18.5t18.5 -42.5z" />
    <glyph glyph-name="oslash" unicode="&#xf8;" horiz-adv-x="622" 
d="M-16 -1l95 86q-40 61 -40 139q0 118 81.5 202.5t203.5 84.5q99 0 163 -58l53 49h77l-96 -86q42 -61 42 -139q0 -119 -81.5 -203t-205.5 -84q-99 0 -162 57l-53 -48h-77zM279 61q88 0 145 63t57 151q0 48 -20 85l-290 -261q43 -38 108 -38zM121 225q0 -47 19 -85l289 261
q-42 39 -107 39q-89 0 -145 -63t-56 -152z" />
    <glyph glyph-name="ugrave" unicode="&#xf9;" horiz-adv-x="596" 
d="M455 0h-81l10 60h-2q-72 -70 -157 -70q-87 0 -135.5 60t-32.5 151l53 300h81l-52 -291q-12 -68 17 -107t92 -39q61 0 107 46t58 115l49 276h81zM311 742l63 -151h-61l-89 109z" />
    <glyph glyph-name="uacute" unicode="&#xfa;" horiz-adv-x="596" 
d="M300 591l105 151l83 -42l-126 -109h-62zM455 0h-81l10 60h-2q-72 -70 -157 -70q-87 0 -135.5 60t-32.5 151l53 300h81l-52 -291q-12 -68 17 -107t92 -39q61 0 107 46t58 115l49 276h81z" />
    <glyph glyph-name="ucircumflex" unicode="&#xfb;" horiz-adv-x="596" 
d="M185 583l128 138h72l89 -138h-69l-63 82l-84 -82h-73zM455 0h-81l10 60h-2q-72 -70 -157 -70q-87 0 -135.5 60t-32.5 151l53 300h81l-52 -291q-12 -68 17 -107t92 -39q61 0 107 46t58 115l49 276h81z" />
    <glyph glyph-name="udieresis" unicode="&#xfc;" horiz-adv-x="596" 
d="M445 703q24 0 41.5 -17t17.5 -41t-18 -41.5t-41 -17.5q-24 0 -41.5 17.5t-17.5 41.5q0 23 17.5 40.5t41.5 17.5zM263 586q-24 0 -41.5 17.5t-17.5 41.5q0 23 17.5 40.5t41.5 17.5t41.5 -17t17.5 -41t-17.5 -41.5t-41.5 -17.5zM455 0h-81l10 60h-2q-72 -70 -157 -70
q-87 0 -135.5 60t-32.5 151l53 300h81l-52 -291q-12 -68 17 -107t92 -39q61 0 107 46t58 115l49 276h81z" />
    <glyph glyph-name="yacute" unicode="&#xfd;" horiz-adv-x="547" 
d="M55 501h85l118 -397h2l206 397h87l-298 -567q-39 -74 -82 -101.5t-97 -27.5q-66 0 -122 33l30 67q52 -29 95 -29q31 0 55.5 21t51.5 69l22 40zM293 591l105 151l83 -42l-126 -109h-62z" />
    <glyph glyph-name="thorn" unicode="&#xfe;" horiz-adv-x="638" 
d="M-1 -190l164 940h81l-55 -317h2q73 78 180 78q89 0 150.5 -61t61.5 -162q0 -116 -78.5 -207t-203.5 -91q-57 0 -102 26t-69 66h-3l-47 -272h-81zM300 62q86 0 143.5 67t57.5 157q0 71 -41.5 112.5t-105.5 41.5q-84 0 -144 -66t-60 -156q0 -72 43.5 -114t106.5 -42z" />
    <glyph glyph-name="ydieresis" unicode="&#xff;" horiz-adv-x="547" 
d="M55 501h85l118 -397h2l206 397h87l-298 -567q-39 -74 -82 -101.5t-97 -27.5q-66 0 -122 33l30 67q52 -29 95 -29q31 0 55.5 21t51.5 69l22 40zM403 703q24 0 41.5 -17t17.5 -41t-18 -41.5t-41 -17.5q-24 0 -41.5 17.5t-17.5 41.5q0 23 17.5 40.5t41.5 17.5zM221 586
q-24 0 -41.5 17.5t-17.5 41.5q0 23 17.5 40.5t41.5 17.5t41.5 -17t17.5 -41t-17.5 -41.5t-41.5 -17.5z" />
    <glyph glyph-name="Abreve" unicode="&#x102;" horiz-adv-x="712" 
d="M161 181l-104 -181h-94l414 703h81l154 -703h-89l-37 181h-325zM203 255h268l-70 339h-2zM429 748q-66 0 -104.5 37t-33.5 99h61q8 -70 78 -70q72 0 101 70h68q-16 -63 -61 -99.5t-109 -36.5z" />
    <glyph glyph-name="abreve" unicode="&#x103;" horiz-adv-x="536" 
d="M245 305q78 0 142 -15l5 28q9 55 -14 88.5t-81 33.5q-83 0 -162 -51l-39 58q99 64 200 64q92 0 142 -52t32 -150l-55 -309h-79l11 62q-70 -73 -173 -73q-68 0 -114 35.5t-46 103.5q0 86 64 131.5t167 45.5zM368 185l7 43q-65 14 -130 14q-68 0 -109.5 -27t-41.5 -82
q0 -39 26 -59.5t68 -20.5q58 0 114.5 40.5t65.5 91.5zM325 567q-66 0 -104.5 37t-33.5 99h61q8 -70 78 -70q72 0 101 70h68q-16 -63 -61 -99.5t-109 -36.5z" />
    <glyph glyph-name="Gbreve" unicode="&#x11e;" horiz-adv-x="753" 
d="M550 113l33 193h-175l13 75h259l-53 -309q-116 -82 -260 -82t-228.5 93.5t-84.5 232.5q0 102 47.5 191.5t136 146t197.5 56.5q85 0 143.5 -24.5t109.5 -75.5l-58 -57q-43 41 -85.5 61t-112.5 20q-126 0 -210.5 -94.5t-84.5 -223.5q0 -106 62 -178t168 -72q93 0 183 47z
M464 749q-66 0 -104.5 37t-33.5 99h61q8 -70 78 -70q72 0 101 70h68q-16 -63 -61 -99.5t-109 -36.5z" />
    <glyph glyph-name="gbreve" unicode="&#x11f;" horiz-adv-x="637" 
d="M33 227q0 108 78.5 196t190.5 88q63 0 110 -26t71 -74h3l17 90h80l-80 -460q-40 -236 -287 -236q-140 0 -230 76l45 61q79 -68 187 -68q177 0 205 175l8 54h-3q-82 -85 -187 -85q-89 0 -148.5 59t-59.5 150zM248 89q88 0 153.5 59.5t65.5 147.5q0 67 -48.5 105.5
t-113.5 38.5q-78 0 -133.5 -62t-55.5 -145q0 -65 35.5 -104.5t96.5 -39.5zM349 567q-66 0 -104.5 37t-33.5 99h61q8 -70 78 -70q72 0 101 70h68q-16 -63 -61 -99.5t-109 -36.5z" />
    <glyph glyph-name="Idotaccent" unicode="&#x130;" horiz-adv-x="274" 
d="M36 0l123 700h83l-123 -700h-83zM277 809q0 -25 -18 -42.5t-42 -17.5q-25 0 -42.5 17.5t-17.5 42.5q0 24 17.5 41.5t42.5 17.5q24 0 42 -17.5t18 -41.5z" />
    <glyph glyph-name="dotlessi" unicode="&#x131;" horiz-adv-x="245" 
d="M23 0l88 501h81l-88 -501h-81z" />
    <glyph glyph-name="Lslash" unicode="&#x141;" horiz-adv-x="582" 
d="M49 0l52 296l-77 -21l14 79l76 21l58 325h84l-54 -301l203 55l-13 -79l-203 -55l-42 -240h363l-14 -80h-447z" />
    <glyph glyph-name="lslash" unicode="&#x142;" horiz-adv-x="286" 
d="M32 369l75 28l63 353h80l-57 -321l75 29l-13 -78l-75 -29l-63 -351h-80l57 319l-76 -28z" />
    <glyph glyph-name="OE" unicode="&#x152;" horiz-adv-x="1031" 
d="M918 78l-13 -78h-526q-147 0 -236 89t-89 227q0 160 113 272t278 112h562l-13 -78h-361l-39 -219h334l-13 -77h-334l-44 -248h381zM137 318q0 -104 69 -172t178 -68h69l97 544h-113q-123 0 -211.5 -88t-88.5 -216z" />
    <glyph glyph-name="oe" unicode="&#x153;" horiz-adv-x="1002" 
d="M693 -10q-63 0 -112.5 33t-74.5 89q-37 -56 -95 -89t-131 -33q-104 0 -165.5 67.5t-61.5 166.5q0 114 78 200.5t198 86.5q138 0 199 -116q69 116 210 116q97 0 154 -60t57 -154q0 -39 -9 -79h-381q3 -67 35.5 -112t99.5 -45q97 0 173 73l46 -49q-50 -48 -101 -71.5
t-119 -23.5zM283 61q87 0 142.5 63.5t55.5 150.5q0 72 -42 118.5t-113 46.5q-88 0 -140 -63.5t-52 -151.5q0 -72 39.5 -118t109.5 -46zM563 282h305q1 6 1 18q0 63 -34 103t-97 40q-73 0 -117.5 -43.5t-57.5 -117.5z" />
    <glyph glyph-name="Scedilla" unicode="&#x15e;" horiz-adv-x="606" 
d="M560 605l-66 -50q-22 35 -66.5 57t-97.5 22q-64 0 -111 -32.5t-47 -94.5q0 -37 34.5 -67.5t118.5 -56.5q188 -57 188 -183q0 -101 -74.5 -155.5t-189.5 -54.5q-70 0 -136 34t-104 87l62 54q28 -39 76.5 -69t100.5 -30q78 0 130 32t52 98q0 76 -148 121q-97 29 -145 73.5
t-48 111.5q0 96 68.5 152t174.5 56q152 0 228 -105zM347 -110q0 -49 -40 -75.5t-93 -26.5q-66 0 -107 21l25 39q34 -15 78 -15q27 0 48 12.5t21 39.5q0 31 -41 31q-21 0 -48 -9l-19 19l74 84h55l-55 -59h24q32 0 55 -16t23 -45z" />
    <glyph glyph-name="scedilla" unicode="&#x15f;" horiz-adv-x="461" 
d="M199 -10q-109 0 -187 83l50 56q68 -71 133 -71q42 0 72.5 17.5t30.5 55.5q0 21 -15 38.5t-29.5 26t-50.5 26.5q-31 16 -48 25.5t-39.5 27.5t-33 40.5t-10.5 50.5q0 71 52 108t130 37q106 0 163 -69l-59 -53q-47 54 -108 54q-38 0 -66 -17t-28 -55q0 -10 3 -19t10 -16.5
l12 -13t17.5 -12.5l17.5 -10t20 -9.5t18 -8.5q29 -14 45.5 -24t40 -28.5t34.5 -42.5t11 -54q0 -69 -53.5 -106t-132.5 -37zM285 -110q0 -49 -40 -75.5t-93 -26.5q-66 0 -107 21l25 39q35 -15 78 -15q27 0 48 12.5t21 39.5q0 31 -41 31q-21 0 -48 -9l-19 19l74 84h55l-55 -59
h24q32 0 55 -16t23 -45z" />
    <glyph glyph-name="Scaron" unicode="&#x160;" horiz-adv-x="604" 
d="M517 892l-132 -138h-72l-85 138h68l58 -91l89 91h74zM560 605l-66 -50q-22 35 -66.5 57t-97.5 22q-64 0 -111 -32.5t-47 -94.5q0 -37 34.5 -67.5t118.5 -56.5q188 -57 188 -183q0 -101 -74.5 -155.5t-189.5 -54.5q-70 0 -136 34t-104 87l62 54q28 -39 76.5 -69t100.5 -30
q78 0 130 32t52 98q0 76 -148 121q-97 29 -145 73.5t-48 111.5q0 96 68.5 152t174.5 56q152 0 228 -105z" />
    <glyph glyph-name="scaron" unicode="&#x161;" horiz-adv-x="459" 
d="M447 702l-132 -138h-72l-85 138h68l58 -91l89 91h74zM199 -10q-109 0 -187 83l50 56q68 -71 133 -71q42 0 72.5 17.5t30.5 55.5q0 21 -15 38.5t-29.5 26t-50.5 26.5q-31 16 -48 25.5t-39.5 27.5t-33 40.5t-10.5 50.5q0 71 52 108t130 37q106 0 163 -69l-59 -53
q-47 54 -108 54q-38 0 -66 -17t-28 -55q0 -10 3 -19t10 -16.5l12 -13t17.5 -12.5l17.5 -10t20 -9.5t18 -8.5q29 -14 45.5 -24t40 -28.5t34.5 -42.5t11 -54q0 -69 -53.5 -106t-132.5 -37z" />
    <glyph glyph-name="Tcommaaccent" unicode="&#x162;" horiz-adv-x="603" 
d="M286 -94q0 -27 -19 -50l-102 -131h-46l70 126q-26 21 -26 51q0 25 18.5 43t43.5 18q27 0 44 -16.5t17 -40.5zM611 622h-225l-109 -622h-84l110 622h-225l13 78h533z" />
    <glyph glyph-name="tcommaaccent" unicode="&#x163;" horiz-adv-x="379" 
d="M178 -94q0 -27 -19 -50l-102 -131h-46l70 126q-26 21 -26 51q0 25 18.5 43t43.5 18q27 0 44 -16.5t17 -40.5zM206 -10q-57 0 -93 32t-35 97q0 18 5 46l46 266h-85l13 70h85l22 123h81l-21 -123h138l-13 -70h-138l-49 -272q-2 -11 -2 -33q0 -65 67 -65q36 0 77 17l-11 -68
q-45 -20 -87 -20z" />
    <glyph glyph-name="Ydieresis" unicode="&#x178;" horiz-adv-x="617" 
d="M65 700h95l140 -321h2l251 321h102l-325 -403l-53 -297h-84l53 296zM466 870q24 0 41.5 -17t17.5 -41t-18 -41.5t-41 -17.5q-24 0 -41.5 17.5t-17.5 41.5q0 23 17.5 40.5t41.5 17.5zM284 753q-24 0 -41.5 17.5t-17.5 41.5q0 23 17.5 40.5t41.5 17.5t41.5 -17t17.5 -41
t-17.5 -41.5t-41.5 -17.5z" />
    <glyph glyph-name="Zcaron" unicode="&#x17d;" horiz-adv-x="667" 
d="M559 892l-132 -138h-72l-85 138h68l58 -91l89 91h74zM540 0h-533l11 72l506 552h-395l13 76h506l-13 -71l-505 -553h423z" />
    <glyph glyph-name="zcaron" unicode="&#x17e;" horiz-adv-x="515" 
d="M467 702l-132 -138h-72l-85 138h68l58 -91l89 91h74zM4 0l12 58l359 374h-292l13 69h393l-12 -60l-357 -372h311l-13 -69h-414z" />
    <glyph glyph-name="longs" unicode="&#x17f;" horiz-adv-x="345" 
d="M54 0l76 431h-69l13 70h69l18 97q14 78 51 120t111 42q53 0 91 -16l-19 -65q-32 11 -68 11q-69 0 -88 -105l-104 -585h-81z" />
    <glyph glyph-name="florin" unicode="&#x192;" horiz-adv-x="429" 
d="M61 351h80l70 209q25 75 69 112.5t119 37.5q42 0 79 -16l-14 -67q-32 13 -61 13q-84 0 -119 -104l-62 -185h135l-12 -70h-145l-158 -471h-81l157 471h-69z" />
    <glyph glyph-name="Scommaaccent" unicode="&#x218;" horiz-adv-x="606" 
d="M303 -94q0 -27 -19 -50l-102 -131h-46l70 126q-26 21 -26 51q0 25 18.5 43t43.5 18q27 0 44 -16.5t17 -40.5zM560 605l-66 -50q-22 35 -66.5 57t-97.5 22q-64 0 -111 -32.5t-47 -94.5q0 -37 34.5 -67.5t118.5 -56.5q188 -57 188 -183q0 -101 -74.5 -155.5t-189.5 -54.5
q-70 0 -136 34t-104 87l62 54q28 -39 76.5 -69t100.5 -30q78 0 130 32t52 98q0 76 -148 121q-97 29 -145 73.5t-48 111.5q0 96 68.5 152t174.5 56q152 0 228 -105z" />
    <glyph glyph-name="scommaaccent" unicode="&#x219;" horiz-adv-x="461" 
d="M242 -94q0 -27 -19 -50l-102 -131h-46l70 126q-26 21 -26 51q0 25 18.5 43t43.5 18q27 0 44 -16.5t17 -40.5zM199 -10q-109 0 -187 83l50 56q68 -71 133 -71q42 0 72.5 17.5t30.5 55.5q0 21 -15 38.5t-29.5 26t-50.5 26.5q-31 16 -48 25.5t-39.5 27.5t-33 40.5
t-10.5 50.5q0 71 52 108t130 37q106 0 163 -69l-59 -53q-47 54 -108 54q-38 0 -66 -17t-28 -55q0 -10 3 -19t10 -16.5l12 -13t17.5 -12.5l17.5 -10t20 -9.5t18 -8.5q29 -14 45.5 -24t40 -28.5t34.5 -42.5t11 -54q0 -69 -53.5 -106t-132.5 -37z" />
    <glyph glyph-name="uni021B" unicode="&#x21b;" horiz-adv-x="379" 
d="M178 -94q0 -27 -19 -50l-102 -131h-46l70 126q-26 21 -26 51q0 25 18.5 43t43.5 18q27 0 44 -16.5t17 -40.5zM206 -10q-57 0 -93 32t-35 97q0 18 5 46l46 266h-85l13 70h85l22 123h81l-21 -123h138l-13 -70h-138l-49 -272q-2 -11 -2 -33q0 -65 67 -65q36 0 77 17l-11 -68
q-45 -20 -87 -20z" />
    <glyph glyph-name="circumflex" unicode="&#x2c6;" horiz-adv-x="410" 
d="M50 583l128 138h72l89 -138h-69l-63 82l-84 -82h-73z" />
    <glyph glyph-name="caron" unicode="&#x2c7;" horiz-adv-x="410" 
d="M362 702l-132 -138h-72l-85 138h68l58 -91l89 91h74z" />
    <glyph glyph-name="breve" unicode="&#x2d8;" horiz-adv-x="410" 
d="M200 564q-66 0 -104.5 37t-33.5 99h61q8 -70 78 -70q72 0 101 70h68q-16 -63 -61 -99.5t-109 -36.5z" />
    <glyph glyph-name="dotaccent" unicode="&#x2d9;" horiz-adv-x="410" 
d="M265 646q0 -25 -18 -42.5t-42 -17.5q-25 0 -42.5 17.5t-17.5 42.5q0 24 17.5 41.5t42.5 17.5q24 0 42 -17.5t18 -41.5z" />
    <glyph glyph-name="ring" unicode="&#x2da;" horiz-adv-x="410" 
d="M205 610q-46 0 -75 29.5t-29 71.5q0 41 29.5 70t74.5 29q46 0 75 -29.5t29 -71.5q0 -41 -29.5 -70t-74.5 -29zM205 650q25 0 42.5 16.5t17.5 44.5q0 27 -17 43t-43 16t-43 -16.5t-17 -44.5q0 -26 17.5 -42.5t42.5 -16.5z" />
    <glyph glyph-name="ogonek" unicode="&#x2db;" horiz-adv-x="410" 
d="M288 -119l-7 -44q-30 -3 -52 -3q-54 0 -83 27.5t-29 67.5q0 37 29 81h62q-18 -40 -18 -72q0 -59 70 -59q18 0 28 2z" />
    <glyph glyph-name="tilde" unicode="&#x2dc;" horiz-adv-x="410" 
d="M73 587l-32 43q42 79 103 79q25 0 69 -20.5t60 -20.5q19 0 32 10t31 38l32 -44q-41 -78 -103 -78q-25 0 -69.5 20.5t-59.5 20.5q-20 0 -32.5 -10t-30.5 -38z" />
    <glyph glyph-name="hungarumlaut" unicode="&#x2dd;" horiz-adv-x="410" 
d="M30 591l107 148l78 -39l-123 -109h-62zM188 591l107 148l78 -39l-123 -109h-62z" />
    <glyph glyph-name="uni037E" unicode="&#x37e;" horiz-adv-x="256" 
d="M221 450q0 -25 -18.5 -43.5t-43.5 -18.5t-43.5 18t-18.5 44q0 25 18.5 43t43.5 18t43.5 -18t18.5 -43zM152 61q0 -21 -19 -49l-101 -131h-47l71 126q-27 20 -27 51q0 25 18.5 43t43.5 18q28 0 44.5 -16.5t16.5 -41.5z" />
    <glyph glyph-name="tonos" unicode="&#x384;" horiz-adv-x="410" 
d="M106 591l105 151l83 -42l-126 -109h-62z" />
    <glyph glyph-name="dieresistonos" unicode="&#x385;" horiz-adv-x="410" 
d="M232 591l73 150l75 -38l-87 -112h-61zM473 637q0 -21 -15.5 -36t-35.5 -15q-21 0 -36 15t-15 36q0 20 15 35t35 15t36 -15t16 -35zM223 637q0 -21 -15.5 -36t-36.5 -15t-35.5 15t-14.5 36q0 20 14.5 35t35.5 15q20 0 36 -15t16 -35z" />
    <glyph glyph-name="Alphatonos" unicode="&#x386;" horiz-adv-x="708" 
d="M56 591l105 151l83 -42l-126 -109h-62zM161 181l-104 -181h-94l414 703h81l154 -703h-89l-37 181h-325zM203 255h268l-70 339h-2z" />
    <glyph glyph-name="anoteleia" unicode="&#x387;" horiz-adv-x="260" 
d="M203 301q0 -25 -18.5 -43.5t-43.5 -18.5t-43.5 18.5t-18.5 43.5t18.5 43t43.5 18t43.5 -18t18.5 -43z" />
    <glyph glyph-name="Epsilontonos" unicode="&#x388;" horiz-adv-x="638" 
d="M-73 591l105 151l83 -42l-126 -109h-62zM34 0l123 700h458l-14 -78h-374l-39 -219h349l-13 -77h-349l-44 -248h396l-13 -78h-480z" />
    <glyph glyph-name="Etatonos" unicode="&#x389;" horiz-adv-x="724" 
d="M-73 591l105 151l83 -42l-126 -109h-62zM34 0l123 700h83l-52 -297h366l53 297h83l-123 -700h-83l57 326h-366l-58 -326h-83z" />
    <glyph glyph-name="Iotatonos" unicode="&#x38a;" horiz-adv-x="274" 
d="M-73 591l105 151l83 -42l-126 -109h-62zM34 0l123 700h83l-123 -700h-83z" />
    <glyph glyph-name="Omicrontonos" unicode="&#x38c;" horiz-adv-x="823" 
d="M-17 591l105 151l83 -42l-126 -109h-62zM385 -10q-147 0 -239 94.5t-92 234.5q0 101 48.5 190.5t138 145t197.5 55.5q146 0 239 -95t93 -234q0 -156 -111 -273.5t-274 -117.5zM387 66q129 0 214 93t85 222q0 108 -68 180.5t-182 72.5q-129 0 -214 -93t-85 -223
q0 -107 68.5 -179.5t181.5 -72.5z" />
    <glyph glyph-name="Upsilontonos" unicode="&#x38e;" horiz-adv-x="617" 
d="M-143 591l105 151l83 -42l-126 -109h-62zM65 700h95l140 -321h2l251 321h102l-325 -403l-53 -297h-84l53 296z" />
    <glyph glyph-name="Omegatonos" unicode="&#x38f;" horiz-adv-x="833" 
d="M770 391q0 -102 -49 -186.5t-128 -126.5h135l-14 -78h-286l13 76q107 24 176 113.5t69 199.5q0 102 -67 173.5t-181 71.5q-131 0 -214 -89t-83 -214q0 -92 48.5 -162.5t133.5 -93.5l-13 -75h-287l14 78h144q-57 36 -90.5 103t-33.5 149q0 100 48.5 187t137 140t196.5 53
q150 0 240.5 -92t90.5 -227zM-21 591l105 151l83 -42l-126 -109h-62z" />
    <glyph glyph-name="iotadieresistonos" unicode="&#x390;" horiz-adv-x="245" 
d="M131 591l73 150l75 -38l-87 -112h-61zM372 637q0 -21 -15.5 -36t-35.5 -15q-21 0 -36 15t-15 36q0 20 15 35t35 15t36 -15t16 -35zM122 637q0 -21 -15.5 -36t-36.5 -15t-35.5 15t-14.5 36q0 20 14.5 35t35.5 15q20 0 36 -15t16 -35zM23 0l88 501h81l-88 -501h-81z" />
    <glyph glyph-name="Alpha" unicode="&#x391;" horiz-adv-x="708" 
d="M161 181l-104 -181h-94l414 703h81l154 -703h-89l-37 181h-325zM203 255h268l-70 339h-2z" />
    <glyph glyph-name="Beta" unicode="&#x392;" horiz-adv-x="661" 
d="M130 75h183q46 0 86 12.5t69.5 45t29.5 80.5q0 50 -39.5 82t-115.5 32h-169zM157 700h228q101 0 156.5 -43.5t55.5 -116.5q0 -61 -36 -107t-95 -69l-1 -2q57 -18 88 -52.5t31 -95.5q0 -104 -78 -159t-197 -55h-275zM375 625h-148l-40 -224h153q71 0 119.5 30t48.5 98
q0 43 -34.5 69.5t-98.5 26.5z" />
    <glyph glyph-name="Gamma" unicode="&#x393;" horiz-adv-x="573" 
d="M34 0l123 700h434l-14 -78h-350l-110 -622h-83z" />
    <glyph glyph-name="uni0394" unicode="&#x394;" horiz-adv-x="708" 
d="M507 76l-107 521h-2l-299 -521h408zM612 0h-649l412 703h82z" />
    <glyph glyph-name="Epsilon" unicode="&#x395;" horiz-adv-x="638" 
d="M34 0l123 700h458l-14 -78h-374l-39 -219h349l-13 -77h-349l-44 -248h396l-13 -78h-480z" />
    <glyph glyph-name="Zeta" unicode="&#x396;" horiz-adv-x="667" 
d="M540 0h-533l11 72l506 552h-395l13 76h506l-13 -71l-505 -553h423z" />
    <glyph glyph-name="Eta" unicode="&#x397;" horiz-adv-x="724" 
d="M34 0l123 700h83l-52 -297h366l53 297h83l-123 -700h-83l57 326h-366l-58 -326h-83z" />
    <glyph glyph-name="Theta" unicode="&#x398;" horiz-adv-x="824" 
d="M558 317h-305l14 76h305zM385 -10q-147 0 -239 94t-92 235q0 156 111 273.5t274 117.5q146 0 239 -94.5t93 -234.5q0 -155 -111.5 -273t-274.5 -118zM387 66q129 0 214.5 93t85.5 222q0 109 -68 181t-182 72q-129 0 -214.5 -93t-85.5 -223q0 -108 68.5 -180t181.5 -72z
" />
    <glyph glyph-name="Iota" unicode="&#x399;" horiz-adv-x="274" 
d="M34 0l123 700h83l-123 -700h-83z" />
    <glyph glyph-name="Kappa" unicode="&#x39a;" horiz-adv-x="700" 
d="M240 700l-61 -351l385 351h112l-310 -282l223 -418h-99l-189 357l-144 -131l-40 -226h-83l123 700h83z" />
    <glyph glyph-name="Lambda" unicode="&#x39b;" horiz-adv-x="680" 
d="M440 703l143 -703h-89l-112 588h-2l-327 -588h-90l397 703h80z" />
    <glyph glyph-name="Mu" unicode="&#x39c;" horiz-adv-x="861" 
d="M718 555h-2l-296 -328h-9l-193 338h-2l-100 -565h-82l123 700h80l194 -344l308 344h89l-123 -700h-85z" />
    <glyph glyph-name="Nu" unicode="&#x39d;" horiz-adv-x="778" 
d="M34 0l123 700h75l330 -559h3l98 559h81l-123 -700h-70l-333 562h-2l-99 -562h-83z" />
    <glyph glyph-name="Xi" unicode="&#x39e;" horiz-adv-x="663" 
d="M111 618l15 82h513l-14 -82h-514zM8 0l14 82h524l-15 -82h-523zM93 323l15 83h456l-15 -83h-456z" />
    <glyph glyph-name="Omicron" unicode="&#x39f;" horiz-adv-x="823" 
d="M385 -10q-147 0 -239 94.5t-92 234.5q0 101 48.5 190.5t138 145t197.5 55.5q146 0 239 -95t93 -234q0 -156 -111 -273.5t-274 -117.5zM387 66q129 0 214 93t85 222q0 108 -68 180.5t-182 72.5q-129 0 -214 -93t-85 -223q0 -107 68.5 -179.5t181.5 -72.5z" />
    <glyph glyph-name="Pi" unicode="&#x3a0;" horiz-adv-x="721" 
d="M34 0l123 700h530l-123 -700h-84l110 622h-363l-110 -622h-83z" />
    <glyph glyph-name="Rho" unicode="&#x3a1;" horiz-adv-x="616" 
d="M157 700h213q100 0 159.5 -47t59.5 -126q0 -114 -74.5 -172t-198.5 -58h-146l-53 -297h-83zM183 371h138q81 0 133 35.5t52 114.5q0 104 -148 104h-131z" />
    <glyph glyph-name="Sigma" unicode="&#x3a3;" horiz-adv-x="656" 
d="M402 366l-264 -288h409l-13 -78h-528l9 60l283 307l-181 269l11 64h509l-13 -78h-396z" />
    <glyph glyph-name="Tau" unicode="&#x3a4;" horiz-adv-x="602" 
d="M611 622h-225l-109 -622h-84l110 622h-225l13 78h533z" />
    <glyph glyph-name="Upsilon" unicode="&#x3a5;" horiz-adv-x="617" 
d="M65 700h95l140 -321h2l251 321h102l-325 -403l-53 -297h-84l53 296z" />
    <glyph glyph-name="Phi" unicode="&#x3a6;" horiz-adv-x="876" 
d="M341 -3l12 67q-135 14 -215 81.5t-80 183.5q0 147 114.5 234t283.5 87l10 53h84l-10 -56q133 -15 212.5 -84t79.5 -184q0 -147 -113 -231.5t-284 -85.5l-11 -65h-83zM141 330q0 -84 60 -135.5t164 -59.5l79 444q-124 -1 -213.5 -66.5t-89.5 -182.5zM749 376
q0 85 -58.5 138.5t-163.5 63.5l-79 -445q79 1 145 26t111 81.5t45 135.5z" />
    <glyph glyph-name="Chi" unicode="&#x3a7;" horiz-adv-x="673" 
d="M326 289l-247 -289h-103l311 362l-168 338h97l132 -268l229 268h105l-296 -342l179 -358h-98z" />
    <glyph glyph-name="Psi" unicode="&#x3a8;" horiz-adv-x="823" 
d="M410 129l-22 -129h-83l23 132q-108 9 -175.5 74t-67.5 174q0 30 6 64l45 256h83l-45 -257q-7 -37 -7 -61q0 -79 48 -124.5t126 -51.5l87 494h83l-87 -495q100 3 164.5 54.5t81.5 149.5l51 291h84l-52 -302q-23 -130 -113.5 -198t-229.5 -71z" />
    <glyph glyph-name="uni03A9" unicode="&#x3a9;" horiz-adv-x="833" 
d="M770 391q0 -102 -49 -186.5t-128 -126.5h135l-14 -78h-286l13 76q107 24 176 113.5t69 199.5q0 102 -67 173.5t-181 71.5q-131 0 -214 -89t-83 -214q0 -92 48.5 -162.5t133.5 -93.5l-13 -75h-287l14 78h144q-57 36 -90.5 103t-33.5 149q0 100 48.5 187t137 140t196.5 53
q150 0 240.5 -92t90.5 -227z" />
    <glyph glyph-name="Iotadieresis" unicode="&#x3aa;" horiz-adv-x="274" 
d="M307 870q24 0 41.5 -17t17.5 -41t-18 -41.5t-41 -17.5q-24 0 -41.5 17.5t-17.5 41.5q0 23 17.5 40.5t41.5 17.5zM125 753q-24 0 -41.5 17.5t-17.5 41.5q0 23 17.5 40.5t41.5 17.5t41.5 -17t17.5 -41t-17.5 -41.5t-41.5 -17.5zM34 0l123 700h83l-123 -700h-83z" />
    <glyph glyph-name="Upsilondieresis" unicode="&#x3ab;" horiz-adv-x="617" 
d="M468 870q24 0 41.5 -17t17.5 -41t-18 -41.5t-41 -17.5q-24 0 -41.5 17.5t-17.5 41.5q0 23 17.5 40.5t41.5 17.5zM286 753q-24 0 -41.5 17.5t-17.5 41.5q0 23 17.5 40.5t41.5 17.5t41.5 -17t17.5 -41t-17.5 -41.5t-41.5 -17.5zM65 700h95l140 -321h2l251 321h102
l-325 -403l-53 -297h-84l53 296z" />
    <glyph glyph-name="alphatonos" unicode="&#x3ac;" horiz-adv-x="638" 
d="M312 591l105 151l83 -42l-126 -109h-62zM268 61q81 0 139.5 63.5t58.5 150.5q0 76 -46.5 120.5t-111.5 44.5q-84 0 -138 -64.5t-54 -152.5q0 -75 43 -118.5t109 -43.5zM504 501h80l-89 -501h-80l11 60h-3q-67 -70 -169 -70q-89 0 -154.5 63.5t-65.5 167.5
q0 113 77.5 201.5t195.5 88.5q120 0 178 -99h3z" />
    <glyph glyph-name="epsilontonos" unicode="&#x3ad;" horiz-adv-x="546" 
d="M300 591l105 151l83 -42l-126 -109h-62zM512 432l-56 -49q-31 31 -64.5 45t-88.5 14q-31 0 -60 -6.5t-55 -28t-26 -54.5q0 -26 23.5 -42.5t61.5 -16.5h122l-12 -64h-126q-46 0 -86 -26t-40 -71q0 -28 20.5 -45.5t46 -23t57.5 -5.5q117 0 197 77l46 -47
q-54 -51 -111.5 -74.5t-132.5 -23.5q-95 0 -149.5 33t-54.5 95q0 55 38.5 94.5t96.5 50.5v2q-39 9 -58.5 35t-19.5 60q0 52 36.5 87.5t84.5 49t102 13.5q79 0 125.5 -20t82.5 -59z" />
    <glyph glyph-name="etatonos" unicode="&#x3ae;" horiz-adv-x="573" 
d="M305 591l105 151l83 -42l-126 -109h-62zM23 0l88 501h81l-10 -60h2q72 70 157 70q87 0 135.5 -60t32.5 -150l-87 -491h-81l86 481q12 68 -17 107t-92 39q-61 0 -106.5 -45.5t-58.5 -115.5l-50 -276h-80z" />
    <glyph glyph-name="iotatonos" unicode="&#x3af;" horiz-adv-x="245" 
d="M127 591l105 151l83 -42l-126 -109h-62zM23 0l88 501h81l-88 -501h-81z" />
    <glyph glyph-name="upsilondieresistonos" unicode="&#x3b0;" horiz-adv-x="589" 
d="M281 591l73 150l75 -38l-87 -112h-61zM522 637q0 -21 -15.5 -36t-35.5 -15q-21 0 -36 15t-15 36q0 20 15 35t35 15t36 -15t16 -35zM272 637q0 -21 -15.5 -36t-36.5 -15t-35.5 15t-14.5 36q0 20 14.5 35t35.5 15q20 0 36 -15t16 -35zM536 501l-50 -278q-40 -233 -239 -233
q-95 0 -144.5 55t-49.5 142q0 32 5 57l45 257h81l-47 -264q-4 -23 -4 -48q0 -128 117 -128q72 0 108 44.5t51 130.5l46 265h81z" />
    <glyph glyph-name="alpha" unicode="&#x3b1;" horiz-adv-x="638" 
d="M268 61q81 0 139.5 63.5t58.5 150.5q0 76 -46.5 120.5t-111.5 44.5q-84 0 -138 -64.5t-54 -152.5q0 -75 43 -118.5t109 -43.5zM504 501h80l-89 -501h-80l11 60h-3q-67 -70 -169 -70q-89 0 -154.5 63.5t-65.5 167.5q0 113 77.5 201.5t195.5 88.5q120 0 178 -99h3z" />
    <glyph glyph-name="beta" unicode="&#x3b2;" horiz-adv-x="622" 
d="M148 247q-14 -83 34.5 -134t121.5 -51q72 0 121 52t49 127q0 64 -41 98.5t-107 34.5h-31l12 66h35q55 0 97.5 43t42.5 102q0 46 -33 76t-85 30q-67 0 -110.5 -43t-56.5 -119zM425 410q60 -19 94.5 -62t34.5 -109q0 -102 -70 -174.5t-175 -72.5q-130 0 -188 94h-3
l-47 -276h-81l130 738q17 96 83.5 154t164.5 58q87 0 141 -48.5t54 -120.5q0 -63 -36 -113t-102 -68z" />
    <glyph glyph-name="gamma" unicode="&#x3b3;" horiz-adv-x="516" 
d="M58 501h83l80 -400h1l221 400h88l-285 -497l-34 -194h-81l34 192z" />
    <glyph glyph-name="delta" unicode="&#x3b4;" horiz-adv-x="612" 
d="M277 61q79 0 138.5 59t59.5 145q0 69 -41.5 115t-118.5 46q-85 0 -142 -61t-57 -149q0 -70 45.5 -112.5t115.5 -42.5zM166 690l11 60h398l-13 -69h-282l196 -223q80 -94 80 -191q0 -111 -82.5 -194t-199.5 -83q-107 0 -173.5 65t-66.5 163q0 109 75 189t194 80
q33 0 46 -4z" />
    <glyph glyph-name="epsilon" unicode="&#x3b5;" horiz-adv-x="546" 
d="M512 432l-56 -49q-31 31 -64.5 45t-88.5 14q-31 0 -60 -6.5t-55 -28t-26 -54.5q0 -26 23.5 -42.5t61.5 -16.5h122l-12 -64h-126q-46 0 -86 -26t-40 -71q0 -28 20.5 -45.5t46 -23t57.5 -5.5q117 0 197 77l46 -47q-54 -51 -111.5 -74.5t-132.5 -23.5q-95 0 -149.5 33
t-54.5 95q0 55 38.5 94.5t96.5 50.5v2q-39 9 -58.5 35t-19.5 60q0 52 36.5 87.5t84.5 49t102 13.5q79 0 125.5 -20t82.5 -59z" />
    <glyph glyph-name="zeta" unicode="&#x3b6;" horiz-adv-x="516" 
d="M446 679h-297l13 71h405l-12 -67l-89 -68.5l-86.5 -70t-85.5 -75.5t-71.5 -75t-60.5 -78.5t-37 -76t-15 -77.5q0 -45 35 -63.5t115 -22.5q81 -5 124.5 -27t43.5 -69q0 -14 -2.5 -28t-8.5 -30.5t-10 -25.5l-14 -30l-13 -27h-77q42 79 42 123q0 24 -25.5 31.5t-99.5 10.5
q-196 8 -196 149q0 65 33.5 134.5t95.5 137.5t132 128t161 126z" />
    <glyph glyph-name="eta" unicode="&#x3b7;" horiz-adv-x="573" 
d="M23 0l88 501h81l-10 -60h2q72 70 157 70q87 0 135.5 -60t32.5 -150l-87 -491h-81l86 481q12 68 -17 107t-92 39q-61 0 -106.5 -45.5t-58.5 -115.5l-50 -276h-80z" />
    <glyph glyph-name="theta" unicode="&#x3b8;" horiz-adv-x="617" 
d="M576 476q-2 -67 -12 -131t-33 -129.5t-56.5 -114.5t-86.5 -80t-119 -31q-103 0 -156.5 78t-53.5 205q0 56 9 117t32 128t56.5 120t88.5 87.5t122 34.5q104 0 156.5 -78t52.5 -206zM494 415q3 51 3 63q0 96 -34 154.5t-102 58.5q-79 0 -133.5 -79t-74.5 -197h341zM143 349
q-5 -35 -5 -79q0 -96 34 -153t102 -57q83 0 138 81.5t74 207.5h-343z" />
    <glyph glyph-name="iota" unicode="&#x3b9;" horiz-adv-x="245" 
d="M23 0l88 501h81l-88 -501h-81z" />
    <glyph glyph-name="kappa" unicode="&#x3ba;" horiz-adv-x="524" 
d="M529 501l-232 -200l167 -301h-90l-136 250l-106 -90l-29 -160h-80l88 501h81l-41 -235l275 235h103z" />
    <glyph glyph-name="lambda" unicode="&#x3bb;" horiz-adv-x="504" 
d="M267 502l-17 117q-9 69 -65 69q-18 0 -43 -5l-8 67q38 10 75 10q49 0 79.5 -31t38.5 -87l94 -642h-82l-55 389h-1l-232 -389h-88z" />
    <glyph glyph-name="uni03BC" unicode="&#x3bc;" horiz-adv-x="598" 
d="M117 64h-1l-45 -254h-81l122 691h80l-52 -290q-11 -68 17.5 -107.5t93.5 -39.5q61 0 106.5 45.5t57.5 114.5l49 277h81l-89 -501h-80l10 61h-2q-69 -71 -149 -71q-48 0 -77.5 21t-40.5 53z" />
    <glyph glyph-name="nu" unicode="&#x3bd;" horiz-adv-x="516" 
d="M167 -4l-109 505h83l80 -398h1l221 398h88l-290 -505h-74z" />
    <glyph glyph-name="xi" unicode="&#x3be;" horiz-adv-x="537" 
d="M144 527q0 117 132 153h-127l13 70h420l-13 -72h-116q-36 0 -71.5 -6.5t-72 -21.5t-59 -44.5t-22.5 -70.5q0 -44 42.5 -67t98.5 -23h117l-14 -72h-130q-98 0 -163 -41.5t-65 -135.5q0 -97 136 -116q191 -28 191 -111q0 -49 -44 -130h-76q37 69 37 106q0 8 -2.5 14.5
t-8.5 12t-11.5 9.5t-16.5 7.5l-19 6t-23 5.5t-24 4.5t-26.5 4t-26.5 4.5q-171 29 -171 169q0 92 58 155.5t154 79.5q-50 12 -73.5 44t-23.5 66z" />
    <glyph glyph-name="omicron" unicode="&#x3bf;" horiz-adv-x="611" 
d="M271 -10q-107 0 -172 65.5t-65 168.5q0 118 81.5 202.5t203.5 84.5q107 0 172.5 -65t65.5 -169q0 -118 -81.5 -202.5t-204.5 -84.5zM273 61q89 0 146 63t57 151q0 74 -44 119.5t-116 45.5q-89 0 -144.5 -63t-55.5 -152q0 -74 43 -119t114 -45z" />
    <glyph glyph-name="pi" unicode="&#x3c0;" horiz-adv-x="590" 
d="M23 0l89 501h425l-89 -501h-81l76 432h-263l-76 -432h-81z" />
    <glyph glyph-name="rho" unicode="&#x3c1;" horiz-adv-x="631" 
d="M293 62q92 0 147 62.5t55 156.5q0 68 -41.5 113.5t-108.5 45.5q-90 0 -147 -61.5t-57 -158.5q0 -69 43.5 -113.5t108.5 -44.5zM118 80l-47 -270h-81l81 456q21 119 95.5 182t186.5 63q94 0 159 -66t65 -165q0 -119 -79 -204.5t-201 -85.5q-119 0 -176 90h-3z" />
    <glyph glyph-name="sigma1" unicode="&#x3c2;" horiz-adv-x="547" 
d="M129 237q0 -36 14 -64t41 -47t52.5 -30.5t62.5 -23.5q55 -18 82.5 -39.5t27.5 -54.5q0 -9 -1.5 -18.5t-3.5 -17.5t-6 -18.5t-6.5 -16.5t-9 -17.5l-9 -16t-10.5 -17.5t-10 -17h-77l11.5 19l12.5 20.5t10 19t9 21t5.5 19.5t2.5 21q0 18 -18.5 28.5t-59.5 24.5
q-40 13 -71.5 29t-63 41.5t-49 64.5t-17.5 88q0 118 77 197t195 79q133 0 203 -95l-57 -46q-60 70 -147 70q-81 0 -135.5 -57t-54.5 -146z" />
    <glyph glyph-name="sigma" unicode="&#x3c3;" horiz-adv-x="638" 
d="M273 61q88 0 145.5 62t57.5 149q0 74 -43.5 116t-116.5 42q-90 0 -145 -60t-55 -149q0 -73 43 -116.5t114 -43.5zM475 430l-1 -2q39 -17 61 -60.5t22 -93.5q0 -117 -81 -200.5t-205 -83.5q-107 0 -172 64.5t-65 166.5q0 117 80.5 198.5t203.5 81.5h306l-12 -71h-137z" />
    <glyph glyph-name="tau" unicode="&#x3c4;" horiz-adv-x="450" 
d="M119 0l76 431h-156l13 70h389l-13 -70h-153l-76 -431h-80z" />
    <glyph glyph-name="upsilon" unicode="&#x3c5;" horiz-adv-x="589" 
d="M536 501l-50 -278q-40 -233 -239 -233q-95 0 -144.5 55t-49.5 142q0 32 5 57l45 257h81l-47 -264q-4 -23 -4 -48q0 -128 117 -128q72 0 108 44.5t51 130.5l46 265h81z" />
    <glyph glyph-name="phi" unicode="&#x3c6;" horiz-adv-x="749" 
d="M401 509q136 0 215 -59t79 -169q0 -133 -91.5 -207t-246.5 -79l-32 -185h-79l33 186q-117 10 -181 68t-64 157q0 103 59.5 177.5t165.5 108.5l15 -65q-70 -21 -114.5 -80t-44.5 -136q0 -142 176 -162l79 444q16 1 31 1zM614 278q0 145 -178 159l-67 -374q113 10 179 62
t66 153z" />
    <glyph glyph-name="chi" unicode="&#x3c7;" horiz-adv-x="546" 
d="M360 0l-101 191h-2l-171 -191h-95l230 254l-136 247h88l102 -189h2l170 189h95l-229 -252l137 -249h-90z" />
    <glyph glyph-name="psi" unicode="&#x3c8;" horiz-adv-x="739" 
d="M233 -190l32 184q-113 12 -169 83.5t-39 167.5l45 256h80l-46 -264q-13 -70 25.5 -117.5t115.5 -57.5l109 611h78l-109 -612q175 6 201 156l50 284h80l-52 -296q-18 -98 -90.5 -154t-200.5 -59l-32 -182h-78z" />
    <glyph glyph-name="omega" unicode="&#x3c9;" horiz-adv-x="768" 
d="M192 -10q-75 0 -116.5 48t-41.5 131q0 128 61 218t192 125l16 -66q-188 -56 -188 -277q0 -108 87 -108q46 0 80 34t47 106l27 156h80l-27 -156q-6 -36 -6 -50q0 -90 82 -90q50 0 85 39t49 89t14 101q0 58 -26.5 101t-86.5 53l19 68q82 -11 128.5 -67.5t46.5 -147.5
q0 -53 -13.5 -105t-40 -98.5t-73 -75t-106.5 -28.5q-40 0 -76.5 20.5t-54.5 66.5q-60 -87 -158 -87z" />
    <glyph glyph-name="iotadieresis" unicode="&#x3ca;" horiz-adv-x="245" 
d="M268 703q24 0 41.5 -17t17.5 -41t-18 -41.5t-41 -17.5q-24 0 -41.5 17.5t-17.5 41.5q0 23 17.5 40.5t41.5 17.5zM86 586q-24 0 -41.5 17.5t-17.5 41.5q0 23 17.5 40.5t41.5 17.5t41.5 -17t17.5 -41t-17.5 -41.5t-41.5 -17.5zM23 0l88 501h81l-88 -501h-81z" />
    <glyph glyph-name="upsilondieresis" unicode="&#x3cb;" horiz-adv-x="589" 
d="M429 703q24 0 41.5 -17t17.5 -41t-18 -41.5t-41 -17.5q-24 0 -41.5 17.5t-17.5 41.5q0 23 17.5 40.5t41.5 17.5zM247 586q-24 0 -41.5 17.5t-17.5 41.5q0 23 17.5 40.5t41.5 17.5t41.5 -17t17.5 -41t-17.5 -41.5t-41.5 -17.5zM536 501l-50 -278q-40 -233 -239 -233
q-95 0 -144.5 55t-49.5 142q0 32 5 57l45 257h81l-47 -264q-4 -23 -4 -48q0 -128 117 -128q72 0 108 44.5t51 130.5l46 265h81z" />
    <glyph glyph-name="omicrontonos" unicode="&#x3cc;" horiz-adv-x="611" 
d="M310 591l105 151l83 -42l-126 -109h-62zM271 -10q-107 0 -172 65.5t-65 168.5q0 118 81.5 202.5t203.5 84.5q107 0 172.5 -65t65.5 -169q0 -118 -81.5 -202.5t-204.5 -84.5zM273 61q89 0 146 63t57 151q0 74 -44 119.5t-116 45.5q-89 0 -144.5 -63t-55.5 -152
q0 -74 43 -119t114 -45z" />
    <glyph glyph-name="upsilontonos" unicode="&#x3cd;" horiz-adv-x="589" 
d="M295 591l105 151l83 -42l-126 -109h-62zM536 501l-50 -278q-40 -233 -239 -233q-95 0 -144.5 55t-49.5 142q0 32 5 57l45 257h81l-47 -264q-4 -23 -4 -48q0 -128 117 -128q72 0 108 44.5t51 130.5l46 265h81z" />
    <glyph glyph-name="omegatonos" unicode="&#x3ce;" horiz-adv-x="768" 
d="M406 591l105 151l83 -42l-126 -109h-62zM192 -10q-75 0 -116.5 48t-41.5 131q0 128 61 218t192 125l16 -66q-188 -56 -188 -277q0 -108 87 -108q46 0 80 34t47 106l27 156h80l-27 -156q-6 -36 -6 -50q0 -90 82 -90q50 0 85 39t49 89t14 101q0 58 -26.5 101t-86.5 53
l19 68q82 -11 128.5 -67.5t46.5 -147.5q0 -53 -13.5 -105t-40 -98.5t-73 -75t-106.5 -28.5q-40 0 -76.5 20.5t-54.5 66.5q-60 -87 -158 -87z" />
    <glyph glyph-name="uni03D7" unicode="&#x3d7;" horiz-adv-x="990" 
d="M44 201q0 95 41 187.5t110 163.5t165.5 114.5t201.5 43.5q172 0 277 -98.5t105 -238.5q0 -71 -28 -142t-86 -123t-131 -52q-39 0 -77 19.5t-63 60.5l-94 149l-111 -78l-53 -127h-77l177 421h76l-85 -201l283 201h98l-249 -175l99 -160q33 -52 86 -52t95.5 44.5t63 102.5
t20.5 111q0 121 -90.5 207.5t-233.5 86.5q-115 0 -223.5 -61.5t-178.5 -171t-70 -236.5q0 -136 89 -226.5t238 -90.5q129 0 257 67l16 -37q-139 -74 -278 -74q-164 0 -267 107t-103 258z" />
    <glyph glyph-name="endash" unicode="&#x2013;" horiz-adv-x="546" 
d="M492 259h-444l14 83h444z" />
    <glyph glyph-name="emdash" unicode="&#x2014;" horiz-adv-x="973" 
d="M919 259h-871l14 83h871z" />
    <glyph glyph-name="afii00208" unicode="&#x2015;" horiz-adv-x="974" 
d="M920 259h-871l14 83h871z" />
    <glyph glyph-name="quoteleft" unicode="&#x2018;" horiz-adv-x="219" 
d="M239 700l-87 -230h-102l115 230h74z" />
    <glyph glyph-name="quoteright" unicode="&#x2019;" horiz-adv-x="219" 
d="M50 470l87 230h103l-116 -230h-74z" />
    <glyph glyph-name="quotesinglbase" unicode="&#x201a;" horiz-adv-x="219" 
d="M-21 -119l87 230h103l-116 -230h-74z" />
    <glyph glyph-name="quotedblleft" unicode="&#x201c;" horiz-adv-x="400" 
d="M420 700l-87 -230h-103l116 230h74zM239 700l-87 -230h-102l115 230h74z" />
    <glyph glyph-name="quotedblright" unicode="&#x201d;" horiz-adv-x="400" 
d="M50 470l87 230h103l-116 -230h-74zM231 470l87 230h103l-116 -230h-74z" />
    <glyph glyph-name="quotedblbase" unicode="&#x201e;" horiz-adv-x="400" 
d="M-21 -119l87 230h103l-116 -230h-74zM160 -119l87 230h103l-116 -230h-74z" />
    <glyph glyph-name="dagger" unicode="&#x2020;" horiz-adv-x="399" 
d="M154 234l48 275h-118l10 61h118l23 130h69l-23 -130h118l-11 -61h-117l-48 -275h-69z" />
    <glyph glyph-name="daggerdbl" unicode="&#x2021;" horiz-adv-x="399" 
d="M28 191h117l57 318h-118l10 61h118l23 130h69l-23 -130h118l-11 -61h-117l-57 -318h118l-10 -61h-118l-23 -130h-69l23 130h-118z" />
    <glyph glyph-name="bullet" unicode="&#x2022;" horiz-adv-x="500" 
d="M89 349q0 67 47 114.5t113 47.5q67 0 114.5 -47.5t47.5 -114.5q0 -66 -47.5 -113t-114.5 -47q-66 0 -113 47t-47 113z" />
    <glyph glyph-name="onedotenleader" unicode="&#x2024;" horiz-adv-x="249" 
d="M152 58q0 -25 -18.5 -43.5t-43.5 -18.5q-26 0 -44 18t-18 44q0 25 18.5 43t43.5 18t43.5 -18t18.5 -43z" />
    <glyph glyph-name="twodotenleader" unicode="&#x2025;" horiz-adv-x="500" 
d="M152 58q0 -25 -18.5 -43.5t-43.5 -18.5q-26 0 -44 18t-18 44q0 25 18.5 43t43.5 18t43.5 -18t18.5 -43zM402 58q0 -25 -18.5 -43.5t-43.5 -18.5q-26 0 -44 18t-18 44q0 25 18.5 43t43.5 18t43.5 -18t18.5 -43z" />
    <glyph glyph-name="ellipsis" unicode="&#x2026;" horiz-adv-x="773" 
d="M152 58q0 -25 -18.5 -43.5t-43.5 -18.5q-26 0 -44 18t-18 44q0 25 18.5 43t43.5 18t43.5 -18t18.5 -43zM414 58q0 -25 -18.5 -43.5t-43.5 -18.5q-26 0 -44 18t-18 44q0 25 18.5 43t43.5 18t43.5 -18t18.5 -43zM676 58q0 -25 -18.5 -43.5t-43.5 -18.5q-26 0 -44 18t-18 44
q0 25 18.5 43t43.5 18t43.5 -18t18.5 -43z" />
    <glyph glyph-name="perthousand" unicode="&#x2030;" horiz-adv-x="1173" 
d="M90 0l552 700h74l-551 -700h-75zM218 345q-61 0 -98.5 44t-37.5 112q0 78 44 141t122 63q60 0 98 -44.5t38 -112.5q0 -78 -44 -140.5t-122 -62.5zM220 401q47 0 72.5 46t25.5 102q0 47 -19.5 73t-51.5 26q-49 0 -74 -47t-25 -103q0 -46 20 -71.5t52 -25.5zM564 -5
q-61 0 -99 44t-38 112q0 78 44.5 141t122.5 63q60 0 98 -44.5t38 -112.5q0 -78 -44 -140.5t-122 -62.5zM565 51q47 0 73 46t26 102q0 47 -20 73t-52 26q-49 0 -73.5 -47t-24.5 -103q0 -45 19.5 -71t51.5 -26zM922 -5q-61 0 -98.5 44t-37.5 112q0 78 44 141t122 63
q60 0 98.5 -44.5t38.5 -112.5q0 -78 -44.5 -140.5t-122.5 -62.5zM924 51q47 0 72.5 46t25.5 102q0 47 -19.5 73t-51.5 26q-49 0 -74 -47t-25 -103q0 -46 20 -71.5t52 -25.5z" />
    <glyph glyph-name="guilsinglleft" unicode="&#x2039;" horiz-adv-x="306" 
d="M212 82l-65 -34l-114 213l187 211l52 -43l-149 -173z" />
    <glyph glyph-name="guilsinglright" unicode="&#x203a;" horiz-adv-x="306" 
d="M67 48l-53 43l151 174l-89 173l65 34l115 -211z" />
    <glyph glyph-name="fraction" unicode="&#x2044;" horiz-adv-x="308" 
d="M-155 -28l571 792l49 -33l-571 -792z" />
    <glyph glyph-name="zerosuperior" unicode="&#x2070;" horiz-adv-x="354" 
d="M191 345q-61 0 -98.5 44t-37.5 112q0 78 44 141t122 63q60 0 98 -44.5t38 -112.5q0 -78 -44 -140.5t-122 -62.5zM193 401q47 0 72.5 46t25.5 102q0 47 -19.5 73t-51.5 26q-49 0 -74 -47t-25 -103q0 -46 20 -71.5t52 -25.5z" />
    <glyph glyph-name="foursuperior" unicode="&#x2074;" horiz-adv-x="316" 
d="M298 418h-41l-12 -68h-63l12 68h-159l10 57l189 225h72l-40 -226h41zM204 474l25 146l-116 -146h91z" />
    <glyph glyph-name="fivesuperior" unicode="&#x2075;" horiz-adv-x="308" 
d="M36 428l58 21q10 -48 56 -48q34 0 55.5 24.5t21.5 57.5q0 50 -52 50q-35 0 -76 -25l-31 21l38 171h207l-10 -56h-149l-15 -68q24 9 50 9q47 0 75 -27.5t28 -72.5q0 -57 -41 -99t-108 -42q-45 0 -73.5 24t-33.5 60z" />
    <glyph glyph-name="sixsuperior" unicode="&#x2076;" horiz-adv-x="306" 
d="M170 580v-1q17 5 32 5q46 0 75 -29.5t29 -73.5q0 -60 -43 -98.5t-108 -38.5q-54 0 -87 32t-33 78q0 34 15 61t45 62l101 123h72zM160 401q34 0 58.5 23.5t24.5 58.5q0 48 -60 48q-32 0 -57.5 -21t-25.5 -56q0 -25 17 -39t43 -14z" />
    <glyph glyph-name="sevensuperior" unicode="&#x2077;" horiz-adv-x="285" 
d="M58 644l9 56h249l-9 -52l-189 -298h-67l187 294h-180z" />
    <glyph glyph-name="eightsuperior" unicode="&#x2078;" horiz-adv-x="326" 
d="M160 344q-53 0 -88 25.5t-35 67.5q0 39 23.5 64.5t61.5 34.5q-47 16 -47 63q0 52 41.5 79.5t98.5 27.5q48 0 81.5 -23t33.5 -61q0 -67 -73 -87q25 -7 40.5 -26t15.5 -45q0 -56 -44.5 -88t-108.5 -32zM193 556q29 0 50.5 14.5t21.5 41.5q0 38 -55 38q-27 0 -49.5 -13.5
t-22.5 -40.5q0 -19 16 -29.5t39 -10.5zM165 401q31 0 57.5 15.5t26.5 45.5q0 19 -17 30.5t-48 11.5q-39 0 -61 -17.5t-22 -43.5q0 -42 64 -42z" />
    <glyph glyph-name="ninesuperior" unicode="&#x2079;" horiz-adv-x="315" 
d="M184 470v1q-17 -5 -32 -5q-47 0 -75.5 29.5t-28.5 74.5q0 59 43.5 97.5t107.5 38.5q53 0 86.5 -29.5t33.5 -79.5q0 -34 -14.5 -60t-45.5 -64l-101 -123h-72zM194 649q-35 0 -59 -22t-24 -60q0 -48 59 -48q32 0 58 21t26 56q0 25 -17 39t-43 14z" />
    <glyph glyph-name="parenleftsuperior" unicode="&#x207d;" horiz-adv-x="176" 
d="M137 334l-50 -28q-45 78 -45 174q0 133 121 265l39 -30q-97 -111 -97 -239q0 -84 32 -142z" />
    <glyph glyph-name="parenrightsuperior" unicode="&#x207e;" horiz-adv-x="176" 
d="M43 306l-40 28q98 117 98 241q0 80 -31 140l49 30q44 -77 44 -175q0 -134 -120 -264z" />
    <glyph glyph-name="zeroinferior" unicode="&#x2080;" horiz-adv-x="354" 
d="M191 -5q-61 0 -98.5 44t-37.5 112q0 78 44 141t122 63q60 0 98 -44.5t38 -112.5q0 -78 -44 -140.5t-122 -62.5zM193 51q47 0 72.5 46t25.5 102q0 47 -19.5 73t-51.5 26q-49 0 -74 -47t-25 -103q0 -46 20 -71.5t52 -25.5z" />
    <glyph glyph-name="oneinferior" unicode="&#x2081;" horiz-adv-x="237" 
d="M159 288l-73 -36l-19 48l102 50h63l-61 -350h-63z" />
    <glyph glyph-name="twoinferior" unicode="&#x2082;" horiz-adv-x="322" 
d="M45 52l139 111q4 4 19.5 15.5t22.5 18.5l17.5 18t15 22t4.5 23q0 20 -13.5 31.5t-36.5 11.5q-25 0 -44.5 -16t-26.5 -44l-62 7q30 106 137 106q51 0 80 -24t29 -67q0 -37 -19.5 -63t-68.5 -65l-98 -78h150l-10 -59h-244z" />
    <glyph glyph-name="threeinferior" unicode="&#x2083;" horiz-adv-x="303" 
d="M290 108q0 -50 -37.5 -82.5t-100.5 -32.5q-52 0 -85 28t-37 69l63 11q2 -24 19.5 -38t44.5 -14q71 0 71 63q0 44 -61 44h-38l10 52h35q31 0 52 13.5t21 40.5q0 17 -15.5 27.5t-35.5 10.5q-46 0 -63 -44l-63 11q34 89 131 89q44 0 75.5 -22.5t31.5 -60.5q0 -70 -74 -89
q26 -7 41 -27.5t15 -48.5z" />
    <glyph glyph-name="fourinferior" unicode="&#x2084;" horiz-adv-x="316" 
d="M298 68h-41l-12 -68h-63l12 68h-159l10 57l189 225h72l-40 -226h41zM204 124l25 146l-116 -146h91z" />
    <glyph glyph-name="fiveinferior" unicode="&#x2085;" horiz-adv-x="308" 
d="M36 78l58 21q10 -48 56 -48q34 0 55.5 24.5t21.5 57.5q0 50 -52 50q-35 0 -76 -25l-31 21l38 171h207l-10 -56h-149l-15 -68q24 9 50 9q47 0 75 -27.5t28 -72.5q0 -57 -41 -99t-108 -42q-45 0 -73.5 24t-33.5 60z" />
    <glyph glyph-name="sixinferior" unicode="&#x2086;" horiz-adv-x="306" 
d="M170 230v-1q17 5 32 5q46 0 75 -29.5t29 -73.5q0 -60 -43 -98.5t-108 -38.5q-54 0 -87 32t-33 78q0 34 15 61t45 62l101 123h72zM160 51q34 0 58.5 23.5t24.5 58.5q0 48 -60 48q-32 0 -57.5 -21t-25.5 -56q0 -25 17 -39t43 -14z" />
    <glyph glyph-name="seveninferior" unicode="&#x2087;" horiz-adv-x="285" 
d="M58 294l9 56h249l-9 -52l-189 -298h-67l187 294h-180z" />
    <glyph glyph-name="eightinferior" unicode="&#x2088;" horiz-adv-x="326" 
d="M160 -6q-53 0 -88 25.5t-35 67.5q0 39 23.5 64.5t61.5 34.5q-47 16 -47 63q0 52 41.5 79.5t98.5 27.5q48 0 81.5 -23t33.5 -61q0 -67 -73 -87q25 -7 40.5 -26t15.5 -45q0 -56 -44.5 -88t-108.5 -32zM193 206q29 0 50.5 14.5t21.5 41.5q0 38 -55 38q-27 0 -49.5 -13.5
t-22.5 -40.5q0 -19 16 -29.5t39 -10.5zM165 51q31 0 57.5 15.5t26.5 45.5q0 19 -17 30.5t-48 11.5q-39 0 -61 -17.5t-22 -43.5q0 -42 64 -42z" />
    <glyph glyph-name="nineinferior" unicode="&#x2089;" horiz-adv-x="315" 
d="M184 120v1q-18 -5 -32 -5q-47 0 -75.5 29.5t-28.5 74.5q0 59 43.5 97.5t107.5 38.5q53 0 86.5 -29.5t33.5 -79.5q0 -34 -14.5 -60t-45.5 -64l-101 -123h-72zM194 299q-35 0 -59 -22t-24 -60q0 -48 59 -48q32 0 58 21t26 56q0 25 -17 39t-43 14z" />
    <glyph glyph-name="parenleftinferior" unicode="&#x208d;" horiz-adv-x="176" 
d="M137 -16l-50 -28q-45 78 -45 174q0 133 121 265l39 -30q-97 -111 -97 -239q0 -84 32 -142z" />
    <glyph glyph-name="parenrightinferior" unicode="&#x208e;" horiz-adv-x="176" 
d="M43 -44l-40 28q98 117 98 241q0 80 -31 140l49 30q44 -77 44 -175q0 -134 -120 -264z" />
    <glyph glyph-name="colonmonetary" unicode="&#x20a1;" horiz-adv-x="600" 
d="M516 758l-43 -75q20 -11 39 -28l59 103h63l-86 -151q27 -42 28 -97h-89q-4 57 -37 87.5t-84 30.5q-77 0 -132 -48.5t-77 -173.5l-20 -112q-39 -222 131 -222q111 0 160 112h89q-77 -189 -247 -189q-33 0 -57 2l-25 -47h-63l33 59q-24 9 -43 22l-45 -81h-63l67 124
q-49 73 -22 224l23 128q49 281 295 281q8 0 50 -6l33 57h63z" />
    <glyph glyph-name="Euro" unicode="&#x20ac;" horiz-adv-x="707" 
d="M62 451h104q38 119 119 189t183 70q142 0 212 -108l-67 -46q-28 39 -61 58t-86 19q-66 0 -125 -49.5t-87 -132.5h298l-10 -59h-306q-6 -21 -9 -42l-5 -44h305l-11 -59h-295q7 -85 48 -132.5t106 -47.5q57 0 99 21t86 70l55 -51q-53 -60 -110 -88.5t-134 -28.5
q-104 0 -169.5 70t-68.5 187h-107l11 59h99q2 28 5 44q2 12 8 42h-97z" />
    <glyph glyph-name="litre" unicode="&#x2113;" horiz-adv-x="349" 
d="M211 120h69q-14 -64 -45 -95t-84 -31q-58 0 -88 31t-19 93l30 176l-43 -26l-16 48q60 37 71 45l34 189q15 83 49.5 119.5t94.5 36.5q45 0 71 -24.5t26 -65.5q0 -76 -55.5 -143.5t-142.5 -133.5l-39 -221q-10 -58 34 -58q20 0 32 13.5t21 46.5zM177 416q111 100 111 186
q0 36 -31 36q-41 0 -55 -77z" />
    <glyph glyph-name="afii61352" unicode="&#x2116;" horiz-adv-x="1199" 
d="M1078 0h-340l11 67h341zM34 0l123 700h75l330 -559h3l98 559h81l-123 -700h-70l-333 562h-2l-99 -562h-83zM941 139q-74 0 -122.5 44.5t-48.5 115.5q0 81 61 140t147 59q75 0 124 -45.5t49 -116.5q0 -80 -62.5 -138.5t-147.5 -58.5zM948 207q51 0 88 36.5t37 88.5
q0 43 -28.5 70t-72.5 27q-51 0 -87 -36.5t-36 -87.5q0 -44 27.5 -71t71.5 -27z" />
    <glyph glyph-name="trademark" unicode="&#x2122;" horiz-adv-x="737" 
d="M348 651h-109l-52 -301h-61l53 301h-109l9 49h278zM705 700h61l-61 -350h-57l45 258h-3l-129 -147h-7l-80 144h-2l-45 -255h-58l61 350h52l86 -154z" />
    <glyph glyph-name="Omega" unicode="&#x2126;" horiz-adv-x="833" 
d="M770 391q0 -102 -49 -186.5t-128 -126.5h135l-14 -78h-286l13 76q107 24 176 113.5t69 199.5q0 102 -67 173.5t-181 71.5q-131 0 -214 -89t-83 -214q0 -92 48.5 -162.5t133.5 -93.5l-13 -75h-287l14 78h144q-57 36 -90.5 103t-33.5 149q0 100 48.5 187t137 140t196.5 53
q150 0 240.5 -92t90.5 -227z" />
    <glyph glyph-name="estimated" unicode="&#x212e;" horiz-adv-x="726" 
d="M372 -6q-135 0 -230 95t-95 230q0 134 95 229.5t230 95.5q134 0 229.5 -95.5t95.5 -229.5v-9h-527q-4 0 -4 -4v-184q0 -13 7 -20q75 -89 200 -89q61 0 116.5 28.5t95.5 78.5h44q-45 -58 -112.5 -92t-144.5 -34zM166 333q0 -5 4 -5h403q5 0 5 5v185q0 10 -9 21
q-75 85 -196 85q-124 0 -199 -87q-8 -8 -8 -22v-182z" />
    <glyph glyph-name="onethird" unicode="&#x2153;" horiz-adv-x="732" 
d="M719 108q0 -50 -37.5 -82.5t-100.5 -32.5q-52 0 -85 28t-37 69l63 11q2 -24 19.5 -38t44.5 -14q71 0 71 63q0 44 -61 44h-38l10 52h35q31 0 52 13.5t21 40.5q0 17 -15.5 27.5t-35.5 10.5q-46 0 -63 -44l-63 11q34 89 131 89q44 0 75.5 -22.5t31.5 -60.5q0 -70 -74 -89
q26 -7 41 -27.5t15 -48.5zM159 638l-73 -36l-19 48l102 50h63l-61 -350h-63zM88 -28l571 792l49 -33l-571 -792z" />
    <glyph glyph-name="twothirds" unicode="&#x2154;" horiz-adv-x="812" 
d="M45 402l139 111q4 4 19.5 15.5t22.5 18.5l17.5 18t15 22t4.5 23q0 20 -13.5 31.5t-36.5 11.5q-25 0 -44.5 -16t-26.5 -44l-62 7q30 106 137 106q51 0 80 -24t29 -67q0 -37 -19.5 -63t-68.5 -65l-98 -78h150l-10 -59h-244zM798 108q0 -50 -37.5 -82.5t-100.5 -32.5
q-52 0 -85 28t-37 69l63 11q2 -24 19.5 -38t44.5 -14q71 0 71 63q0 44 -61 44h-38l10 52h35q31 0 52 13.5t21 40.5q0 17 -15.5 27.5t-35.5 10.5q-46 0 -63 -44l-63 11q34 89 131 89q44 0 75.5 -22.5t31.5 -60.5q0 -70 -74 -89q26 -7 41 -27.5t15 -48.5zM168 -28l571 792
l49 -33l-571 -792z" />
    <glyph glyph-name="oneeighth" unicode="&#x215b;" horiz-adv-x="727" 
d="M560 -6q-53 0 -88 25.5t-35 67.5q0 39 23.5 64.5t61.5 34.5q-47 16 -47 63q0 52 41.5 79.5t98.5 27.5q48 0 81.5 -23t33.5 -61q0 -67 -73 -87q25 -7 40.5 -26t15.5 -45q0 -56 -44.5 -88t-108.5 -32zM593 206q29 0 50.5 14.5t21.5 41.5q0 38 -55 38q-27 0 -49.5 -13.5
t-22.5 -40.5q0 -19 16 -29.5t39 -10.5zM565 51q31 0 57.5 15.5t26.5 45.5q0 19 -17 30.5t-48 11.5q-39 0 -61 -17.5t-22 -43.5q0 -42 64 -42zM159 638l-73 -36l-19 48l102 50h63l-61 -350h-63zM88 -28l571 792l49 -33l-571 -792z" />
    <glyph glyph-name="threeeighths" unicode="&#x215c;" horiz-adv-x="749" 
d="M583 -6q-53 0 -88 25.5t-35 67.5q0 39 23.5 64.5t61.5 34.5q-47 16 -47 63q0 52 41.5 79.5t98.5 27.5q48 0 81.5 -23t33.5 -61q0 -67 -73 -87q25 -7 40.5 -26t15.5 -45q0 -56 -44.5 -88t-108.5 -32zM616 206q29 0 50.5 14.5t21.5 41.5q0 38 -55 38q-27 0 -49.5 -13.5
t-22.5 -40.5q0 -19 16 -29.5t39 -10.5zM588 51q31 0 57.5 15.5t26.5 45.5q0 19 -17 30.5t-48 11.5q-39 0 -61 -17.5t-22 -43.5q0 -42 64 -42zM290 458q0 -50 -37.5 -82.5t-100.5 -32.5q-52 0 -85 28t-37 69l63 11q2 -24 19.5 -38t44.5 -14q71 0 71 63q0 44 -61 44h-38l10 52
h35q31 0 52 13.5t21 40.5q0 17 -15.5 27.5t-35.5 10.5q-46 0 -63 -44l-63 11q34 89 131 89q44 0 75.5 -22.5t31.5 -60.5q0 -70 -74 -89q26 -7 41 -27.5t15 -48.5zM111 -28l571 792l49 -33l-571 -792z" />
    <glyph glyph-name="fiveeighths" unicode="&#x215d;" horiz-adv-x="781" 
d="M614 -6q-53 0 -88 25.5t-35 67.5q0 39 23.5 64.5t61.5 34.5q-47 16 -47 63q0 52 41.5 79.5t98.5 27.5q48 0 81.5 -23t33.5 -61q0 -67 -73 -87q25 -7 40.5 -26t15.5 -45q0 -56 -44.5 -88t-108.5 -32zM647 206q29 0 50.5 14.5t21.5 41.5q0 38 -55 38q-27 0 -49.5 -13.5
t-22.5 -40.5q0 -19 16 -29.5t39 -10.5zM619 51q31 0 57.5 15.5t26.5 45.5q0 19 -17 30.5t-48 11.5q-39 0 -61 -17.5t-22 -43.5q0 -42 64 -42zM36 428l58 21q10 -48 56 -48q34 0 55.5 24.5t21.5 57.5q0 50 -52 50q-35 0 -76 -25l-31 21l38 171h207l-10 -56h-149l-15 -68
q24 9 50 9q47 0 75 -27.5t28 -72.5q0 -57 -41 -99t-108 -42q-45 0 -73.5 24t-33.5 60zM142 -28l571 792l49 -33l-571 -792z" />
    <glyph glyph-name="seveneighths" unicode="&#x215e;" horiz-adv-x="710" 
d="M544 -6q-53 0 -88 25.5t-35 67.5q0 39 23.5 64.5t61.5 34.5q-47 16 -47 63q0 52 41.5 79.5t98.5 27.5q48 0 81.5 -23t33.5 -61q0 -67 -73 -87q25 -7 40.5 -26t15.5 -45q0 -56 -44.5 -88t-108.5 -32zM577 206q29 0 50.5 14.5t21.5 41.5q0 38 -55 38q-27 0 -49.5 -13.5
t-22.5 -40.5q0 -19 16 -29.5t39 -10.5zM549 51q31 0 57.5 15.5t26.5 45.5q0 19 -17 30.5t-48 11.5q-39 0 -61 -17.5t-22 -43.5q0 -42 64 -42zM72 -28l571 792l49 -33l-571 -792zM58 644l9 56h249l-9 -52l-189 -298h-67l187 294h-180z" />
    <glyph glyph-name="partialdiff" unicode="&#x2202;" horiz-adv-x="621" 
d="M270 61q95 0 153 61t58 153q0 64 -42 104.5t-111 40.5q-88 0 -149.5 -61t-61.5 -152q0 -64 42.5 -105t110.5 -41zM323 490q75 0 121 -35l-124 245h86l104 -208q57 -114 57 -210q0 -127 -81.5 -209.5t-220.5 -82.5q-106 0 -168.5 61.5t-62.5 154.5q0 116 82.5 200
t206.5 84z" />
    <glyph glyph-name="Delta" unicode="&#x2206;" horiz-adv-x="708" 
d="M507 76l-107 521h-2l-299 -521h408zM612 0h-649l412 703h82z" />
    <glyph glyph-name="product" unicode="&#x220f;" horiz-adv-x="677" 
d="M503 -103h-85l127 724h-318l-127 -724h-84l141 803h487z" />
    <glyph glyph-name="summation" unicode="&#x2211;" horiz-adv-x="565" 
d="M364 300l-240 -325h340l-13 -78h-447l11 67l257 341l-137 327l12 68h443l-13 -78h-348z" />
    <glyph glyph-name="minus" unicode="&#x2212;" horiz-adv-x="606" 
d="M548 261h-500l14 79h500z" />
    <glyph glyph-name="uni2215" unicode="&#x2215;" horiz-adv-x="224" 
d="M-143 -28l571 792l49 -33l-571 -792z" />
    <glyph glyph-name="uni2219" unicode="&#x2219;" horiz-adv-x="260" 
d="M203 301q0 -25 -18.5 -43.5t-43.5 -18.5t-43.5 18.5t-18.5 43.5t18.5 43t43.5 18t43.5 -18t18.5 -43z" />
    <glyph glyph-name="radical" unicode="&#x221a;" horiz-adv-x="637" 
d="M226 501l52 -380l298 579h83l-364 -700h-67l-69 429h-107l12 72h162z" />
    <glyph glyph-name="infinity" unicode="&#x221e;" horiz-adv-x="811" 
d="M256 504q84 0 149 -129q40 59 91 94t102 35q68 0 114.5 -41.5t46.5 -110.5q0 -90 -56.5 -152t-148.5 -62q-89 0 -157 125q-36 -59 -85 -92.5t-99 -33.5q-67 0 -114 43.5t-47 111.5q0 91 56 151.5t148 60.5zM556 209q51 0 87.5 41.5t36.5 96.5q0 40 -22.5 63t-62.5 23
q-80 0 -154 -114q28 -54 53 -82t62 -28zM359 319q-21 40 -32 58t-31 37t-41 19q-52 0 -87.5 -39.5t-35.5 -96.5q0 -40 23.5 -64t60.5 -24q72 0 143 110z" />
    <glyph glyph-name="integral" unicode="&#x222b;" horiz-adv-x="324" 
d="M261 578l-100 -567q-11 -62 -40 -88t-86 -26h-58l14 77h39q41 0 50 45l99 567q11 61 42.5 87.5t90.5 26.5h51l-14 -77h-39q-42 0 -49 -45z" />
    <glyph glyph-name="approxequal" unicode="&#x2248;" horiz-adv-x="613" 
d="M420 404q52 0 110 50l36 -56q-67 -73 -154 -73q-37 0 -103.5 23.5t-91.5 23.5q-49 0 -110 -51l-36 56q70 74 155 74q36 0 103 -23.5t91 -23.5zM391 239q52 0 110 50l36 -56q-67 -73 -154 -73q-37 0 -103.5 23t-90.5 23q-52 0 -111 -50l-36 56q69 73 155 73q37 0 103 -23
t91 -23z" />
    <glyph glyph-name="notequal" unicode="&#x2260;" horiz-adv-x="629" 
d="M79 344l14 80h289l133 146l50 -44l-94 -102h110l-14 -80h-169l-84 -90h236l-14 -80h-295l-133 -147l-50 44l95 103h-105l14 80h163l83 90h-229z" />
    <glyph glyph-name="lessequal" unicode="&#x2264;" horiz-adv-x="608" 
d="M482 0h-462l13 79h463zM179 328l336 -137l-13 -74l-431 176l14 77l493 177l-14 -83z" />
    <glyph glyph-name="greaterequal" unicode="&#x2265;" horiz-adv-x="608" 
d="M487 0h-462l13 79h462zM59 198l383 137l-335 136l14 76l431 -177l-14 -77l-493 -176z" />
    <glyph glyph-name="lozenge" unicode="&#x25ca;" horiz-adv-x="606" 
d="M554 346l-316 -359l-185 359l312 359zM469 356l-120 227l-212 -246l117 -227z" />
    <glyph glyph-name="commaaccent" unicode="&#xf6c3;" horiz-adv-x="296" 
d="M169 -94q0 -27 -19 -50l-102 -131h-46l70 126q-26 21 -26 51q0 25 18.5 43t43.5 18q27 0 44 -16.5t17 -40.5z" />
    <glyph glyph-name="idotaccent" horiz-adv-x="246" 
d="M23 0l88 501h81l-88 -501h-81zM236 646q0 -25 -18 -42.5t-42 -17.5q-25 0 -42.5 17.5t-17.5 42.5q0 24 17.5 41.5t42.5 17.5q24 0 42 -17.5t18 -41.5z" />
    <glyph glyph-name="zero.tnum" 
d="M279 -10q-106 0 -165 81t-59 214q0 52 10 108t33.5 113t57 102t85 73.5t113.5 28.5q105 0 165 -82.5t60 -215.5q0 -67 -17.5 -137t-51.5 -135.5t-94.5 -107.5t-136.5 -42zM280 66q57 0 101 36t68 92.5t35.5 113.5t11.5 109q0 95 -38.5 156t-106.5 61q-46 0 -83.5 -24.5
t-61 -62.5t-40 -85.5t-23 -92.5t-6.5 -85q0 -94 38 -156t105 -62z" />
    <glyph glyph-name="one.tnum" 
d="M100 78h151l95 537l-149 -53l-23 72l188 66h83l-110 -622h151l-14 -78h-385z" />
    <glyph glyph-name="two.tnum" 
d="M43 75l268 219q38 30 58.5 49t53.5 53.5t49 69.5t16 70q0 46 -31 71.5t-86 25.5q-59 0 -102 -32.5t-63 -91.5l-82 13q27 83 92 135.5t160 52.5q91 0 145 -43.5t54 -123.5q0 -31 -7.5 -60.5t-26 -57.5l-33 -48.5t-46.5 -49l-48 -42l-54 -44.5l-201 -164h339l-13 -77h-455z
" />
    <glyph glyph-name="three.tnum" 
d="M45 171l87 16q20 -121 139 -121q74 0 125 43t51 109q0 110 -149 110h-60l13 73h58q64 0 114 37t50 100q0 44 -32 70t-90 26q-110 0 -155 -108l-83 16q67 168 244 168q90 0 145 -43t55 -123q0 -70 -42 -115t-104 -61q119 -35 119 -147q0 -99 -74 -165t-188 -66
q-100 0 -156.5 52t-66.5 129z" />
    <glyph glyph-name="four.tnum" 
d="M545 164h-102l-28 -164h-84l29 164h-326l13 76l395 460h96l-82 -465h102zM373 235l61 348l-299 -348h238z" />
    <glyph glyph-name="five.tnum" 
d="M154 334l-42 25l62 341h391l-15 -77h-309l-33 -190q62 23 119 23q91 0 151 -55t60 -150q0 -110 -73.5 -185.5t-194.5 -75.5q-89 0 -143 43.5t-72 111.5l81 24q12 -49 48 -76t91 -27q80 0 130 52t50 126q0 62 -36.5 100.5t-100.5 38.5q-45 0 -77 -10.5t-87 -38.5z" />
    <glyph glyph-name="six.tnum" 
d="M281 66q82 0 133 48t51 129q0 64 -40.5 97.5t-109.5 33.5q-80 0 -131.5 -47t-51.5 -127q0 -62 40 -98t109 -36zM122 403l238 297h98l-218 -269l1 -1q41 17 86 17q95 0 159 -55.5t64 -146.5q0 -109 -73.5 -182t-196.5 -73q-107 0 -171 60t-64 147q0 111 77 206z" />
    <glyph glyph-name="seven.tnum" 
d="M608 628l-415 -628h-94l412 622h-393l14 78h488z" />
    <glyph glyph-name="eight.tnum" 
d="M275 -10q-107 0 -168.5 47.5t-61.5 135.5q0 72 45 128t117 69v2q-41 15 -67.5 50.5t-26.5 86.5q0 95 69.5 148t173.5 53q96 0 154 -44t58 -126q0 -61 -38 -107t-100 -63v-2q113 -43 113 -155q0 -105 -76.5 -164t-191.5 -59zM276 65q77 0 131.5 40t54.5 114q0 50 -39 80
t-111 30t-129 -39t-57 -110q0 -115 150 -115zM322 398q64 0 114 37.5t50 101.5q0 47 -34.5 72.5t-96.5 25.5q-64 0 -112.5 -35t-48.5 -101q0 -49 37 -75t91 -26z" />
    <glyph glyph-name="nine.tnum" 
d="M358 634q-81 0 -132 -48t-51 -129q0 -64 40.5 -97.5t109.5 -33.5q79 0 131 47.5t52 126.5q0 62 -40 98t-110 36zM594 503q0 -111 -76 -206l-239 -297h-98l219 269l-1 1q-41 -17 -86 -17q-95 0 -159.5 55.5t-64.5 146.5q0 108 74 181.5t197 73.5q107 0 170.5 -60
t63.5 -147z" />
    <glyph glyph-name="Euro.tnum" 
d="M50 451h87q36 120 113 189.5t177 69.5q143 0 191 -109l-71 -45q-41 77 -122 77q-62 0 -119 -50t-81 -132h267l-10 -59h-274q-6 -21 -9 -42l-5 -44h273l-11 -59h-265q0 -180 129 -180q103 0 178 90l57 -48q-98 -119 -240 -119q-106 0 -161 74.5t-51 182.5h-89l11 59h82
l5 44q2 12 8 42h-80z" />
    <glyph glyph-name="dollar.tnum" 
d="M214 -90l17 94q-118 19 -196 117l63 53q23 -33 62 -61t83 -36l44 247q-87 28 -129 70t-42 105q0 93 66.5 146t171.5 55l13 73h54l-14 -77q114 -15 179 -100l-67 -51q-18 28 -51 49.5t-74 28.5l-43 -240q188 -59 188 -180q0 -93 -74 -147.5t-181 -55.5l-16 -90h-54z
M456 199q0 67 -118 108l-41 -233q70 4 114.5 34t44.5 91zM199 504q0 -65 101 -103l40 224q-60 -3 -100.5 -33t-40.5 -88z" />
    <glyph glyph-name="sterling.tnum" horiz-adv-x="624" 
d="M608 643l-56 -56q-45 48 -109 48q-127 0 -157 -166l-13 -74h185l-12 -71h-186l-44 -250h262l-13 -74h-438l12 74h94l44 250h-94l12 71h94l15 84q42 231 238 231q101 0 166 -67z" />
    <glyph glyph-name="florin.tnum" 
d="M91 351h136l80 200q30 77 78 118t123 41q51 0 88 -15l-22 -68q-33 12 -66 12q-83 0 -125 -104l-74 -184h232l-12 -70h-247l-187 -471h-82l187 471h-121z" />
    <glyph glyph-name="yen.tnum" 
d="M42 245h201l10 51l-17 37h-178l10 59h142l-138 308h95l140 -321h2l252 321h101l-248 -308h147l-10 -59h-185l-29 -36l-10 -52h208l-10 -59h-208l-33 -186h-84l33 186h-201z" />
    <glyph glyph-name="cent.tnum" 
d="M217 -114l21 119q-79 14 -127 71t-48 142q0 118 76 199.5t187 83.5l17 98h53l-18 -102q98 -16 154 -90l-58 -46q-45 54 -109 65l-63 -355q79 3 147 68l45 -51q-86 -88 -204 -88l-20 -114h-53zM144 218q0 -57 29 -93.5t77 -48.5l63 353q-70 -6 -119.5 -66t-49.5 -145z" />
    <glyph glyph-name="space.tnum" horiz-adv-x="317" 
 />
    <glyph glyph-name="comma.tnum" horiz-adv-x="317" 
d="M164 61q0 -22 -20 -49l-101 -131h-47l71 126q-26 20 -26 51q0 25 18.5 43t43.5 18q27 0 44 -16.5t17 -41.5z" />
    <glyph glyph-name="semicolon.tnum" horiz-adv-x="317" 
d="M232 450q0 -25 -18.5 -43.5t-43.5 -18.5q-26 0 -44 18t-18 44q0 25 18.5 43t43.5 18t43.5 -18t18.5 -43zM164 61q0 -22 -20 -49l-101 -131h-47l71 126q-26 20 -26 51q0 25 18.5 43t43.5 18q27 0 44 -16.5t17 -41.5z" />
    <glyph glyph-name="colon.tnum" horiz-adv-x="317" 
d="M163 58q0 -25 -18.5 -43.5t-43.5 -18.5t-43.5 18t-18.5 44q0 25 18.5 43t43.5 18t43.5 -18t18.5 -43zM232 450q0 -25 -18.5 -43.5t-43.5 -18.5q-26 0 -44 18t-18 44q0 25 18.5 43t43.5 18t43.5 -18t18.5 -43z" />
    <glyph glyph-name="period.tnum" horiz-adv-x="317" 
d="M164 58q0 -25 -18.5 -43.5t-43.5 -18.5q-26 0 -44 18t-18 44q0 25 18.5 43t43.5 18t43.5 -18t18.5 -43z" />
    <glyph glyph-name="parenleft.tnum" horiz-adv-x="317" 
d="M230 -117l-66 -38q-98 168 -98 359q0 257 223 521l60 -41q-204 -232 -204 -485q0 -175 85 -316z" />
    <glyph glyph-name="parenright.tnum" horiz-adv-x="317" 
d="M39 -159l-57 45q202 230 202 489q0 166 -86 311l68 39q98 -170 98 -353q0 -140 -61 -276.5t-164 -254.5z" />
    <glyph glyph-name="bracketleft.tnum" horiz-adv-x="317" 
d="M4 -160l157 890h183l-12 -66h-103l-133 -758h103l-12 -66h-183z" />
    <glyph glyph-name="bracketright.tnum" horiz-adv-x="317" 
d="M312 730l-157 -890h-182l12 66h102l133 758h-103l12 66h183z" />
    <glyph glyph-name="braceleft.tnum" horiz-adv-x="317" 
d="M196 -160h-40q-38 0 -65 24.5t-27 75.5q0 22 4 43l27 157q3 14 3 30q0 39 -19 60t-48 21l12 66q34 0 64 30t39 81l32 180q11 61 42.5 91.5t73.5 30.5h58l-12 -65h-24q-52 0 -65 -81l-31 -174q-11 -60 -44.5 -91.5t-62.5 -37.5l-1 -3q23 -3 44 -27t21 -70q0 -15 -3 -35
l-29 -162q-2 -20 -2 -28q0 -51 40 -51h25z" />
    <glyph glyph-name="braceright.tnum" horiz-adv-x="317" 
d="M15 -160h-56l12 65h22q51 0 65 79l31 175q12 65 45.5 96t61.5 34l1 3q-21 4 -43 29t-22 70q0 13 3 31l29 162q3 15 3 30q0 51 -41 51h-24l12 65h42q38 0 65.5 -23t27.5 -68q0 -15 -3 -33l-32 -178q-3 -15 -3 -29q0 -39 19.5 -60.5t47.5 -21.5l-12 -66q-34 0 -63.5 -30
t-38.5 -81l-29 -159q-26 -141 -120 -141z" />
    <glyph glyph-name="section.tnum" 
d="M229 -138q-101 0 -185 86l56 50q57 -68 136 -68q56 0 95.5 23.5t39.5 70.5q0 9 -2 16.5t-7.5 14.5l-10 12.5t-14.5 11.5l-16 9.5t-19.5 9t-20 8.5t-22 9t-21.5 8q-30 12 -50 23t-41.5 28t-32.5 40.5t-11 52.5q0 58 39.5 99.5t99.5 57.5q-79 43 -79 119q0 79 60 123
t152 44q104 0 177 -71l-57 -49q-47 52 -123 52q-56 0 -91.5 -26t-35.5 -67q0 -16 8 -30t15.5 -22.5t29 -19.5t30 -14t37.5 -14q9 -3 13 -5q30 -11 50 -21t41.5 -26t32 -38.5t10.5 -51.5q0 -57 -37.5 -99t-102.5 -61q34 -19 58 -50t24 -70q0 -77 -63.5 -121t-161.5 -44z
M317 374q-48 0 -90.5 -25.5t-42.5 -72.5q0 -36 34.5 -57t81.5 -21q54 0 94 27.5t40 69.5q0 37 -34 58t-83 21z" />
    <glyph glyph-name="numbersign.tnum" 
d="M263 0l69 219h-122l-69 -219h-72l69 219h-96l13 70h105l44 142h-94l13 70h103l63 199h72l-63 -199h122l63 199h72l-63 -199h103l-13 -70h-112l-44 -142h101l-13 -70h-110l-69 -219h-72zM276 431l-44 -142h122l44 142h-122z" />
    <glyph glyph-name="percent.tnum" 
d="M18 0l550 700h66l-549 -700h-67zM187 414q-48 0 -77 36t-29 91q0 63 36.5 114t99.5 51q48 0 77.5 -36.5t29.5 -92.5q0 -63 -37.5 -113t-99.5 -50zM193 466q34 0 53.5 34.5t19.5 77.5q0 36 -15 56t-39 20q-35 0 -54.5 -34.5t-19.5 -78.5q0 -35 15 -55t40 -20zM428 -6
q-48 0 -77 35.5t-29 91.5q0 63 36.5 114t99.5 51q48 0 77.5 -37t29.5 -92q0 -63 -37.5 -113t-99.5 -50zM433 46q35 0 54 34.5t19 79.5q0 36 -15 55t-38 19q-35 0 -55 -34.5t-20 -77.5q0 -36 15.5 -56t39.5 -20z" />
    <glyph glyph-name="perthousand.tnum" 
d="M-58 0l467 700h56l-467 -700h-56zM474 -6q-40 0 -64 34.5t-24 88.5q0 69 34.5 116.5t83.5 47.5q39 0 63 -34.5t24 -86.5q0 -72 -33.5 -119t-83.5 -47zM479 42q25 0 44 32.5t19 85.5q0 34 -12 53.5t-31 19.5q-25 0 -45 -32t-20 -83q0 -36 12 -56t33 -20zM248 -6
q-40 0 -64 34.5t-24 88.5q0 69 34.5 116.5t83.5 47.5q39 0 63 -34.5t24 -86.5q0 -72 -33.5 -119t-83.5 -47zM253 42q25 0 44 32.5t19 85.5q0 34 -12 53.5t-31 19.5q-25 0 -45 -32t-20 -83q0 -36 12 -56t33 -20zM123 419q-40 0 -63.5 34t-23.5 87q0 71 33.5 118.5t83.5 47.5
q40 0 64 -35t24 -89q0 -70 -34.5 -116.5t-83.5 -46.5zM128 467q24 0 44 31.5t20 83.5q0 36 -12 56t-31 20q-26 0 -45.5 -32.5t-19.5 -85.5q0 -34 12.5 -53.5t31.5 -19.5z" />
    <glyph glyph-name="plus.tnum" 
d="M555 261h-222l-39 -221h-80l38 221h-222l15 79h221l39 222h81l-39 -222h222z" />
    <glyph glyph-name="minus.tnum" 
d="M555 261h-500l15 79h500z" />
    <glyph glyph-name="divide.tnum" 
d="M516 264h-426l13 74h427zM335 104q0 -25 -18.5 -43.5t-43.5 -18.5t-43.5 18t-18.5 44q0 25 18.5 43t43.5 18t43.5 -18t18.5 -43zM405 501q0 -25 -18.5 -43.5t-43.5 -18.5t-43.5 18.5t-18.5 43.5q0 24 18.5 42.5t43.5 18.5t43.5 -18.5t18.5 -42.5z" />
    <glyph glyph-name="multiply.tnum" 
d="M533 437l-161 -136l113 -137l-63 -53l-112 136l-166 -141l-53 65l166 141l-107 130l63 53l106 -131l162 138z" />
    <glyph glyph-name="equal.tnum" 
d="M87 344l14 80h485l-14 -80h-485zM56 174l14 80h485l-14 -80h-485z" />
    <glyph glyph-name="less.tnum" 
d="M519 40l-476 216l16 88l552 216l-15 -88l-454 -176l392 -176z" />
    <glyph glyph-name="greater.tnum" 
d="M570 256l-551 -216l16 89l454 176l-393 176l14 78l476 -215z" />
    <glyph glyph-name="degree.tnum" horiz-adv-x="317" 
d="M331 581q0 -59 -43.5 -98t-101.5 -39q-50 0 -83.5 33t-33.5 84q0 57 42 98t103 41q50 0 83.5 -34t33.5 -85zM279 579q0 30 -20 51.5t-50 21.5q-34 0 -60.5 -27t-26.5 -62q0 -30 19.5 -50.5t50.5 -20.5q34 0 60 26.5t27 60.5z" />
    <glyph glyph-name="zero.onum" horiz-adv-x="589" 
d="M261 65q74 0 127 61t53 150q0 70 -39 115t-101 45q-73 0 -127 -61t-54 -150q0 -70 40 -115t101 -45zM523 275q0 -112 -75 -198.5t-194 -86.5q-100 0 -157.5 69t-57.5 166q0 113 74 199.5t195 86.5q100 0 157.5 -69.5t57.5 -166.5z" />
    <glyph glyph-name="one.onum" horiz-adv-x="357" 
d="M189 408l-126 -63l-25 66l178 90h72l-88 -501h-83z" />
    <glyph glyph-name="two.onum" horiz-adv-x="535" 
d="M173 72h259l-12 -72h-407l10 62l240 148q76 46 100.5 80t24.5 70q0 32 -23.5 54.5t-71.5 22.5q-44 0 -83 -28.5t-62 -74.5l-78 18q32 69 92.5 114t139.5 45t124 -41.5t45 -101.5q0 -67 -37.5 -114.5t-128.5 -101.5z" />
    <glyph glyph-name="three.onum" horiz-adv-x="513" 
d="M449 368q0 -66 -42 -111.5t-102 -61.5q45 -14 73.5 -48t28.5 -85q0 -98 -73 -162.5t-173 -64.5q-60 0 -109 26t-74 66l63 48q43 -66 121 -66q58 0 109 43.5t51 107.5q0 47 -33.5 72.5t-86.5 25.5h-60l13 71h64q55 0 100.5 40t45.5 91q0 36 -26 56.5t-72 20.5
q-77 0 -140 -86l-65 38q86 122 216 122q77 0 124 -40t47 -103z" />
    <glyph glyph-name="four.onum" horiz-adv-x="548" 
d="M472 0h-103l-28 -155h-81l28 155h-292l14 77l360 424h87l-76 -429h103zM300 72l54 299l-251 -299h197z" />
    <glyph glyph-name="five.onum" horiz-adv-x="520" 
d="M123 501h330l-13 -72h-257l-40 -176q49 23 109 23q79 0 130.5 -47t51.5 -129q0 -108 -72 -186.5t-187 -78.5q-59 0 -108 25.5t-76 65.5l65 46q18 -27 50.5 -44.5t70.5 -17.5q72 0 121.5 56t49.5 127q0 54 -31 82.5t-85 28.5q-43 0 -69.5 -9t-75.5 -36l-36 26z" />
    <glyph glyph-name="six.onum" horiz-adv-x="577" 
d="M35 171q0 107 108 236l212 253h93l-212 -252l1 -1q36 17 81 17q78 0 131.5 -51t53.5 -130q0 -102 -78 -177.5t-186 -75.5q-92 0 -148 53t-56 128zM243 64q71 0 123.5 51t52.5 125q0 53 -32 84.5t-87 31.5q-75 0 -128 -50.5t-53 -128.5q0 -52 33.5 -82.5t90.5 -30.5z" />
    <glyph glyph-name="seven.onum" horiz-adv-x="503" 
d="M485 427l-391 -587h-91l391 588h-335l13 73h426z" />
    <glyph glyph-name="eight.onum" horiz-adv-x="592" 
d="M238 -10q-92 0 -150.5 45.5t-58.5 122.5q0 69 42.5 119t113.5 71v1q-35 15 -56 46.5t-21 71.5q0 91 68 144.5t167 53.5q85 0 137.5 -41t52.5 -113q0 -58 -35 -102.5t-94 -68.5v-1q45 -13 72 -48.5t27 -85.5q0 -98 -78 -156.5t-187 -58.5zM299 374q59 0 106 35.5t47 96.5
q0 41 -30.5 64.5t-84.5 23.5q-59 0 -105 -36t-46 -95q0 -42 32.5 -65.5t80.5 -23.5zM244 62q67 0 121.5 39t54.5 105q0 44 -36.5 71.5t-96.5 27.5q-67 0 -121 -38t-54 -103q0 -48 36.5 -75t95.5 -27z" />
    <glyph glyph-name="nine.onum" horiz-adv-x="562" 
d="M503 330q0 -64 -27.5 -118t-81.5 -118l-212 -254h-92l211 253l-1 1q-36 -17 -81 -17q-78 0 -131.5 51t-53.5 130q0 102 78.5 177.5t186.5 75.5q91 0 147.5 -53t56.5 -128zM294 437q-71 0 -123.5 -51t-52.5 -124q0 -54 32 -85.5t87 -31.5q75 0 128.5 50.5t53.5 128.5
q0 52 -34 82.5t-91 30.5z" />
    <glyph glyph-name="Euro.onum" horiz-adv-x="586" 
d="M467 130l46 -51q-87 -89 -206 -89q-90 0 -150.5 47.5t-77.5 128.5h-85l11 59h70q0 31 6 59h-66l11 59h73q32 76 98 122t150 46q134 0 203 -95l-57 -46q-60 70 -147 70q-80 0 -134.5 -65t-54.5 -157q0 -71 42.5 -114t112.5 -43q83 0 155 69z" />
    <glyph glyph-name="dollar.onum" horiz-adv-x="514" 
d="M173 -72l12 72q-111 9 -181 83l50 55q23 -25 61.5 -44t82.5 -23l26 150q-152 39 -152 129q0 66 52.5 106.5t148.5 43.5l13 71h54l-12 -70q105 -10 159 -67l-52 -54q-40 47 -120 53l-27 -155q80 -22 118 -53t38 -77q0 -62 -54.5 -101.5t-150.5 -46.5l-12 -72h-54zM156 354
q0 -41 81 -64l24 143q-40 -2 -72.5 -21t-32.5 -58zM362 143q0 22 -19.5 37t-66.5 29l-24 -139q110 8 110 73z" />
    <glyph glyph-name="sterling.onum" horiz-adv-x="566" 
d="M460 0h-459l12 72h92l24 131h-92l11 69h92l8 40q18 93 77.5 146t153.5 53q45 0 77.5 -10.5t47.5 -22.5t37 -35l-49 -54q-46 49 -113 49q-125 0 -149 -133l-6 -33h207l-11 -69h-207l-24 -131h283z" />
    <glyph glyph-name="florin.onum" horiz-adv-x="454" 
d="M80 299h73l17 49q57 163 194 163q54 0 88 -16l-22 -68q-30 13 -64 13q-44 0 -73.5 -24t-49.5 -83l-12 -34h142l-13 -70h-153l-134 -390h-78l134 390h-62z" />
    <glyph glyph-name="yen.onum" horiz-adv-x="658" 
d="M105 501h85l117 -236h2l199 236h94l-179 -209h113l-10 -59h-153l-34 -40l-3 -18h179l-10 -59h-179l-21 -116h-83l21 116h-178l10 59h178l3 18l-19 40h-151l10 59h112z" />
    <glyph glyph-name="cent.onum" horiz-adv-x="551" 
d="M423 130l45 -51q-87 -87 -202 -88h-7l-18 -105h-53l19 111q-81 16 -128 75.5t-47 145.5q0 120 75 204.5t190 87.5l16 89h53l-16 -93q97 -14 156 -90l-58 -46q-45 53 -111 66l-65 -374q80 1 151 68zM113 218q0 -58 28.5 -97.5t78.5 -52.5l65 370q-74 -7 -123 -70t-49 -150
z" />
    <glyph glyph-name="space.onum" horiz-adv-x="295" 
 />
    <glyph glyph-name="comma.onum" horiz-adv-x="252" 
d="M143 61q0 -21 -19 -49l-102 -131h-46l70 126q-26 21 -26 51q0 25 18.5 43t43.5 18q27 0 44 -16.5t17 -41.5z" />
    <glyph glyph-name="semicolon.onum" horiz-adv-x="252" 
d="M201 432q0 -25 -18.5 -43.5t-43.5 -18.5t-43.5 18t-18.5 44q0 25 18.5 43t43.5 18t43.5 -18t18.5 -43zM134 61q0 -21 -19 -49l-101 -131h-47l71 126q-27 20 -27 51q0 25 18.5 43t43.5 18q28 0 44.5 -16.5t16.5 -41.5z" />
    <glyph glyph-name="colon.onum" horiz-adv-x="252" 
d="M133 58q0 -25 -18.5 -43.5t-42.5 -18.5q-26 0 -44 18t-18 44q0 25 18.5 43t43.5 18q24 0 42.5 -18t18.5 -43zM201 432q0 -25 -18.5 -43.5t-43.5 -18.5t-43.5 18t-18.5 44q0 25 18.5 43t43.5 18t43.5 -18t18.5 -43z" />
    <glyph glyph-name="period.onum" horiz-adv-x="252" 
d="M134 58q0 -25 -18.5 -43.5t-43.5 -18.5q-26 0 -44 18t-18 44q0 25 18.5 43t43.5 18t43.5 -18t18.5 -43z" />
    <glyph glyph-name="parenleft.onum" horiz-adv-x="343" 
d="M209 -149l-65 -37q-99 168 -99 358q0 256 223 522l61 -42q-204 -232 -204 -485q0 -174 84 -316z" />
    <glyph glyph-name="parenright.onum" horiz-adv-x="343" 
d="M48 -191l-58 45q95 108 149 233.5t54 255.5q0 166 -86 311l67 40q99 -174 99 -353q0 -141 -61 -277.5t-164 -254.5z" />
    <glyph glyph-name="bracketleft.onum" horiz-adv-x="340" 
d="M-1 -190l158 890h183l-12 -66h-103l-133 -758h103l-12 -66h-184z" />
    <glyph glyph-name="bracketright.onum" horiz-adv-x="340" 
d="M308 700l-157 -890h-183l12 66h103l133 758h-104l12 66h184z" />
    <glyph glyph-name="braceleft.onum" horiz-adv-x="370" 
d="M205 -190h-58q-38 0 -65 24.5t-27 75.5q0 22 4 43l27 157q3 13 3 30q0 39 -19 60t-48 21l12 66q34 0 64 30t39 81l32 180q11 61 42.5 91.5t73.5 30.5h76l-12 -65h-42q-51 0 -65 -81l-31 -174q-11 -60 -44.5 -91.5t-62.5 -37.5l-1 -3q23 -3 44 -27t21 -70q0 -15 -3 -35
l-29 -162q-2 -20 -2 -28q0 -51 40 -51h43z" />
    <glyph glyph-name="braceright.onum" horiz-adv-x="370" 
d="M52 -190h-74l12 65h40q51 0 65 79l31 175q12 65 45.5 96t61.5 34l1 3q-21 4 -43 29t-22 70q0 13 3 31l29 162q3 15 3 30q0 51 -41 51h-42l12 65h60q38 0 65.5 -23t27.5 -68q0 -15 -3 -33l-32 -178q-3 -15 -3 -29q0 -39 19.5 -60.5t47.5 -21.5l-12 -66q-34 0 -63.5 -30
t-38.5 -81l-29 -159q-26 -141 -120 -141z" />
    <glyph glyph-name="section.onum" horiz-adv-x="559" 
d="M190 -167q-101 0 -185 86l56 50q56 -68 135 -68q57 0 96 23t39 71q0 9 -2 16.5t-7.5 14.5l-10 12.5t-14.5 11.5l-15.5 9.5t-19 9l-19.5 8l-22 9t-22 8.5q-30 12 -50 22.5t-41.5 27.5t-32.5 40.5t-11 53.5q0 58 39.5 99.5t99.5 57.5q-79 43 -79 119q0 79 60 123t152 44
q104 0 177 -71l-57 -49q-46 51 -123 51q-56 0 -91.5 -25.5t-35.5 -66.5q0 -16 8 -30t15.5 -22.5t29 -19.5t30 -14t37.5 -14q9 -3 13 -5q30 -11 50 -21t41.5 -26t32 -38.5t10.5 -51.5q0 -57 -37.5 -99.5t-102.5 -60.5q81 -46 81 -121q0 -76 -63.5 -120t-160.5 -44zM278 345
q-48 0 -90.5 -25.5t-42.5 -72.5q0 -36 34.5 -57t81.5 -21q54 0 94 27.5t40 69.5q0 37 -34 58t-83 21z" />
    <glyph glyph-name="numbersign.onum" horiz-adv-x="566" 
d="M238 0l50 145h-106l-50 -145h-71l51 145h-81l11 65h93l32 96h-81l12 66h93l46 129h69l-45 -129h106l45 129h70l-45 -129h87l-11 -66h-100l-32 -96h88l-12 -65h-99l-50 -145h-70zM237 306l-32 -96h106l32 96h-106z" />
    <glyph glyph-name="percent.onum" horiz-adv-x="702" 
d="M75 0l448 501h66l-448 -501h-66zM158 220q-48 0 -77 35t-29 89q0 70 39 116.5t97 46.5q47 0 76 -36t29 -90q0 -70 -39.5 -115.5t-95.5 -45.5zM162 271q29 0 51 29.5t22 80.5q0 35 -15 55t-38 20q-30 0 -51.5 -30.5t-21.5 -81.5q0 -34 15 -53.5t38 -19.5zM473 -6
q-48 0 -76.5 35t-28.5 89q0 70 38.5 116.5t96.5 46.5q47 0 76.5 -36.5t29.5 -91.5q0 -68 -40 -113.5t-96 -45.5zM478 45q29 0 51 29.5t22 80.5q0 35 -15 55t-38 20q-30 0 -51.5 -30.5t-21.5 -81.5q0 -34 14.5 -53.5t38.5 -19.5z" />
    <glyph glyph-name="perthousand.onum" horiz-adv-x="981" 
d="M77 0l447 501h64l-446 -501h-65zM159 220q-48 0 -77 35t-29 89q0 70 39 116.5t97 46.5q47 0 76 -36t29 -90q0 -70 -39.5 -115.5t-95.5 -45.5zM163 271q29 0 51 29.5t22 80.5q0 35 -15 55t-38 20q-30 0 -51.5 -30.5t-21.5 -81.5q0 -34 15 -53.5t38 -19.5zM474 -6
q-48 0 -76.5 35t-28.5 89q0 70 38.5 116.5t96.5 46.5q47 0 76.5 -36.5t29.5 -91.5q0 -68 -40 -113.5t-96 -45.5zM479 45q29 0 51 29.5t22 80.5q0 35 -15 55t-38 20q-30 0 -51.5 -30.5t-21.5 -81.5q0 -34 14.5 -53.5t38.5 -19.5zM753 -6q-48 0 -76.5 35t-28.5 89
q0 70 38.5 116.5t96.5 46.5q47 0 76.5 -36.5t29.5 -91.5q0 -68 -40 -113.5t-96 -45.5zM758 45q29 0 51 29.5t22 80.5q0 35 -15 55t-38 20q-30 0 -51.5 -30.5t-21.5 -81.5q0 -34 14.5 -53.5t38.5 -19.5z" />
    <glyph glyph-name="plus.onum" horiz-adv-x="577" 
d="M493 211h-191l-30 -172h-81l30 172h-191l14 78h191l30 174h81l-30 -174h191z" />
    <glyph glyph-name="minus.onum" horiz-adv-x="549" 
d="M465 209h-435l14 82h435z" />
    <glyph glyph-name="divide.onum" horiz-adv-x="537" 
d="M453 212h-422l13 74h422zM283 81q0 -25 -18.5 -43.5t-43.5 -18.5t-43.5 18.5t-18.5 43.5q0 24 18.5 42.5t43.5 18.5t43.5 -18.5t18.5 -42.5zM341 419q0 -25 -18.5 -43t-42.5 -18q-25 0 -43.5 18t-18.5 43t18.5 43t43.5 18q24 0 42.5 -18t18.5 -43z" />
    <glyph glyph-name="multiply.onum" horiz-adv-x="515" 
d="M461 384l-161 -138l111 -133l-63 -54l-110 134l-158 -134l-53 61l158 134l-105 131l64 52l106 -129l161 138z" />
    <glyph glyph-name="equal.onum" horiz-adv-x="596" 
d="M47 295l14 80h479l-14 -80h-479zM16 125l14 79h480l-14 -79h-480z" />
    <glyph glyph-name="less.onum" horiz-adv-x="577" 
d="M457 21l-427 187l15 86l494 187l-15 -87l-396 -147l344 -147z" />
    <glyph glyph-name="greater.onum" horiz-adv-x="577" 
d="M500 208l-493 -187l16 87l396 147l-345 147l14 79l428 -187z" />
    <glyph glyph-name="degree.onum" horiz-adv-x="328" 
d="M289 395q0 -57 -42 -95t-97 -38q-48 0 -80 30.5t-32 78.5q0 55 40 95t98 40q48 0 80.5 -31t32.5 -80zM156 318q28 0 49.5 22t21.5 50q0 25 -16 42.5t-41 17.5q-28 0 -49.5 -22.5t-21.5 -51.5q0 -24 16 -41t41 -17z" />
    <glyph glyph-name="zero.ostnum" 
d="M277 65q74 0 126.5 61t52.5 150q0 70 -39 115t-101 45q-73 0 -126.5 -61t-53.5 -150q0 -70 40 -115t101 -45zM539 275q0 -112 -75.5 -198.5t-194.5 -86.5q-100 0 -157.5 69t-57.5 166q0 113 74 199.5t196 86.5q100 0 157.5 -69.5t57.5 -166.5z" />
    <glyph glyph-name="one.ostnum" 
d="M86 73h163l61 343l-150 -49l-13 71l186 63h75l-76 -428h154l-13 -73h-400z" />
    <glyph glyph-name="two.ostnum" 
d="M220 72h259l-12 -72h-407l11 62l239 148q76 46 100.5 80t24.5 70q0 32 -23 54.5t-72 22.5q-44 0 -83 -28.5t-62 -74.5l-77 18q31 69 91.5 114t140.5 45q79 0 123.5 -41.5t44.5 -101.5q0 -67 -37 -114t-128 -102z" />
    <glyph glyph-name="three.ostnum" 
d="M500 368q0 -66 -42 -111.5t-102 -61.5q45 -14 73.5 -48t28.5 -85q0 -98 -73 -162.5t-173 -64.5q-60 0 -109 26t-74 66l63 48q43 -66 121 -66q58 0 109 43.5t51 107.5q0 47 -33.5 72.5t-86.5 25.5h-60l13 71h64q55 0 100.5 40t45.5 91q0 36 -26 56.5t-72 20.5
q-77 0 -140 -86l-65 38q86 122 216 122q77 0 124 -40t47 -103z" />
    <glyph glyph-name="four.ostnum" 
d="M526 0h-103l-28 -155h-82l28 155h-314l13 77l383 424h88l-76 -429h103zM353 72l54 299l-274 -299h220z" />
    <glyph glyph-name="five.ostnum" 
d="M167 501h330l-13 -72h-257l-40 -176q49 23 109 23q79 0 130.5 -47t51.5 -129q0 -108 -72 -186.5t-187 -78.5q-59 0 -108 25.5t-75 65.5l64 46q18 -27 50.5 -44.5t70.5 -17.5q72 0 121.5 56t49.5 127q0 54 -31 82.5t-85 28.5q-42 0 -69 -9t-76 -36l-36 26z" />
    <glyph glyph-name="six.ostnum" 
d="M51 171q0 107 108 236l212 253h93l-212 -252l1 -1q36 17 81 17q78 0 131.5 -51t53.5 -130q0 -102 -78 -177.5t-186 -75.5q-92 0 -148 53t-56 128zM259 64q71 0 123.5 51t52.5 125q0 53 -32 84.5t-87 31.5q-75 0 -128.5 -50.5t-53.5 -128.5q0 -52 34 -82.5t91 -30.5z" />
    <glyph glyph-name="seven.ostnum" 
d="M546 427l-406 -587h-90l408 588h-376l13 73h465z" />
    <glyph glyph-name="eight.ostnum" 
d="M264 -10q-92 0 -151 45.5t-59 122.5q0 68 42.5 118.5t113.5 71.5v1q-35 15 -56 46.5t-21 71.5q0 90 68.5 144t166.5 54q86 0 138.5 -41t52.5 -113q0 -58 -35 -102.5t-95 -68.5v-1q45 -13 72.5 -48.5t27.5 -85.5q0 -98 -78 -156.5t-187 -58.5zM325 374q58 0 105 35.5
t47 96.5q0 41 -30.5 64.5t-84.5 23.5q-59 0 -104.5 -36t-45.5 -95q0 -42 32.5 -65.5t80.5 -23.5zM270 62q67 0 121.5 39t54.5 105q0 44 -36.5 71.5t-97.5 27.5q-66 0 -120 -38t-54 -103q0 -48 36 -75t96 -27z" />
    <glyph glyph-name="nine.ostnum" 
d="M538 330q0 -64 -27.5 -118.5t-81.5 -117.5l-211 -254h-93l212 253l-1 1q-38 -17 -81 -17q-78 0 -131.5 51t-53.5 130q0 103 78 178t186 75q92 0 148 -53t56 -128zM330 437q-72 0 -124.5 -51t-52.5 -124q0 -53 32 -85t87 -32q75 0 128.5 50.5t53.5 128.5q0 52 -34 82.5
t-90 30.5z" />
    <glyph glyph-name="Euro.ostnum" 
d="M490 130l46 -51q-87 -89 -206 -89q-90 0 -150.5 47.5t-77.5 128.5h-85l11 59h70q0 31 6 59h-66l11 59h73q32 76 98 122t150 46q134 0 203 -95l-57 -46q-60 70 -147 70q-80 0 -134.5 -65t-54.5 -157q0 -71 42.5 -114t112.5 -43q83 0 155 69z" />
    <glyph glyph-name="dollar.ostnum" 
d="M207 -72l13 72q-112 9 -183 84l50 55q23 -25 62.5 -44.5t83.5 -23.5l25 150q-151 39 -151 129q0 66 52.5 106.5t148.5 43.5l13 71h54l-12 -70q104 -10 161 -68l-53 -54q-41 47 -121 54l-27 -155q80 -22 118 -53t38 -77q0 -62 -54.5 -101.5t-150.5 -46.5l-13 -72h-54z
M190 354q0 -41 81 -64l25 143q-40 -2 -73 -21t-33 -58zM397 143q0 22 -20 37t-67 29l-24 -139q111 8 111 73z" />
    <glyph glyph-name="sterling.ostnum" 
d="M486 0h-459l12 72h92l24 131h-92l11 69h92l8 40q18 93 77.5 146t153.5 53q45 0 77.5 -10.5t47.5 -22.5t37 -35l-49 -54q-46 49 -113 49q-125 0 -149 -133l-6 -33h207l-11 -69h-207l-24 -131h283z" />
    <glyph glyph-name="florin.ostnum" 
d="M87 299h150l23 55q28 74 68.5 115.5t112.5 41.5q45 0 82 -16l-11 -71q-38 15 -68 15q-40 0 -63 -20.5t-41 -65.5l-22 -54h180l-2 -70h-205l-157 -390h-81l156 390h-124z" />
    <glyph glyph-name="yen.ostnum" 
d="M103 501h86l117 -236h2l199 236h93l-178 -209h113l-10 -59h-153l-34 -40l-3 -18h179l-10 -59h-179l-21 -116h-83l21 116h-178l10 59h178l3 18l-19 40h-151l10 59h112z" />
    <glyph glyph-name="cent.ostnum" 
d="M465 130l45 -51q-87 -87 -202 -88h-6l-19 -105h-53l19 111q-81 16 -128 75.5t-47 145.5q0 120 75 204.5t190 87.5l17 89h53l-17 -93q97 -14 156 -90l-58 -46q-43 53 -111 66l-64 -374q79 1 150 68zM155 218q0 -58 28.5 -97.5t79.5 -52.5l64 370q-74 -7 -123 -70t-49 -150
z" />
    <glyph glyph-name="space.ostnum" horiz-adv-x="317" 
 />
    <glyph glyph-name="comma.ostnum" horiz-adv-x="317" 
d="M164 61q0 -22 -20 -49l-101 -131h-47l71 126q-26 20 -26 51q0 25 18.5 43t43.5 18q27 0 44 -16.5t17 -41.5z" />
    <glyph glyph-name="semicolon.ostnum" horiz-adv-x="317" 
d="M230 432q0 -25 -18.5 -43.5t-43.5 -18.5q-26 0 -44 18t-18 44q0 25 18.5 43t43.5 18t43.5 -18t18.5 -43zM164 61q0 -22 -20 -49l-101 -131h-47l71 126q-26 20 -26 51q0 25 18.5 43t43.5 18q27 0 44 -16.5t17 -41.5z" />
    <glyph glyph-name="colon.ostnum" horiz-adv-x="317" 
d="M163 58q0 -25 -18.5 -43.5t-43.5 -18.5t-43.5 18t-18.5 44q0 25 18.5 43t43.5 18t43.5 -18t18.5 -43zM230 432q0 -25 -18.5 -43.5t-42.5 -18.5q-25 0 -43.5 18t-18.5 44q0 25 18.5 43t43.5 18q24 0 42.5 -18t18.5 -43z" />
    <glyph glyph-name="period.ostnum" horiz-adv-x="317" 
d="M164 58q0 -25 -18.5 -43.5t-43.5 -18.5q-26 0 -44 18t-18 44q0 25 18.5 43t43.5 18t43.5 -18t18.5 -43z" />
    <glyph glyph-name="parenleft.ostnum" horiz-adv-x="317" 
d="M207 -149l-65 -37q-99 168 -99 358q0 256 223 522l61 -42q-204 -232 -204 -485q0 -174 84 -316z" />
    <glyph glyph-name="parenright.ostnum" horiz-adv-x="317" 
d="M20 -191l-58 45q95 108 149 233.5t54 255.5q0 166 -86 311l67 40q99 -174 99 -353q0 -141 -61 -277.5t-164 -254.5z" />
    <glyph glyph-name="bracketleft.ostnum" horiz-adv-x="317" 
d="M-4 -190l157 890h183l-12 -66h-103l-133 -758h103l-12 -66h-183z" />
    <glyph glyph-name="bracketright.ostnum" horiz-adv-x="317" 
d="M297 700l-157 -890h-182l12 66h102l133 758h-103l12 66h183z" />
    <glyph glyph-name="braceleft.ostnum" horiz-adv-x="317" 
d="M185 -190h-58q-38 0 -65 24.5t-27 75.5q0 22 4 43l27 157q3 13 3 30q0 39 -19 60t-48 21l12 66q34 0 64 30t39 81l32 180q11 61 42.5 91.5t73.5 30.5h76l-12 -65h-42q-51 0 -65 -81l-31 -174q-11 -60 -44.5 -91.5t-62.5 -37.5l-1 -3q23 -3 44 -27t21 -70q0 -15 -3 -35
l-29 -162q-2 -20 -2 -28q0 -51 40 -51h43z" />
    <glyph glyph-name="braceright.ostnum" horiz-adv-x="317" 
d="M14 -190h-74l12 65h40q51 0 65 79l31 175q12 65 45.5 96t61.5 34l1 3q-21 4 -43 29t-22 70q0 13 3 31l29 162q3 15 3 30q0 51 -41 51h-42l12 65h60q38 0 65.5 -23t27.5 -68q0 -15 -3 -33l-32 -178q-3 -15 -3 -29q0 -39 19.5 -60.5t47.5 -21.5l-12 -66q-34 0 -63.5 -30
t-38.5 -81l-29 -159q-26 -141 -120 -141z" />
    <glyph glyph-name="section.ostnum" 
d="M222 -167q-101 0 -185 86l56 50q56 -68 135 -68q57 0 96 23t39 71q0 9 -2 16.5t-7.5 14.5l-10 12.5t-14.5 11.5l-15.5 9.5t-19 9l-19.5 8l-22 9t-22 8.5q-30 12 -50 22.5t-41.5 27.5t-32.5 40.5t-11 53.5q0 58 39.5 99.5t99.5 57.5q-79 43 -79 119q0 79 60 123t152 44
q104 0 177 -71l-57 -49q-46 51 -123 51q-56 0 -91.5 -25.5t-35.5 -66.5q0 -16 8 -30t15.5 -22.5t29 -19.5t30 -14t37.5 -14q9 -3 13 -5q30 -11 50 -21t41.5 -26t32 -38.5t10.5 -51.5q0 -57 -37.5 -99.5t-102.5 -60.5q81 -46 81 -121q0 -76 -63.5 -120t-160.5 -44zM310 345
q-48 0 -90.5 -25.5t-42.5 -72.5q0 -36 34.5 -57t81.5 -21q54 0 94 27.5t40 69.5q0 37 -34 58t-83 21z" />
    <glyph glyph-name="numbersign.ostnum" 
d="M270 0l50 145h-106l-50 -145h-71l51 145h-81l11 65h93l32 96h-81l12 66h93l46 129h69l-45 -129h106l45 129h70l-45 -129h87l-11 -66h-100l-32 -96h88l-12 -65h-99l-50 -145h-70zM269 306l-32 -96h106l32 96h-106z" />
    <glyph glyph-name="percent.ostnum" 
d="M62 0l424 501h63l-424 -501h-63zM137 220q-48 0 -76.5 33t-28.5 87q0 70 39 118.5t96 48.5q47 0 76 -34t29 -88q0 -70 -39 -117.5t-96 -47.5zM142 271q28 0 50.5 29.5t22.5 80.5q0 35 -15 55t-38 20q-30 0 -51.5 -30.5t-21.5 -81.5q0 -34 14.5 -53.5t38.5 -19.5zM444 -6
q-48 0 -76.5 33t-28.5 87q0 70 38.5 118.5t96.5 48.5q48 0 77 -35t29 -90q0 -68 -40.5 -115t-95.5 -47zM449 45q29 0 51 29.5t22 80.5q0 35 -15 55t-38 20q-30 0 -51.5 -30.5t-21.5 -81.5q0 -34 14.5 -53.5t38.5 -19.5z" />
    <glyph glyph-name="perthousand.ostnum" 
d="M-31 0l433 501h51l-432 -501h-52zM117 274q-38 0 -59.5 27t-21.5 70q0 56 30.5 95t75.5 39q37 0 59.5 -27.5t22.5 -70.5q0 -56 -31 -94.5t-76 -38.5zM122 313q22 0 39.5 24.5t17.5 66.5q0 29 -11.5 46t-29.5 17q-23 0 -41 -25t-18 -66q0 -29 12 -46t31 -17zM271 -5
q-37 0 -59 26.5t-22 69.5q0 57 29.5 96t75.5 39q37 0 59.5 -28t22.5 -72q0 -55 -31 -93t-75 -38zM275 34q21 0 39 24.5t18 64.5q0 29 -11.5 47t-29.5 18q-24 0 -41 -26t-17 -68q0 -28 11.5 -44t30.5 -16zM484 -5q-37 0 -59 26.5t-22 69.5q0 57 29.5 96t75.5 39
q37 0 59.5 -28t22.5 -72q0 -55 -31 -93t-75 -38zM488 34q21 0 39 24.5t18 64.5q0 30 -11.5 47.5t-30.5 17.5q-23 0 -40 -25.5t-17 -67.5q0 -29 11.5 -45t30.5 -16z" />
    <glyph glyph-name="plus.ostnum" 
d="M547 211h-212l-30 -172h-81l30 172h-212l14 78h212l30 174h81l-30 -174h212z" />
    <glyph glyph-name="minus.ostnum" 
d="M528 209h-466l14 82h466z" />
    <glyph glyph-name="divide.ostnum" 
d="M525 212h-459l13 74h459zM335 81q0 -25 -18.5 -43.5t-43.5 -18.5t-43.5 18.5t-18.5 43.5q0 24 18.5 42.5t43.5 18.5t43.5 -18.5t18.5 -42.5zM393 419q0 -25 -18.5 -43t-42.5 -18q-25 0 -43.5 18t-18.5 43t18.5 43t43.5 18q24 0 42.5 -18t18.5 -43z" />
    <glyph glyph-name="multiply.ostnum" 
d="M524 384l-161 -138l111 -133l-63 -54l-110 134l-158 -134l-53 61l158 134l-105 131l64 52l106 -129l161 138z" />
    <glyph glyph-name="equal.ostnum" 
d="M69 295l14 80h481l-14 -80h-481zM38 125l14 79h482l-14 -79h-482z" />
    <glyph glyph-name="less.ostnum" 
d="M471 21l-427 187l15 86l494 187l-15 -87l-396 -147l344 -147z" />
    <glyph glyph-name="greater.ostnum" 
d="M541 208l-493 -187l16 87l396 147l-345 147l14 79l428 -187z" />
    <glyph glyph-name="degree.ostnum" horiz-adv-x="317" 
d="M288 395q0 -57 -42 -95t-97 -38q-48 0 -80 30.5t-32 78.5q0 55 40 95t98 40q48 0 80.5 -31t32.5 -80zM155 318q28 0 49.5 22t21.5 50q0 25 -16 42.5t-41 17.5q-28 0 -49.5 -22.5t-21.5 -51.5q0 -24 16 -41t41 -17z" />
    </font>
</defs>
</svg>
