<?xml version="1.0" standalone="no"?>
<!DOCTYPE svg PUBLIC "-//W3C//DTD SVG 1.1//EN" "http://www.w3.org/Graphics/SVG/1.1/DTD/svg11.dtd" >
<svg>
<metadata>
Created by FontForge 20090622 at Fri Sep  8 08:37:50 2017
 By deploy user
Copyright (c) 2013 by Panos Haratzopoulos. All rights reserved.
</metadata>
<defs>
<font id="CFAstyStd-MediumOblique" horiz-adv-x="649" >
  <font-face 
    font-family="CF Asty Std Medium"
    font-weight="500"
    font-style="oblique"
    font-stretch="normal"
    units-per-em="1000"
    panose-1="0 0 5 3 3 0 0 2 0 4"
    ascent="800"
    descent="-200"
    x-height="506"
    cap-height="700"
    bbox="-198 -311 1185 917"
    underline-thickness="20"
    underline-position="-113"
    slope="-10"
    unicode-range="U+0020-U+FB04"
  />
<missing-glyph horiz-adv-x="301" 
 />
    <glyph glyph-name="ff" unicode="ff" horiz-adv-x="664" 
d="M264 560l-9 -54h176l14 78q2 14 9 37q-37 28 -94 28q-43 0 -65.5 -21t-30.5 -68zM635 660q-32 0 -50.5 -21.5t-26.5 -67.5l-12 -65h114l-17 -98h-114l-72 -408h-116l72 408h-176l-72 -408h-116l72 408h-66l18 98h66l11 61q34 183 201 183q39 0 82.5 -11.5t69.5 -31.5
q48 53 121 53q62 0 102 -19l-29 -93q-30 12 -62 12z" />
    <glyph glyph-name="fi" unicode="fi" horiz-adv-x="608" 
d="M360 0l72 408h-195l-72 -408h-116l72 408h-66l18 98h66l15 81q31 173 178 173q59 0 98 -13l-27 -95q-25 8 -60 8q-32 0 -50.5 -21.5t-26.5 -67.5l-11 -65h309l-89 -506h-115zM608 669q0 -30 -22 -51.5t-51 -21.5q-30 0 -51.5 21.5t-21.5 51.5t21.5 51t51.5 21t51.5 -21
t21.5 -51z" />
    <glyph glyph-name="fl" unicode="fl" horiz-adv-x="610" 
d="M363 0l132 750h115l-133 -750h-114zM49 0l72 408h-66l18 98h66l15 81q31 173 178 173q64 0 102 -19l-29 -93q-30 12 -62 12t-50.5 -21.5t-26.5 -67.5l-11 -65h114l-18 -98h-114l-72 -408h-116z" />
    <glyph glyph-name="ffi" unicode="ffi" horiz-adv-x="899" 
d="M652 0l71 408h-194l-72 -408h-116l72 408h-176l-72 -408h-116l72 408h-66l18 98h66l11 61q34 183 201 183q39 0 82.5 -11.5t69.5 -31.5q48 53 121 53q62 0 102 -19l-29 -93q-30 12 -62 12t-50.5 -21.5t-26.5 -67.5l-12 -65h310l-89 -506h-115zM899 669q0 -30 -21.5 -51.5
t-50.5 -21.5q-30 0 -51.5 21.5t-21.5 51.5t21.5 51t51.5 21q29 0 50.5 -21t21.5 -51zM264 560l-9 -54h176l14 78q2 14 9 37q-37 28 -94 28q-43 0 -65.5 -21t-30.5 -68z" />
    <glyph glyph-name="ffl" unicode="ffl" horiz-adv-x="900" 
d="M653 0l132 750h115l-133 -750h-114zM264 560l-9 -54h176l14 78q2 14 9 37q-37 28 -94 28q-43 0 -65.5 -21t-30.5 -68zM635 660q-32 0 -50.5 -21.5t-26.5 -67.5l-12 -65h114l-17 -98h-114l-72 -408h-116l72 408h-176l-72 -408h-116l72 408h-66l18 98h66l11 61
q34 183 201 183q39 0 82.5 -11.5t69.5 -31.5q48 53 121 53q62 0 102 -19l-29 -93q-30 12 -62 12z" />
    <glyph glyph-name=".notdef" horiz-adv-x="301" 
 />
    <glyph glyph-name=".null" horiz-adv-x="0" 
 />
    <glyph glyph-name="nonmarkingreturn" horiz-adv-x="333" 
 />
    <glyph glyph-name="space" unicode=" " horiz-adv-x="301" 
 />
    <glyph glyph-name="exclam" unicode="!" horiz-adv-x="308" 
d="M194 226h-120l83 474h120zM183 71q0 -32 -22 -54t-53 -22t-53 22t-22 54q0 31 22 53t53 22t53 -22t22 -53z" />
    <glyph glyph-name="quotedbl" unicode="&#x22;" horiz-adv-x="403" 
d="M261 436l46 264h125l-9 -51l-101 -213h-61zM69 436l46 264h125l-9 -51l-101 -213h-61z" />
    <glyph glyph-name="numbersign" unicode="#" horiz-adv-x="598" 
d="M248 0l64 205h-109l-64 -205h-89l64 205h-90l15 85h102l40 130h-88l16 86h100l60 194h89l-61 -194h110l60 194h89l-61 -194h93l-15 -86h-105l-40 -130h92l-16 -85h-103l-64 -205h-89zM270 420l-40 -130h109l40 130h-109z" />
    <glyph glyph-name="dollar" unicode="$" horiz-adv-x="597" 
d="M4 118l87 77q57 -72 132 -87l36 201q-83 33 -128.5 76.5t-45.5 110.5q0 96 68 149t175 55l13 73h54l-14 -76q117 -15 183 -104l-94 -70q-38 56 -107 69l-34 -192q93 -35 139.5 -78.5t46.5 -110.5q0 -97 -73.5 -153t-183.5 -58l-16 -90h-54l17 93q-120 16 -201 115z
M394 201q0 53 -85 87l-32 -182q117 7 117 95zM205 505q0 -49 74 -83l30 173q-45 -4 -74.5 -26t-29.5 -64z" />
    <glyph glyph-name="percent" unicode="%" horiz-adv-x="812" 
d="M81 0l560 700h92l-560 -700h-92zM213 345q-61 0 -99 43.5t-38 113.5q0 80 44.5 141.5t123.5 61.5q60 0 99 -44.5t39 -114.5q0 -80 -44.5 -140.5t-124.5 -60.5zM217 416q40 0 61.5 40.5t21.5 89.5q0 42 -16.5 65t-43.5 23q-41 0 -61.5 -42t-20.5 -92q0 -40 16.5 -62
t42.5 -22zM576 -5q-61 0 -99.5 43.5t-38.5 113.5q0 80 44.5 141.5t123.5 61.5q61 0 99.5 -44.5t38.5 -114.5q0 -80 -44.5 -140.5t-123.5 -60.5zM579 66q40 0 61.5 40.5t21.5 89.5q0 42 -16.5 65t-43.5 23q-41 0 -61.5 -42t-20.5 -92q0 -40 16.5 -62t42.5 -22z" />
    <glyph glyph-name="ampersand" unicode="&#x26;" horiz-adv-x="703" 
d="M524 572q0 -64 -45.5 -111.5t-125.5 -95.5l113 -144q50 63 90 154h107q-60 -137 -141 -229l114 -146h-128l-59 76q-105 -86 -224 -86q-92 0 -146.5 44t-54.5 120q0 77 49 128.5t139 101.5q-54 71 -54 143q0 80 57.5 131.5t142.5 51.5q75 0 120.5 -37t45.5 -101zM244 88
q79 0 151 59l-130 168q-26 -15 -43.5 -26.5t-38 -30t-31 -40.5t-10.5 -47q0 -39 29 -61t73 -22zM265 526q0 -45 36 -95q32 18 53.5 32t43.5 41t22 55t-19 44t-49 16q-38 0 -62.5 -26t-24.5 -67z" />
    <glyph glyph-name="quotesingle" unicode="'" horiz-adv-x="211" 
d="M69 436l46 264h125l-9 -51l-101 -213h-61z" />
    <glyph glyph-name="parenleft" unicode="(" horiz-adv-x="333" 
d="M226 -111l-91 -46q-91 169 -91 346q0 272 230 538l82 -49q-208 -244 -208 -491q0 -148 78 -298z" />
    <glyph glyph-name="parenright" unicode=")" horiz-adv-x="339" 
d="M51 -159l-80 51q207 248 207 492q0 142 -78 295l91 48q91 -169 91 -344q0 -275 -231 -542z" />
    <glyph glyph-name="asterisk" unicode="*" horiz-adv-x="378" 
d="M213 488l-74 -93l-58 49l87 84l-104 26l40 78l94 -43l11 111h82l-29 -111l110 41l12 -77l-111 -25l56 -85l-74 -49z" />
    <glyph glyph-name="plus" unicode="+" horiz-adv-x="633" 
d="M574 248h-211l-38 -213h-111l38 213h-212l19 108h211l38 213h111l-38 -213h212z" />
    <glyph glyph-name="comma" unicode="," horiz-adv-x="254" 
d="M171 73q0 -28 -22 -56l-121 -145h-53l77 137q-32 24 -32 62q0 31 22.5 53t53.5 22q33 0 54 -21t21 -52z" />
    <glyph glyph-name="hyphen" unicode="-" horiz-adv-x="480" 
d="M39 244l20 116h287l-21 -116h-286z" />
    <glyph glyph-name="period" unicode="." horiz-adv-x="254" 
d="M171 71q0 -31 -22.5 -53.5t-53.5 -22.5t-53 22t-22 54q0 31 22 53t53 22t53.5 -22t22.5 -53z" />
    <glyph glyph-name="slash" unicode="/" horiz-adv-x="465" 
d="M-121 -160l560 941h119l-560 -941h-119z" />
    <glyph glyph-name="zero" unicode="0" 
d="M288 -10q-110 0 -173 79t-63 209q0 57 10 114.5t33.5 115.5t58 102t88 72t118.5 28q110 0 173 -80t63 -210q0 -57 -10 -114t-33.5 -115t-58 -102t-88 -71.5t-118.5 -27.5zM291 99q49 0 87 33.5t58 85.5t29.5 103t9.5 98q0 82 -30.5 132t-87.5 50q-49 0 -87 -34t-58 -86
t-29.5 -104t-9.5 -98q0 -81 30.5 -130.5t87.5 -49.5z" />
    <glyph glyph-name="one" unicode="1" horiz-adv-x="378" 
d="M203 574l-107 -57l-39 93l171 90h119l-123 -700h-121z" />
    <glyph glyph-name="two" unicode="2" horiz-adv-x="589" 
d="M20 99l252 207q82 66 110 99q50 58 50 113q0 38 -26 60.5t-71 22.5q-95 0 -127 -100l-118 15q29 92 94.5 143t164.5 51q91 0 150.5 -46.5t59.5 -136.5q0 -36 -14 -71.5t-29 -59.5t-52.5 -60.5t-55.5 -51.5l-67 -55l-151 -122h299l-19 -107h-468z" />
    <glyph glyph-name="three" unicode="3" horiz-adv-x="559" 
d="M12 176l121 22q7 -48 37 -73.5t80 -25.5q57 0 95.5 34.5t38.5 88.5q0 43 -31 66.5t-91 23.5h-57l18 100h58q52 0 92.5 28.5t40.5 80.5q0 37 -26.5 58.5t-72.5 21.5q-40 0 -71.5 -22t-47.5 -64l-115 23q64 172 249 172q89 0 147 -44.5t58 -123.5q0 -64 -39 -110t-100 -66
q112 -35 112 -145q0 -105 -76.5 -168t-193.5 -63q-97 0 -156 51t-70 135z" />
    <glyph glyph-name="four" unicode="4" horiz-adv-x="591" 
d="M526 153h-92l-27 -153h-120l27 153h-317l19 111l373 436h141l-79 -449h93zM332 251l51 295l-251 -295h200z" />
    <glyph glyph-name="five" unicode="5" horiz-adv-x="566" 
d="M139 326l-66 35l62 339h403l-19 -107h-289l-26 -143q45 17 95 17q92 0 153.5 -56t61.5 -150q0 -118 -74 -194.5t-199 -76.5q-87 0 -145 43.5t-79 115.5l112 34q26 -84 116 -84q64 0 105 44.5t41 107.5q0 52 -30.5 86t-85.5 34q-61 0 -136 -45z" />
    <glyph glyph-name="six" unicode="6" horiz-adv-x="593" 
d="M277 97q66 0 109 42t43 109q0 53 -33.5 83t-90.5 30q-64 0 -108 -41.5t-44 -107.5q0 -53 33 -84t91 -31zM32 208q0 63 22 115.5t71 110.5l218 266h148l-216 -259l2 -1q23 9 53 9q94 0 157 -56.5t63 -145.5q0 -110 -78 -183.5t-200 -73.5q-108 0 -174 61t-66 157z" />
    <glyph glyph-name="seven" unicode="7" horiz-adv-x="531" 
d="M540 596l-360 -596h-136l361 591h-336l20 109h470z" />
    <glyph glyph-name="eight" unicode="8" horiz-adv-x="625" 
d="M274 -10q-114 0 -177 50.5t-63 136.5q0 71 41 124.5t113 70.5v2q-37 16 -62.5 50t-25.5 80q0 97 72 151.5t181 54.5q100 0 161 -49t61 -128q0 -57 -35 -100.5t-96 -65.5v-2q106 -47 106 -151q0 -107 -78.5 -165.5t-197.5 -58.5zM278 95q63 0 110.5 31.5t47.5 93.5
q0 42 -34 67t-94 25t-109.5 -32t-49.5 -91q0 -45 32.5 -69.5t96.5 -24.5zM322 405q53 0 95.5 31t42.5 84q0 39 -29 61.5t-81 22.5t-94.5 -29.5t-42.5 -83.5q0 -41 30.5 -63.5t78.5 -22.5z" />
    <glyph glyph-name="nine" unicode="9" horiz-adv-x="595" 
d="M330 603q-65 0 -108.5 -42t-43.5 -109q0 -52 33.5 -82.5t90.5 -30.5q64 0 108 41.5t44 108.5q0 52 -33 83t-91 31zM576 492q0 -63 -22.5 -115.5t-71.5 -110.5l-218 -266h-148l216 259l-2 1q-23 -9 -53 -9q-94 0 -157 56.5t-63 145.5q0 110 78 183.5t200 73.5
q108 0 174.5 -61.5t66.5 -156.5z" />
    <glyph glyph-name="colon" unicode=":" horiz-adv-x="275" 
d="M174 71q0 -32 -22 -54t-53 -22t-53 22t-22 54q0 31 22 53t53 22t53 -22t22 -53zM240 441q0 -31 -22 -53.5t-53 -22.5q-32 0 -54 22t-22 54q0 31 22 53t54 22q31 0 53 -22t22 -53z" />
    <glyph glyph-name="semicolon" unicode=";" horiz-adv-x="272" 
d="M237 441q0 -32 -22 -54t-53 -22t-53 22t-22 54q0 31 22 53t53 22t53 -22t22 -53zM172 73q0 -30 -22 -56l-120 -145h-54l77 137q-31 23 -31 62q0 31 22 53t53 22q33 0 54 -21t21 -52z" />
    <glyph glyph-name="less" unicode="&#x3c;" horiz-adv-x="648" 
d="M533 28l-508 214l21 114l583 214l-21 -119l-438 -157l383 -157z" />
    <glyph glyph-name="equal" unicode="=" horiz-adv-x="638" 
d="M72 341l19 107h508l-19 -107h-508zM39 153l18 107h509l-19 -107h-508z" />
    <glyph glyph-name="greater" unicode="&#x3e;" horiz-adv-x="667" 
d="M605 242l-584 -214l21 121l440 157l-384 157l19 106l508 -213z" />
    <glyph glyph-name="question" unicode="?" horiz-adv-x="523" 
d="M180 500l-108 28q27 86 89.5 134t158.5 48q87 0 145.5 -43t58.5 -120q0 -90 -88 -159l-87 -70q-26 -19 -36 -37t-15 -47l-5 -28h-116l7 35q8 46 21 74.5t44 51.5l99 77q52 42 52 87q0 34 -26 53.5t-66 19.5q-97 0 -128 -104zM290 71q0 -31 -22 -53.5t-54 -22.5
q-31 0 -53 22t-22 54q0 31 22 53t53 22t53.5 -22t22.5 -53z" />
    <glyph glyph-name="at" unicode="@" horiz-adv-x="975" 
d="M585 279q18 43 18 76q0 38 -23.5 58.5t-59.5 20.5q-72 0 -125 -61t-53 -136q0 -36 18.5 -58.5t55.5 -22.5q119 2 169 123zM398 75q-64 0 -110 39t-46 106q0 114 79 205t197 91q48 0 86.5 -19.5t49.5 -52.5l27 60h90l-118 -275q-17 -41 -17 -62q0 -51 58 -51q54 0 97 42.5
t63 97.5t20 107q0 120 -90.5 206t-235.5 86q-113 0 -216 -59t-168 -164t-65 -226q0 -136 89 -225.5t237 -89.5q128 0 249 65l22 -45q-137 -75 -277 -75q-169 0 -274.5 106.5t-105.5 263.5q0 126 67.5 242t186 189t255.5 73q167 0 276 -101t109 -242q0 -70 -27 -138t-84 -117
t-131 -49q-47 0 -82 20t-41 62q-70 -70 -170 -70z" />
    <glyph glyph-name="A" unicode="A" horiz-adv-x="715" 
d="M181 163l-94 -163h-133l421 703h114l141 -703h-124l-30 163h-295zM241 264h218l-52 283h-2z" />
    <glyph glyph-name="B" unicode="B" horiz-adv-x="670" 
d="M163 102h170q62 0 106.5 26.5t44.5 84.5q0 41 -33 68t-94 27h-158zM150 700h234q111 0 168.5 -43.5t57.5 -122.5q0 -59 -35.5 -104t-92.5 -66l-1 -2q124 -36 124 -154q0 -101 -79.5 -154.5t-200.5 -53.5h-298zM376 598h-126l-33 -189h129q60 0 100.5 24.5t40.5 82.5
q0 36 -28 59t-83 23z" />
    <glyph glyph-name="C" unicode="C" horiz-adv-x="707" 
d="M368 -10q-149 0 -235 93.5t-86 228.5q0 169 107 283.5t281 114.5q83 0 142 -25.5t105 -80.5l-97 -72q-52 69 -155 69q-113 0 -186.5 -81t-73.5 -204q0 -94 54 -155.5t150 -61.5q108 0 189 82l79 -81q-62 -56 -126 -83t-148 -27z" />
    <glyph glyph-name="D" unicode="D" horiz-adv-x="757" 
d="M166 109h127q125 0 209.5 74.5t84.5 203.5q0 97 -61 150.5t-170 53.5h-106zM287 0h-260l123 700h213q156 0 251.5 -83.5t95.5 -225.5q0 -178 -121.5 -284.5t-301.5 -106.5z" />
    <glyph glyph-name="E" unicode="E" horiz-adv-x="639" 
d="M27 0l123 700h472l-19 -109h-352l-32 -176h329l-19 -106h-328l-36 -199h376l-19 -110h-495z" />
    <glyph glyph-name="F" unicode="F" horiz-adv-x="603" 
d="M594 590h-343l-33 -184h299l-18 -108h-299l-53 -298h-120l123 700h462z" />
    <glyph glyph-name="G" unicode="G" horiz-adv-x="748" 
d="M530 137l27 157h-151l18 103h268l-56 -327q-126 -80 -267 -80q-147 0 -234.5 93.5t-87.5 232.5q0 166 108 280t281 114q88 0 147.5 -26.5t109.5 -79.5l-88 -80q-36 38 -75.5 57.5t-101.5 19.5q-111 0 -184.5 -83.5t-73.5 -199.5q0 -95 57 -157t149 -62q80 0 154 38z" />
    <glyph glyph-name="H" unicode="H" horiz-adv-x="741" 
d="M27 0l123 700h119l-50 -284h326l50 284h120l-123 -700h-120l54 308h-325l-55 -308h-119z" />
    <glyph glyph-name="I" unicode="I" horiz-adv-x="296" 
d="M27 0l123 700h119l-123 -700h-119z" />
    <glyph glyph-name="J" unicode="J" horiz-adv-x="509" 
d="M-25 130l116 38q20 -69 82 -69q44 0 66.5 28.5t35.5 103.5l83 469h123l-86 -484q-20 -116 -74.5 -171t-154.5 -55q-75 0 -124 37.5t-67 102.5z" />
    <glyph glyph-name="K" unicode="K" horiz-adv-x="708" 
d="M269 700l-56 -317l340 317h151l-309 -289l218 -411h-136l-170 327l-123 -114l-38 -213h-119l123 700h119z" />
    <glyph glyph-name="L" unicode="L" horiz-adv-x="571" 
d="M27 0l123 700h119l-104 -589h348l-19 -111h-467z" />
    <glyph glyph-name="M" unicode="M" horiz-adv-x="872" 
d="M689 495h-2l-268 -303h-8l-173 320h-2l-91 -512h-118l123 700h118l171 -317l279 317h127l-123 -700h-120z" />
    <glyph glyph-name="N" unicode="N" horiz-adv-x="790" 
d="M27 0l123 700h113l293 -496h3l87 496h118l-123 -700h-102l-302 509h-2l-89 -509h-119z" />
    <glyph glyph-name="O" unicode="O" horiz-adv-x="828" 
d="M389 -10q-148 0 -245 95t-97 235q0 163 110.5 276.5t281.5 113.5q148 0 245.5 -96t97.5 -235q0 -163 -110.5 -276t-282.5 -113zM393 99q114 0 190 80t76 197q0 97 -62 161t-163 64q-114 0 -189.5 -80t-75.5 -198q0 -97 62 -160.5t162 -63.5z" />
    <glyph glyph-name="P" unicode="P" horiz-adv-x="623" 
d="M150 700h223q108 0 171 -48t63 -136q0 -114 -77.5 -173.5t-201.5 -59.5h-132l-50 -283h-119zM214 384h119q65 0 108.5 30.5t43.5 94.5q0 88 -125 88h-108z" />
    <glyph glyph-name="Q" unicode="Q" horiz-adv-x="842" 
d="M392 109q114 0 190 77.5t76 191.5q0 97 -62 160t-163 63q-114 0 -189 -78t-75 -196q0 -96 61.5 -157t161.5 -61zM771 0h-381q-149 0 -246 93t-97 231q0 163 109.5 274.5t281.5 111.5q148 0 245.5 -95t97.5 -234q0 -89 -44 -166t-122 -115v-2h173z" />
    <glyph glyph-name="R" unicode="R" horiz-adv-x="635" 
d="M554 0h-123l-120 283h-115l-50 -283h-119l123 700h223q108 0 171 -48t63 -136q0 -89 -48.5 -145.5t-132.5 -76.5zM214 384h119q65 0 108.5 30.5t43.5 94.5q0 88 -125 88h-108z" />
    <glyph glyph-name="S" unicode="S" horiz-adv-x="588" 
d="M569 602l-96 -72q-50 73 -144 73q-51 0 -87 -23.5t-36 -71.5q0 -32 33 -59t102 -54q86 -33 132 -77t46 -111q0 -104 -76 -160.5t-192 -56.5q-155 0 -249 119l88 79q72 -90 165 -90q62 0 102 24t40 76q0 32 -26.5 55.5t-90.5 47.5q-94 35 -145.5 81t-51.5 118
q0 100 71.5 155t183.5 55q150 0 231 -108z" />
    <glyph glyph-name="T" unicode="T" horiz-adv-x="602" 
d="M615 590h-213l-105 -590h-120l105 590h-213l19 110h545z" />
    <glyph glyph-name="U" unicode="U" horiz-adv-x="741" 
d="M523 287l72 413h120l-77 -430q-24 -133 -100.5 -206.5t-199.5 -73.5q-119 0 -193.5 68t-74.5 181q0 27 9 84l66 377h121l-67 -378q-8 -48 -8 -71q0 -70 41 -111t109 -41q73 0 119 48t63 140z" />
    <glyph glyph-name="V" unicode="V" horiz-adv-x="676" 
d="M293 182l290 518h135l-408 -704h-107l-129 704h126l91 -518h2z" />
    <glyph glyph-name="W" unicode="W" horiz-adv-x="957" 
d="M99 700h120l35 -491h2l230 493h109l38 -496h2l219 494h127l-327 -704h-110l-41 500h-2l-234 -500h-113z" />
    <glyph glyph-name="X" unicode="X" horiz-adv-x="685" 
d="M327 257l-216 -257h-146l309 360l-157 340h135l109 -244l205 244h147l-300 -348l164 -352h-135z" />
    <glyph glyph-name="Y" unicode="Y" horiz-adv-x="630" 
d="M65 700h135l113 -289h2l221 289h146l-327 -410l-51 -290h-120l51 289z" />
    <glyph glyph-name="Z" unicode="Z" horiz-adv-x="680" 
d="M559 0h-548l17 107l461 484h-363l19 109h520l-18 -108l-457 -483h388z" />
    <glyph glyph-name="bracketleft" unicode="[" horiz-adv-x="374" 
d="M3 -160l157 890h230l-17 -92h-117l-123 -706h116l-16 -92h-230z" />
    <glyph glyph-name="backslash" unicode="\" horiz-adv-x="449" 
d="M164 781l231 -941h-105l-231 941h105z" />
    <glyph glyph-name="bracketright" unicode="]" horiz-adv-x="365" 
d="M350 730l-157 -890h-229l17 92h116l123 706h-116l16 92h230z" />
    <glyph glyph-name="asciicircum" unicode="^" horiz-adv-x="444" 
d="M35 441l194 259h83l110 -259h-91l-72 179l-130 -179h-94z" />
    <glyph glyph-name="underscore" unicode="_" horiz-adv-x="569" 
d="M-1 -152v76h571v-76h-571z" />
    <glyph glyph-name="grave" unicode="`" horiz-adv-x="456" 
d="M235 750l68 -165h-79l-98 115z" />
    <glyph glyph-name="a" unicode="a" horiz-adv-x="550" 
d="M242 311q65 0 129 -15l5 25q8 46 -15.5 73.5t-73.5 27.5q-44 0 -78.5 -11t-80.5 -38l-48 75q107 68 214 68q99 0 154.5 -51t37.5 -153l-55 -312h-111l11 61q-69 -71 -167 -71q-68 0 -112.5 36t-44.5 107q0 87 66 132.5t169 45.5zM352 190l5 27q-54 14 -111 14
q-131 0 -131 -92q0 -33 23 -50t60 -17q50 0 97.5 34t56.5 84z" />
    <glyph glyph-name="b" unicode="b" horiz-adv-x="624" 
d="M14 0l131 750h115l-53 -303h2q66 69 164 69q86 0 143.5 -63t57.5 -169q0 -116 -75.5 -205t-198.5 -89q-49 0 -92 24t-64 60h-3l-13 -74h-114zM291 91q71 0 119 56t48 133q0 62 -36 99t-90 37q-70 0 -119 -56.5t-49 -132.5q0 -62 36.5 -99t90.5 -37z" />
    <glyph glyph-name="c" unicode="c" horiz-adv-x="534" 
d="M409 150l65 -69q-89 -91 -211 -91q-107 0 -170.5 65t-63.5 168q0 121 78.5 207t199.5 86q133 0 204 -93l-84 -67q-48 59 -121 59q-69 0 -114.5 -55.5t-45.5 -133.5q0 -63 35.5 -99.5t94.5 -36.5q70 0 133 60z" />
    <glyph glyph-name="d" unicode="d" horiz-adv-x="637" 
d="M274 90q69 0 117 55.5t48 129.5q0 64 -37.5 102t-92.5 38q-73 0 -118 -55t-45 -131q0 -64 36 -101.5t92 -37.5zM29 223q0 118 75 205.5t196 87.5q105 0 160 -81h2l56 315h115l-132 -750h-114l9 53h-2q-59 -62 -151 -62q-89 0 -151.5 61t-62.5 171z" />
    <glyph glyph-name="e" unicode="e" horiz-adv-x="563" 
d="M253 -10q-100 0 -162 64.5t-62 170.5q0 122 71.5 206.5t192.5 84.5q103 0 162 -64.5t59 -161.5q0 -31 -8 -79h-364q4 -57 33 -91.5t86 -34.5q84 0 152 65l64 -66q-96 -94 -224 -94zM150 291h250q0 1 0.5 6t0.5 7q0 54 -28.5 87.5t-81.5 33.5q-58 0 -93.5 -36t-47.5 -98z
" />
    <glyph glyph-name="f" unicode="f" horiz-adv-x="373" 
d="M49 0l72 408h-66l18 98h66l15 81q31 173 178 173q64 0 102 -19l-29 -93q-30 12 -62 12t-50.5 -21.5t-26.5 -67.5l-11 -65h114l-18 -98h-114l-72 -408h-116z" />
    <glyph glyph-name="g" unicode="g" horiz-adv-x="634" 
d="M30 233q0 112 75 197.5t190 85.5q116 0 162 -86h2l14 76h115l-80 -460q-22 -122 -96 -181.5t-204 -59.5t-223 71l60 87q74 -56 168 -56q157 0 181 148l6 38h-2q-68 -68 -160 -68q-89 0 -148.5 58t-59.5 150zM265 127q69 0 121.5 48t52.5 118q0 56 -38.5 89t-96.5 33
q-64 0 -110 -49.5t-46 -117.5q0 -55 30.5 -88t86.5 -33z" />
    <glyph glyph-name="h" unicode="h" horiz-adv-x="584" 
d="M14 0l132 750h115l-52 -295h2q64 61 148 61q81 0 127.5 -59t30.5 -150l-55 -307h-114l51 289q10 58 -14 91t-73 33t-86 -36.5t-47 -95.5l-51 -281h-114z" />
    <glyph glyph-name="i" unicode="i" horiz-adv-x="261" 
d="M14 0l89 506h115l-89 -506h-115zM261 669q0 -30 -21.5 -51.5t-51.5 -21.5t-51 21.5t-21 51.5t21 51t51 21t51.5 -21t21.5 -51z" />
    <glyph glyph-name="j" unicode="j" horiz-adv-x="268" 
d="M-36 -195q-36 0 -74 9l27 96q11 -3 35 -3q52 0 64 69l93 530h115l-95 -543q-29 -158 -165 -158zM268 669q0 -30 -21.5 -51.5t-51.5 -21.5t-51.5 21.5t-21.5 51.5t21.5 51t51.5 21t51.5 -21t21.5 -51z" />
    <glyph glyph-name="k" unicode="k" horiz-adv-x="541" 
d="M357 0l-119 229l-81 -71l-29 -158h-114l132 750h115l-78 -444l225 200h138l-227 -203l161 -303h-123z" />
    <glyph glyph-name="l" unicode="l" horiz-adv-x="265" 
d="M14 0l132 750h115l-133 -750h-114z" />
    <glyph glyph-name="m" unicode="m" horiz-adv-x="885" 
d="M14 0l89 506h115l-9 -51h2q66 61 143 61q42 0 77.5 -21t48.5 -58h2q67 79 173 79q84 0 131.5 -57.5t31.5 -149.5l-54 -309h-114l51 291q10 57 -13 89.5t-71 32.5q-46 0 -78 -33t-42 -94l-50 -286h-114l50 289q11 59 -10 91.5t-70 32.5q-45 0 -80 -36t-45 -96l-49 -281
h-115z" />
    <glyph glyph-name="n" unicode="n" horiz-adv-x="584" 
d="M14 0l89 506h115l-9 -51h2q64 61 148 61q81 0 127.5 -59t30.5 -150l-55 -307h-114l51 289q10 58 -14 91t-73 33t-86 -36.5t-47 -95.5l-51 -281h-114z" />
    <glyph glyph-name="o" unicode="o" horiz-adv-x="612" 
d="M273 -10q-109 0 -176.5 66t-67.5 173q0 121 83.5 204t204.5 83q109 0 177.5 -66.5t68.5 -173.5q0 -123 -81 -204.5t-209 -81.5zM278 90q73 0 121 53t48 129q0 63 -36.5 103t-97.5 40q-73 0 -120 -53t-47 -130q0 -62 36 -102t96 -40z" />
    <glyph glyph-name="p" unicode="p" horiz-adv-x="636" 
d="M103 506h116l-10 -59h2q66 69 164 69q86 0 143.5 -63t57.5 -169q0 -116 -75.5 -205t-198.5 -89q-50 0 -93 24t-64 60h-2l-46 -264h-115zM293 91q71 0 119 56t48 133q0 62 -36 99t-90 37q-70 0 -119 -56.5t-49 -132.5q0 -62 36.5 -99t90.5 -37z" />
    <glyph glyph-name="q" unicode="q" horiz-adv-x="636" 
d="M274 90q69 0 117 55.5t48 129.5q0 64 -37.5 102t-92.5 38q-73 0 -118 -55t-45 -131q0 -64 36 -101.5t92 -37.5zM475 506h115l-122 -696h-114l42 243h-2q-59 -62 -151 -62q-90 0 -152 59.5t-62 168.5q0 119 75.5 208t195.5 89q105 0 160 -81h2z" />
    <glyph glyph-name="r" unicode="r" horiz-adv-x="381" 
d="M218 506l-10 -52h2q54 61 149 61q14 0 32 -2l-26 -106q-21 7 -45 7q-60 0 -95.5 -35.5t-50.5 -119.5l-46 -259h-114l89 506h115z" />
    <glyph glyph-name="s" unicode="s" horiz-adv-x="456" 
d="M186 -10q-106 0 -188 75l67 80q64 -62 127 -62q80 0 80 54q0 29 -47 55l-42 20q-28 13 -45 23.5t-38 28t-31.5 41t-10.5 52.5q0 76 56.5 117.5t139.5 41.5q112 0 173 -70l-79 -72q-45 50 -100 50q-30 0 -51 -14.5t-21 -42.5q0 -10 5 -20t10.5 -16t18.5 -14t19 -11
l22 -10.5t19 -8.5q56 -26 89 -58.5t33 -82.5q0 -74 -60.5 -115t-145.5 -41z" />
    <glyph glyph-name="t" unicode="t" horiz-adv-x="402" 
d="M213 -10q-61 0 -99.5 34t-37.5 107q0 18 5 43l40 232h-84l18 100h84l22 125h117l-22 -125h129l-18 -100h-129l-41 -234q-3 -16 -2 -26q0 -55 57 -55q46 0 79 12l-17 -96q-45 -17 -101 -17z" />
    <glyph glyph-name="u" unicode="u" horiz-adv-x="597" 
d="M462 0h-113l8 51h-2q-64 -61 -149 -61q-81 0 -127.5 58.5t-30.5 149.5l54 308h115l-51 -290q-10 -58 14 -90.5t73 -32.5t86 36t47 95l51 282h114z" />
    <glyph glyph-name="v" unicode="v" horiz-adv-x="547" 
d="M158 -4l-112 510h119l70 -364h1l200 364h126l-293 -510h-111z" />
    <glyph glyph-name="w" unicode="w" horiz-adv-x="799" 
d="M122 -4l-68 510h113l39 -337h2l166 337h99l49 -337h3l155 337h121l-246 -510h-110l-48 340h-2l-167 -340h-106z" />
    <glyph glyph-name="x" unicode="x" horiz-adv-x="565" 
d="M351 0l-88 169h-2l-148 -169h-138l231 257l-137 249h129l85 -163h2l142 163h138l-226 -251l141 -255h-129z" />
    <glyph glyph-name="y" unicode="y" horiz-adv-x="563" 
d="M43 506h122l100 -350h2l182 350h124l-302 -558q-42 -77 -88 -110t-114 -33q-64 0 -117 31l39 92q42 -21 77 -21q33 0 57.5 18.5t50.5 64.5l16 30z" />
    <glyph glyph-name="z" unicode="z" horiz-adv-x="522" 
d="M-1 0l15 83l314 324h-254l18 99h402l-15 -86l-313 -323h273l-18 -97h-422z" />
    <glyph glyph-name="braceleft" unicode="{" horiz-adv-x="404" 
d="M270 -160h-73q-47 0 -77.5 28.5t-30.5 83.5q0 18 3 40l27 157q2 7 2 20q0 35 -27 52.5t-56 17.5l16 90q33 0 69 22.5t44 67.5l31 177q23 134 128 134h94l-16 -90h-41q-57 0 -70 -72l-30 -169q-19 -103 -113 -116l-1 -3q28 -3 51 -25.5t23 -67.5q0 -14 -3 -32l-28 -154
q-2 -16 -2 -24q0 -47 49 -47h47z" />
    <glyph glyph-name="bar" unicode="|" horiz-adv-x="316" 
d="M19 -100l155 880h117l-155 -880h-117z" />
    <glyph glyph-name="braceright" unicode="}" horiz-adv-x="404" 
d="M63 -160h-99l16 90h41q58 0 71 71l31 172q19 109 113 117l1 2q-28 4 -51.5 26.5t-23.5 66.5q0 13 3 29l27 154q3 12 3 25q0 47 -49 47h-47l16 90h85q44 0 72 -24t28 -74q0 -21 -5 -43l-30 -170q-2 -14 -2 -20q0 -35 27 -52.5t56 -17.5l-16 -90q-19 0 -41.5 -8t-44 -29.5
t-26.5 -52.5l-30 -165q-14 -76 -45 -110t-80 -34z" />
    <glyph glyph-name="asciitilde" unicode="~" horiz-adv-x="468" 
d="M91 223l-47 61q48 89 127 89q29 0 74.5 -19.5t61.5 -19.5q38 0 71 46l46 -65q-46 -87 -126 -87q-30 0 -75.5 20t-60.5 20q-40 0 -71 -45z" />
    <glyph glyph-name="nbspace" unicode="&#xa0;" horiz-adv-x="156" 
 />
    <glyph glyph-name="exclamdown" unicode="&#xa1;" horiz-adv-x="308" 
d="M82 285h120l-84 -474h-120zM92 440q0 31 22 53t54 22q31 0 53 -22t22 -53t-22 -53t-54 -22q-31 0 -53 22t-22 53z" />
    <glyph glyph-name="cent" unicode="&#xa2;" horiz-adv-x="523" 
d="M188 -114l20 117q-82 14 -130.5 73t-48.5 147q0 117 76.5 199.5t191.5 83.5l17 98h53l-18 -102q96 -16 151 -86l-82 -66q-39 44 -86 54l-54 -306q64 3 122 58l64 -68q-86 -86 -203 -89l-20 -113h-53zM143 226q0 -48 22 -79t61 -43l53 302q-58 -7 -97 -58.5t-39 -121.5z
" />
    <glyph glyph-name="sterling" unicode="&#xa3;" horiz-adv-x="571" 
d="M596 638l-76 -75q-41 44 -95 44q-101 0 -126 -131l-12 -71h170l-16 -87h-169l-40 -223h244l-16 -95h-455l16 95h94l39 223h-94l15 87h94l15 83q38 222 236 222q112 0 176 -72z" />
    <glyph glyph-name="currency" unicode="&#xa4;" horiz-adv-x="650" 
d="M326 93q-104 0 -174 71t-70 173t70 173t174 71q106 0 176 -71t70 -173t-70 -173t-176 -71zM326 182q65 0 107 45t42 110t-43 110t-106 45q-64 0 -106 -45t-42 -110t42.5 -110t105.5 -45zM107 508l-53 51l48 48l53 -52zM547 67l-52 52l48 47l52 -51zM495 555l52 52l48 -48
l-52 -51zM54 115l53 51l48 -47l-53 -52z" />
    <glyph glyph-name="yen" unicode="&#xa5;" horiz-adv-x="630" 
d="M35 245h191l9 44l-19 44h-165l10 59h131l-127 308h135l113 -289h2l221 289h146l-246 -308h137l-10 -59h-174l-34 -43l-8 -45h200l-10 -59h-201l-32 -186h-120l32 186h-191z" />
    <glyph glyph-name="brokenbar" unicode="&#xa6;" horiz-adv-x="316" 
d="M228 426h-116l62 354h117zM136 -99h-117l62 353h116z" />
    <glyph glyph-name="section" unicode="&#xa7;" horiz-adv-x="546" 
d="M185 -138q-102 0 -187 82l68 68q56 -59 127 -59q46 0 78.5 18.5t32.5 56.5q0 19 -19 36t-37 25l-58 25q-58 25 -94 59t-36 90q0 54 34.5 95.5t92.5 63.5q-71 43 -71 112q0 82 62.5 129t153.5 47q117 0 185 -70l-74 -73q-45 49 -113 49q-44 0 -72 -21.5t-28 -55.5
q0 -15 6.5 -27t24 -23.5t26.5 -16t35.5 -15.5t28.5 -12q57 -25 90.5 -56t33.5 -82q0 -54 -36 -96.5t-97 -62.5q31 -16 54.5 -47t23.5 -68q0 -82 -68 -126.5t-167 -44.5zM276 363q-41 0 -76.5 -22.5t-35.5 -63.5q0 -32 29 -50.5t68 -18.5q43 0 77.5 24t34.5 62q0 33 -28.5 51
t-68.5 18z" />
    <glyph glyph-name="dieresis" unicode="&#xa8;" horiz-adv-x="456" 
d="M357 719q28 0 48.5 -19.5t20.5 -47.5q0 -29 -20 -49t-48 -20q-29 0 -48.5 20.5t-19.5 48.5q0 27 20 47t47 20zM169 583q-28 0 -48 20.5t-20 48.5q0 27 20 47t47 20q28 0 48.5 -19.5t20.5 -47.5q0 -29 -20 -49t-48 -20z" />
    <glyph glyph-name="copyright" unicode="&#xa9;" horiz-adv-x="820" 
d="M412 -10q-150 0 -254 105.5t-104 254.5q0 147 105 253.5t255 106.5t254 -105.5t104 -254.5q0 -147 -105 -253.5t-255 -106.5zM412 44q128 0 216.5 90t88.5 216q0 125 -87.5 215.5t-215.5 90.5t-216 -90t-88 -216q0 -125 87.5 -215.5t214.5 -90.5zM519 286l54 -48
q-62 -74 -153 -74q-87 0 -141.5 55t-54.5 138q0 82 54.5 137t141.5 55q90 0 144 -64l-56 -49q-33 41 -89 41q-49 0 -80 -33t-31 -87t31 -87.5t79 -33.5q57 0 101 50z" />
    <glyph glyph-name="ordfeminine" unicode="&#xaa;" horiz-adv-x="419" 
d="M236 567q42 0 88 -10l1 8q6 32 -12.5 50t-54.5 18q-46 0 -102 -33l-31 60q73 44 142 44t111.5 -35.5t30.5 -104.5l-37 -214h-84l7 44h-2q-47 -51 -115 -51q-48 0 -79 26t-31 70q0 62 48 95t120 33zM310 479l4 19q-40 9 -77 9q-34 0 -58.5 -17t-24.5 -46q0 -38 50 -38
q35 0 67.5 21t38.5 52z" />
    <glyph glyph-name="guillemotleft" unicode="&#xab;" horiz-adv-x="548" 
d="M455 84l-84 -45l-119 224l198 223l66 -55l-151 -173zM225 84l-84 -45l-120 224l198 223l66 -55l-151 -173z" />
    <glyph glyph-name="logicalnot" unicode="&#xac;" horiz-adv-x="615" 
d="M428 147l29 163h-411l19 103h514l-48 -266h-103z" />
    <glyph glyph-name="uni00AD" unicode="&#xad;" horiz-adv-x="386" 
d="M39 244l20 116h287l-21 -116h-286z" />
    <glyph glyph-name="registered" unicode="&#xae;" horiz-adv-x="820" 
d="M412 -10q-150 0 -254 105.5t-104 254.5q0 147 105 253.5t255 106.5t254 -105.5t104 -254.5q0 -147 -105 -253.5t-255 -106.5zM412 44q128 0 216.5 90t88.5 216q0 125 -87.5 215.5t-215.5 90.5t-216 -90t-88 -216q0 -125 87.5 -215.5t214.5 -90.5zM496 172l-93 144h-49
v-144h-81v376h152q64 0 104 -30t40 -85q0 -81 -84 -107l101 -154h-90zM485 433q0 46 -63 46h-68v-93h68q63 0 63 47z" />
    <glyph glyph-name="macron" unicode="&#xaf;" horiz-adv-x="456" 
d="M74 613l16 87h291l-15 -87h-292z" />
    <glyph glyph-name="degree" unicode="&#xb0;" horiz-adv-x="412" 
d="M415 561q0 -77 -52 -126t-126 -49q-62 0 -105 43t-43 106q0 73 50.5 124t126.5 51q63 0 106 -43.5t43 -105.5zM340 557q0 34 -22 58t-57 24q-45 0 -72 -30t-27 -72q0 -33 23 -56.5t57 -23.5q45 0 71.5 28.5t26.5 71.5z" />
    <glyph glyph-name="plusminus" unicode="&#xb1;" horiz-adv-x="579" 
d="M532 316h-182l-29 -163h-95l29 163h-185l16 91h184l29 162h95l-29 -162h183zM477 0h-462l16 91h461z" />
    <glyph glyph-name="twosuperior" unicode="&#xb2;" horiz-adv-x="330" 
d="M52 410l127 104l16 13t15.5 13l13 11.5t12 12.5l8 12t6.5 13.5t2 13.5q0 16 -10.5 25t-27.5 9q-20 0 -35 -12.5t-21 -34.5l-76 8q29 107 136 107q50 0 82 -25t32 -68q0 -39 -20 -65.5t-68 -64.5l-73 -60h135l-14 -72h-251z" />
    <glyph glyph-name="threesuperior" unicode="&#xb3;" horiz-adv-x="308" 
d="M296 456q0 -47 -39 -79.5t-98 -32.5q-53 0 -87 27t-42 71l79 15q2 -21 16 -32.5t35 -11.5q25 0 40.5 13t15.5 38q0 37 -51 37h-34l11 59h33q26 0 42 11.5t16 33.5q0 14 -11.5 22.5t-27.5 8.5q-37 0 -50 -36l-76 15q31 90 132 90q46 0 78 -24.5t32 -64.5q0 -33 -19.5 -56
t-52.5 -31q27 -8 42.5 -27.5t15.5 -45.5z" />
    <glyph glyph-name="acute" unicode="&#xb4;" horiz-adv-x="456" 
d="M121 585l115 165l103 -50l-133 -115h-85z" />
    <glyph glyph-name="mu" unicode="&#xb5;" horiz-adv-x="602" 
d="M143 57h-1l-44 -247h-116l123 696h115l-51 -286q-10 -59 14.5 -93.5t78.5 -34.5q48 0 82.5 34t45.5 95l50 285h116l-89 -506h-115l10 56h-2q-52 -63 -117 -63q-72 0 -100 64z" />
    <glyph glyph-name="paragraph" unicode="&#xb6;" horiz-adv-x="585" 
d="M251 0l47 267q-107 0 -174 54.5t-67 141.5q0 116 84 176.5t222 60.5h69l-123 -700h-58zM496 700h58l-123 -700h-58z" />
    <glyph glyph-name="periodcentered" unicode="&#xb7;" horiz-adv-x="268" 
d="M215 309q0 -32 -22 -54t-54 -22t-53.5 22t-21.5 54q0 31 22 52.5t53 21.5q32 0 54 -21.5t22 -52.5z" />
    <glyph glyph-name="cedilla" unicode="&#xb8;" horiz-adv-x="456" 
d="M320 -118q0 -51 -42 -76.5t-99 -25.5q-64 0 -113 26l29 43q38 -16 80 -16q66 0 66 44q0 29 -43 29q-17 0 -42 -9l-24 24l77 89h61l-53 -60h16q36 -1 61.5 -18.5t25.5 -49.5z" />
    <glyph glyph-name="onesuperior" unicode="&#xb9;" horiz-adv-x="266" 
d="M166 625l-67 -35l-23 58l104 52h79l-61 -350h-80z" />
    <glyph glyph-name="ordmasculine" unicode="&#xba;" horiz-adv-x="446" 
d="M251 345q-74 0 -124.5 45.5t-50.5 117.5q0 86 60 141t145 55q76 0 127 -45t51 -118q0 -85 -62 -140.5t-146 -55.5zM256 422q47 0 79 34t32 80q0 38 -24.5 64.5t-65.5 26.5q-49 0 -79.5 -34.5t-30.5 -80.5q0 -39 24.5 -64.5t64.5 -25.5z" />
    <glyph glyph-name="guillemotright" unicode="&#xbb;" horiz-adv-x="548" 
d="M73 39l-66 56l153 173l-92 173l85 45l120 -223zM304 39l-66 56l152 173l-91 173l84 45l120 -223z" />
    <glyph glyph-name="onequarter" unicode="&#xbc;" horiz-adv-x="715" 
d="M691 67h-42l-11 -67h-80l12 67h-160l12 69l170 214h107l-38 -214h42zM581 136l23 129l-100 -129h77zM166 625l-67 -35l-23 58l104 52h79l-61 -350h-80zM72 -30l577 801l61 -43l-578 -801z" />
    <glyph glyph-name="onehalf" unicode="&#xbd;" horiz-adv-x="730" 
d="M452 60l127 104l16 13t15.5 13l13 11.5t12 12.5l8 12t6.5 13.5t2 13.5q0 16 -10.5 25t-27.5 9q-20 0 -35 -12.5t-21 -34.5l-76 8q29 107 136 107q50 0 82 -25t32 -68q0 -39 -20 -65.5t-68 -64.5l-73 -60h135l-14 -72h-251zM166 625l-67 -35l-23 58l104 52h79l-61 -350
h-80zM45 -30l577 801l61 -43l-578 -801z" />
    <glyph glyph-name="threequarters" unicode="&#xbe;" horiz-adv-x="742" 
d="M712 67h-42l-11 -67h-80l12 67h-160l12 69l170 214h107l-38 -214h42zM602 136l23 129l-100 -129h77zM296 456q0 -47 -39 -79.5t-98 -32.5q-53 0 -87 27t-42 71l79 15q2 -21 16 -32.5t35 -11.5q25 0 40.5 13t15.5 38q0 37 -51 37h-34l11 59h33q26 0 42 11.5t16 33.5
q0 14 -11.5 22.5t-27.5 8.5q-37 0 -50 -36l-76 15q31 90 132 90q46 0 78 -24.5t32 -64.5q0 -33 -19.5 -56t-52.5 -31q27 -8 42.5 -27.5t15.5 -45.5zM93 -30l577 801l61 -43l-578 -801z" />
    <glyph glyph-name="questiondown" unicode="&#xbf;" horiz-adv-x="523" 
d="M326 14l108 -29q-27 -86 -89.5 -134t-158.5 -48q-87 0 -145.5 43t-58.5 121q0 90 88 159l87 69q26 20 36 37.5t15 46.5l5 29h116l-7 -36q-8 -45 -21 -73.5t-44 -51.5l-99 -77q-52 -42 -52 -87q0 -34 26 -53.5t66 -19.5q97 0 128 104zM216 443q0 31 22 53t54 22t53.5 -22
t21.5 -53t-21.5 -53t-53.5 -22t-54 22t-22 53z" />
    <glyph glyph-name="Agrave" unicode="&#xc0;" horiz-adv-x="715" 
d="M181 163l-94 -163h-133l421 703h114l141 -703h-124l-30 163h-295zM241 264h218l-52 283h-2zM403 916l68 -165h-79l-98 115z" />
    <glyph glyph-name="Aacute" unicode="&#xc1;" horiz-adv-x="715" 
d="M181 163l-94 -163h-133l421 703h114l141 -703h-124l-30 163h-295zM241 264h218l-52 283h-2zM397 752l115 165l103 -50l-133 -115h-85z" />
    <glyph glyph-name="Acircumflex" unicode="&#xc2;" horiz-adv-x="715" 
d="M181 163l-94 -163h-133l421 703h114l141 -703h-124l-30 163h-295zM241 264h218l-52 283h-2zM266 753l138 148h110l91 -148h-94l-58 84l-84 -84h-103z" />
    <glyph glyph-name="Atilde" unicode="&#xc3;" horiz-adv-x="715" 
d="M181 163l-94 -163h-133l421 703h114l141 -703h-124l-30 163h-295zM241 264h218l-52 283h-2zM297 750l-45 55q49 90 125 90q30 0 75.5 -21t60.5 -21q36 0 71 47l48 -59q-47 -87 -127 -87q-30 0 -75.5 21t-60.5 21q-39 0 -72 -46z" />
    <glyph glyph-name="Adieresis" unicode="&#xc4;" horiz-adv-x="715" 
d="M181 163l-94 -163h-133l421 703h114l141 -703h-124l-30 163h-295zM241 264h218l-52 283h-2zM541 888q28 0 48.5 -19.5t20.5 -47.5q0 -29 -20 -49t-48 -20q-29 0 -48.5 20.5t-19.5 48.5q0 27 20 47t47 20zM353 752q-28 0 -48 20.5t-20 48.5q0 27 20 47t47 20
q28 0 48.5 -19.5t20.5 -47.5q0 -29 -20 -49t-48 -20z" />
    <glyph glyph-name="Aring" unicode="&#xc5;" horiz-adv-x="715" 
d="M181 163l-94 -163h-133l421 703h114l141 -703h-124l-30 163h-295zM241 264h218l-52 283h-2zM434 656q-47 0 -80 31.5t-33 76.5q0 44 33 76.5t80 32.5t80 -32t33 -78q0 -44 -33 -75.5t-80 -31.5zM434 704q25 0 42.5 17t17.5 43t-17 43t-43 17q-25 0 -42.5 -17t-17.5 -44
q0 -25 18 -42t42 -17z" />
    <glyph glyph-name="AE" unicode="&#xc6;" horiz-adv-x="1028" 
d="M431 0l28 160h-260l-115 -160h-130l507 700h551l-20 -109h-337l-31 -176h313l-19 -106h-313l-35 -199h360l-19 -110h-480zM507 591l-237 -330h207l58 330h-28z" />
    <glyph glyph-name="Ccedilla" unicode="&#xc7;" horiz-adv-x="715" 
d="M370 -10q-149 0 -235 93.5t-86 228.5q0 169 107 283.5t281 114.5q83 0 142 -25.5t105 -80.5l-97 -72q-52 69 -155 69q-113 0 -186.5 -81t-73.5 -204q0 -94 54 -155.5t150 -61.5q108 0 189 82l79 -81q-62 -56 -126 -83t-148 -27zM455 -118q0 -51 -42 -76.5t-99 -25.5
q-64 0 -113 26l29 43q38 -16 80 -16q66 0 66 44q0 29 -43 29q-17 0 -42 -9l-24 24l77 89h61l-53 -60h16q36 -1 61.5 -18.5t25.5 -49.5z" />
    <glyph glyph-name="Egrave" unicode="&#xc8;" horiz-adv-x="639" 
d="M27 0l123 700h472l-19 -109h-352l-32 -176h329l-19 -106h-328l-36 -199h376l-19 -110h-495zM392 917l68 -165h-79l-98 115z" />
    <glyph glyph-name="Eacute" unicode="&#xc9;" horiz-adv-x="639" 
d="M344 751l115 165l103 -50l-133 -115h-85zM27 0l123 700h472l-19 -109h-352l-32 -176h329l-19 -106h-328l-36 -199h376l-19 -110h-495z" />
    <glyph glyph-name="Ecircumflex" unicode="&#xca;" horiz-adv-x="639" 
d="M232 753l138 148h110l91 -148h-94l-58 84l-84 -84h-103zM27 0l123 700h472l-19 -109h-352l-32 -176h329l-19 -106h-328l-36 -199h376l-19 -110h-495z" />
    <glyph glyph-name="Edieresis" unicode="&#xcb;" horiz-adv-x="639" 
d="M498 889q28 0 48.5 -19.5t20.5 -47.5q0 -29 -20 -49t-48 -20q-29 0 -48.5 20.5t-19.5 48.5q0 27 20 47t47 20zM310 753q-28 0 -48 20.5t-20 48.5q0 27 20 47t47 20q28 0 48.5 -19.5t20.5 -47.5q0 -29 -20 -49t-48 -20zM27 0l123 700h472l-19 -109h-352l-32 -176h329
l-19 -106h-328l-36 -199h376l-19 -110h-495z" />
    <glyph glyph-name="Igrave" unicode="&#xcc;" horiz-adv-x="295" 
d="M37 0l123 700h119l-123 -700h-119zM189 917l68 -165h-79l-98 115z" />
    <glyph glyph-name="Iacute" unicode="&#xcd;" horiz-adv-x="295" 
d="M37 0l123 700h119l-123 -700h-119zM165 752l115 165l103 -50l-133 -115h-85z" />
    <glyph glyph-name="Icircumflex" unicode="&#xce;" horiz-adv-x="295" 
d="M37 0l123 700h119l-123 -700h-119zM39 754l138 148h110l91 -148h-94l-58 84l-84 -84h-103z" />
    <glyph glyph-name="Idieresis" unicode="&#xcf;" horiz-adv-x="295" 
d="M37 0l123 700h119l-123 -700h-119zM313 888q28 0 48.5 -19.5t20.5 -47.5q0 -29 -20 -49t-48 -20q-29 0 -48.5 20.5t-19.5 48.5q0 27 20 47t47 20zM125 752q-28 0 -48 20.5t-20 48.5q0 27 20 47t47 20q28 0 48.5 -19.5t20.5 -47.5q0 -29 -20 -49t-48 -20z" />
    <glyph glyph-name="Eth" unicode="&#xd0;" horiz-adv-x="769" 
d="M299 0h-260l53 307h-73l19 107h74l50 286h214q156 0 251 -83t95 -226q0 -178 -121.5 -284.5t-301.5 -106.5zM178 109h127q125 0 209.5 74.5t84.5 203.5q0 97 -61 150.5t-170 53.5h-106l-31 -177h168l-19 -107h-168z" />
    <glyph glyph-name="Ntilde" unicode="&#xd1;" horiz-adv-x="790" 
d="M27 0l123 700h113l293 -496h3l87 496h118l-123 -700h-102l-302 509h-2l-89 -509h-119zM328 753l-45 55q49 90 125 90q30 0 75.5 -21t60.5 -21q36 0 71 47l48 -59q-47 -87 -127 -87q-30 0 -75.5 21t-60.5 21q-39 0 -72 -46z" />
    <glyph glyph-name="Ograve" unicode="&#xd2;" horiz-adv-x="828" 
d="M389 -10q-148 0 -245 95t-97 235q0 163 110.5 276.5t281.5 113.5q148 0 245.5 -96t97.5 -235q0 -163 -110.5 -276t-282.5 -113zM393 99q114 0 190 80t76 197q0 97 -62 161t-163 64q-114 0 -189.5 -80t-75.5 -198q0 -97 62 -160.5t162 -63.5zM432 917l68 -165h-79l-98 115
z" />
    <glyph glyph-name="Oacute" unicode="&#xd3;" horiz-adv-x="828" 
d="M402 752l115 165l103 -50l-133 -115h-85zM389 -10q-148 0 -245 95t-97 235q0 163 110.5 276.5t281.5 113.5q148 0 245.5 -96t97.5 -235q0 -163 -110.5 -276t-282.5 -113zM393 99q114 0 190 80t76 197q0 97 -62 161t-163 64q-114 0 -189.5 -80t-75.5 -198q0 -97 62 -160.5
t162 -63.5z" />
    <glyph glyph-name="Ocircumflex" unicode="&#xd4;" horiz-adv-x="828" 
d="M283 754l138 148h110l91 -148h-94l-58 84l-84 -84h-103zM389 -10q-148 0 -245 95t-97 235q0 163 110.5 276.5t281.5 113.5q148 0 245.5 -96t97.5 -235q0 -163 -110.5 -276t-282.5 -113zM393 99q114 0 190 80t76 197q0 97 -62 161t-163 64q-114 0 -189.5 -80t-75.5 -198
q0 -97 62 -160.5t162 -63.5z" />
    <glyph glyph-name="Otilde" unicode="&#xd5;" horiz-adv-x="828" 
d="M389 -10q-148 0 -245 95t-97 235q0 163 110.5 276.5t281.5 113.5q148 0 245.5 -96t97.5 -235q0 -163 -110.5 -276t-282.5 -113zM393 99q114 0 190 80t76 197q0 97 -62 161t-163 64q-114 0 -189.5 -80t-75.5 -198q0 -97 62 -160.5t162 -63.5zM317 750l-45 55q49 90 125 90
q30 0 75.5 -21t60.5 -21q36 0 71 47l48 -59q-47 -87 -127 -87q-30 0 -75.5 21t-60.5 21q-39 0 -72 -46z" />
    <glyph glyph-name="Odieresis" unicode="&#xd6;" horiz-adv-x="828" 
d="M565 888q28 0 48.5 -19.5t20.5 -47.5q0 -29 -20 -49t-48 -20q-29 0 -48.5 20.5t-19.5 48.5q0 27 20 47t47 20zM377 752q-28 0 -48 20.5t-20 48.5q0 27 20 47t47 20q28 0 48.5 -19.5t20.5 -47.5q0 -29 -20 -49t-48 -20zM389 -10q-148 0 -245 95t-97 235q0 163 110.5 276.5
t281.5 113.5q148 0 245.5 -96t97.5 -235q0 -163 -110.5 -276t-282.5 -113zM393 99q114 0 190 80t76 197q0 97 -62 161t-163 64q-114 0 -189.5 -80t-75.5 -198q0 -97 62 -160.5t162 -63.5z" />
    <glyph glyph-name="multiply" unicode="&#xd7;" horiz-adv-x="583" 
d="M534 441l-166 -142l113 -139l-88 -74l-113 138l-170 -143l-72 86l170 144l-111 135l88 74l110 -135l168 142z" />
    <glyph glyph-name="Oslash" unicode="&#xd8;" horiz-adv-x="846" 
d="M55 320q0 163 110.5 276.5t282.5 113.5q128 0 219 -75l69 65h112l-126 -119q68 -89 68 -202q0 -163 -110 -276t-282 -113q-128 0 -221 74l-69 -64h-111l125 119q-67 88 -67 201zM402 99q114 0 190 80t76 197q0 68 -33 121l-374 -352q61 -46 141 -46zM178 323
q0 -68 31 -121l374 352q-58 47 -140 47q-114 0 -189.5 -80t-75.5 -198z" />
    <glyph glyph-name="Ugrave" unicode="&#xd9;" horiz-adv-x="741" 
d="M523 287l72 413h120l-77 -430q-24 -133 -100.5 -206.5t-199.5 -73.5q-119 0 -193.5 68t-74.5 181q0 27 9 84l66 377h121l-67 -378q-8 -48 -8 -71q0 -70 41 -111t109 -41q73 0 119 48t63 140zM409 917l68 -165h-79l-98 115z" />
    <glyph glyph-name="Uacute" unicode="&#xda;" horiz-adv-x="741" 
d="M378 751l115 165l103 -50l-133 -115h-85zM523 287l72 413h120l-77 -430q-24 -133 -100.5 -206.5t-199.5 -73.5q-119 0 -193.5 68t-74.5 181q0 27 9 84l66 377h121l-67 -378q-8 -48 -8 -71q0 -70 41 -111t109 -41q73 0 119 48t63 140z" />
    <glyph glyph-name="Ucircumflex" unicode="&#xdb;" horiz-adv-x="741" 
d="M252 754l138 148h110l91 -148h-94l-58 84l-84 -84h-103zM523 287l72 413h120l-77 -430q-24 -133 -100.5 -206.5t-199.5 -73.5q-119 0 -193.5 68t-74.5 181q0 27 9 84l66 377h121l-67 -378q-8 -48 -8 -71q0 -70 41 -111t109 -41q73 0 119 48t63 140z" />
    <glyph glyph-name="Udieresis" unicode="&#xdc;" horiz-adv-x="741" 
d="M536 888q28 0 48.5 -19.5t20.5 -47.5q0 -29 -20 -49t-48 -20q-29 0 -48.5 20.5t-19.5 48.5q0 27 20 47t47 20zM348 752q-28 0 -48 20.5t-20 48.5q0 27 20 47t47 20q28 0 48.5 -19.5t20.5 -47.5q0 -29 -20 -49t-48 -20zM523 287l72 413h120l-77 -430
q-24 -133 -100.5 -206.5t-199.5 -73.5q-119 0 -193.5 68t-74.5 181q0 27 9 84l66 377h121l-67 -378q-8 -48 -8 -71q0 -70 41 -111t109 -41q73 0 119 48t63 140z" />
    <glyph glyph-name="Yacute" unicode="&#xdd;" horiz-adv-x="630" 
d="M65 700h135l113 -289h2l221 289h146l-327 -410l-51 -290h-120l51 289zM323 751l115 165l103 -50l-133 -115h-85z" />
    <glyph glyph-name="Thorn" unicode="&#xde;" horiz-adv-x="637" 
d="M269 700l-23 -134h103q108 0 171 -48t63 -136q0 -114 -77.5 -173.5t-201.5 -59.5h-132l-26 -149h-119l123 700h119zM191 251h118q65 0 108.5 30t43.5 94q0 89 -125 89h-108z" />
    <glyph glyph-name="germandbls" unicode="&#xdf;" horiz-adv-x="622" 
d="M199 -1l18 96q24 -4 52 -4q75 1 123.5 42t48.5 112q0 54 -34.5 85t-87.5 31h-27l17 91h21q46 0 82 35.5t36 89.5q0 35 -25.5 59t-65.5 24q-112 0 -137 -136l-92 -524h-114l92 525q20 111 87.5 173t175.5 62q89 0 140.5 -48.5t51.5 -119.5q0 -64 -34.5 -112t-95.5 -69
q61 -17 93.5 -63t32.5 -107q0 -110 -79.5 -180.5t-205.5 -70.5q-42 0 -73 9z" />
    <glyph glyph-name="agrave" unicode="&#xe0;" horiz-adv-x="550" 
d="M242 311q65 0 129 -15l5 25q8 46 -15.5 73.5t-73.5 27.5q-44 0 -78.5 -11t-80.5 -38l-48 75q107 68 214 68q99 0 154.5 -51t37.5 -153l-55 -312h-111l11 61q-69 -71 -167 -71q-68 0 -112.5 36t-44.5 107q0 87 66 132.5t169 45.5zM352 190l5 27q-54 14 -111 14
q-131 0 -131 -92q0 -33 23 -50t60 -17q50 0 97.5 34t56.5 84zM312 750l68 -165h-79l-98 115z" />
    <glyph glyph-name="aacute" unicode="&#xe1;" horiz-adv-x="550" 
d="M242 311q65 0 129 -15l5 25q8 46 -15.5 73.5t-73.5 27.5q-44 0 -78.5 -11t-80.5 -38l-48 75q107 68 214 68q99 0 154.5 -51t37.5 -153l-55 -312h-111l11 61q-69 -71 -167 -71q-68 0 -112.5 36t-44.5 107q0 87 66 132.5t169 45.5zM352 190l5 27q-54 14 -111 14
q-131 0 -131 -92q0 -33 23 -50t60 -17q50 0 97.5 34t56.5 84zM271 585l115 165l103 -50l-133 -115h-85z" />
    <glyph glyph-name="acircumflex" unicode="&#xe2;" horiz-adv-x="550" 
d="M242 311q65 0 129 -15l5 25q8 46 -15.5 73.5t-73.5 27.5q-44 0 -78.5 -11t-80.5 -38l-48 75q107 68 214 68q99 0 154.5 -51t37.5 -153l-55 -312h-111l11 61q-69 -71 -167 -71q-68 0 -112.5 36t-44.5 107q0 87 66 132.5t169 45.5zM352 190l5 27q-54 14 -111 14
q-131 0 -131 -92q0 -33 23 -50t60 -17q50 0 97.5 34t56.5 84zM151 578l138 148h110l91 -148h-94l-58 84l-84 -84h-103z" />
    <glyph glyph-name="atilde" unicode="&#xe3;" horiz-adv-x="550" 
d="M242 311q65 0 129 -15l5 25q8 46 -15.5 73.5t-73.5 27.5q-44 0 -78.5 -11t-80.5 -38l-48 75q107 68 214 68q99 0 154.5 -51t37.5 -153l-55 -312h-111l11 61q-69 -71 -167 -71q-68 0 -112.5 36t-44.5 107q0 87 66 132.5t169 45.5zM352 190l5 27q-54 14 -111 14
q-131 0 -131 -92q0 -33 23 -50t60 -17q50 0 97.5 34t56.5 84zM184 583l-45 55q49 90 125 90q30 0 75.5 -21t60.5 -21q36 0 71 47l48 -59q-47 -87 -127 -87q-30 0 -75.5 21t-60.5 21q-39 0 -72 -46z" />
    <glyph glyph-name="adieresis" unicode="&#xe4;" horiz-adv-x="550" 
d="M242 311q65 0 129 -15l5 25q8 46 -15.5 73.5t-73.5 27.5q-44 0 -78.5 -11t-80.5 -38l-48 75q107 68 214 68q99 0 154.5 -51t37.5 -153l-55 -312h-111l11 61q-69 -71 -167 -71q-68 0 -112.5 36t-44.5 107q0 87 66 132.5t169 45.5zM352 190l5 27q-54 14 -111 14
q-131 0 -131 -92q0 -33 23 -50t60 -17q50 0 97.5 34t56.5 84zM428 719q28 0 48.5 -19.5t20.5 -47.5q0 -29 -20 -49t-48 -20q-29 0 -48.5 20.5t-19.5 48.5q0 27 20 47t47 20zM240 583q-28 0 -48 20.5t-20 48.5q0 27 20 47t47 20q28 0 48.5 -19.5t20.5 -47.5q0 -29 -20 -49
t-48 -20z" />
    <glyph glyph-name="aring" unicode="&#xe5;" horiz-adv-x="550" 
d="M242 311q65 0 129 -15l5 25q8 46 -15.5 73.5t-73.5 27.5q-44 0 -78.5 -11t-80.5 -38l-48 75q107 68 214 68q99 0 154.5 -51t37.5 -153l-55 -312h-111l11 61q-69 -71 -167 -71q-68 0 -112.5 36t-44.5 107q0 87 66 132.5t169 45.5zM352 190l5 27q-54 14 -111 14
q-131 0 -131 -92q0 -33 23 -50t60 -17q50 0 97.5 34t56.5 84zM334 572q-47 0 -80 31.5t-33 76.5q0 44 33 76.5t80 32.5t80 -32t33 -78q0 -44 -33 -75.5t-80 -31.5zM334 620q25 0 42.5 17t17.5 43t-17 43t-43 17q-25 0 -42.5 -17t-17.5 -44q0 -25 18 -42t42 -17z" />
    <glyph glyph-name="ae" unicode="&#xe6;" horiz-adv-x="890" 
d="M246 315q72 0 131 -14q6 34 6 42q0 37 -24.5 58t-69.5 21q-44 0 -78.5 -11t-80.5 -38l-47 75q105 68 213 68q122 0 159 -72q69 72 167 72q103 0 161 -64t58 -162q0 -39 -8 -79h-357q7 -126 114 -126q83 0 150 65l64 -66q-94 -94 -222 -94q-126 0 -182 99
q-94 -99 -222 -99q-70 0 -119.5 36.5t-49.5 106.5q0 86 67.5 134t169.5 48zM371 163q-5 27 -5 51q-1 1 -1 9q-59 12 -116 12q-131 0 -131 -96q0 -33 22.5 -50t59.5 -17q39 0 93.5 28t77.5 63zM483 291h244q0 1 0.5 6t0.5 7q0 55 -27.5 88t-80.5 33q-57 0 -91 -36t-46 -98z
" />
    <glyph glyph-name="ccedilla" unicode="&#xe7;" horiz-adv-x="534" 
d="M409 150l65 -69q-89 -91 -211 -91q-107 0 -170.5 65t-63.5 168q0 121 78.5 207t199.5 86q133 0 204 -93l-84 -67q-48 59 -121 59q-69 0 -114.5 -55.5t-45.5 -133.5q0 -63 35.5 -99.5t94.5 -36.5q70 0 133 60zM346 -118q0 -51 -42 -76.5t-99 -25.5q-64 0 -113 26l29 43
q38 -16 80 -16q66 0 66 44q0 29 -43 29q-17 0 -42 -9l-24 24l77 89h61l-53 -60h16q36 -1 61.5 -18.5t25.5 -49.5z" />
    <glyph glyph-name="egrave" unicode="&#xe8;" horiz-adv-x="563" 
d="M253 -10q-100 0 -162 64.5t-62 170.5q0 122 71.5 206.5t192.5 84.5q103 0 162 -64.5t59 -161.5q0 -31 -8 -79h-364q4 -57 33 -91.5t86 -34.5q84 0 152 65l64 -66q-96 -94 -224 -94zM150 291h250q0 1 0.5 6t0.5 7q0 54 -28.5 87.5t-81.5 33.5q-58 0 -93.5 -36t-47.5 -98z
M297 750l68 -165h-79l-98 115z" />
    <glyph glyph-name="eacute" unicode="&#xe9;" horiz-adv-x="563" 
d="M271 585l115 165l103 -50l-133 -115h-85zM253 -10q-100 0 -162 64.5t-62 170.5q0 122 71.5 206.5t192.5 84.5q103 0 162 -64.5t59 -161.5q0 -31 -8 -79h-364q4 -57 33 -91.5t86 -34.5q84 0 152 65l64 -66q-96 -94 -224 -94zM150 291h250q0 1 0.5 6t0.5 7q0 54 -28.5 87.5
t-81.5 33.5q-58 0 -93.5 -36t-47.5 -98z" />
    <glyph glyph-name="ecircumflex" unicode="&#xea;" horiz-adv-x="563" 
d="M141 578l138 148h110l91 -148h-94l-58 84l-84 -84h-103zM253 -10q-100 0 -162 64.5t-62 170.5q0 122 71.5 206.5t192.5 84.5q103 0 162 -64.5t59 -161.5q0 -31 -8 -79h-364q4 -57 33 -91.5t86 -34.5q84 0 152 65l64 -66q-96 -94 -224 -94zM150 291h250q0 1 0.5 6t0.5 7
q0 54 -28.5 87.5t-81.5 33.5q-58 0 -93.5 -36t-47.5 -98z" />
    <glyph glyph-name="edieresis" unicode="&#xeb;" horiz-adv-x="563" 
d="M421 719q28 0 48.5 -19.5t20.5 -47.5q0 -29 -20 -49t-48 -20q-29 0 -48.5 20.5t-19.5 48.5q0 27 20 47t47 20zM233 583q-28 0 -48 20.5t-20 48.5q0 27 20 47t47 20q28 0 48.5 -19.5t20.5 -47.5q0 -29 -20 -49t-48 -20zM253 -10q-100 0 -162 64.5t-62 170.5
q0 122 71.5 206.5t192.5 84.5q103 0 162 -64.5t59 -161.5q0 -31 -8 -79h-364q4 -57 33 -91.5t86 -34.5q84 0 152 65l64 -66q-96 -94 -224 -94zM150 291h250q0 1 0.5 6t0.5 7q0 54 -28.5 87.5t-81.5 33.5q-58 0 -93.5 -36t-47.5 -98z" />
    <glyph glyph-name="igrave" unicode="&#xec;" horiz-adv-x="263" 
d="M14 0l88 506h116l-89 -506h-115zM153 750l68 -165h-79l-98 115z" />
    <glyph glyph-name="iacute" unicode="&#xed;" horiz-adv-x="263" 
d="M122 585l115 165l103 -50l-133 -115h-85zM14 0l88 506h116l-89 -506h-115z" />
    <glyph glyph-name="icircumflex" unicode="&#xee;" horiz-adv-x="263" 
d="M1 578l138 148h110l91 -148h-94l-58 84l-84 -84h-103zM14 0l88 506h116l-89 -506h-115z" />
    <glyph glyph-name="idieresis" unicode="&#xef;" horiz-adv-x="263" 
d="M277 719q28 0 48.5 -19.5t20.5 -47.5q0 -29 -20 -49t-48 -20q-29 0 -48.5 20.5t-19.5 48.5q0 27 20 47t47 20zM89 583q-28 0 -48 20.5t-20 48.5q0 27 20 47t47 20q28 0 48.5 -19.5t20.5 -47.5q0 -29 -20 -49t-48 -20zM14 0l88 506h116l-89 -506h-115z" />
    <glyph glyph-name="eth" unicode="&#xf0;" horiz-adv-x="617" 
d="M276 90q75 0 124.5 52.5t49.5 127.5q0 53 -34.5 91t-93.5 38q-73 0 -124 -50.5t-51 -127.5q0 -55 35 -93t94 -38zM300 488q68 0 104 -23l1 2l-63 122l-110 -47l-32 63l109 47l-50 98h120l27 -57l114 49l33 -64l-114 -49l64 -126q65 -126 65 -227q0 -123 -81.5 -204.5
t-215.5 -81.5q-112 0 -177 66t-65 162q0 112 74.5 191t196.5 79z" />
    <glyph glyph-name="ntilde" unicode="&#xf1;" horiz-adv-x="584" 
d="M14 0l89 506h115l-9 -51h2q64 61 148 61q81 0 127.5 -59t30.5 -150l-55 -307h-114l51 289q10 58 -14 91t-73 33t-86 -36.5t-47 -95.5l-51 -281h-114zM190 583l-45 55q49 90 125 90q30 0 75.5 -21t60.5 -21q36 0 71 47l48 -59q-47 -87 -127 -87q-30 0 -75.5 21t-60.5 21
q-39 0 -72 -46z" />
    <glyph glyph-name="ograve" unicode="&#xf2;" horiz-adv-x="612" 
d="M273 -10q-109 0 -176.5 66t-67.5 173q0 121 83.5 204t204.5 83q109 0 177.5 -66.5t68.5 -173.5q0 -123 -81 -204.5t-209 -81.5zM278 90q73 0 121 53t48 129q0 63 -36.5 103t-97.5 40q-73 0 -120 -53t-47 -130q0 -62 36 -102t96 -40zM319 750l68 -165h-79l-98 115z" />
    <glyph glyph-name="oacute" unicode="&#xf3;" horiz-adv-x="612" 
d="M272 585l115 165l103 -50l-133 -115h-85zM273 -10q-109 0 -176.5 66t-67.5 173q0 121 83.5 204t204.5 83q109 0 177.5 -66.5t68.5 -173.5q0 -123 -81 -204.5t-209 -81.5zM278 90q73 0 121 53t48 129q0 63 -36.5 103t-97.5 40q-73 0 -120 -53t-47 -130q0 -62 36 -102
t96 -40z" />
    <glyph glyph-name="ocircumflex" unicode="&#xf4;" horiz-adv-x="612" 
d="M162 578l138 148h110l91 -148h-94l-58 84l-84 -84h-103zM273 -10q-109 0 -176.5 66t-67.5 173q0 121 83.5 204t204.5 83q109 0 177.5 -66.5t68.5 -173.5q0 -123 -81 -204.5t-209 -81.5zM278 90q73 0 121 53t48 129q0 63 -36.5 103t-97.5 40q-73 0 -120 -53t-47 -130
q0 -62 36 -102t96 -40z" />
    <glyph glyph-name="otilde" unicode="&#xf5;" horiz-adv-x="612" 
d="M273 -10q-109 0 -176.5 66t-67.5 173q0 121 83.5 204t204.5 83q109 0 177.5 -66.5t68.5 -173.5q0 -123 -81 -204.5t-209 -81.5zM278 90q73 0 121 53t48 129q0 63 -36.5 103t-97.5 40q-73 0 -120 -53t-47 -130q0 -62 36 -102t96 -40zM190 583l-45 55q49 90 125 90
q30 0 75.5 -21t60.5 -21q36 0 71 47l48 -59q-47 -87 -127 -87q-30 0 -75.5 21t-60.5 21q-39 0 -72 -46z" />
    <glyph glyph-name="odieresis" unicode="&#xf6;" horiz-adv-x="612" 
d="M443 719q28 0 48.5 -19.5t20.5 -47.5q0 -29 -20 -49t-48 -20q-29 0 -48.5 20.5t-19.5 48.5q0 27 20 47t47 20zM255 583q-28 0 -48 20.5t-20 48.5q0 27 20 47t47 20q28 0 48.5 -19.5t20.5 -47.5q0 -29 -20 -49t-48 -20zM273 -10q-109 0 -176.5 66t-67.5 173
q0 121 83.5 204t204.5 83q109 0 177.5 -66.5t68.5 -173.5q0 -123 -81 -204.5t-209 -81.5zM278 90q73 0 121 53t48 129q0 63 -36.5 103t-97.5 40q-73 0 -120 -53t-47 -130q0 -62 36 -102t96 -40z" />
    <glyph glyph-name="divide" unicode="&#xf7;" horiz-adv-x="541" 
d="M485 261h-441l15 87h442zM301 107q0 -31 -22 -53t-53 -22q-32 0 -54 22t-22 53t22 53t54 22q31 0 53 -22t22 -53zM371 503q0 -31 -22 -53t-54 -22q-31 0 -53 22t-22 53t22 53t53 22q32 0 54 -22t22 -53z" />
    <glyph glyph-name="oslash" unicode="&#xf8;" horiz-adv-x="617" 
d="M-18 -3l92 87q-42 61 -42 145q0 121 83 204t204 83q92 0 159 -51l48 45h90l-95 -89q44 -61 44 -145q0 -123 -81 -204.5t-209 -81.5q-93 0 -157 50l-46 -43h-90zM281 90q73 0 121 53t48 129q0 36 -14 67l-238 -222q33 -27 83 -27zM148 232q0 -34 13 -65l237 221
q-33 27 -82 27q-74 0 -121 -53t-47 -130z" />
    <glyph glyph-name="ugrave" unicode="&#xf9;" horiz-adv-x="597" 
d="M462 0h-113l8 51h-2q-64 -61 -149 -61q-81 0 -127.5 58.5t-30.5 149.5l54 308h115l-51 -290q-10 -58 14 -90.5t73 -32.5t86 36t47 95l51 282h114zM332 750l68 -165h-79l-98 115z" />
    <glyph glyph-name="uacute" unicode="&#xfa;" horiz-adv-x="597" 
d="M279 585l115 165l103 -50l-133 -115h-85zM462 0h-113l8 51h-2q-64 -61 -149 -61q-81 0 -127.5 58.5t-30.5 149.5l54 308h115l-51 -290q-10 -58 14 -90.5t73 -32.5t86 36t47 95l51 282h114z" />
    <glyph glyph-name="ucircumflex" unicode="&#xfb;" horiz-adv-x="597" 
d="M175 578l138 148h110l91 -148h-94l-58 84l-84 -84h-103zM462 0h-113l8 51h-2q-64 -61 -149 -61q-81 0 -127.5 58.5t-30.5 149.5l54 308h115l-51 -290q-10 -58 14 -90.5t73 -32.5t86 36t47 95l51 282h114z" />
    <glyph glyph-name="udieresis" unicode="&#xfc;" horiz-adv-x="597" 
d="M453 719q28 0 48.5 -19.5t20.5 -47.5q0 -29 -20 -49t-48 -20q-29 0 -48.5 20.5t-19.5 48.5q0 27 20 47t47 20zM265 583q-28 0 -48 20.5t-20 48.5q0 27 20 47t47 20q28 0 48.5 -19.5t20.5 -47.5q0 -29 -20 -49t-48 -20zM462 0h-113l8 51h-2q-64 -61 -149 -61
q-81 0 -127.5 58.5t-30.5 149.5l54 308h115l-51 -290q-10 -58 14 -90.5t73 -32.5t86 36t47 95l51 282h114z" />
    <glyph glyph-name="yacute" unicode="&#xfd;" horiz-adv-x="563" 
d="M43 506h122l100 -350h2l182 350h124l-302 -558q-42 -77 -88 -110t-114 -33q-64 0 -117 31l39 92q42 -21 77 -21q33 0 57.5 18.5t50.5 64.5l16 30zM264 585l115 165l103 -50l-133 -115h-85z" />
    <glyph glyph-name="thorn" unicode="&#xfe;" horiz-adv-x="640" 
d="M-13 -190l163 940h115l-52 -303h2q66 69 164 69q86 0 143.5 -63t57.5 -169q0 -116 -75.5 -205t-198.5 -89q-49 0 -92 24t-64 60h-3l-46 -264h-114zM297 91q71 0 119 56t48 133q0 62 -36 99t-90 37q-70 0 -119 -56.5t-49 -132.5q0 -62 36.5 -99t90.5 -37z" />
    <glyph glyph-name="ydieresis" unicode="&#xff;" horiz-adv-x="563" 
d="M43 506h122l100 -350h2l182 350h124l-302 -558q-42 -77 -88 -110t-114 -33q-64 0 -117 31l39 92q42 -21 77 -21q33 0 57.5 18.5t50.5 64.5l16 30zM424 719q28 0 48.5 -19.5t20.5 -47.5q0 -29 -20 -49t-48 -20q-29 0 -48.5 20.5t-19.5 48.5q0 27 20 47t47 20zM236 583
q-28 0 -48 20.5t-20 48.5q0 27 20 47t47 20q28 0 48.5 -19.5t20.5 -47.5q0 -29 -20 -49t-48 -20z" />
    <glyph glyph-name="Abreve" unicode="&#x102;" horiz-adv-x="738" 
d="M181 163l-94 -163h-133l421 703h114l141 -703h-124l-30 163h-295zM241 264h218l-52 283h-2zM440 745q-73 0 -115.5 39.5t-39.5 108.5h80q11 -66 79 -66q71 0 97 66h87q-16 -70 -66 -109t-122 -39z" />
    <glyph glyph-name="abreve" unicode="&#x103;" horiz-adv-x="555" 
d="M242 311q65 0 129 -15l5 25q8 46 -15.5 73.5t-73.5 27.5q-44 0 -78.5 -11t-80.5 -38l-48 75q107 68 214 68q99 0 154.5 -51t37.5 -153l-55 -312h-111l11 61q-69 -71 -167 -71q-68 0 -112.5 36t-44.5 107q0 87 66 132.5t169 45.5zM352 190l5 27q-54 14 -111 14
q-131 0 -131 -92q0 -33 23 -50t60 -17q50 0 97.5 34t56.5 84zM331 568q-73 0 -115.5 39.5t-39.5 108.5h80q11 -66 79 -66q71 0 97 66h87q-16 -70 -66 -109t-122 -39z" />
    <glyph glyph-name="Gbreve" unicode="&#x11e;" horiz-adv-x="756" 
d="M530 137l27 157h-151l18 103h268l-56 -327q-126 -80 -267 -80q-147 0 -234.5 93.5t-87.5 232.5q0 166 108 280t281 114q88 0 147.5 -26.5t109.5 -79.5l-88 -80q-36 38 -75.5 57.5t-101.5 19.5q-111 0 -184.5 -83.5t-73.5 -199.5q0 -95 57 -157t149 -62q80 0 154 38z
M461 746q-73 0 -115.5 39.5t-39.5 108.5h80q11 -66 79 -66q71 0 97 66h87q-16 -70 -66 -109t-122 -39z" />
    <glyph glyph-name="gbreve" unicode="&#x11f;" horiz-adv-x="636" 
d="M30 233q0 112 75 197.5t190 85.5q116 0 162 -86h2l14 76h115l-80 -460q-22 -122 -96 -181.5t-204 -59.5t-223 71l60 87q74 -56 168 -56q157 0 181 148l6 38h-2q-68 -68 -160 -68q-89 0 -148.5 58t-59.5 150zM265 127q69 0 121.5 48t52.5 118q0 56 -38.5 89t-96.5 33
q-64 0 -110 -49.5t-46 -117.5q0 -55 30.5 -88t86.5 -33zM358 568q-73 0 -115.5 39.5t-39.5 108.5h80q11 -66 79 -66q71 0 97 66h87q-16 -70 -66 -109t-122 -39z" />
    <glyph glyph-name="Idotaccent" unicode="&#x130;" horiz-adv-x="295" 
d="M38 0l123 700h119l-123 -700h-119zM301 821q0 -30 -21.5 -51.5t-51.5 -21.5t-51.5 21.5t-21.5 51.5q0 29 21.5 50.5t51.5 21.5t51.5 -21.5t21.5 -50.5z" />
    <glyph glyph-name="dotlessi" unicode="&#x131;" horiz-adv-x="263" 
d="M14 0l88 506h116l-89 -506h-115z" />
    <glyph glyph-name="Lslash" unicode="&#x141;" horiz-adv-x="592" 
d="M48 0l47 271l-78 -21l20 111l78 22l56 317h120l-50 -282l185 51l-20 -112l-185 -51l-35 -195h348l-19 -111h-467z" />
    <glyph glyph-name="lslash" unicode="&#x142;" horiz-adv-x="314" 
d="M30 379l77 27l61 344h115l-54 -301l77 28l-19 -112l-77 -28l-60 -337h-115l53 294l-77 -27z" />
    <glyph glyph-name="OE" unicode="&#x152;" horiz-adv-x="1040" 
d="M941 110l-19 -110h-541q-152 0 -243 89.5t-91 228.5q0 164 112.5 273t283.5 109h580l-19 -109h-346l-31 -176h321l-19 -106h-321l-35 -199h368zM169 323q0 -94 63.5 -153.5t159.5 -59.5h61l85 481h-109q-109 0 -184.5 -75.5t-75.5 -192.5z" />
    <glyph glyph-name="oe" unicode="&#x153;" horiz-adv-x="977" 
d="M669 -10q-123 0 -179 104q-75 -104 -212 -104q-107 0 -173 67t-66 172q0 119 81.5 203t201.5 84q128 0 192 -103q29 46 80 74.5t115 28.5q103 0 161 -64t58 -162q0 -31 -8 -79h-359q9 -126 116 -126q82 0 150 65l64 -66q-96 -94 -222 -94zM283 90q72 0 119.5 54t47.5 128
q0 62 -35.5 102.5t-96.5 40.5q-73 0 -118 -53.5t-45 -129.5q0 -61 34 -101.5t94 -40.5zM568 291h246q0 1 0.5 6t0.5 7q0 55 -27.5 88t-80.5 33q-57 0 -91.5 -36t-47.5 -98z" />
    <glyph glyph-name="Scedilla" unicode="&#x15e;" horiz-adv-x="602" 
d="M569 602l-96 -72q-50 73 -144 73q-51 0 -87 -23.5t-36 -71.5q0 -32 33 -59t102 -54q86 -33 132 -77t46 -111q0 -104 -76 -160.5t-192 -56.5q-155 0 -249 119l88 79q72 -90 165 -90q62 0 102 24t40 76q0 32 -26.5 55.5t-90.5 47.5q-94 35 -145.5 81t-51.5 118
q0 100 71.5 155t183.5 55q150 0 231 -108zM349 -118q0 -51 -42 -76.5t-99 -25.5q-64 0 -113 26l29 43q38 -16 80 -16q66 0 66 44q0 29 -43 29q-17 0 -42 -9l-24 24l77 89h61l-53 -60h16q36 -1 61.5 -18.5t25.5 -49.5z" />
    <glyph glyph-name="scedilla" unicode="&#x15f;" horiz-adv-x="465" 
d="M186 -10q-106 0 -188 75l67 80q64 -62 127 -62q80 0 80 54q0 29 -47 55l-42 20q-28 13 -45 23.5t-38 28t-31.5 41t-10.5 52.5q0 76 56.5 117.5t139.5 41.5q112 0 173 -70l-79 -72q-45 50 -100 50q-30 0 -51 -14.5t-21 -42.5q0 -10 5 -20t10.5 -16t18.5 -14t19 -11
l22 -10.5t19 -8.5q56 -26 89 -58.5t33 -82.5q0 -74 -60.5 -115t-145.5 -41zM286 -118q0 -51 -42 -76.5t-99 -25.5q-64 0 -113 26l29 43q38 -16 80 -16q66 0 66 44q0 29 -43 29q-17 0 -42 -9l-24 24l77 89h61l-53 -60h16q36 -1 61.5 -18.5t25.5 -49.5z" />
    <glyph glyph-name="Scaron" unicode="&#x160;" horiz-adv-x="588" 
d="M546 902l-139 -148h-110l-89 148h93l56 -89l86 89h103zM569 602l-96 -72q-50 73 -144 73q-51 0 -87 -23.5t-36 -71.5q0 -32 33 -59t102 -54q86 -33 132 -77t46 -111q0 -104 -76 -160.5t-192 -56.5q-155 0 -249 119l88 79q72 -90 165 -90q62 0 102 24t40 76
q0 32 -26.5 55.5t-90.5 47.5q-94 35 -145.5 81t-51.5 118q0 100 71.5 155t183.5 55q150 0 231 -108z" />
    <glyph glyph-name="scaron" unicode="&#x161;" horiz-adv-x="456" 
d="M466 712l-139 -148h-110l-89 148h93l56 -89l86 89h103zM186 -10q-106 0 -188 75l67 80q64 -62 127 -62q80 0 80 54q0 29 -47 55l-42 20q-28 13 -45 23.5t-38 28t-31.5 41t-10.5 52.5q0 76 56.5 117.5t139.5 41.5q112 0 173 -70l-79 -72q-45 50 -100 50q-30 0 -51 -14.5
t-21 -42.5q0 -10 5 -20t10.5 -16t18.5 -14t19 -11l22 -10.5t19 -8.5q56 -26 89 -58.5t33 -82.5q0 -74 -60.5 -115t-145.5 -41z" />
    <glyph glyph-name="Tcommaaccent" unicode="&#x162;" horiz-adv-x="607" 
d="M304 -110q0 -29 -22 -55l-121 -146h-53l77 137q-32 24 -32 62q0 31 22 53t54 22q33 0 54 -21t21 -52zM615 590h-213l-105 -590h-120l105 590h-213l19 110h545z" />
    <glyph glyph-name="tcommaaccent" unicode="&#x163;" horiz-adv-x="411" 
d="M213 -110q0 -29 -22 -55l-121 -146h-53l77 137q-32 24 -32 62q0 31 22 53t54 22q33 0 54 -21t21 -52zM213 -10q-61 0 -99.5 34t-37.5 107q0 18 5 43l40 232h-84l18 100h84l22 125h117l-22 -125h129l-18 -100h-129l-41 -234q-3 -16 -2 -26q0 -55 57 -55q46 0 79 12
l-17 -96q-45 -17 -101 -17z" />
    <glyph glyph-name="Ydieresis" unicode="&#x178;" horiz-adv-x="630" 
d="M65 700h135l113 -289h2l221 289h146l-327 -410l-51 -290h-120l51 289zM472 887q28 0 48.5 -19.5t20.5 -47.5q0 -29 -20 -49t-48 -20q-29 0 -48.5 20.5t-19.5 48.5q0 27 20 47t47 20zM284 751q-28 0 -48 20.5t-20 48.5q0 27 20 47t47 20q28 0 48.5 -19.5t20.5 -47.5
q0 -29 -20 -49t-48 -20z" />
    <glyph glyph-name="Zcaron" unicode="&#x17d;" horiz-adv-x="680" 
d="M600 902l-139 -148h-110l-89 148h93l56 -89l86 89h103zM559 0h-548l17 107l461 484h-363l19 109h520l-18 -108l-457 -483h388z" />
    <glyph glyph-name="zcaron" unicode="&#x17e;" horiz-adv-x="522" 
d="M499 712l-139 -148h-110l-89 148h93l56 -89l86 89h103zM-1 0l15 83l314 324h-254l18 99h402l-15 -86l-313 -323h273l-18 -97h-422z" />
    <glyph glyph-name="longs" unicode="&#x17f;" horiz-adv-x="370" 
d="M49 0l72 408h-66l18 98h66l15 81q31 173 178 173q64 0 102 -19l-29 -93q-30 12 -62 12t-50.5 -21.5t-26.5 -67.5l-101 -571h-116z" />
    <glyph glyph-name="florin" unicode="&#x192;" horiz-adv-x="450" 
d="M63 356h82l65 195q27 80 71.5 119.5t121.5 39.5q53 0 95 -20l-21 -90q-31 13 -59 13q-71 0 -100 -89l-57 -168h120l-16 -96h-135l-149 -450h-115l147 450h-66z" />
    <glyph glyph-name="Scommaaccent" unicode="&#x218;" horiz-adv-x="602" 
d="M311 -110q0 -29 -22 -55l-121 -146h-53l77 137q-32 24 -32 62q0 31 22 53t54 22q33 0 54 -21t21 -52zM569 602l-96 -72q-50 73 -144 73q-51 0 -87 -23.5t-36 -71.5q0 -32 33 -59t102 -54q86 -33 132 -77t46 -111q0 -104 -76 -160.5t-192 -56.5q-155 0 -249 119l88 79
q72 -90 165 -90q62 0 102 24t40 76q0 32 -26.5 55.5t-90.5 47.5q-94 35 -145.5 81t-51.5 118q0 100 71.5 155t183.5 55q150 0 231 -108z" />
    <glyph glyph-name="scommaaccent" unicode="&#x219;" horiz-adv-x="465" 
d="M251 -110q0 -29 -22 -55l-121 -146h-53l77 137q-32 24 -32 62q0 31 22 53t54 22q33 0 54 -21t21 -52zM186 -10q-106 0 -188 75l67 80q64 -62 127 -62q80 0 80 54q0 29 -47 55l-42 20q-28 13 -45 23.5t-38 28t-31.5 41t-10.5 52.5q0 76 56.5 117.5t139.5 41.5
q112 0 173 -70l-79 -72q-45 50 -100 50q-30 0 -51 -14.5t-21 -42.5q0 -10 5 -20t10.5 -16t18.5 -14t19 -11l22 -10.5t19 -8.5q56 -26 89 -58.5t33 -82.5q0 -74 -60.5 -115t-145.5 -41z" />
    <glyph glyph-name="uni021B" unicode="&#x21b;" horiz-adv-x="411" 
d="M213 -110q0 -29 -22 -55l-121 -146h-53l77 137q-32 24 -32 62q0 31 22 53t54 22q33 0 54 -21t21 -52zM213 -10q-61 0 -99.5 34t-37.5 107q0 18 5 43l40 232h-84l18 100h84l22 125h117l-22 -125h129l-18 -100h-129l-41 -234q-3 -16 -2 -26q0 -55 57 -55q46 0 79 12
l-17 -96q-45 -17 -101 -17z" />
    <glyph glyph-name="circumflex" unicode="&#x2c6;" horiz-adv-x="456" 
d="M45 578l138 148h110l91 -148h-94l-58 84l-84 -84h-103z" />
    <glyph glyph-name="caron" unicode="&#x2c7;" horiz-adv-x="456" 
d="M415 712l-139 -148h-110l-89 148h93l56 -89l86 89h103z" />
    <glyph glyph-name="breve" unicode="&#x2d8;" horiz-adv-x="456" 
d="M221 552q-73 0 -115.5 39.5t-39.5 108.5h80q11 -66 79 -66q71 0 97 66h87q-16 -70 -66 -109t-122 -39z" />
    <glyph glyph-name="dotaccent" unicode="&#x2d9;" horiz-adv-x="456" 
d="M301 655q0 -30 -21.5 -51.5t-51.5 -21.5t-51.5 21.5t-21.5 51.5q0 29 21.5 50.5t51.5 21.5t51.5 -21.5t21.5 -50.5z" />
    <glyph glyph-name="ring" unicode="&#x2da;" horiz-adv-x="456" 
d="M228 593q-47 0 -80 31.5t-33 76.5q0 44 33 76.5t80 32.5t80 -32t33 -78q0 -44 -33 -75.5t-80 -31.5zM228 641q25 0 42.5 17t17.5 43q0 25 -17 42.5t-43 17.5q-25 0 -42.5 -17t-17.5 -44q0 -25 18 -42t42 -17z" />
    <glyph glyph-name="ogonek" unicode="&#x2db;" horiz-adv-x="456" 
d="M322 -106l-9 -54q-36 -6 -68 -6q-51 0 -81 24.5t-30 64.5q0 37 30 87h78q-18 -40 -18 -70q0 -49 63 -49q6 0 19.5 1.5t15.5 1.5z" />
    <glyph glyph-name="tilde" unicode="&#x2dc;" horiz-adv-x="456" 
d="M83 583l-45 55q49 90 125 90q30 0 75.5 -21t60.5 -21q36 0 71 47l48 -59q-47 -87 -127 -87q-30 0 -75.5 21t-60.5 21q-39 0 -72 -46z" />
    <glyph glyph-name="hungarumlaut" unicode="&#x2dd;" horiz-adv-x="456" 
d="M22 585l116 163l100 -48l-131 -115h-85zM203 585l116 163l100 -48l-131 -115h-85z" />
    <glyph glyph-name="uni037E" unicode="&#x37e;" horiz-adv-x="272" 
d="M237 441q0 -32 -22 -54t-53 -22t-53 22t-22 54q0 31 22 53t53 22t53 -22t22 -53zM172 73q0 -30 -22 -56l-120 -145h-54l77 137q-31 23 -31 62q0 31 22 53t53 22q33 0 54 -21t21 -52z" />
    <glyph glyph-name="tonos" unicode="&#x384;" horiz-adv-x="456" 
d="M116 585l115 165l102 -50l-133 -115h-84z" />
    <glyph glyph-name="dieresistonos" unicode="&#x385;" horiz-adv-x="456" 
d="M197 585l83 173l89 -43l-97 -130h-75zM474 640q0 -24 -17.5 -41.5t-41.5 -17.5t-41 18t-17 41t17 40t39 17q24 0 42.5 -16.5t18.5 -40.5zM189 640q0 -24 -17.5 -41.5t-41.5 -17.5q-23 0 -40 18t-17 41t16.5 40t39.5 17q24 0 42 -16.5t18 -40.5z" />
    <glyph glyph-name="Alphatonos" unicode="&#x386;" horiz-adv-x="715" 
d="M38 585l115 165l102 -50l-133 -115h-84zM181 163l-94 -163h-133l421 703h114l141 -703h-124l-30 163h-295zM241 264h218l-52 283h-2z" />
    <glyph glyph-name="anoteleia" unicode="&#x387;" horiz-adv-x="268" 
d="M215 309q0 -32 -22 -54t-54 -22t-53.5 22t-21.5 54q0 31 22 52.5t53 21.5q32 0 54 -21.5t22 -52.5z" />
    <glyph glyph-name="Epsilontonos" unicode="&#x388;" horiz-adv-x="639" 
d="M-103 585l115 165l102 -50l-133 -115h-84zM27 0l123 700h472l-19 -109h-352l-32 -176h329l-19 -106h-328l-36 -199h376l-19 -110h-495z" />
    <glyph glyph-name="Etatonos" unicode="&#x389;" horiz-adv-x="741" 
d="M-103 585l115 165l102 -50l-133 -115h-84zM27 0l123 700h119l-50 -284h326l50 284h120l-123 -700h-120l54 308h-325l-55 -308h-119z" />
    <glyph glyph-name="Iotatonos" unicode="&#x38a;" horiz-adv-x="296" 
d="M-103 585l115 165l102 -50l-133 -115h-84zM27 0l123 700h119l-123 -700h-119z" />
    <glyph glyph-name="Omicrontonos" unicode="&#x38c;" horiz-adv-x="828" 
d="M-52 585l115 165l102 -50l-133 -115h-84zM389 -10q-148 0 -245 95t-97 235q0 163 110.5 276.5t281.5 113.5q148 0 245.5 -96t97.5 -235q0 -163 -110.5 -276t-282.5 -113zM393 99q114 0 190 80t76 197q0 97 -62 161t-163 64q-114 0 -189.5 -80t-75.5 -198q0 -97 62 -160.5
t162 -63.5z" />
    <glyph glyph-name="Upsilontonos" unicode="&#x38e;" horiz-adv-x="630" 
d="M-171 585l115 165l102 -50l-133 -115h-84zM65 700h135l113 -289h2l221 289h146l-327 -410l-51 -290h-120l51 289z" />
    <glyph glyph-name="Omegatonos" unicode="&#x38f;" horiz-adv-x="842" 
d="M786 392q0 -90 -40.5 -164.5t-112.5 -118.5h116l-19 -109h-299l19 106q92 23 152.5 103t60.5 179q0 91 -57.5 152.5t-161.5 61.5q-116 0 -190 -75.5t-74 -190.5q0 -83 43 -145.5t115 -87.5l-18 -103h-299l20 109h124q-49 34 -78.5 95t-29.5 133q0 156 112.5 264.5
t278.5 108.5q152 0 245 -91t93 -227zM-57 585l115 165l102 -50l-133 -115h-84z" />
    <glyph glyph-name="iotadieresistonos" unicode="&#x390;" horiz-adv-x="263" 
d="M131 585l83 173l89 -43l-97 -130h-75zM408 640q0 -24 -17.5 -41.5t-41.5 -17.5t-41 18t-17 41t17 40t39 17q24 0 42.5 -16.5t18.5 -40.5zM123 640q0 -24 -17.5 -41.5t-41.5 -17.5q-23 0 -40 18t-17 41t16.5 40t39.5 17q24 0 42 -16.5t18 -40.5zM14 0l88 506h116l-89 -506
h-115z" />
    <glyph glyph-name="Alpha" unicode="&#x391;" horiz-adv-x="715" 
d="M181 163l-94 -163h-133l421 703h114l141 -703h-124l-30 163h-295zM241 264h218l-52 283h-2z" />
    <glyph glyph-name="Beta" unicode="&#x392;" horiz-adv-x="670" 
d="M163 102h170q62 0 106.5 26.5t44.5 84.5q0 41 -33 68t-94 27h-158zM150 700h234q111 0 168.5 -43.5t57.5 -122.5q0 -59 -35.5 -104t-92.5 -66l-1 -2q124 -36 124 -154q0 -101 -79.5 -154.5t-200.5 -53.5h-298zM376 598h-126l-33 -189h129q60 0 100.5 24.5t40.5 82.5
q0 36 -28 59t-83 23z" />
    <glyph glyph-name="Gamma" unicode="&#x393;" horiz-adv-x="568" 
d="M27 0l123 700h447l-18 -110h-329l-104 -590h-119z" />
    <glyph glyph-name="uni0394" unicode="&#x394;" horiz-adv-x="724" 
d="M496 107l-85 450h-2l-261 -450h348zM639 0h-685l420 703h121z" />
    <glyph glyph-name="Epsilon" unicode="&#x395;" horiz-adv-x="639" 
d="M27 0l123 700h472l-19 -109h-352l-32 -176h329l-19 -106h-328l-36 -199h376l-19 -110h-495z" />
    <glyph glyph-name="Zeta" unicode="&#x396;" horiz-adv-x="680" 
d="M559 0h-548l17 107l461 484h-363l19 109h520l-18 -108l-457 -483h388z" />
    <glyph glyph-name="Eta" unicode="&#x397;" horiz-adv-x="741" 
d="M27 0l123 700h119l-50 -284h326l50 284h120l-123 -700h-120l54 308h-325l-55 -308h-119z" />
    <glyph glyph-name="Theta" unicode="&#x398;" horiz-adv-x="834" 
d="M547 303h-278l19 106h277zM389 -10q-149 0 -245.5 94.5t-96.5 235.5q0 162 113.5 276t284.5 114q149 0 246 -94t97 -236q0 -161 -114 -275.5t-285 -114.5zM394 99q113 0 192 80.5t79 196.5q0 99 -62 162t-163 63q-115 0 -193 -81.5t-78 -197.5q0 -97 62.5 -160t162.5 -63
z" />
    <glyph glyph-name="Iota" unicode="&#x399;" horiz-adv-x="296" 
d="M27 0l123 700h119l-123 -700h-119z" />
    <glyph glyph-name="Kappa" unicode="&#x39a;" horiz-adv-x="708" 
d="M269 700l-56 -317l340 317h151l-309 -289l218 -411h-136l-170 327l-123 -114l-38 -213h-119l123 700h119z" />
    <glyph glyph-name="Lambda" unicode="&#x39b;" horiz-adv-x="677" 
d="M465 703l126 -703h-124l-85 534h-2l-296 -534h-130l401 703h110z" />
    <glyph glyph-name="Mu" unicode="&#x39c;" horiz-adv-x="872" 
d="M689 495h-2l-268 -303h-8l-173 320h-2l-91 -512h-118l123 700h118l171 -317l279 317h127l-123 -700h-120z" />
    <glyph glyph-name="Nu" unicode="&#x39d;" horiz-adv-x="790" 
d="M27 0l123 700h113l293 -496h3l87 496h118l-123 -700h-102l-302 509h-2l-89 -509h-119z" />
    <glyph glyph-name="Xi" unicode="&#x39e;" horiz-adv-x="672" 
d="M109 587l19 113h527l-20 -113h-526zM9 0l19 114h539l-20 -114h-538zM91 305l21 113h469l-21 -113h-469z" />
    <glyph glyph-name="Omicron" unicode="&#x39f;" horiz-adv-x="828" 
d="M389 -10q-148 0 -245 95t-97 235q0 163 110.5 276.5t281.5 113.5q148 0 245.5 -96t97.5 -235q0 -163 -110.5 -276t-282.5 -113zM393 99q114 0 190 80t76 197q0 97 -62 161t-163 64q-114 0 -189.5 -80t-75.5 -198q0 -97 62 -160.5t162 -63.5z" />
    <glyph glyph-name="Pi" unicode="&#x3a0;" horiz-adv-x="732" 
d="M27 0l123 700h556l-123 -700h-120l103 589h-316l-104 -589h-119z" />
    <glyph glyph-name="Rho" unicode="&#x3a1;" horiz-adv-x="623" 
d="M150 700h223q108 0 171 -48t63 -136q0 -114 -77.5 -173.5t-201.5 -59.5h-132l-50 -283h-119zM214 384h119q65 0 108.5 30.5t43.5 94.5q0 88 -125 88h-108z" />
    <glyph glyph-name="Sigma" unicode="&#x3a3;" horiz-adv-x="657" 
d="M426 363l-235 -254h369l-20 -109h-535l15 90l254 274l-162 243l17 93h513l-19 -109h-351z" />
    <glyph glyph-name="Tau" unicode="&#x3a4;" horiz-adv-x="602" 
d="M615 590h-213l-105 -590h-120l105 590h-213l19 110h545z" />
    <glyph glyph-name="Upsilon" unicode="&#x3a5;" horiz-adv-x="630" 
d="M65 700h135l113 -289h2l221 289h146l-327 -410l-51 -290h-120l51 289z" />
    <glyph glyph-name="Phi" unicode="&#x3a6;" horiz-adv-x="881" 
d="M323 -7l12 68q-130 12 -208 81t-78 184q0 148 112 237t279 91l9 53h117l-10 -55q128 -15 205.5 -86.5t77.5 -185.5q0 -148 -110.5 -234t-277.5 -87l-11 -66h-117zM169 336q0 -75 48 -122t135 -54l70 394q-104 -1 -178.5 -59.5t-74.5 -158.5zM719 369q0 77 -46.5 126
t-133.5 57l-70 -394q100 2 175 57.5t75 153.5z" />
    <glyph glyph-name="Chi" unicode="&#x3a7;" horiz-adv-x="685" 
d="M327 257l-216 -257h-146l309 360l-157 340h135l109 -244l205 244h147l-300 -348l164 -352h-135z" />
    <glyph glyph-name="Psi" unicode="&#x3a8;" horiz-adv-x="829" 
d="M433 129l-22 -129h-116l23 133q-109 10 -172.5 74t-63.5 172q0 26 7 68l44 253h117l-46 -262q-6 -28 -6 -54q0 -67 37 -106t101 -44l82 466h116l-82 -466q79 2 132.5 46.5t68.5 127.5l51 292h116l-55 -312q-22 -128 -109.5 -192.5t-222.5 -66.5z" />
    <glyph glyph-name="uni03A9" unicode="&#x3a9;" horiz-adv-x="842" 
d="M786 392q0 -90 -40.5 -164.5t-112.5 -118.5h116l-19 -109h-299l19 106q92 23 152.5 103t60.5 179q0 91 -57.5 152.5t-161.5 61.5q-116 0 -190 -75.5t-74 -190.5q0 -83 43 -145.5t115 -87.5l-18 -103h-299l20 109h124q-49 34 -78.5 95t-29.5 133q0 156 112.5 264.5
t278.5 108.5q152 0 245 -91t93 -227z" />
    <glyph glyph-name="Iotadieresis" unicode="&#x3aa;" horiz-adv-x="296" 
d="M323 882q28 0 48.5 -19.5t20.5 -47.5q0 -29 -20 -49t-48 -20q-29 0 -48.5 20.5t-19.5 48.5q0 27 20 47t47 20zM135 746q-28 0 -48 20.5t-20 48.5q0 27 20 47t47 20q28 0 48.5 -19.5t20.5 -47.5q0 -29 -20 -49t-48 -20zM27 0l123 700h119l-123 -700h-119z" />
    <glyph glyph-name="Upsilondieresis" unicode="&#x3ab;" horiz-adv-x="630" 
d="M480 882q28 0 48.5 -19.5t20.5 -47.5q0 -29 -20 -49t-48 -20q-29 0 -48.5 20.5t-19.5 48.5q0 27 20 47t47 20zM292 746q-28 0 -48 20.5t-20 48.5q0 27 20 47t47 20q28 0 48.5 -19.5t20.5 -47.5q0 -29 -20 -49t-48 -20zM65 700h135l113 -289h2l221 289h146l-327 -410
l-51 -290h-120l51 289z" />
    <glyph glyph-name="alphatonos" unicode="&#x3ac;" horiz-adv-x="636" 
d="M300 585l115 165l102 -50l-133 -115h-84zM274 90q69 0 117 55.5t48 129.5q0 64 -37.5 102t-92.5 38q-73 0 -118 -55t-45 -131q0 -64 36 -101.5t92 -37.5zM475 506h115l-89 -506h-114l10 53h-3q-59 -62 -151 -62q-89 0 -151.5 61t-62.5 171q0 118 75 205.5t196 87.5
q105 0 160 -81h2z" />
    <glyph glyph-name="epsilontonos" unicode="&#x3ad;" horiz-adv-x="534" 
d="M274 585l115 165l102 -50l-133 -115h-84zM507 435l-72 -65q-29 29 -60.5 40.5t-80.5 11.5q-24 0 -47.5 -5t-44.5 -22t-21 -44q0 -49 68 -49h113l-14 -79h-115q-37 0 -69 -20t-32 -58q0 -63 106 -63q100 0 172 70l61 -66q-108 -96 -241 -96q-107 0 -160 36t-53 99
q0 52 36 88.5t92 49.5v2q-35 10 -55.5 36t-20.5 61q0 53 36.5 89t85.5 50.5t103 14.5q79 0 128 -20t85 -61z" />
    <glyph glyph-name="etatonos" unicode="&#x3ae;" horiz-adv-x="584" 
d="M294 585l115 165l102 -50l-133 -115h-84zM14 0l89 506h115l-9 -51h2q64 61 148 61q81 0 127.5 -59t30.5 -150l-89 -497h-114l85 479q10 58 -14 91t-73 33t-86 -36.5t-47 -95.5l-51 -281h-114z" />
    <glyph glyph-name="iotatonos" unicode="&#x3af;" horiz-adv-x="263" 
d="M123 585l115 165l102 -50l-133 -115h-84zM14 0l88 506h116l-89 -506h-115z" />
    <glyph glyph-name="upsilondieresistonos" unicode="&#x3b0;" horiz-adv-x="587" 
d="M278 585l83 173l89 -43l-97 -130h-75zM555 640q0 -24 -17.5 -41.5t-41.5 -17.5t-41 18t-17 41t17 40t39 17q24 0 42.5 -16.5t18.5 -40.5zM270 640q0 -24 -17.5 -41.5t-41.5 -17.5q-23 0 -40 18t-17 41t16.5 40t39.5 17q24 0 42 -16.5t18 -40.5zM543 506l-51 -289
q-40 -227 -248 -227q-100 0 -150 57.5t-50 145.5q0 27 5 59l45 254h115l-47 -265q-4 -21 -4 -44q0 -107 96 -107q55 0 85 37.5t42 108.5l47 270h115z" />
    <glyph glyph-name="alpha" unicode="&#x3b1;" horiz-adv-x="636" 
d="M274 90q69 0 117 55.5t48 129.5q0 64 -37.5 102t-92.5 38q-73 0 -118 -55t-45 -131q0 -64 36 -101.5t92 -37.5zM475 506h115l-89 -506h-114l10 53h-3q-59 -62 -151 -62q-89 0 -151.5 61t-62.5 171q0 118 75 205.5t196 87.5q105 0 160 -81h2z" />
    <glyph glyph-name="beta" unicode="&#x3b2;" horiz-adv-x="627" 
d="M175 250q-12 -66 27 -112.5t104 -46.5q63 0 103.5 43.5t40.5 107.5q0 54 -35.5 85.5t-89.5 31.5h-32l16 93h32q47 0 81.5 34.5t34.5 85.5q0 39 -27 64.5t-71 25.5q-53 0 -89 -35t-46 -96zM436 408q62 -20 96 -64t34 -106q0 -107 -70.5 -177t-180.5 -70q-111 0 -170 82h-2
l-46 -263h-115l129 733q17 101 84.5 159t172.5 58q90 0 147 -51t57 -123q0 -62 -36 -110.5t-100 -67.5z" />
    <glyph glyph-name="gamma" unicode="&#x3b3;" horiz-adv-x="547" 
d="M46 506h120l70 -373h2l199 373h125l-290 -509l-33 -187h-117l33 188z" />
    <glyph glyph-name="delta" unicode="&#x3b4;" horiz-adv-x="613" 
d="M280 90q67 0 117 51t50 124q0 56 -33.5 96.5t-97.5 40.5q-72 0 -121 -50.5t-49 -125.5q0 -59 37 -97.5t97 -38.5zM157 670l15 80h407l-18 -96h-240l157 -183q84 -98 84 -202q0 -116 -81.5 -197.5t-204.5 -81.5q-113 0 -180 67t-67 167q0 108 71 185.5t191 77.5
q24 0 32 -2z" />
    <glyph glyph-name="epsilon" unicode="&#x3b5;" horiz-adv-x="534" 
d="M507 435l-72 -65q-29 29 -60.5 40.5t-80.5 11.5q-24 0 -47.5 -5t-44.5 -22t-21 -44q0 -49 68 -49h113l-14 -79h-115q-37 0 -69 -20t-32 -58q0 -63 106 -63q100 0 172 70l61 -66q-108 -96 -241 -96q-107 0 -160 36t-53 99q0 52 36 88.5t92 49.5v2q-35 10 -55.5 36
t-20.5 61q0 53 36.5 89t85.5 50.5t103 14.5q79 0 128 -20t85 -61z" />
    <glyph glyph-name="zeta" unicode="&#x3b6;" horiz-adv-x="521" 
d="M406 651h-266l19 99h417l-16 -93l-125 -94.5t-111.5 -94t-97 -99t-61.5 -95t-25 -96.5q0 -36 30 -55t99 -24q86 -8 129 -33t43 -75q0 -14 -2.5 -29t-5 -24.5t-10 -28.5t-10 -24t-13 -27.5t-11.5 -24.5h-99q42 80 42 124q0 22 -23.5 30t-84.5 11q-107 6 -156 49.5
t-49 111.5q0 65 33 133t93 132.5t121 117t140 109.5z" />
    <glyph glyph-name="eta" unicode="&#x3b7;" horiz-adv-x="584" 
d="M14 0l89 506h115l-9 -51h2q64 61 148 61q81 0 127.5 -59t30.5 -150l-89 -497h-114l85 479q10 58 -14 91t-73 33t-86 -36.5t-47 -95.5l-51 -281h-114z" />
    <glyph glyph-name="theta" unicode="&#x3b8;" horiz-adv-x="628" 
d="M585 475q-1 -67 -10.5 -131.5t-33 -129.5t-57.5 -114t-88.5 -79.5t-122.5 -30.5q-108 0 -163.5 77t-55.5 206q0 79 16 158.5t50 156t97.5 124.5t147.5 48q109 0 164.5 -77.5t55.5 -207.5zM469 428q3 51 3 56q0 84 -28.5 132.5t-84.5 48.5q-66 0 -112.5 -67.5
t-62.5 -169.5h285zM169 335q-4 -28 -4 -70q0 -177 115 -177q70 0 115 68t62 179h-288z" />
    <glyph glyph-name="iota" unicode="&#x3b9;" horiz-adv-x="263" 
d="M14 0l88 506h116l-89 -506h-115z" />
    <glyph glyph-name="kappa" unicode="&#x3ba;" horiz-adv-x="544" 
d="M549 506l-228 -207l164 -299h-124l-121 225l-85 -76l-27 -149h-114l89 506h115l-37 -209l229 209h139z" />
    <glyph glyph-name="lambda" unicode="&#x3bb;" horiz-adv-x="532" 
d="M273 506l-12 87q-3 22 -10 36t-17 20t-18 8t-19 2q-25 0 -47 -5l-10 93q50 13 85 13q119 0 138 -135l93 -625h-116l-46 353h-2l-211 -353h-124z" />
    <glyph glyph-name="uni03BC" unicode="&#x3bc;" horiz-adv-x="602" 
d="M143 57h-1l-44 -247h-116l123 696h115l-51 -286q-10 -59 14.5 -93.5t78.5 -34.5q48 0 82.5 34t45.5 95l50 285h116l-89 -506h-115l10 56h-2q-52 -63 -117 -63q-72 0 -100 64z" />
    <glyph glyph-name="nu" unicode="&#x3bd;" horiz-adv-x="547" 
d="M158 -4l-112 510h119l70 -364h1l200 364h126l-293 -510h-111z" />
    <glyph glyph-name="xi" unicode="&#x3be;" horiz-adv-x="543" 
d="M137 522q0 50 30.5 85t83.5 51h-111l16 92h435l-18 -99h-135q-30 0 -58.5 -5.5t-58 -17.5t-47.5 -37t-18 -59q0 -38 33 -56.5t81 -18.5h127l-18 -101h-147q-78 0 -133 -37.5t-55 -114.5q0 -86 118 -104q193 -29 193 -119q0 -53 -50 -148h-98q35 66 35 107q0 10 -3.5 18
t-13 14.5t-17 10.5t-24 8t-25.5 5.5l-30 5t-30 5.5q-91 16 -134 63t-43 114q0 88 53.5 149.5t151.5 84.5q-46 13 -68 43t-22 61z" />
    <glyph glyph-name="omicron" unicode="&#x3bf;" horiz-adv-x="612" 
d="M273 -10q-109 0 -176.5 66t-67.5 173q0 121 83.5 204t204.5 83q109 0 177.5 -66.5t68.5 -173.5q0 -123 -81 -204.5t-209 -81.5zM278 90q73 0 121 53t48 129q0 63 -36.5 103t-97.5 40q-73 0 -120 -53t-47 -130q0 -62 36 -102t96 -40z" />
    <glyph glyph-name="pi" unicode="&#x3c0;" horiz-adv-x="589" 
d="M14 0l89 506h440l-89 -506h-115l72 409h-210l-71 -409h-116z" />
    <glyph glyph-name="rho" unicode="&#x3c1;" horiz-adv-x="629" 
d="M295 90q75 0 121.5 54.5t46.5 134.5q0 61 -34 99t-93 38q-73 0 -121 -54t-48 -134q0 -60 35 -99t93 -39zM142 64l-45 -254h-115l82 462q20 113 94 178.5t186 65.5q100 0 168 -65t68 -170q0 -117 -78.5 -204t-198.5 -87q-102 0 -159 74h-2z" />
    <glyph glyph-name="sigma1" unicode="&#x3c2;" horiz-adv-x="539" 
d="M152 235q0 -55 33.5 -87.5t92.5 -54.5q69 -28 101 -53.5t32 -63.5q0 -12 -2.5 -25.5t-4.5 -22t-9.5 -25t-10 -21.5l-13 -25.5t-12.5 -23.5h-99q41 71 41 109q0 23 -20 36t-62 27q-183 59 -183 226q0 119 78 202t199 83q133 0 204 -93l-80 -67q-53 59 -125 59
q-69 0 -114.5 -52t-45.5 -128z" />
    <glyph glyph-name="sigma" unicode="&#x3c3;" horiz-adv-x="635" 
d="M279 90q72 0 120 53t48 126q0 61 -36.5 99t-97.5 38q-73 0 -120 -52t-47 -127q0 -61 36.5 -99t96.5 -38zM482 413v-3q37 -16 58.5 -56t21.5 -86q0 -117 -80.5 -197.5t-206.5 -80.5q-110 0 -178 66t-68 169q0 120 79 200.5t203 80.5h315l-16 -93h-128z" />
    <glyph glyph-name="tau" unicode="&#x3c4;" horiz-adv-x="467" 
d="M112 0l72 406h-150l18 100h411l-18 -100h-146l-72 -406h-115z" />
    <glyph glyph-name="upsilon" unicode="&#x3c5;" horiz-adv-x="587" 
d="M543 506l-51 -289q-40 -227 -248 -227q-100 0 -150 57.5t-50 145.5q0 27 5 59l45 254h115l-47 -265q-4 -21 -4 -44q0 -107 96 -107q55 0 85 37.5t42 108.5l47 270h115z" />
    <glyph glyph-name="phi" unicode="&#x3c6;" horiz-adv-x="754" 
d="M409 515q133 -2 214.5 -60.5t81.5 -173.5q0 -132 -89 -207t-239 -80l-32 -184h-112l33 185q-114 12 -175.5 73t-61.5 156q0 105 57.5 179t163.5 105l25 -92q-59 -19 -96 -69.5t-37 -117.5q0 -120 140 -141l75 424q21 3 52 3zM593 279q0 120 -141 135l-58 -328
q92 11 145.5 59t53.5 134z" />
    <glyph glyph-name="chi" unicode="&#x3c7;" horiz-adv-x="565" 
d="M351 0l-88 169h-2l-148 -169h-138l231 257l-137 249h129l85 -163h2l142 163h138l-226 -251l141 -255h-129z" />
    <glyph glyph-name="psi" unicode="&#x3c8;" horiz-adv-x="754" 
d="M223 -190l33 185q-116 12 -171 83.5t-37 173.5l45 254h115l-46 -262q-11 -63 18.5 -104t91.5 -51l104 584h112l-104 -585q69 3 110 40t53 101l49 277h114l-52 -296q-17 -98 -90.5 -157t-200.5 -60l-32 -183h-112z" />
    <glyph glyph-name="omega" unicode="&#x3c9;" horiz-adv-x="779" 
d="M198 -10q-77 0 -123 51.5t-46 136.5q0 130 65.5 219.5t194.5 118.5l20 -89q-167 -51 -167 -245q0 -94 74 -94q83 0 103 118l25 143h112l-26 -143q-4 -23 -4 -45q0 -37 18 -55t48 -18q41 0 71 36t41.5 80.5t11.5 87.5q0 116 -101 136l28 88q90 -9 138.5 -67.5t48.5 -151.5
q0 -54 -14 -106.5t-42 -98.5t-75.5 -74t-108.5 -28q-102 0 -134 82q-59 -82 -158 -82z" />
    <glyph glyph-name="iotadieresis" unicode="&#x3ca;" horiz-adv-x="263" 
d="M281 719q28 0 48.5 -19.5t20.5 -47.5q0 -29 -20 -49t-48 -20q-29 0 -48.5 20.5t-19.5 48.5q0 27 20 47t47 20zM93 583q-28 0 -48 20.5t-20 48.5q0 27 20 47t47 20q28 0 48.5 -19.5t20.5 -47.5q0 -29 -20 -49t-48 -20zM14 0l88 506h116l-89 -506h-115z" />
    <glyph glyph-name="upsilondieresis" unicode="&#x3cb;" horiz-adv-x="587" 
d="M441 719q28 0 48.5 -19.5t20.5 -47.5q0 -29 -20 -49t-48 -20q-29 0 -48.5 20.5t-19.5 48.5q0 27 20 47t47 20zM253 583q-28 0 -48 20.5t-20 48.5q0 27 20 47t47 20q28 0 48.5 -19.5t20.5 -47.5q0 -29 -20 -49t-48 -20zM543 506l-51 -289q-40 -227 -248 -227
q-100 0 -150 57.5t-50 145.5q0 27 5 59l45 254h115l-47 -265q-4 -21 -4 -44q0 -107 96 -107q55 0 85 37.5t42 108.5l47 270h115z" />
    <glyph glyph-name="omicrontonos" unicode="&#x3cc;" horiz-adv-x="612" 
d="M297 585l115 165l102 -50l-133 -115h-84zM273 -10q-109 0 -176.5 66t-67.5 173q0 121 83.5 204t204.5 83q109 0 177.5 -66.5t68.5 -173.5q0 -123 -81 -204.5t-209 -81.5zM278 90q73 0 121 53t48 129q0 63 -36.5 103t-97.5 40q-73 0 -120 -53t-47 -130q0 -62 36 -102
t96 -40z" />
    <glyph glyph-name="upsilontonos" unicode="&#x3cd;" horiz-adv-x="587" 
d="M282 585l115 165l102 -50l-133 -115h-84zM543 506l-51 -289q-40 -227 -248 -227q-100 0 -150 57.5t-50 145.5q0 27 5 59l45 254h115l-47 -265q-4 -21 -4 -44q0 -107 96 -107q55 0 85 37.5t42 108.5l47 270h115z" />
    <glyph glyph-name="omegatonos" unicode="&#x3ce;" horiz-adv-x="779" 
d="M388 585l115 165l102 -50l-133 -115h-84zM198 -10q-77 0 -123 51.5t-46 136.5q0 130 65.5 219.5t194.5 118.5l20 -89q-167 -51 -167 -245q0 -94 74 -94q83 0 103 118l25 143h112l-26 -143q-4 -23 -4 -45q0 -37 18 -55t48 -18q41 0 71 36t41.5 80.5t11.5 87.5
q0 116 -101 136l28 88q90 -9 138.5 -67.5t48.5 -151.5q0 -54 -14 -106.5t-42 -98.5t-75.5 -74t-108.5 -28q-102 0 -134 82q-59 -82 -158 -82z" />
    <glyph glyph-name="uni03D7" unicode="&#x3d7;" horiz-adv-x="984" 
d="M39 206q0 126 67.5 242t186 189t255.5 73q172 0 282.5 -100.5t110.5 -241.5q0 -130 -73 -224t-181 -94q-105 0 -167 97l-77 120l-99 -74l-44 -113h-101l163 426h102l-70 -183l240 183h127l-239 -180l89 -140q39 -61 93 -61q50 0 89.5 42t58.5 96t19 103q0 120 -89 204.5
t-234 84.5q-113 0 -216 -59t-168 -164t-65 -226q0 -136 89 -225.5t237 -89.5q128 0 249 65l22 -45q-137 -75 -277 -75q-169 0 -274.5 106.5t-105.5 263.5z" />
    <glyph glyph-name="endash" unicode="&#x2013;" horiz-adv-x="571" 
d="M512 246h-473l20 112h472z" />
    <glyph glyph-name="emdash" unicode="&#x2014;" horiz-adv-x="985" 
d="M925 246h-886l20 112h886z" />
    <glyph glyph-name="afii00208" unicode="&#x2015;" horiz-adv-x="987" 
d="M929 246h-886l19 112h886z" />
    <glyph glyph-name="quoteleft" unicode="&#x2018;" horiz-adv-x="257" 
d="M277 700l-96 -257h-134l128 257h102z" />
    <glyph glyph-name="quoteright" unicode="&#x2019;" horiz-adv-x="257" 
d="M50 443l95 257h134l-127 -257h-102z" />
    <glyph glyph-name="quotesinglbase" unicode="&#x201a;" horiz-adv-x="254" 
d="M-26 -125l96 256h134l-128 -256h-102z" />
    <glyph glyph-name="quotedblleft" unicode="&#x201c;" horiz-adv-x="465" 
d="M485 700l-95 -257h-135l128 257h102zM277 700l-96 -257h-134l128 257h102z" />
    <glyph glyph-name="quotedblright" unicode="&#x201d;" horiz-adv-x="465" 
d="M50 443l95 257h134l-127 -257h-102zM258 443l95 257h135l-128 -257h-102z" />
    <glyph glyph-name="quotedblbase" unicode="&#x201e;" horiz-adv-x="462" 
d="M-26 -125l96 256h134l-128 -256h-102zM183 -125l95 256h134l-128 -256h-101z" />
    <glyph glyph-name="dagger" unicode="&#x2020;" horiz-adv-x="401" 
d="M147 224l48 277h-116l12 69h116l23 130h78l-23 -130h116l-12 -69h-116l-48 -277h-78z" />
    <glyph glyph-name="daggerdbl" unicode="&#x2021;" horiz-adv-x="401" 
d="M26 200h116l53 301h-116l12 69h116l23 130h78l-23 -130h116l-12 -69h-116l-53 -301h116l-12 -69h-116l-23 -131h-78l23 131h-116z" />
    <glyph glyph-name="bullet" unicode="&#x2022;" horiz-adv-x="502" 
d="M84 346q0 70 48.5 118.5t118.5 48.5t118.5 -48.5t48.5 -118.5q0 -69 -48.5 -118t-118.5 -49t-118.5 49t-48.5 118z" />
    <glyph glyph-name="onedotenleader" unicode="&#x2024;" horiz-adv-x="254" 
d="M171 71q0 -31 -22.5 -53.5t-53.5 -22.5t-53 22t-22 54q0 31 22 53t53 22t53.5 -22t22.5 -53z" />
    <glyph glyph-name="twodotenleader" unicode="&#x2025;" horiz-adv-x="530" 
d="M171 71q0 -31 -22.5 -53.5t-53.5 -22.5t-53 22t-22 54q0 31 22 53t53 22t53.5 -22t22.5 -53zM446 71q0 -31 -22 -53.5t-54 -22.5q-31 0 -53 22t-22 54q0 31 22 53t53 22t53.5 -22t22.5 -53z" />
    <glyph glyph-name="ellipsis" unicode="&#x2026;" horiz-adv-x="796" 
d="M171 71q0 -31 -22.5 -53.5t-53.5 -22.5t-53 22t-22 54q0 31 22 53t53 22t53.5 -22t22.5 -53zM442 71q0 -31 -22 -53.5t-54 -22.5q-31 0 -53 22t-22 54q0 31 22 53t53 22t53.5 -22t22.5 -53zM713 71q0 -31 -22 -53.5t-53 -22.5q-32 0 -54 22.5t-22 53.5t22.5 53t53.5 22
t53 -22t22 -53z" />
    <glyph glyph-name="perthousand" unicode="&#x2030;" horiz-adv-x="1165" 
d="M81 0l560 700h92l-560 -700h-92zM213 345q-61 0 -99 43.5t-38 113.5q0 80 44.5 141.5t123.5 61.5q60 0 99 -44.5t39 -114.5q0 -80 -44.5 -140.5t-124.5 -60.5zM217 416q40 0 61.5 40.5t21.5 89.5q0 42 -16.5 65t-43.5 23q-41 0 -61.5 -42t-20.5 -92q0 -40 16.5 -62
t42.5 -22zM576 -5q-61 0 -99.5 43.5t-38.5 113.5q0 80 44.5 141.5t123.5 61.5q61 0 99.5 -44.5t38.5 -114.5q0 -80 -44.5 -140.5t-123.5 -60.5zM579 66q40 0 61.5 40.5t21.5 89.5q0 42 -16.5 65t-43.5 23q-41 0 -61.5 -42t-20.5 -92q0 -40 16.5 -62t42.5 -22zM927 -5
q-61 0 -99 43.5t-38 113.5q0 80 44.5 141.5t123.5 61.5q60 0 98.5 -44.5t38.5 -114.5q0 -80 -44.5 -140.5t-123.5 -60.5zM931 66q40 0 61.5 40.5t21.5 89.5q0 42 -16.5 65t-43.5 23q-42 0 -62 -41.5t-20 -92.5q0 -40 16 -62t43 -22z" />
    <glyph glyph-name="guilsinglleft" unicode="&#x2039;" horiz-adv-x="318" 
d="M225 84l-84 -45l-120 224l198 223l66 -55l-151 -173z" />
    <glyph glyph-name="guilsinglright" unicode="&#x203a;" horiz-adv-x="318" 
d="M73 39l-66 56l153 173l-92 173l85 45l120 -223z" />
    <glyph glyph-name="fraction" unicode="&#x2044;" horiz-adv-x="241" 
d="M-198 -30l577 801l61 -43l-578 -801z" />
    <glyph glyph-name="zerosuperior" unicode="&#x2070;" horiz-adv-x="372" 
d="M200 345q-61 0 -99 43.5t-38 113.5q0 80 44.5 141.5t123.5 61.5q60 0 99 -44.5t39 -114.5q0 -80 -44.5 -140.5t-124.5 -60.5zM204 416q40 0 61.5 40.5t21.5 89.5q0 42 -16.5 65t-43.5 23q-42 0 -62 -41.5t-20 -92.5q0 -40 16.5 -62t42.5 -22z" />
    <glyph glyph-name="foursuperior" unicode="&#x2074;" horiz-adv-x="332" 
d="M316 417h-42l-11 -67h-80l12 67h-160l12 69l170 214h107l-38 -214h42zM206 486l23 129l-100 -129h77z" />
    <glyph glyph-name="fivesuperior" unicode="&#x2075;" horiz-adv-x="322" 
d="M41 434l75 22q9 -40 47 -40q29 0 46 20.5t17 47.5q0 19 -10.5 31.5t-31.5 12.5q-29 0 -66 -23l-46 26l38 169h214l-12 -69h-142l-12 -53q23 9 48 9q46 0 74 -27.5t28 -72.5q0 -63 -44 -102.5t-112 -39.5q-44 0 -73.5 24.5t-37.5 64.5z" />
    <glyph glyph-name="sixsuperior" unicode="&#x2076;" horiz-adv-x="310" 
d="M190 585v-1q16 4 27 4q41 0 68 -29t27 -72q0 -61 -43.5 -101.5t-108.5 -40.5q-57 0 -91 30t-34 76q0 57 62 128l103 121h88zM165 414q27 0 48 21.5t21 51.5q0 19 -13 31.5t-36 12.5q-27 0 -48 -20t-21 -50q0 -21 13.5 -34t35.5 -13z" />
    <glyph glyph-name="sevensuperior" unicode="&#x2077;" horiz-adv-x="299" 
d="M65 630l12 70h258l-10 -59l-185 -291h-84l178 280h-169z" />
    <glyph glyph-name="eightsuperior" unicode="&#x2078;" horiz-adv-x="342" 
d="M171 345q-56 0 -92 26.5t-36 67.5q0 71 79 99q-40 19 -40 59q0 52 41.5 80t99.5 28q52 0 85.5 -24.5t33.5 -61.5q0 -59 -66 -87q49 -20 49 -69q0 -57 -45 -87.5t-109 -30.5zM204 558q22 0 40 12t18 34q0 32 -44 32q-21 0 -40 -11.5t-19 -33.5q0 -15 12.5 -24t32.5 -9z
M177 414q25 0 46.5 12.5t21.5 37.5q0 16 -14 25.5t-39 9.5q-29 0 -49 -13.5t-20 -36.5q0 -35 54 -35z" />
    <glyph glyph-name="ninesuperior" unicode="&#x2079;" horiz-adv-x="337" 
d="M181 465v1q-10 -3 -27 -3q-41 0 -68 29t-27 71q0 60 44 101t108 41q57 0 91 -28.5t34 -77.5q0 -56 -61 -128l-103 -121h-89zM207 636q-28 0 -48.5 -20.5t-20.5 -51.5q0 -20 12.5 -32.5t35.5 -12.5q27 0 48 20t21 50q0 21 -13 34t-35 13z" />
    <glyph glyph-name="parenleftsuperior" unicode="&#x207d;" horiz-adv-x="185" 
d="M153 338l-64 -34q-43 83 -43 174q0 136 116 268l56 -34q-50 -60 -73 -112t-23 -123q0 -78 31 -139z" />
    <glyph glyph-name="parenrightsuperior" unicode="&#x207e;" horiz-adv-x="185" 
d="M65 304l-56 34q50 61 73 112.5t23 122.5q0 76 -30 139l63 34q42 -84 42 -175q0 -137 -115 -267z" />
    <glyph glyph-name="zeroinferior" unicode="&#x2080;" horiz-adv-x="372" 
d="M200 -5q-61 0 -99 43.5t-38 113.5q0 80 44.5 141.5t123.5 61.5q60 0 99 -44.5t39 -114.5q0 -80 -44.5 -140.5t-124.5 -60.5zM204 66q40 0 61.5 40.5t21.5 89.5q0 42 -16.5 65t-43.5 23q-42 0 -62 -41.5t-20 -92.5q0 -40 16.5 -62t42.5 -22z" />
    <glyph glyph-name="oneinferior" unicode="&#x2081;" horiz-adv-x="266" 
d="M166 275l-67 -35l-23 58l104 52h79l-61 -350h-80z" />
    <glyph glyph-name="twoinferior" unicode="&#x2082;" horiz-adv-x="330" 
d="M52 60l127 104l16 13t15.5 13l13 11.5t12 12.5l8 12t6.5 13.5t2 13.5q0 16 -10.5 25t-27.5 9q-20 0 -35 -12.5t-21 -34.5l-76 8q29 107 136 107q50 0 82 -25t32 -68q0 -39 -20 -65.5t-68 -64.5l-73 -60h135l-14 -72h-251z" />
    <glyph glyph-name="threeinferior" unicode="&#x2083;" horiz-adv-x="308" 
d="M296 106q0 -47 -39 -79.5t-98 -32.5q-53 0 -87 27t-42 71l79 15q2 -21 16 -32.5t35 -11.5q25 0 40.5 13t15.5 38q0 37 -51 37h-34l11 59h33q26 0 42 11.5t16 33.5q0 14 -11.5 22.5t-27.5 8.5q-37 0 -50 -36l-76 15q31 90 132 90q46 0 78 -24.5t32 -64.5q0 -33 -19.5 -56
t-52.5 -31q27 -8 42.5 -27.5t15.5 -45.5z" />
    <glyph glyph-name="fourinferior" unicode="&#x2084;" horiz-adv-x="332" 
d="M316 67h-42l-11 -67h-80l12 67h-160l12 69l170 214h107l-38 -214h42zM206 136l23 129l-100 -129h77z" />
    <glyph glyph-name="fiveinferior" unicode="&#x2085;" horiz-adv-x="322" 
d="M41 84l75 22q9 -40 47 -40q29 0 46 20.5t17 47.5q0 19 -10.5 31.5t-31.5 12.5q-29 0 -66 -23l-46 26l38 169h214l-12 -69h-142l-12 -53q22 9 48 9q46 0 74 -27.5t28 -72.5q0 -63 -44 -102.5t-112 -39.5q-44 0 -73.5 24.5t-37.5 64.5z" />
    <glyph glyph-name="sixinferior" unicode="&#x2086;" horiz-adv-x="310" 
d="M190 235v-1q16 4 27 4q41 0 68 -29t27 -72q0 -61 -43.5 -101.5t-108.5 -40.5q-57 0 -91 30t-34 76q0 57 62 128l103 121h88zM165 64q27 0 48 21.5t21 51.5q0 19 -13 31.5t-36 12.5q-27 0 -48 -20t-21 -50q0 -21 13.5 -34t35.5 -13z" />
    <glyph glyph-name="seveninferior" unicode="&#x2087;" horiz-adv-x="299" 
d="M65 280l12 70h258l-10 -59l-185 -291h-84l178 280h-169z" />
    <glyph glyph-name="eightinferior" unicode="&#x2088;" horiz-adv-x="342" 
d="M171 -5q-56 0 -92 26.5t-36 67.5q0 71 79 99q-40 19 -40 59q0 52 41.5 80t99.5 28q52 0 85.5 -24.5t33.5 -61.5q0 -59 -66 -87q49 -20 49 -69q0 -57 -45 -87.5t-109 -30.5zM204 208q22 0 40 12t18 34q0 32 -44 32q-21 0 -40 -11.5t-19 -33.5q0 -15 12.5 -24t32.5 -9z
M177 64q25 0 46.5 12.5t21.5 37.5q0 16 -14 25.5t-39 9.5q-29 0 -49 -13.5t-20 -36.5q0 -35 54 -35z" />
    <glyph glyph-name="nineinferior" unicode="&#x2089;" horiz-adv-x="337" 
d="M181 115v1q-11 -3 -27 -3q-41 0 -68 29t-27 71q0 60 44 101t108 41q57 0 91 -28.5t34 -77.5q0 -56 -61 -128l-103 -121h-89zM207 286q-28 0 -48.5 -20.5t-20.5 -51.5q0 -20 12.5 -32.5t35.5 -12.5q27 0 48 20t21 50q0 21 -13 34t-35 13z" />
    <glyph glyph-name="parenleftinferior" unicode="&#x208d;" horiz-adv-x="185" 
d="M153 -12l-64 -34q-43 83 -43 174q0 136 116 268l56 -34q-50 -60 -73 -112t-23 -123q0 -78 31 -139z" />
    <glyph glyph-name="parenrightinferior" unicode="&#x208e;" horiz-adv-x="185" 
d="M65 -46l-56 34q50 61 73 112.5t23 122.5q0 76 -30 139l63 34q42 -84 42 -175q0 -137 -115 -267z" />
    <glyph glyph-name="colonmonetary" unicode="&#x20a1;" horiz-adv-x="607" 
d="M520 758l-41 -71q19 -8 42 -26l54 97h63l-79 -141q38 -47 38 -121h-126q-1 51 -31 76t-72 25q-141 0 -175 -191l-20 -112q-33 -190 109 -190q96 0 136 94h126q-38 -100 -110.5 -152.5t-164.5 -52.5q-10 0 -52 3l-25 -46h-63l33 58q-21 8 -43 23l-45 -81h-63l67 122
q-54 76 -28 219l23 129q26 148 109.5 218t199.5 70q11 0 43 -5l32 55h63z" />
    <glyph glyph-name="Euro" unicode="&#x20ac;" horiz-adv-x="713" 
d="M60 447h94q34 118 114 190.5t193 72.5q153 0 225 -116l-91 -64q-29 38 -60.5 55t-76.5 17q-60 0 -107.5 -42t-71.5 -113h273l-10 -59h-279q-5 -20 -6 -39q-2 -13 -4 -39h275l-10 -59h-263q7 -70 42 -112t94 -42q50 0 87.5 18.5t75.5 60.5l74 -68q-51 -59 -109 -88.5
t-138 -29.5q-114 0 -180.5 71.5t-72.5 189.5h-103l11 59h93q2 26 4 39l6 39h-89z" />
    <glyph glyph-name="litre" unicode="&#x2113;" horiz-adv-x="399" 
d="M246 141h80q-15 -70 -52.5 -109t-96.5 -39q-66 0 -101.5 39.5t-22.5 112.5l22 131l-41 -23l-17 54q7 5 33.5 19t37.5 22l34 193q15 86 56.5 126t112.5 40q53 0 82.5 -30t29.5 -78q0 -41 -16.5 -78.5t-50.5 -72t-61.5 -57t-72.5 -54.5l-35 -198q-9 -54 30 -54q36 0 49 56z
M218 423q29 26 47 45t35.5 51.5t17.5 64.5q0 35 -29 35q-38 0 -51 -75z" />
    <glyph glyph-name="afii61352" unicode="&#x2116;" horiz-adv-x="1222" 
d="M1114 0h-365l16 86h364zM27 0l123 700h113l293 -496h3l87 496h118l-123 -700h-102l-302 509h-2l-89 -509h-119zM970 141q-76 0 -127 46t-51 120q0 87 62.5 144.5t150.5 57.5q77 0 128.5 -46t51.5 -121q0 -85 -64 -143t-151 -58zM978 231q43 0 72.5 32t29.5 74
q0 34 -23 58t-59 24q-44 0 -72.5 -32.5t-28.5 -72.5q0 -36 22 -59.5t59 -23.5z" />
    <glyph glyph-name="trademark" unicode="&#x2122;" horiz-adv-x="768" 
d="M364 630h-108l-49 -280h-79l49 280h-107l12 70h294zM711 700h81l-61 -350h-78l39 225h-2l-113 -122h-6l-71 121h-2l-40 -224h-78l61 350h66l80 -134z" />
    <glyph glyph-name="Omega" unicode="&#x2126;" horiz-adv-x="842" 
d="M786 392q0 -90 -40.5 -164.5t-112.5 -118.5h116l-19 -109h-299l19 106q92 23 152.5 103t60.5 179q0 91 -57.5 152.5t-161.5 61.5q-116 0 -190 -75.5t-74 -190.5q0 -83 43 -145.5t115 -87.5l-18 -103h-299l20 109h124q-49 34 -78.5 95t-29.5 133q0 156 112.5 264.5
t278.5 108.5q152 0 245 -91t93 -227z" />
    <glyph glyph-name="estimated" unicode="&#x212e;" horiz-adv-x="726" 
d="M367 -6q-135 0 -230 95t-95 230q0 134 95 229.5t230 95.5q134 0 229.5 -95.5t95.5 -229.5v-9h-527q-4 0 -4 -4v-184q0 -13 7 -20q75 -89 200 -89q61 0 116.5 28.5t95.5 78.5h44q-45 -58 -112.5 -92t-144.5 -34zM161 333q0 -5 4 -5h403q5 0 5 5v185q0 10 -9 21
q-75 85 -196 85q-124 0 -199 -87q-8 -8 -8 -22v-182z" />
    <glyph glyph-name="onethird" unicode="&#x2153;" horiz-adv-x="734" 
d="M722 106q0 -47 -39 -79.5t-98 -32.5q-53 0 -87 27t-42 71l79 15q2 -21 16 -32.5t35 -11.5q25 0 40.5 13t15.5 38q0 37 -51 37h-34l11 59h33q26 0 42 11.5t16 33.5q0 14 -11.5 22.5t-27.5 8.5q-37 0 -50 -36l-76 15q31 90 132 90q46 0 78 -24.5t32 -64.5q0 -33 -19.5 -56
t-52.5 -31q27 -8 42.5 -27.5t15.5 -45.5zM166 625l-67 -35l-23 58l104 52h79l-61 -350h-80zM72 -30l577 801l61 -43l-578 -801z" />
    <glyph glyph-name="twothirds" unicode="&#x2154;" horiz-adv-x="812" 
d="M52 410l127 104l16 13t15.5 13l13 11.5t12 12.5l8 12t6.5 13.5t2 13.5q0 16 -10.5 25t-27.5 9q-20 0 -35 -12.5t-21 -34.5l-76 8q29 107 136 107q50 0 82 -25t32 -68q0 -39 -20 -65.5t-68 -64.5l-73 -60h135l-14 -72h-251zM799 106q0 -47 -39 -79.5t-98 -32.5
q-53 0 -87 27t-42 71l79 15q2 -21 16 -32.5t35 -11.5q25 0 40.5 13t15.5 38q0 37 -51 37h-34l11 59h33q26 0 42 11.5t16 33.5q0 14 -11.5 22.5t-27.5 8.5q-37 0 -50 -36l-76 15q31 90 132 90q46 0 78 -24.5t32 -64.5q0 -33 -19.5 -56t-52.5 -31q27 -8 42.5 -27.5t15.5 -45.5
zM149 -30l577 801l61 -43l-578 -801z" />
    <glyph glyph-name="oneeighth" unicode="&#x215b;" horiz-adv-x="744" 
d="M572 -5q-56 0 -92 26.5t-36 67.5q0 71 79 99q-40 19 -40 59q0 52 41.5 80t99.5 28q52 0 85.5 -24.5t33.5 -61.5q0 -59 -66 -87q49 -20 49 -69q0 -57 -45 -87.5t-109 -30.5zM605 208q22 0 40 12t18 34q0 32 -44 32q-21 0 -40 -11.5t-19 -33.5q0 -15 12.5 -24t32.5 -9z
M578 64q25 0 46.5 12.5t21.5 37.5q0 16 -14 25.5t-39 9.5q-29 0 -49 -13.5t-20 -36.5q0 -35 54 -35zM166 625l-67 -35l-23 58l104 52h79l-61 -350h-80zM72 -30l577 801l61 -43l-578 -801z" />
    <glyph glyph-name="threeeighths" unicode="&#x215c;" horiz-adv-x="765" 
d="M594 -5q-56 0 -92 26.5t-36 67.5q0 71 79 99q-40 19 -40 59q0 52 41.5 80t99.5 28q52 0 85.5 -24.5t33.5 -61.5q0 -59 -66 -87q49 -20 49 -69q0 -57 -45 -87.5t-109 -30.5zM627 208q22 0 40 12t18 34q0 32 -44 32q-21 0 -40 -11.5t-19 -33.5q0 -15 12.5 -24t32.5 -9z
M600 64q25 0 46.5 12.5t21.5 37.5q0 16 -14 25.5t-39 9.5q-29 0 -49 -13.5t-20 -36.5q0 -35 54 -35zM296 456q0 -47 -39 -79.5t-98 -32.5q-53 0 -87 27t-42 71l79 15q2 -21 16 -32.5t35 -11.5q25 0 40.5 13t15.5 38q0 37 -51 37h-34l11 59h33q26 0 42 11.5t16 33.5
q0 14 -11.5 22.5t-27.5 8.5q-37 0 -50 -36l-76 15q31 90 132 90q46 0 78 -24.5t32 -64.5q0 -33 -19.5 -56t-52.5 -31q27 -8 42.5 -27.5t15.5 -45.5zM93 -30l577 801l61 -43l-578 -801z" />
    <glyph glyph-name="fiveeighths" unicode="&#x215d;" horiz-adv-x="780" 
d="M608 -5q-56 0 -92 26.5t-36 67.5q0 71 79 99q-40 19 -40 59q0 52 41.5 80t99.5 28q52 0 85.5 -24.5t33.5 -61.5q0 -59 -66 -87q49 -20 49 -69q0 -57 -45 -87.5t-109 -30.5zM641 208q22 0 40 12t18 34q0 32 -44 32q-21 0 -40 -11.5t-19 -33.5q0 -15 12.5 -24t32.5 -9z
M614 64q25 0 46.5 12.5t21.5 37.5q0 16 -14 25.5t-39 9.5q-29 0 -49 -13.5t-20 -36.5q0 -35 54 -35zM41 434l75 22q9 -40 47 -40q29 0 46 20.5t17 47.5q0 19 -10.5 31.5t-31.5 12.5q-29 0 -66 -23l-46 26l38 169h214l-12 -69h-142l-12 -53q23 9 48 9q46 0 74 -27.5t28 -72.5
q0 -63 -44 -102.5t-112 -39.5q-44 0 -73.5 24.5t-37.5 64.5zM108 -30l577 801l61 -43l-578 -801z" />
    <glyph glyph-name="seveneighths" unicode="&#x215e;" horiz-adv-x="722" 
d="M550 -5q-56 0 -92 26.5t-36 67.5q0 71 79 99q-40 19 -40 59q0 52 41.5 80t99.5 28q52 0 85.5 -24.5t33.5 -61.5q0 -59 -66 -87q49 -20 49 -69q0 -57 -45 -87.5t-109 -30.5zM583 208q22 0 40 12t18 34q0 32 -44 32q-21 0 -40 -11.5t-19 -33.5q0 -15 12.5 -24t32.5 -9z
M556 64q25 0 46.5 12.5t21.5 37.5q0 16 -14 25.5t-39 9.5q-29 0 -49 -13.5t-20 -36.5q0 -35 54 -35zM50 -30l577 801l61 -43l-578 -801zM65 630l12 70h258l-10 -59l-185 -291h-84l178 280h-169z" />
    <glyph glyph-name="partialdiff" unicode="&#x2202;" horiz-adv-x="618" 
d="M276 90q75 0 124.5 52.5t49.5 127.5q0 53 -34.5 91t-93.5 38q-73 0 -124 -50.5t-51 -127.5q0 -55 35 -93t94 -38zM300 488q67 0 104 -22l-119 234h119l99 -197q66 -128 66 -227q0 -123 -82 -204.5t-216 -81.5q-112 0 -177 66t-65 162q0 112 74.5 191t196.5 79z" />
    <glyph glyph-name="Delta" unicode="&#x2206;" horiz-adv-x="724" 
d="M496 107l-85 450h-2l-261 -450h348zM639 0h-685l420 703h121z" />
    <glyph glyph-name="product" unicode="&#x220f;" horiz-adv-x="685" 
d="M519 -103h-122l121 691h-267l-121 -691h-121l141 803h510z" />
    <glyph glyph-name="summation" unicode="&#x2211;" horiz-adv-x="590" 
d="M400 299l-228 -292h320l-20 -110h-480l15 95l253 313l-143 300l16 95h480l-20 -110h-332z" />
    <glyph glyph-name="minus" unicode="&#x2212;" horiz-adv-x="627" 
d="M548 247h-509l20 109h509z" />
    <glyph glyph-name="uni2215" unicode="&#x2215;" horiz-adv-x="323" 
d="M-131 -30l577 801l61 -43l-578 -801z" />
    <glyph glyph-name="uni2219" unicode="&#x2219;" horiz-adv-x="268" 
d="M215 309q0 -32 -22 -54t-54 -22t-53.5 22t-21.5 54q0 31 22 52.5t53 21.5q32 0 54 -21.5t22 -52.5z" />
    <glyph glyph-name="radical" unicode="&#x221a;" horiz-adv-x="627" 
d="M227 506l53 -359l279 553h102l-359 -700h-90l-69 418h-98l16 88h166z" />
    <glyph glyph-name="infinity" unicode="&#x221e;" horiz-adv-x="818" 
d="M247 508q49 0 91.5 -33.5t72.5 -87.5q42 56 93.5 88.5t102.5 32.5q71 0 118.5 -43.5t47.5 -118.5q0 -98 -57 -154.5t-146 -56.5q-50 0 -95.5 32t-76.5 84q-38 -54 -87.5 -85.5t-99.5 -31.5q-71 0 -118.5 44.5t-47.5 119.5q0 99 56 154.5t146 55.5zM566 220q45 0 75 36.5
t30 85.5q0 38 -19.5 59t-54.5 21q-72 0 -144 -103q24 -45 50.5 -72t62.5 -27zM354 319q-16 29 -28 47.5t-34 37t-44 18.5q-43 0 -71.5 -34t-28.5 -86q0 -38 19.5 -59.5t53.5 -21.5q64 0 133 98z" />
    <glyph glyph-name="integral" unicode="&#x222b;" horiz-adv-x="341" 
d="M273 554l-96 -545q-13 -69 -47.5 -99.5t-96.5 -30.5h-69l19 105h37q39 0 46 40l96 547q12 68 47.5 98.5t98.5 30.5h67l-19 -105h-38q-39 0 -45 -41z" />
    <glyph glyph-name="approxequal" unicode="&#x2248;" horiz-adv-x="629" 
d="M432 427q60 0 121 47l40 -78q-74 -77 -170 -77q-42 0 -106 21.5t-98 21.5q-61 0 -121 -48l-40 79q76 77 170 77q43 0 110 -21.5t94 -21.5zM400 238q59 0 121 48l40 -78q-76 -77 -170 -77q-42 0 -106 21.5t-98 21.5q-59 0 -121 -48l-40 78q73 77 170 77q43 0 110 -21.5
t94 -21.5z" />
    <glyph glyph-name="notequal" unicode="&#x2260;" horiz-adv-x="655" 
d="M72 341l19 107h308l115 130l67 -55l-67 -75h102l-19 -107h-176l-72 -81h234l-19 -107h-308l-121 -138l-67 55l73 83h-102l19 107h176l71 81h-233z" />
    <glyph glyph-name="lessequal" unicode="&#x2264;" horiz-adv-x="647" 
d="M521 0h-509l19 109h509zM232 347l332 -104l-20 -109l-481 160l20 108l537 161l-20 -113z" />
    <glyph glyph-name="greaterequal" unicode="&#x2265;" horiz-adv-x="647" 
d="M526 0h-506l19 109h506zM63 247l367 103l-331 103l19 110l482 -161l-19 -108l-538 -160z" />
    <glyph glyph-name="lozenge" unicode="&#x25ca;" horiz-adv-x="599" 
d="M552 346l-317 -362l-188 362l316 362zM446 354l-105 204l-190 -220l104 -204z" />
    <glyph glyph-name="commaaccent" unicode="&#xf6c3;" horiz-adv-x="301" 
d="M174 -110q0 -29 -22 -55l-121 -146h-53l77 137q-32 24 -32 62q0 31 22 53t54 22q33 0 54 -21t21 -52z" />
    <glyph glyph-name="idotaccent" horiz-adv-x="271" 
d="M14 0l88 506h116l-89 -506h-115zM259 655q0 -30 -21.5 -51.5t-51.5 -21.5t-51.5 21.5t-21.5 51.5q0 29 21.5 50.5t51.5 21.5t51.5 -21.5t21.5 -50.5z" />
    <glyph glyph-name="zero.tnum" 
d="M288 -10q-110 0 -173 79t-63 209q0 57 10 114.5t33.5 115.5t58 102t88 72t118.5 28q110 0 173 -80t63 -210q0 -57 -10 -114t-33.5 -115t-58 -102t-88 -71.5t-118.5 -27.5zM291 99q49 0 87 33.5t58 85.5t29.5 103t9.5 98q0 82 -30.5 132t-87.5 50q-49 0 -87 -34t-58 -86
t-29.5 -104t-9.5 -98q0 -81 30.5 -130.5t87.5 -49.5z" />
    <glyph glyph-name="one.tnum" 
d="M91 108h151l83 476l-139 -51l-24 99l189 68h116l-104 -592h149l-19 -108h-421z" />
    <glyph glyph-name="two.tnum" 
d="M46 99l252 207q1 1 19 15t21.5 17.5t20.5 17.5t22.5 20t19.5 20t19.5 22.5l15 22.5t13 25.5t7 25t3.5 26.5q0 38 -26.5 60.5t-71.5 22.5q-96 0 -128 -100l-117 15q28 91 94.5 142.5t164.5 51.5q91 0 150.5 -46.5t59.5 -136.5q0 -36 -13.5 -71.5t-29.5 -60t-52 -59.5
t-56 -52l-67 -55l-151 -122h299l-18 -107h-469z" />
    <glyph glyph-name="three.tnum" 
d="M45 176l121 22q16 -99 117 -99q58 0 96.5 34.5t38.5 88.5q0 43 -31 66.5t-92 23.5h-56l18 100h57q53 0 93.5 28.5t40.5 80.5q0 37 -27 58.5t-72 21.5q-86 0 -121 -86l-113 23q63 172 248 172q89 0 147 -44.5t58 -123.5q0 -64 -38.5 -110t-99.5 -66q54 -17 82.5 -55
t28.5 -90q0 -105 -76.5 -168t-192.5 -63q-98 0 -157 51t-70 135z" />
    <glyph glyph-name="four.tnum" 
d="M556 153h-92l-27 -153h-120l27 153h-317l19 111l373 436h141l-79 -449h93zM362 251l51 295l-251 -295h200z" />
    <glyph glyph-name="five.tnum" 
d="M179 326l-66 35l62 339h403l-19 -107h-289l-26 -143q45 17 95 17q92 0 153.5 -56t61.5 -150q0 -118 -74 -194.5t-198 -76.5q-88 0 -146 43t-79 116l113 34q26 -84 115 -84q64 0 105 44.5t41 107.5q0 52 -30.5 86t-85.5 34q-61 0 -136 -45z" />
    <glyph glyph-name="six.tnum" 
d="M291 97q66 0 109.5 42t43.5 109q0 53 -33.5 83t-90.5 30q-65 0 -109 -41.5t-44 -107.5q0 -53 33.5 -84t90.5 -31zM139 434l219 266h147l-215 -259l1 -1q23 9 53 9q94 0 157 -56.5t63 -145.5q0 -110 -78 -183.5t-200 -73.5q-107 0 -173.5 61.5t-66.5 156.5
q0 63 22.5 115.5t70.5 110.5z" />
    <glyph glyph-name="seven.tnum" 
d="M616 597l-385 -597h-135l384 592h-369l19 108h504z" />
    <glyph glyph-name="eight.tnum" 
d="M284 -10q-113 0 -176.5 50.5t-63.5 136.5q0 71 41.5 124.5t113.5 70.5v2q-38 16 -63.5 50t-25.5 80q0 97 72.5 151.5t181.5 54.5q100 0 160.5 -49t60.5 -128q0 -57 -34.5 -100.5t-95.5 -65.5v-2q106 -47 106 -151q0 -107 -78.5 -165.5t-198.5 -58.5zM288 95
q64 0 111 31.5t47 93.5q0 42 -33.5 67t-93.5 25t-109.5 -32t-49.5 -91q0 -44 32.5 -69t95.5 -25zM333 405q53 0 95.5 31t42.5 84q0 39 -29 61.5t-81 22.5t-94.5 -29.5t-42.5 -83.5q0 -41 30.5 -63.5t78.5 -22.5z" />
    <glyph glyph-name="nine.tnum" 
d="M360 603q-66 0 -109.5 -42t-43.5 -109q0 -52 33.5 -82.5t90.5 -30.5q65 0 109 41.5t44 108.5q0 52 -33.5 83t-90.5 31zM605 492q0 -63 -22.5 -115.5t-70.5 -110.5l-219 -266h-147l215 259l-1 1q-23 -9 -53 -9q-94 0 -157 56.5t-63 145.5q0 110 78 183.5t200 73.5
q107 0 173.5 -61.5t66.5 -156.5z" />
    <glyph glyph-name="Euro.tnum" 
d="M40 447h85q34 119 112 191t189 72q155 0 216 -116l-94 -64q-48 72 -125 72q-58 0 -104.5 -42.5t-67.5 -112.5h257l-10 -59h-263q-5 -20 -6 -39q-2 -13 -4 -39h259l-10 -59h-248q3 -67 32 -110.5t91 -43.5q94 0 160 79l76 -68q-102 -118 -245 -118q-115 0 -176.5 73.5
t-63.5 187.5h-95l11 59h85q0 13 4 39q1 19 6 39h-81z" />
    <glyph glyph-name="dollar.tnum" 
d="M216 -90l17 93q-119 16 -200 115l86 77q57 -72 132 -87l36 201q-83 33 -128.5 76.5t-45.5 110.5q0 95 68 148.5t175 55.5l13 73h54l-14 -76q117 -15 183 -104l-94 -70q-39 56 -107 69l-34 -192q93 -35 139.5 -78.5t46.5 -110.5q0 -97 -73.5 -153t-183.5 -58l-16 -90h-54z
M423 201q0 27 -20 47.5t-66 39.5l-32 -182q52 3 85 26t33 69zM233 505q0 -49 74 -83l31 173q-45 -4 -75 -26t-30 -64z" />
    <glyph glyph-name="sterling.tnum" horiz-adv-x="644" 
d="M628 638l-77 -75q-39 44 -95 44q-102 0 -125 -131l-13 -71h170l-15 -87h-170l-40 -223h245l-17 -95h-455l16 95h94l39 223h-94l16 87h94l14 83q38 222 236 222q112 0 177 -72z" />
    <glyph glyph-name="florin.tnum" 
d="M99 356h134l66 179q31 88 76.5 131.5t122.5 43.5q62 0 100 -18l-22 -96q-29 13 -63 13q-68 0 -100 -88l-61 -165h191l-16 -96h-209l-164 -450h-117l163 450h-117z" />
    <glyph glyph-name="yen.tnum" 
d="M49 245h191l8 44l-18 44h-165l10 59h131l-127 308h135l113 -289h2l221 289h146l-246 -308h136l-10 -59h-173l-34 -43l-8 -45h199l-10 -59h-200l-32 -186h-120l32 186h-191z" />
    <glyph glyph-name="cent.tnum" 
d="M233 -114l20 117q-82 14 -130.5 73t-48.5 147q0 117 76.5 199.5t191.5 83.5l17 98h53l-18 -102q96 -16 150 -86l-82 -66q-38 44 -85 54l-54 -306q62 3 122 58l63 -68q-85 -86 -202 -89l-20 -113h-53zM188 226q0 -48 22 -79t61 -43l53 302q-58 -7 -97 -58.5t-39 -121.5z
" />
    <glyph glyph-name="space.tnum" horiz-adv-x="325" 
 />
    <glyph glyph-name="comma.tnum" horiz-adv-x="325" 
d="M190 73q0 -28 -22 -56l-121 -145h-53l77 137q-32 24 -32 62q0 31 22.5 53t53.5 22q33 0 54 -21t21 -52z" />
    <glyph glyph-name="semicolon.tnum" horiz-adv-x="325" 
d="M255 441q0 -31 -22.5 -53.5t-53.5 -22.5t-53 22t-22 54q0 31 22 53t53 22t53.5 -22t22.5 -53zM190 73q0 -28 -22 -56l-121 -145h-53l77 137q-32 24 -32 62q0 31 22.5 53t53.5 22q33 0 54 -21t21 -52z" />
    <glyph glyph-name="colon.tnum" horiz-adv-x="325" 
d="M189 71q0 -31 -22 -53.5t-53 -22.5q-32 0 -54 22.5t-22 53.5t22.5 53t53.5 22t53 -22t22 -53zM255 441q0 -31 -22.5 -53.5t-53.5 -22.5t-53 22t-22 54q0 31 22 53t53 22t53.5 -22t22.5 -53z" />
    <glyph glyph-name="period.tnum" horiz-adv-x="325" 
d="M190 71q0 -31 -22 -53.5t-54 -22.5q-31 0 -53 22t-22 54q0 31 22 53t53 22t53.5 -22t22.5 -53z" />
    <glyph glyph-name="parenleft.tnum" horiz-adv-x="325" 
d="M229 -111l-91 -46q-90 167 -90 346q0 273 229 538l82 -49q-208 -244 -208 -491q0 -148 78 -298z" />
    <glyph glyph-name="parenright.tnum" horiz-adv-x="325" 
d="M47 -159l-81 51q208 247 208 492q0 143 -79 295l92 48q91 -172 91 -344q0 -273 -231 -542z" />
    <glyph glyph-name="bracketleft.tnum" horiz-adv-x="325" 
d="M-13 -160l157 890h216l-17 -92h-102l-124 -706h102l-16 -92h-216z" />
    <glyph glyph-name="bracketright.tnum" horiz-adv-x="325" 
d="M329 730l-157 -890h-215l17 92h102l123 706h-102l16 92h216z" />
    <glyph glyph-name="braceleft.tnum" horiz-adv-x="325" 
d="M213 -160h-48q-47 0 -77 28.5t-30 83.5q0 18 3 40l27 157q2 14 2 20q0 36 -22.5 53t-49.5 17l16 90q31 0 62.5 22.5t39.5 67.5l31 177q23 134 128 134h68l-16 -90h-15q-58 0 -71 -72l-29 -169q-19 -102 -113 -116l-1 -3q28 -3 50.5 -25.5t22.5 -67.5q0 -14 -3 -32
l-27 -154q-2 -16 -2 -24q0 -47 48 -47h22z" />
    <glyph glyph-name="braceright.tnum" horiz-adv-x="325" 
d="M26 -160h-73l16 90h15q58 0 71 71l31 172q19 109 112 117l1 2q-28 4 -51.5 26.5t-23.5 66.5q0 13 3 29l28 154q2 16 2 25q0 47 -48 47h-22l16 90h59q45 0 73 -24t28 -74q0 -10 -5 -43l-30 -170q-2 -7 -2 -20q0 -36 22.5 -53t49.5 -17l-16 -90q-31 0 -62.5 -22.5
t-39.5 -67.5l-29 -165q-26 -144 -125 -144z" />
    <glyph glyph-name="section.tnum" 
d="M227 -138q-103 0 -188 82l69 68q55 -59 126 -59q46 0 79 18.5t33 56.5q0 19 -19.5 36t-37 25t-58.5 25q-26 12 -45.5 23.5t-40.5 29t-32.5 42t-11.5 54.5q0 55 35 96t93 63q-72 43 -72 112q0 82 62.5 129t153.5 47q117 0 185 -70l-74 -73q-43 49 -113 49
q-44 0 -71.5 -21.5t-27.5 -55.5q0 -15 6.5 -27t24 -23.5t25.5 -16t35.5 -16t28.5 -11.5q58 -25 91 -56t33 -82q0 -54 -35.5 -96.5t-96.5 -62.5q31 -16 54 -47.5t23 -67.5q0 -82 -68 -126.5t-166 -44.5zM317 363q-40 0 -76 -22.5t-36 -63.5q0 -32 29 -50.5t68 -18.5
q43 0 77.5 24t34.5 62q0 33 -28.5 51t-68.5 18z" />
    <glyph glyph-name="numbersign.tnum" 
d="M267 0l64 205h-109l-64 -205h-89l64 205h-90l16 85h101l41 130h-89l16 86h100l60 194h89l-60 -194h109l61 194h88l-60 -194h92l-15 -86h-105l-40 -130h92l-16 -85h-103l-64 -205h-89zM289 420l-40 -130h109l41 130h-110z" />
    <glyph glyph-name="percent.tnum" 
d="M19 0l555 700h86l-555 -700h-86zM186 406q-50 0 -82 35.5t-32 92.5q0 72 39.5 121.5t101.5 49.5q50 0 82 -35.5t32 -93.5q0 -71 -40 -120.5t-101 -49.5zM190 470q28 0 47 29.5t19 73.5q0 33 -13 51t-34 18q-29 0 -47.5 -30t-18.5 -76q0 -32 13 -49t34 -17zM452 -6
q-51 0 -82.5 35.5t-31.5 93.5q0 71 39 120.5t101 49.5q50 0 82 -36t32 -94q0 -71 -39.5 -120t-100.5 -49zM456 57q29 0 46.5 29.5t17.5 75.5q0 33 -13 50.5t-34 17.5q-28 0 -46.5 -29.5t-18.5 -74.5q0 -33 13 -51t35 -18z" />
    <glyph glyph-name="perthousand.tnum" 
d="M-63 0l473 700h68l-472 -700h-69zM498 -6q-44 0 -70.5 32.5t-26.5 84.5q0 68 35 112t85 44q42 0 69 -31.5t27 -82.5q0 -70 -34 -114.5t-85 -44.5zM501 50q23 0 39 26t16 74q0 29 -10.5 45.5t-27.5 16.5q-22 0 -39.5 -26.5t-17.5 -71.5q0 -64 40 -64zM262 -6
q-43 0 -70 32.5t-27 84.5q0 68 35 112t86 44q42 0 68.5 -31.5t26.5 -82.5q0 -71 -33.5 -115t-85.5 -44zM265 50q23 0 39.5 26.5t16.5 73.5q0 29 -11 45.5t-28 16.5q-22 0 -39.5 -26.5t-17.5 -71.5q0 -31 11 -47.5t29 -16.5zM125 432q-43 0 -69.5 31.5t-26.5 83.5
q0 69 34.5 113.5t86.5 44.5q42 0 68.5 -32.5t26.5 -83.5q0 -69 -34.5 -113t-85.5 -44zM129 488q22 0 39 26.5t17 72.5q0 30 -11 46.5t-28 16.5q-22 0 -39.5 -26.5t-17.5 -72.5q0 -63 40 -63z" />
    <glyph glyph-name="plus.tnum" 
d="M568 247h-212l-37 -213h-112l37 213h-212l19 109h213l37 214h112l-37 -214h212z" />
    <glyph glyph-name="minus.tnum" 
d="M566 247h-509l19 109h510z" />
    <glyph glyph-name="divide.tnum" 
d="M544 261h-464l15 87h465zM356 107q0 -31 -22 -53t-53 -22t-53 22t-22 53t22 53t53 22t53 -22t22 -53zM426 503q0 -31 -22 -53t-53 -22t-53 22t-22 53t22 53t53 22t53 -22t22 -53z" />
    <glyph glyph-name="multiply.tnum" 
d="M568 441l-166 -142l114 -139l-88 -74l-114 138l-169 -143l-72 86l169 144l-110 135l87 74l110 -135l168 142z" />
    <glyph glyph-name="equal.tnum" 
d="M76 341l19 107h508l-19 -107h-508zM43 153l18 107h508l-18 -107h-508z" />
    <glyph glyph-name="less.tnum" 
d="M533 28l-499 214l20 114l575 214l-21 -119l-430 -157l375 -157z" />
    <glyph glyph-name="greater.tnum" 
d="M586 242l-574 -214l21 121l431 157l-376 157l19 106l500 -213z" />
    <glyph glyph-name="degree.tnum" horiz-adv-x="325" 
d="M343 579q0 -61 -46.5 -104.5t-108.5 -43.5q-53 0 -88.5 35.5t-35.5 88.5q0 62 45 106t109 44q53 0 89 -36.5t36 -89.5zM277 576q0 29 -18.5 48.5t-47.5 19.5q-34 0 -58.5 -25.5t-24.5 -60.5q0 -28 19 -47.5t48 -19.5q33 0 56.5 25t25.5 60z" />
    <glyph glyph-name="zero.onum" horiz-adv-x="610" 
d="M271 96q64 0 107 52.5t43 126.5q0 60 -32.5 97t-83.5 37q-62 0 -106 -50.5t-44 -128.5q0 -60 32.5 -97t83.5 -37zM542 279q0 -116 -78.5 -202.5t-200.5 -86.5q-103 0 -166 67t-63 168q0 121 78.5 206t200.5 85q104 0 166.5 -68t62.5 -169z" />
    <glyph glyph-name="one.onum" horiz-adv-x="382" 
d="M175 382l-111 -58l-36 89l178 93h109l-89 -506h-119z" />
    <glyph glyph-name="two.onum" horiz-adv-x="540" 
d="M227 98h221l-17 -98h-430l14 87l224 129q72 41 94.5 70.5t22.5 60.5q0 26 -19.5 43.5t-53.5 17.5q-37 0 -67 -24.5t-47 -60.5l-112 29q77 164 242 164q81 0 130 -45t49 -110q0 -68 -38.5 -117t-132.5 -99z" />
    <glyph glyph-name="three.onum" horiz-adv-x="514" 
d="M452 360q0 -60 -36 -103.5t-94 -64.5q93 -38 93 -133q0 -105 -78 -164.5t-173 -59.5q-68 0 -120 26.5t-77 71.5l97 66q37 -55 100 -55q47 0 86.5 32.5t39.5 82.5q0 37 -27 59.5t-74 22.5h-54l19 100h57q48 0 84.5 29.5t36.5 74.5q0 28 -19.5 44.5t-54.5 16.5
q-61 0 -112 -72l-95 49q81 133 226 133q77 0 126 -44t49 -112z" />
    <glyph glyph-name="four.onum" horiz-adv-x="550" 
d="M473 0h-91l-23 -132h-118l23 132h-284l20 111l335 395h136l-71 -407h91zM282 99l43 246l-203 -246h160z" />
    <glyph glyph-name="five.onum" horiz-adv-x="513" 
d="M105 506h357l-19 -104h-251l-30 -130q40 15 86 15q83 0 135.5 -49.5t52.5 -132.5q0 -116 -76.5 -193t-195.5 -77q-58 0 -110.5 26.5t-78.5 69.5l97 64q14 -22 42.5 -36t59.5 -14q59 0 99 43.5t40 102.5q0 44 -26.5 70t-72.5 26q-27 0 -50 -5.5t-36.5 -12.5l-43.5 -23
l-53 37z" />
    <glyph glyph-name="six.onum" horiz-adv-x="584" 
d="M24 178q0 114 111 244l201 238h142l-206 -243l1 -1q29 12 59 12q79 0 129.5 -52t50.5 -130q0 -107 -82 -181.5t-197 -74.5q-93 0 -151 53.5t-58 134.5zM247 95q58 0 101.5 43.5t43.5 103.5q0 45 -26.5 72t-73.5 27q-61 0 -104.5 -43.5t-43.5 -106.5q0 -43 28 -69.5
t75 -26.5z" />
    <glyph glyph-name="seven.onum" horiz-adv-x="512" 
d="M489 396l-364 -556h-133l364 559h-314l20 107h446z" />
    <glyph glyph-name="eight.onum" horiz-adv-x="602" 
d="M240 -10q-96 0 -156.5 46.5t-60.5 123.5q0 66 40 116.5t108 75.5v2q-70 33 -70 110q0 92 73.5 146.5t177.5 54.5q88 0 142.5 -44.5t54.5 -114.5q0 -56 -32 -99t-88 -68v-2q90 -38 90 -130q0 -102 -81.5 -159.5t-197.5 -57.5zM306 381q50 0 88 28.5t38 79.5
q0 34 -24.5 53.5t-71.5 19.5q-49 0 -87 -29t-38 -79q0 -35 26 -54t69 -19zM255 93q57 0 102.5 29.5t45.5 84.5q0 37 -32 59t-82 22q-56 0 -101.5 -30t-45.5 -84q0 -38 31 -59.5t82 -21.5z" />
    <glyph glyph-name="nine.onum" horiz-adv-x="576" 
d="M519 328q0 -67 -28 -123t-83 -121l-202 -244h-142l206 248l-1 1q-29 -11 -59 -11q-79 0 -129 51.5t-50 130.5q0 107 82 181.5t197 74.5q92 0 150.5 -54t58.5 -134zM296 410q-58 0 -102 -43t-44 -103q0 -45 27 -72t74 -27q60 0 104 43.5t44 105.5q0 44 -27.5 70t-75.5 26z
" />
    <glyph glyph-name="Euro.onum" horiz-adv-x="584" 
d="M455 150l64 -69q-89 -91 -211 -91q-90 0 -150 47t-77 127h-89l10 59h73q0 33 6 65h-68l11 59h76q33 76 99 122.5t153 46.5q133 0 204 -93l-84 -67q-47 59 -121 59q-69 0 -114.5 -55.5t-45.5 -133.5q0 -63 35.5 -99.5t94.5 -36.5q69 0 134 60z" />
    <glyph glyph-name="dollar.onum" horiz-adv-x="488" 
d="M147 -84l15 86q-97 9 -163 72l65 77q48 -46 114 -56l21 120q-154 46 -154 138q0 71 56 110.5t149 41.5l13 71h54l-12 -73q96 -12 147 -65l-75 -70q-33 37 -88 47l-22 -128q80 -30 118 -62t38 -80q0 -68 -57 -104t-151 -41l-14 -84h-54zM159 357q0 -30 57 -51l19 111
q-31 -3 -53.5 -17.5t-22.5 -42.5zM310 145q0 18 -14 30.5t-45 24.5l-19 -109q78 7 78 54z" />
    <glyph glyph-name="sterling.onum" horiz-adv-x="549" 
d="M441 0h-459l17 99h84l17 97h-84l14 81h84l7 36q18 95 76 149t154 54q64 0 101.5 -16.5t70.5 -53.5l-75 -78q-37 43 -96 43q-44 0 -74.5 -26t-39.5 -79l-5 -29h181l-14 -81h-181l-17 -97h256z" />
    <glyph glyph-name="florin.onum" horiz-adv-x="430" 
d="M44 294h79l15 45q29 88 77 132.5t126 44.5q56 0 98 -19l-30 -94q-29 12 -60 12q-73 0 -102 -89l-11 -32h124l-17 -96h-139l-119 -359h-112l118 359h-64z" />
    <glyph glyph-name="yen.onum" horiz-adv-x="592" 
d="M74 506h121l85 -202h2l156 202h129l-167 -215h105l-10 -59h-142l-29 -37l-3 -18h164l-10 -59h-164l-21 -118h-117l21 118h-160l10 59h160l3 18l-16 37h-137l10 59h102z" />
    <glyph glyph-name="cent.onum" horiz-adv-x="530" 
d="M390 153l63 -68q-84 -85 -192 -89h-10l-19 -110h-53l20 113q-84 14 -132.5 75t-48.5 149q0 118 76 202t195 85l16 94h53l-17 -99q95 -16 148 -85l-81 -66q-36 44 -84 54l-55 -314q63 4 121 59zM132 226q0 -49 22.5 -82.5t62.5 -44.5l55 312q-62 -7 -101 -60t-39 -125z
" />
    <glyph glyph-name="space.onum" horiz-adv-x="292" 
 />
    <glyph glyph-name="comma.onum" horiz-adv-x="272" 
d="M166 73q0 -30 -22 -56l-120 -145h-54l77 137q-31 23 -31 62q0 31 22 53t53 22q33 0 54 -21t21 -52z" />
    <glyph glyph-name="semicolon.onum" horiz-adv-x="272" 
d="M228 432q0 -31 -22 -53t-54 -22t-53.5 21.5t-21.5 53.5t21.5 53.5t53.5 21.5t54 -22t22 -53zM163 73q0 -29 -21 -56l-121 -145h-53l76 137q-31 24 -31 62q0 31 22 53t54 22t53 -21t21 -52z" />
    <glyph glyph-name="colon.onum" horiz-adv-x="272" 
d="M163 71q0 -31 -22 -53.5t-53 -22.5q-32 0 -54 22.5t-22 53.5t22.5 53t53.5 22t53 -22t22 -53zM228 432q0 -31 -22 -53t-54 -22t-53.5 21.5t-21.5 53.5t21.5 53.5t53.5 21.5t54 -22t22 -53z" />
    <glyph glyph-name="period.onum" horiz-adv-x="272" 
d="M162 71q0 -31 -22 -53.5t-54 -22.5q-31 0 -53 22t-22 54q0 31 22 53t53 22t53.5 -22t22.5 -53z" />
    <glyph glyph-name="parenleft.onum" horiz-adv-x="357" 
d="M224 -142l-91 -46q-90 170 -90 346q0 273 229 538l83 -49q-209 -243 -209 -491q0 -148 78 -298z" />
    <glyph glyph-name="parenright.onum" horiz-adv-x="357" 
d="M50 -190l-80 51q207 248 207 492q0 143 -79 295l92 48q91 -169 91 -344q0 -275 -231 -542z" />
    <glyph glyph-name="bracketleft.onum" horiz-adv-x="357" 
d="M-12 -190l157 890h219l-16 -93h-107l-124 -704h107l-17 -93h-219z" />
    <glyph glyph-name="bracketright.onum" horiz-adv-x="357" 
d="M335 700l-157 -890h-218l16 93h106l124 704h-107l17 93h219z" />
    <glyph glyph-name="braceleft.onum" horiz-adv-x="365" 
d="M217 -190h-56q-47 0 -77.5 28.5t-30.5 83.5q0 20 4 40l27 157q2 14 2 20q0 36 -23 53t-50 17l16 90q31 0 62.5 22.5t39.5 67.5l31 177q24 134 129 134h76l-16 -90h-24q-57 0 -70 -72l-30 -169q-18 -102 -113 -116l-1 -3q29 -3 51.5 -25.5t22.5 -67.5q0 -14 -3 -32
l-27 -154q-3 -12 -3 -24q0 -47 49 -47h30z" />
    <glyph glyph-name="braceright.onum" horiz-adv-x="365" 
d="M49 -190h-82l16 90h24q58 0 71 71l31 172q19 109 112 117l1 2q-28 4 -51 26.5t-23 66.5q0 13 3 29l27 154q2 16 2 25q0 47 -48 47h-31l16 90h68q45 0 73 -24t28 -74q0 -10 -5 -43l-30 -170q-2 -14 -2 -20q0 -36 22.5 -53t49.5 -17l-16 -90q-31 0 -62.5 -22.5t-39.5 -67.5
l-29 -165q-26 -144 -125 -144z" />
    <glyph glyph-name="section.onum" horiz-adv-x="554" 
d="M182 -168q-102 0 -187 83l68 67q55 -58 126 -58q46 0 79 18.5t33 55.5q0 18 -16 33.5t-33.5 24.5t-50.5 23q-9 4 -14 6q-130 54 -130 148q0 55 34.5 96t92.5 63q-71 45 -71 113q0 81 62.5 128t153.5 47q115 0 185 -70l-75 -72q-43 49 -113 49q-44 0 -71.5 -22t-27.5 -56
q0 -12 6.5 -23.5t14 -19t23 -16t24.5 -12.5t28.5 -12l24.5 -10q57 -26 90 -57t33 -82q0 -54 -35.5 -96.5t-96.5 -62.5q31 -15 54 -46t23 -68q0 -83 -68 -127.5t-166 -44.5zM272 334q-40 0 -75.5 -23t-35.5 -63q0 -32 29 -50.5t68 -18.5q43 0 77 24t34 62q0 33 -28.5 51
t-68.5 18z" />
    <glyph glyph-name="numbersign.onum" horiz-adv-x="567" 
d="M236 0l43 124h-102l-42 -124h-88l42 124h-78l15 84h92l33 97h-82l15 83h96l40 118h88l-40 -118h101l41 118h88l-41 -118h82l-15 -83h-96l-33 -97h87l-15 -84h-100l-43 -124h-88zM239 305l-33 -97h102l32 97h-101z" />
    <glyph glyph-name="percent.onum" horiz-adv-x="630" 
d="M35 0l445 506h76l-445 -506h-76zM134 237q-48 0 -77 33t-29 86q0 69 39 112.5t96 43.5q46 0 75.5 -34t29.5 -87q0 -69 -39 -111.5t-95 -42.5zM140 298q23 0 41 24.5t18 67.5q0 29 -12 44.5t-31 15.5q-24 0 -41.5 -24.5t-17.5 -68.5q0 -28 12 -43.5t31 -15.5zM425 -6
q-47 0 -76 32.5t-29 85.5q0 69 38.5 112.5t95.5 43.5q47 0 76.5 -34t29.5 -88q0 -67 -40 -109.5t-95 -42.5zM432 55q22 0 40 24t18 67q0 30 -11.5 45.5t-30.5 15.5q-24 0 -41 -24.5t-17 -69.5q0 -28 11.5 -43t30.5 -15z" />
    <glyph glyph-name="perthousand.onum" horiz-adv-x="904" 
d="M42 0l444 506h75l-444 -506h-75zM139 237q-47 0 -76 33t-29 86q0 69 38.5 112.5t95.5 43.5q46 0 75.5 -34t29.5 -87q0 -69 -39 -111.5t-95 -42.5zM146 298q23 0 40.5 24t17.5 68q0 29 -12 44.5t-30 15.5q-24 0 -41.5 -24t-17.5 -69q0 -28 12 -43.5t31 -15.5zM431 -6
q-48 0 -76.5 32.5t-28.5 85.5q0 70 38 113t96 43q47 0 76.5 -34t29.5 -88q0 -67 -40 -109.5t-95 -42.5zM437 55q23 0 41 24t18 67q0 30 -12 45.5t-31 15.5q-24 0 -40.5 -24.5t-16.5 -69.5q0 -28 11 -43t30 -15zM705 -6q-47 0 -76 32.5t-29 85.5q0 69 38.5 112.5t95.5 43.5
q47 0 76.5 -34t29.5 -88q0 -67 -40 -109.5t-95 -42.5zM712 55q22 0 40 24t18 67q0 30 -11.5 45.5t-30.5 15.5q-24 0 -41 -24.5t-17 -69.5q0 -28 11.5 -43t30.5 -15z" />
    <glyph glyph-name="plus.onum" horiz-adv-x="553" 
d="M483 198h-178l-30 -169h-110l30 169h-178l19 107h178l30 170h110l-30 -170h177z" />
    <glyph glyph-name="minus.onum" horiz-adv-x="535" 
d="M464 197h-447l19 109h447z" />
    <glyph glyph-name="divide.onum" horiz-adv-x="534" 
d="M461 205h-442l15 87h442zM289 74q0 -32 -21.5 -54t-53.5 -22t-53.5 22t-21.5 54q0 31 22 52.5t53 21.5t53 -21.5t22 -52.5zM353 426q0 -31 -22 -53t-54 -22q-31 0 -53 21.5t-22 53.5t22 53.5t53 21.5q32 0 54 -22t22 -53z" />
    <glyph glyph-name="multiply.onum" horiz-adv-x="506" 
d="M467 377l-148 -127l103 -125l-88 -75l-103 126l-149 -127l-71 85l149 126l-97 119l89 74l96 -118l149 127z" />
    <glyph glyph-name="equal.onum" horiz-adv-x="576" 
d="M40 297l19 106h479l-19 -106h-479zM7 109l18 106h479l-18 -106h-479z" />
    <glyph glyph-name="less.onum" horiz-adv-x="574" 
d="M462 15l-444 187l18 104l510 187l-19 -115l-370 -129l325 -129z" />
    <glyph glyph-name="greater.onum" horiz-adv-x="574" 
d="M505 202l-509 -187l20 114l371 130l-326 129l19 105l444 -187z" />
    <glyph glyph-name="degree.onum" horiz-adv-x="346" 
d="M309 382q0 -61 -46 -104.5t-108 -43.5q-53 0 -88.5 35.5t-35.5 88.5q0 62 44.5 106t108.5 44q53 0 89 -36t36 -90zM162 309q26 0 47.5 20t21.5 48q0 24 -15.5 40t-39.5 16q-28 0 -48 -20.5t-20 -49.5q0 -23 15 -38.5t39 -15.5z" />
    <glyph glyph-name="zero.ostnum" 
d="M289 96q64 0 106.5 52.5t42.5 126.5q0 60 -32.5 97t-83.5 37q-61 0 -105.5 -50.5t-44.5 -128.5q0 -60 33 -97t84 -37zM559 279q0 -116 -78.5 -202.5t-200.5 -86.5q-103 0 -166 67t-63 168q0 121 78.5 206t200.5 85q104 0 166.5 -68t62.5 -169z" />
    <glyph glyph-name="one.ostnum" 
d="M84 104h156l51 285l-140 -48l-20 98l190 67h110l-71 -402h150l-18 -104h-427z" />
    <glyph glyph-name="two.ostnum" 
d="M285 98h221l-16 -98h-431l15 87l224 129q72 41 94 70t22 61q0 26 -19.5 43.5t-53.5 17.5q-71 0 -114 -85l-112 29q77 164 243 164q80 0 129.5 -45t49.5 -110q0 -68 -38.5 -117t-132.5 -99z" />
    <glyph glyph-name="three.ostnum" 
d="M508 360q0 -60 -36 -103.5t-94 -64.5q93 -39 93 -133q0 -71 -40 -124t-96 -76.5t-115 -23.5q-68 0 -120 26.5t-77 71.5l96 66q37 -55 101 -55q47 0 86 32.5t39 82.5q0 37 -27 59.5t-74 22.5h-53l19 100h57q48 0 84.5 29.5t36.5 74.5q0 28 -20 44.5t-54 16.5
q-63 0 -112 -72l-96 49q83 133 227 133q77 0 126 -44t49 -112z" />
    <glyph glyph-name="four.ostnum" 
d="M535 0h-91l-23 -132h-119l23 132h-300l20 111l351 395h137l-71 -407h90zM343 99l43 246l-219 -246h176z" />
    <glyph glyph-name="five.ostnum" 
d="M168 506h356l-19 -104h-251l-29 -130q39 15 85 15q83 0 135.5 -49.5t52.5 -132.5q0 -116 -76.5 -193t-194.5 -77q-58 0 -110.5 26.5t-78.5 69.5l96 64q14 -22 42.5 -36t60.5 -14q59 0 98.5 43.5t39.5 102.5q0 44 -26.5 70t-71.5 26q-40 0 -64.5 -9t-65.5 -32l-54 37z" />
    <glyph glyph-name="six.ostnum" 
d="M48 178q0 113 112 244l201 238h142l-206 -243l1 -1q27 12 59 12q79 0 129.5 -52t50.5 -130q0 -107 -82 -181.5t-198 -74.5q-92 0 -150.5 54t-58.5 134zM271 95q58 0 102 43.5t44 103.5q0 45 -26.5 72t-73.5 27q-61 0 -104.5 -43.5t-43.5 -106.5q0 -43 27.5 -69.5
t74.5 -26.5z" />
    <glyph glyph-name="seven.ostnum" 
d="M567 396l-384 -556h-132l386 559h-347l19 107h477z" />
    <glyph glyph-name="eight.ostnum" 
d="M268 -10q-96 0 -156.5 46.5t-60.5 123.5q0 66 40 116.5t107 75.5v2q-70 34 -70 110q0 92 73.5 146.5t178.5 54.5q88 0 142.5 -44.5t54.5 -114.5q0 -56 -32 -99t-88 -68v-2q90 -38 90 -130q0 -102 -81.5 -159.5t-197.5 -57.5zM334 381q50 0 88 28.5t38 79.5q0 34 -25 53.5
t-71 19.5q-49 0 -87 -29t-38 -79q0 -35 26 -54t69 -19zM283 93q56 0 101.5 29.5t45.5 84.5q0 37 -31.5 59t-81.5 22q-56 0 -101.5 -30t-45.5 -84q0 -38 31 -59.5t82 -21.5z" />
    <glyph glyph-name="nine.ostnum" 
d="M557 328q0 -67 -28.5 -122.5t-83.5 -121.5l-201 -244h-143l207 248l-1 1q-29 -11 -59 -11q-80 0 -130 51.5t-50 130.5q0 107 82 181.5t197 74.5q92 0 151 -54t59 -134zM334 410q-58 0 -102 -43t-44 -103q0 -45 26.5 -72t73.5 -27q61 0 104.5 43.5t43.5 105.5
q0 44 -27.5 70t-74.5 26z" />
    <glyph glyph-name="Euro.ostnum" 
d="M492 150l64 -69q-89 -91 -211 -91q-91 0 -150.5 47t-76.5 127h-89l10 59h73q0 33 6 65h-68l11 59h75q33 76 99.5 122.5t153.5 46.5q133 0 204 -93l-84 -67q-47 59 -121 59q-69 0 -114.5 -55.5t-45.5 -133.5q0 -63 35.5 -99.5t94.5 -36.5q69 0 134 60z" />
    <glyph glyph-name="dollar.ostnum" 
d="M213 -84l15 86q-48 4 -95 25.5t-79 52.5l65 77q19 -20 55 -38.5t70 -23.5l21 120q-154 46 -154 138q0 71 56 110.5t149 41.5l13 71h54l-12 -73q45 -5 88.5 -24t69.5 -47l-75 -70q-15 17 -43.5 32.5t-55.5 20.5l-23 -128q81 -30 119 -62t38 -80q0 -68 -57 -104t-151 -41
l-14 -84h-54zM225 357q0 -31 56 -51l20 111q-31 -3 -53.5 -17.5t-22.5 -42.5zM376 145q0 18 -14 30.5t-46 24.5l-18 -109q78 7 78 54z" />
    <glyph glyph-name="sterling.ostnum" 
d="M495 0h-459l17 99h84l17 97h-84l14 81h84l7 36q17 95 75.5 149t154.5 54q63 0 101 -17t70 -53l-75 -78q-35 43 -95 43q-96 0 -114 -105l-5 -29h180l-13 -81h-181l-17 -97h256z" />
    <glyph glyph-name="florin.ostnum" 
d="M94 294h136l18 48q29 85 74.5 129.5t122.5 44.5q51 0 95 -19l-25 -96q-31 14 -61 14q-64 0 -93 -79l-16 -42h153l-12 -96h-174l-130 -359h-114l129 359h-115z" />
    <glyph glyph-name="yen.ostnum" 
d="M114 506h120l86 -202h1l156 202h130l-168 -215h106l-11 -59h-141l-29 -37l-3 -18h163l-10 -59h-163l-21 -118h-117l21 118h-161l10 59h161l3 18l-16 37h-138l11 59h102z" />
    <glyph glyph-name="cent.ostnum" 
d="M452 153l63 -68q-85 -85 -193 -89h-9l-19 -110h-53l20 113q-84 14 -132.5 75t-48.5 149q0 118 76 202t195 85l16 94h53l-17 -99q95 -16 148 -85l-82 -66q-36 44 -84 54l-54 -314q63 4 121 59zM193 226q0 -49 22.5 -82.5t63.5 -44.5l54 312q-61 -7 -100.5 -60t-39.5 -125z
" />
    <glyph glyph-name="space.ostnum" horiz-adv-x="325" 
 />
    <glyph glyph-name="comma.ostnum" horiz-adv-x="325" 
d="M190 73q0 -28 -22 -56l-121 -145h-53l77 137q-32 24 -32 62q0 31 22.5 53t53.5 22q33 0 54 -21t21 -52z" />
    <glyph glyph-name="semicolon.ostnum" horiz-adv-x="325" 
d="M254 432q0 -31 -22 -53t-54 -22t-53.5 21.5t-21.5 53.5t21.5 53.5t53.5 21.5t54 -22t22 -53zM190 73q0 -28 -22 -56l-121 -145h-53l77 137q-32 24 -32 62q0 31 22.5 53t53.5 22q33 0 54 -21t21 -52z" />
    <glyph glyph-name="colon.ostnum" horiz-adv-x="325" 
d="M191 71q0 -31 -22.5 -53.5t-53.5 -22.5t-53 22t-22 54q0 31 22 53t53 22t53.5 -22t22.5 -53zM255 432q0 -32 -21.5 -53.5t-53.5 -21.5t-53.5 21.5t-21.5 53.5t21.5 53.5t53.5 21.5t53.5 -21.5t21.5 -53.5z" />
    <glyph glyph-name="period.ostnum" horiz-adv-x="325" 
d="M190 71q0 -31 -22 -53.5t-54 -22.5q-31 0 -53 22t-22 54q0 31 22 53t53 22t53.5 -22t22.5 -53z" />
    <glyph glyph-name="parenleft.ostnum" horiz-adv-x="325" 
d="M213 -142l-91 -46q-91 169 -91 346q0 272 230 538l82 -49q-208 -244 -208 -491q0 -148 78 -298z" />
    <glyph glyph-name="parenright.ostnum" horiz-adv-x="325" 
d="M31 -190l-80 51q207 248 207 492q0 142 -78 295l91 48q91 -169 91 -344q0 -275 -231 -542z" />
    <glyph glyph-name="bracketleft.ostnum" horiz-adv-x="325" 
d="M-24 -190l157 890h219l-16 -93h-107l-124 -704h107l-17 -93h-219z" />
    <glyph glyph-name="bracketright.ostnum" horiz-adv-x="325" 
d="M322 700l-157 -890h-218l17 93h106l123 704h-107l17 93h219z" />
    <glyph glyph-name="braceleft.ostnum" horiz-adv-x="325" 
d="M197 -190h-56q-47 0 -77.5 28.5t-30.5 83.5q0 20 4 40l27 157q2 14 2 20q0 36 -23 53t-50 17l16 90q31 0 62.5 22.5t39.5 67.5l31 177q24 134 129 134h76l-16 -90h-24q-57 0 -70 -72l-30 -169q-18 -102 -113 -116l-1 -3q29 -3 51.5 -25.5t22.5 -67.5q0 -14 -3 -32
l-27 -154q-3 -12 -3 -24q0 -47 49 -47h30z" />
    <glyph glyph-name="braceright.ostnum" horiz-adv-x="325" 
d="M20 -190h-82l16 90h24q58 0 71 71l31 172q19 109 113 117l1 2q-28 4 -51.5 26.5t-23.5 66.5q0 13 3 29l27 154q3 12 3 25q0 47 -49 47h-30l16 90h68q44 0 72 -24t28 -74q0 -21 -5 -43l-30 -170q-2 -14 -2 -20q0 -36 22.5 -53t49.5 -17l-16 -90q-31 0 -62 -22.5t-39 -67.5
l-29 -165q-26 -144 -126 -144z" />
    <glyph glyph-name="section.ostnum" 
d="M223 -168q-102 0 -187 83l68 67q55 -58 126 -58q47 0 79.5 18t32.5 56q0 18 -16 33.5t-33.5 24.5t-50.5 23q-9 4 -14 6q-130 54 -130 148q0 55 34.5 96t92.5 63q-71 45 -71 113q0 81 62.5 128t153.5 47q117 0 185 -70l-74 -72q-45 49 -114 49q-43 0 -71 -22t-28 -56
q0 -12 6.5 -23.5t14 -19t23 -16t24.5 -12.5t28.5 -12l24.5 -10q58 -27 91 -57.5t33 -81.5q0 -54 -36 -96.5t-97 -62.5q31 -15 54.5 -46t23.5 -68q0 -83 -68 -127.5t-167 -44.5zM314 334q-41 0 -76.5 -23t-35.5 -63q0 -32 29 -50.5t68 -18.5q43 0 77 24t34 62q0 33 -28 51
t-68 18z" />
    <glyph glyph-name="numbersign.ostnum" 
d="M278 0l42 124h-101l-43 -124h-88l43 124h-79l15 84h92l33 97h-82l15 83h96l41 118h88l-41 -118h102l40 118h88l-40 -118h81l-15 -83h-96l-32 -97h86l-15 -84h-100l-42 -124h-88zM280 305l-33 -97h102l32 97h-101z" />
    <glyph glyph-name="percent.ostnum" 
d="M55 0l433 506h74l-433 -506h-74zM139 237q-47 0 -76 32t-29 85q0 69 39 113.5t95 44.5q46 0 75.5 -33t29.5 -86q0 -69 -39 -112.5t-95 -43.5zM146 298q23 0 40.5 24t17.5 68q0 29 -12 44.5t-31 15.5q-24 0 -41 -24t-17 -69q0 -28 12 -43.5t31 -15.5zM447 -6q-47 0 -76 32
t-29 85q0 69 38.5 113t95.5 44q47 0 76.5 -33.5t29.5 -87.5q0 -67 -40 -110t-95 -43zM454 55q22 0 40 24t18 67q0 30 -11.5 45.5t-30.5 15.5q-24 0 -41 -24.5t-17 -69.5q0 -28 11.5 -43t30.5 -15z" />
    <glyph glyph-name="perthousand.ostnum" 
d="M-11 0l393 506h58l-393 -506h-58zM109 265q-39 0 -63 28t-24 75q0 62 31 102.5t77 40.5q39 0 63 -28.5t24 -76.5q0 -62 -31 -101.5t-77 -39.5zM112 316q21 0 36 22.5t15 64.5q0 27 -10 42t-26 15q-20 0 -35.5 -23t-15.5 -63q0 -28 10 -43t26 -15zM295 -5q-40 0 -64 28
t-24 74q0 63 30.5 103.5t77.5 40.5q39 0 63 -28.5t24 -76.5q0 -62 -30.5 -101.5t-76.5 -39.5zM297 46q20 0 35.5 22.5t15.5 63.5q0 28 -10 43t-26 15q-20 0 -35.5 -23t-15.5 -64q0 -57 36 -57zM511 -5q-39 0 -63.5 28t-24.5 74q0 63 31 103.5t78 40.5q38 0 62.5 -29
t24.5 -76q0 -62 -31 -101.5t-77 -39.5zM514 46q20 0 35 22.5t15 63.5q0 28 -10 43t-26 15q-20 0 -35.5 -23t-15.5 -64q0 -57 37 -57z" />
    <glyph glyph-name="plus.ostnum" 
d="M556 198h-204l-30 -169h-110l30 169h-203l19 107h203l30 170h110l-30 -170h203z" />
    <glyph glyph-name="minus.ostnum" 
d="M540 197h-483l19 109h482z" />
    <glyph glyph-name="divide.ostnum" 
d="M542 205h-490l15 87h490zM351 74q0 -32 -22 -54t-54 -22t-53.5 22t-21.5 54q0 31 22 52.5t53 21.5q32 0 54 -21.5t22 -52.5zM414 426q0 -31 -22 -53t-54 -22t-53.5 21.5t-21.5 53.5t21.5 53.5t53.5 21.5t54 -22t22 -53z" />
    <glyph glyph-name="multiply.ostnum" 
d="M544 377l-148 -127l103 -125l-88 -75l-103 126l-149 -127l-71 85l148 126l-96 119l88 74l97 -118l149 127z" />
    <glyph glyph-name="equal.ostnum" 
d="M71 297l19 106h490l-18 -106h-491zM38 109l19 106h490l-19 -106h-490z" />
    <glyph glyph-name="less.ostnum" 
d="M494 15l-444 187l19 104l510 187l-20 -115l-370 -129l325 -129z" />
    <glyph glyph-name="greater.ostnum" 
d="M551 202l-509 -187l20 114l371 130l-326 129l19 105l443 -187z" />
    <glyph glyph-name="degree.ostnum" horiz-adv-x="325" 
d="M304 382q0 -61 -46 -104.5t-108 -43.5q-54 0 -89.5 35.5t-35.5 88.5q0 62 45 106t108 44q54 0 90 -36t36 -90zM157 309q26 0 47 20t21 48q0 24 -15 40t-39 16q-28 0 -48 -20.5t-20 -49.5q0 -23 15 -38.5t39 -15.5z" />
    </font>
</defs>
</svg>
